<svg id="Слой_3" viewBox="0 0 1125 2436" x="0" xml:space="preserve" xmlns="http://www.w3.org/2000/svg" y="0" ><style>.st0{fill:none;stroke:#000;stroke-width:4;stroke-linecap:round;stroke-linejoin:round;stroke-miterlimit:10}</style><linearGradient gradientUnits="userSpaceOnUse" id="SVGID_1_" x1="0" x2=".707" y1="0" y2=".707" ><stop offset="0" style="stop-color:#dedfe3"/><stop offset=".178" style="stop-color:#dadbdf"/><stop offset=".361" style="stop-color:#cecfd3"/><stop offset=".546" style="stop-color:#b9bcbf"/><stop offset=".732" style="stop-color:#9ca0a2"/><stop offset=".918" style="stop-color:#787d7e"/><stop offset="1" style="stop-color:#656b6c"/></linearGradient><path d="M1124.5 634.7c-1.1-.2-2.1.4-2.4 1.5-.2 1.1.4 2.1 1.5 2.4.5.1.9.2 1.3.3v-4.1c-.1 0-.2 0-.4-.1"/><path d="M1109.3 621.4c-.9 0-1.7.7-1.9 1.6s-5 23.1 5.2 36c3.1 3.9 7.3 6.6 12.4 7.9v-4.2c-3.8-1.2-7-3.2-9.3-6.2-7.6-9.6-5.6-26-4.7-31.1 5.1 0 9.8.2 14 .8v-4c-4.7-.7-10-.9-15.7-.8"/><path class="st0" d="M186 1181.3c-19.4-4.3-34.2-16.7-39.3-40.2-8.5-38.9 16.2-77.3 55.1-85.7s77.3 16.2 85.7 55.1c5.1 23.4-3 40.7-18.8 52.7m-27.6 13.7c-3.9 1.2-8 2.3-12.2 3.2-4.9 1.1-9.8 1.9-14.5 2.4" /><path class="st0" d="M215.8 1127.7c-12.7 2.8-20.8 15.3-18 28.1 2.8 12.7 14.2 15.5 26.9 12.8 12.7-2.8 21.9-10.1 19.2-22.8-2.8-12.8-15.4-20.9-28.1-18.1" /><path class="st0" d="M217.3 1134.5c-5.4 1.2-9.5 3.3-8.6 7.5s6.5 8.7 11.9 7.5 8.6-7.6 7.7-11.8-5.6-4.3-11-3.2m-27.7-17.2c-2.4.5-3.4 4.9-2.3 9.8s3.9 8.5 6.2 8c2.4-.5 3.4-4.9 2.3-9.8-1-5-3.8-8.5-6.2-8m45.9-10c-2.4.5-3.4 4.9-2.3 9.8s3.9 8.5 6.2 8c2.4-.5 3.4-4.9 2.3-9.8-1-5-3.8-8.5-6.2-8m-3.8 43.3c1.2 5.7-2.4 11.4-8.1 12.6s-11.4-2.4-12.6-8.1m9.6-5.6 3 13.7m-80.1-36.7c-13.8-.2-26.3-9.8-29.3-24-3.6-16.4 6.8-32.6 23.3-36.2 10.2-2.2 20.2.9 27.3 7.6" /><path class="st0" d="M144.6 1114.8c-8.3-.1-15.7-5.9-17.5-14.3-2.1-9.8 4.1-19.4 13.9-21.6 6.1-1.3 12.1.6 16.3 4.5m121.7 1.2c7.4-3.5 11.7-11.8 9.9-20.2-2.1-9.8-11.8-16-21.5-13.9-6 1.3-10.7 5.5-12.9 10.8" /><path class="st0" d="M283.2 1096.1c12.3-5.9 19.5-19.8 16.4-33.9-3.6-16.4-19.6-26.9-35.8-23.3-10 2.2-17.8 9.2-21.3 18.1m-26 202c9.1 3.1 13.9 6.4 25.1 7.2m-9.4-66.1c-2.1-1.2-24.9-37.1-54.4-13.7-9.7 7.7-12.7 18.5-9.8 29.6m92.8 34.7c-3.1 4.3-14.3 13-18.4 15.3m-10.2-65.9c1.3-2 6.9-44 42.6-34.8 12.7 3.3 20.1 13 21.7 25.6" /><path class="st0" d="M162.5 1217.9s42.3-13.3 41.5 31.7" /><path class="st0" d="M174.4 1177.5s-64.8 46.5-23.5 85.2m55.8-10.2c-4.1-2.3-8.6-3.8-13.1-4.7-12.2-2.3-24.9.5-33.6 8.4-15.1 13.7-12.5 37.2 3.4 54.7s41 20.7 56.1 7.1 14.4-38.9-1.5-56.5c-3.3-3.8-7.2-6.8-11.3-9" /><path class="st0" d="M172.7 1270.7c-9.1 8.2-7.5 22.3 2 32.9 9.5 10.5 24.6 12.4 33.7 4.2s8.7-23.4-.9-33.9c-9.5-10.5-25.7-11.4-34.8-3.2m127.8-79.5s-44.4 1-29 43.4" /><path class="st0" d="M276.2 1156.8s76.3 23.1 49.7 73m-10.7-3.2c-10.8-4.6-23.7-3.3-34.5 2.9-4 2.3-7.7 5.2-10.8 8.7-3.2 3.5-5.9 7.6-7.9 12.2-9.4 21.7-1.8 45.9 16.9 53.9s41.4-3 50.8-24.8c9.3-21.7 4.1-44.9-14.5-52.9" /><path class="st0" d="M307.9 1244.5c-11.2-4.8-26.3 1.2-31.9 14.3s-1.1 27.6 10.1 32.4 24.9-1.8 30.5-14.9 2.5-27-8.7-31.8m-77.5 49.1s18.1 2.2 31.2-6.8m550.9-759.6c-28.2-8-48.1 5.1-55.9 20-6.7 12.6-1.9 26.1-15.9 35.1-27.4 17.6-39.3-11.7-39.3-11.7-16.9 53.7 27.8 86.3 62.5 90.8 27.2 3.6 48.7-7.1 62.3-22.4 9.8-11 23-43.5 19.5-71.6.5 6.8-11.1-34-33.2-40.2" /><path class="st0" d="M845.6 567.2c-.1-.6-.2-1.6-.4-3.1.2 1.1.3 2.1.4 3.1M801 604.1c12.5 13.2-8.8 45.4-47 21-18.3-11.7 16.2-7.3 16.2-7.3" /><path class="st0" d="M768.5 606.9c-1.9.6-26.4.2-17.7 10.8" /><path class="st0" d="M766.8 599.1c-.8.3-20.1 3.3-14.5 10.6m51.8-41.9c1.2-5.7 6.8-9.2 12.5-8s9.2 6.8 8 12.5m-55.2 89.5-4.5 20.6 12.5 2.7" /><path class="st0" d="M768.7 695c-.5-1.3-3.8-12.6-3.8-12.6l11.4 10.3m-28.2-35.5-4.5 20.6 12.5 2.7m-8.7 9.9c-.5-1.3-3.8-12.6-3.8-12.6l11.4 10.3m90.9-118.9 17.7 6.2s-6.6 14.8-17.7 13.7m132.9 44.2c-9.1-13.9.8-24.2-.1-38.5-1.1-16.8-13.9-36.8-42.9-41.1-18.4-2.7-35.8 6.7-45 20.4-16.3 24.2-17.7 61.4-13.2 75.9 6.1 19.5 21.3 38.1 47.6 46 33.5 10 87.6-1.4 94.2-57.3 0-.1-22.9 21.8-40.6-5.4" /><path class="st0" d="M914.8 628.6c-16.8 6.9-10.6 45 34.3 38.4 21.5-3.2-11.8-13.3-11.8-13.3" /><path class="st0" d="M943.3 644.5c1.5 1.3 23.9 11 11.7 17.1" /><path class="st0" d="M948 638c.6.5 17 11.2 8.9 15.6m-30.1-59.5c1.2-5.7-2.4-11.2-8.1-12.4s-11.2 2.4-12.4 8.1M920 694.2l-4.3 20.6-12.5-2.6m3.9 12.6c1-1 8.6-9.9 8.6-9.9l-14.6 4.8m40.2-21.1-4.3 20.7-12.6-2.6m3.9 12.5c1-1 8.6-9.9 8.6-9.9l-14.6 4.8m-34.2-145.8-18.6-1.6s0 16.2 10.5 19.7m-2.4-62.9s-5.9-14.2-17.7-7.2c-11.5 6.8-2.2 23.1 12 30.1m5.7-22.9s10.2-10.6 17.8 0c7.8 10.8-6.9 22.1-22.6 23.1m125 277.6c-3.3-4.4-23.2-7.2-27.6-23.7s-28.7-22.7-40-5.3c-1.9 2.9-3.5 8.9-3.5 8.9l-14.4 6.5 16.5 7.9s3.4 7.5 4.4 10.4c3.8 11-14.6 124.1 113.2 75.3 0 0 30.2 12.6 48.3-4.4" /><path class="st0" d="M1046.4 861.2s10.2 10.9 12.9 21.4c2.7 10.4 51.8 9 57.3 8 5.5-1.1-13.2 27.4-40.6 14.3m-83.3-50c0-2.2 2.7-24.1 18.6-46.1 15.9-21.9 26.3-53.7 13.7-72.9s43.3-1.1 21.4 44.4" /><path class="st0" d="M1050.3 750.3s35.1 10.3 7.7 50.8" /><path class="st0" d="M1066.4 785s20.9 22.6-11.2 45.3" /><path class="st0" d="M1015.7 876.7c.8-3.3 17.6-13 35.9-18.9 31.8-10.3 30.3-43.9 17.6-41.7m-122.6-7.2c-1.7 0-3.2 2.5-3.2 5.5s1.4 5.5 3.2 5.5 3.2-2.5 3.2-5.5c-.1-3-1.5-5.5-3.2-5.5m46.1 117.4s2.3 11.9 15.4 10m-4.6-10s1.1 8.1 14.9 5.1M744.2 96s33.6 17.7 43.2-14.3" /><path class="st0" d="M749.2 99.4c-2.4 2-29.5 29.5-50.5 21.8 0 0 17.4-31.1 27.5-42.4s24-5 34-5.5c10-.6 9.7-20.4 31.5-17.2s48.8 15.1 48.8 15.1-14.5 23.5-54.6 14.6m-77.4 47.4s25.8-15.1 32-14.4 28.3 4.8 39.4-.6c11.2-5.4 24.1-22.1 28.1-23.1s31.4-7.4 31.4-7.4 3.6 49.9-45.9 66.8c-48.8 16.7-80.9-8.5-85.2-20.3m-512.4 59.1s62.2-57.2 96.3-20.6-14.6 124-120.1 137.2" /><path class="st0" d="M196.4 193.4s-34.2-77.2-80.2-57.2-36 119.5 55.5 173.6" /><path class="st0" d="M183.3 299.2c-3.4.6-6.8 1.2-10.2 1.6m102.2-54.6c-14.6 18.5-37.3 35.7-66.1 46m21.8-114c18.4-9.6 40.1-15 54.5.4 11.3 12.1 10.7 31.4.5 51m-89.6-27.2s3.4-3.2 9-7.5m-103.8 15.9c7.9 31.2 31.2 66.2 71.5 90M187 195.1s-27.7-66.3-67.2-49.1c-14.8 6.5-22.1 23.3-21.3 44.3m118.7 24.4-9.4-1.9c-3.1-.6-6.2 1.4-6.8 4.5l-1.9 9.4c-.6 3.1 1.4 6.2 4.5 6.8l9.4 1.9c3.1.6 6.2-1.4 6.8-4.5l1.9-9.4c.6-3.1-1.4-6.1-4.5-6.8" /><path class="st0" d="M220.9 217.6s27.4-21.1 37.1-6.7c8.4 12.5-7.8 20.2-7.8 20.2s13.6 18.1-.1 23.5-32.5-20.3-32.5-20.3m-15.8-21.2c2.6 3.3-15.2-27.9-31.6-20.6-13.8 6.1-.7 21.6-.7 21.6s-19.5 11.4-9.1 21.7c10.5 10.3 37.9-6 37.9-6" /><path class="st0" d="M200 232.8s-15.4 24-19.8 35.5c0 0-12.3-5.6-18.4-17.3 0 0 3.8-7.2 8.6-11.8m45.9-2s4.3 28.1 3.6 40.5c0 0 13.5-.1 23.9-8.3 0 0-.5-8.1-3-14.3M197 237.5l-14.4 70.8M208 183.5l-5.8 28.9m14.7 32.9L205.3 302m27.2-133.4-9.5 46.5m35 9.6 37.4 7.7M91 190.7l74 15.1m90.6 36.3 28.8 5.9M92.2 208.8l66.4 13.6m27.5-3c1.6 7.7 13.9 0 13.9 0s-15.6-7.6-13.9 0m36.4 5.6s9.9 11.8 14.2 5.2-14.2-5.2-14.2-5.2m849.2 1893.6c-4.7-12.8-23.4-13.6-27.4-2.8-9 24.7 30.1 30.4 30.1 30.4" /><path class="st0" d="M1071.7 2118.6c1.9-13.5 18.9-17.9 24.6-8 13.1 22.5-21.9 35.6-21.9 35.6m-473.2 128.5c1.4-13.6-15.1-22.5-23.4-14.5-18.9 18.3 13.8 40.5 13.8 40.5m9.6-26c7.6-11.3 24.8-7.8 25.7 3.6 1.9 26-35.2 22.4-35.2 22.4m489-46.6c1.4-13.6-15.1-22.5-23.4-14.5-18.9 18.3 13.8 40.5 13.8 40.5m9.6-26c7.6-11.3 24.8-7.8 25.7 3.6 1.9 26-35.2 22.4-35.2 22.4m-533.4-413.4c-4.8-12.8-23.5-13.4-27.4-2.5-8.8 24.8 30.4 30.1 30.4 30.1m-3-27.6c1.7-13.5 18.7-18 24.6-8.2 13.3 22.4-21.5 35.8-21.5 35.8m38 29.6c2.7-10.2-8.7-19-16-13.9-16.7 11.6 5.5 32.5 5.5 32.5m10.5-18.6c7.1-7.7 19.9-2.9 19.1 5.9-1.7 20-29.6 12.7-29.6 12.7M366.9 68c-7.2-7.7-20.7-2.5-20.2 6.4 1.1 20.3 30.6 12.3 30.6 12.3" /><path class="st0" d="M366.9 68c-2.8-10.1 7.9-18.4 15-13.2 16.1 12-4.6 31.9-4.6 31.9m670.3 1765.2c2.7-10.2-8.7-19-16-13.9-16.7 11.6 5.5 32.5 5.5 32.5m10.5-18.6c7.1-7.7 19.9-2.9 19.1 5.9-1.7 20-29.6 12.7-29.6 12.7M987 1655.1c-3.1-10.1-17.5-11.4-21-3.1-7.9 18.7 22.1 24.5 22.1 24.5" /><path class="st0" d="M987 1655.1c1.9-10.3 15.2-13.1 19.3-5.2 9.2 17.8-18.2 26.6-18.2 26.6M477.5 977.8c-3.1-10.1-17.5-11.4-21-3.1-7.9 18.7 22.1 24.5 22.1 24.5" /><path class="st0" d="M477.5 977.8c1.9-10.3 15.2-13.1 19.3-5.2 9.2 17.8-18.2 26.6-18.2 26.6M413 1498.3c2.7-10.2-8.7-19-16-13.9-16.7 11.6 5.5 32.5 5.5 32.5m10.5-18.6c7.1-7.7 19.9-2.9 19.1 5.9-1.7 20-29.6 12.7-29.6 12.7m697.1-86.6c2.7-10.2-8.7-19-16-13.9-16.7 11.6 5.5 32.5 5.5 32.5m10.5-18.6c7.1-7.7 19.9-2.9 19.1 5.9-1.7 20-29.6 12.7-29.6 12.7m-277 126.7c-4.8-12.8-23.5-13.4-27.4-2.5-8.8 24.8 30.4 30.1 30.4 30.1m-3-27.6c1.7-13.5 18.7-18 24.6-8.2 13.3 22.4-21.5 35.8-21.5 35.8m-208.3-317.5c-4.8-12.8-23.5-13.4-27.4-2.5-8.8 24.8 30.4 30.1 30.4 30.1m-3-27.6c1.7-13.5 18.7-18 24.6-8.2 13.3 22.4-21.5 35.8-21.5 35.8M69.8 831.1c-4.8-12.8-23.5-13.4-27.4-2.5-8.8 24.8 30.4 30.1 30.4 30.1m-3-27.6c1.7-13.5 18.7-18 24.6-8.2 13.3 22.4-21.5 35.8-21.5 35.8m281.5-99.6c-4.8-12.8-23.5-13.4-27.4-2.5-8.8 24.8 30.4 30.1 30.4 30.1m-3-27.6c1.7-13.5 18.7-18 24.6-8.2 13.3 22.4-21.5 35.8-21.5 35.8M1001 985.5c-4.8-12.8-23.5-13.4-27.4-2.5-8.8 24.8 30.4 30.1 30.4 30.1m-3-27.6c1.7-13.5 18.7-18 24.6-8.2 13.3 22.4-21.5 35.8-21.5 35.8m-150.9 619.7c2.7-10.2-8.7-19-16-13.9-16.7 11.6 5.5 32.5 5.5 32.5m10.5-18.6c7.1-7.7 19.9-2.9 19.1 5.9-1.7 20-29.6 12.7-29.6 12.7M662 1361.8c2.7-10.2-8.7-19-16-13.9-16.7 11.6 5.5 32.5 5.5 32.5m10.5-18.6c7.1-7.7 19.9-2.9 19.1 5.9-1.7 20-29.6 12.7-29.6 12.7m181-641.7c2.7-10.2-8.7-19-16-13.9-16.7 11.6 5.5 32.5 5.5 32.5" /><path class="st0" d="M832.5 738.7c7.1-7.7 19.9-2.9 19.1 5.9-1.7 20-29.6 12.7-29.6 12.7M57.4 518.5c2.7-10.2-8.7-19-16-13.9-16.7 11.6 5.5 32.5 5.5 32.5" /><path class="st0" d="M57.4 518.5c7.1-7.7 19.9-2.9 19.1 5.9-1.7 20-29.6 12.7-29.6 12.7m877-480.3c2.7-10.2-8.7-19-16-13.9-16.7 11.6 5.5 32.5 5.5 32.5" /><path class="st0" d="M923.9 56.8c7.1-7.7 19.9-2.9 19.1 5.9-1.7 20-29.6 12.7-29.6 12.7M638.8 318.2c-5.8-8.8-20-6-21 2.9-2.3 20.2 28.1 17.3 28.1 17.3" /><path class="st0" d="M638.8 318.2c-1-10.4 10.9-16.8 17-10.4 13.9 14.5-10 30.6-10 30.6m427.4 660.5c2.7-10.2-8.7-19-16-13.9-16.7 11.6 5.5 32.5 5.5 32.5m10.5-18.6c7.1-7.7 19.9-2.9 19.1 5.9-1.7 20-29.6 12.7-29.6 12.7m-334.9-6.8c2.7-10.2-8.7-19-16-13.9-16.7 11.6 5.5 32.5 5.5 32.5m10.5-18.6c7.1-7.7 19.9-2.9 19.1 5.9-1.7 20-29.6 12.7-29.6 12.7M264.2 2109.6c-4.8-12.8-23.5-13.4-27.4-2.5-8.8 24.8 30.4 30.1 30.4 30.1m-3-27.6c1.7-13.5 18.7-18 24.6-8.2 13.3 22.4-21.5 35.8-21.5 35.8m38 29.6c2.7-10.2-8.7-19-16-13.9-16.7 11.6 5.5 32.5 5.5 32.5" /><path class="st0" d="M305.3 2166.8c7.1-7.7 19.9-2.9 19.1 5.9-1.7 20-29.6 12.7-29.6 12.7m-46.3 56.2c-5.8-8.8-20-6-21 2.9-2.3 20.2 28.1 17.3 28.1 17.3" /><path class="st0" d="M248.5 2241.6c-1.1-10.4 10.9-16.8 17-10.4 13.9 14.5-10 30.6-10 30.6M54.9 2220c-1.1-10.5-14.9-14.6-19.9-7.2-11.4 16.8 16.8 28.4 16.8 28.4" /><path class="st0" d="M54.9 2220c3.9-9.7 17.5-9.8 19.9-1.3 5.5 19.3-23.1 22.5-23.1 22.5m473.2 48.1c-5.8-8.8-20-6-21 2.9-2.3 20.2 28.1 17.3 28.1 17.3" /><path class="st0" d="M524.9 2289.3c-1.1-10.4 10.9-16.8 17-10.4 13.9 14.5-10 30.6-10 30.6m77.5-738.2c-1.9-13.5-20-18.2-26.2-8.4-14 22.3 23.1 36 23.1 36m3.1-27.6c4.6-12.8 22.2-13.5 25.8-2.7 8.1 24.8-28.8 30.3-28.8 30.3M733.2 296c-1.9-13.5-20-18.2-26.2-8.4-14 22.3 23.1 36 23.1 36m3.1-27.6c4.6-12.8 22.2-13.5 25.8-2.7 8.1 24.8-28.8 30.3-28.8 30.3M71 25.6c-1.9-13.5-20-18.2-26.2-8.4-14 22.3 23.1 36 23.1 36M71 25.6c4.6-12.8 22.2-13.5 25.8-2.7C104.9 47.7 68 53.2 68 53.2m239.5 896.1c-1.9-13.5-20-18.2-26.2-8.4-14 22.3 23.1 36 23.1 36m3.1-27.6c4.6-12.8 22.2-13.5 25.8-2.7 8.1 24.8-28.8 30.3-28.8 30.3M68.4 1167c-1.9-13.5-20-18.2-26.2-8.4-14 22.3 23.1 36 23.1 36m3.1-27.6c4.6-12.8 22.2-13.5 25.8-2.7 8.1 24.8-28.8 30.3-28.8 30.3m334.2 4.2c-1.9-13.5-20-18.2-26.2-8.4-14 22.3 23.1 36 23.1 36m3.1-27.6c4.6-12.8 22.2-13.5 25.8-2.7 8.1 24.8-28.8 30.3-28.8 30.3m158 398.7c-5.8-8.8-20-6-21 2.9-2.3 20.2 28.1 17.3 28.1 17.3" /><path class="st0" d="M554.6 1625.1c-1.1-10.4 10.9-16.8 17-10.4 13.9 14.5-10 30.6-10 30.6M580 555.8c-5.8-8.8-20-6-21 2.9-2.3 20.2 28 17.3 28 17.3" /><path class="st0" d="M580 555.8c-1.1-10.4 10.9-16.8 17-10.4 13.9 14.5-10 30.6-10 30.6M35.3 118.9c-5.8-8.8-20-6-21 2.9-2.3 20.2 28 17.3 28 17.3m-7-20.2c-1.1-10.4 10.9-16.8 17-10.4 13.9 14.5-10 30.6-10 30.6m170.1 851.5c-5.8-8.8-20-6-21 2.9-2.3 20.2 28.1 17.3 28.1 17.3" /><path class="st0" d="M212.4 990.6c-1.1-10.4 10.9-16.8 17-10.4 13.9 14.5-10 30.6-10 30.6m158.4 303.3c-5.8-8.8-20-6-21 2.9-2.3 20.2 28.1 17.3 28.1 17.3" /><path class="st0" d="M377.8 1314.1c-1.1-10.4 10.9-16.8 17-10.4 13.9 14.5-10 30.6-10 30.6m-183.9 303.9c-5.8-8.8-20-6-21 2.9-2.3 20.2 28.1 17.3 28.1 17.3" /><path class="st0" d="M200.9 1638.2c-1.1-10.4 10.9-16.8 17-10.4 13.9 14.5-10 30.6-10 30.6m-82.5 270.7c.9-10.5-11.9-17.2-18.2-10.9-14.4 14.3 11.1 31.1 11.1 31.1m7.1-20.2c5.7-8.8 19.1-6.3 19.8 2.5 1.7 20-26.9 17.7-26.9 17.7m899.7 261.2c-6.9-7.9-20.6-3.3-20.5 5.6.4 20.3 30.1 13.5 30.1 13.5" /><path class="st0" d="M1018 2210.5c-2.4-10.2 8.7-18.1 15.5-12.6 15.6 12.6-5.9 31.7-5.9 31.7m-657.7 155c1.3-10.4-11.2-17.6-17.7-11.6-15 13.7 9.8 31.5 9.8 31.5m7.9-19.9c6.1-8.6 19.3-5.5 19.7 3.3.9 20.1-27.6 16.6-27.6 16.6m434.3-19c-5.8-8.8-20-6-21 2.9-2.3 20.2 28.1 17.3 28.1 17.3" /><path class="st0" d="M796.3 2385.5c-1.1-10.4 10.9-16.8 17-10.4 13.9 14.5-10 30.6-10 30.6m-17.7-520.9c-4.9-9.3-19.3-8-21.2.6-4.4 19.8 26.1 20.2 26.1 20.2m-4.9-20.8c0-10.5 12.6-15.6 18-8.6 12.3 15.9-13.1 29.4-13.1 29.4m-730 106c-4.9-9.3-19.3-8-21.2.6-4.4 19.8 26.1 20.2 26.1 20.2m-4.9-20.8c0-10.5 12.6-15.6 18-8.6 12.3 15.9-13.1 29.4-13.1 29.4m11.4-174c-7.9-11.2-26.1-7-27.1 4.5-2.2 26.2 37 21.4 37 21.4m-9.9-25.9c-1.7-13.5 13.6-22.2 21.7-14.2 18.5 18.3-11.8 40.1-11.8 40.1m94.4 376.7c-2.7-6-9.8-8.8-15.8-6.1l-109.9 48.5c-6 2.7-8.8 9.8-6.1 15.8l31.6 71.5c2.7 6 9.8 8.8 15.8 6.1l109.9-48.5c6-2.7 8.8-9.8 6.1-15.8z" /><path class="st0" d="M130.9 2325.2c-5.5-7-17.3-3.7-17.6 3.8-.6 17.2 24.9 12.8 24.9 12.8m-7.3-16.6c-1.6-8.8 8.1-15 13.7-10 12.7 11.4-6.4 26.6-6.4 26.6m10.9-13.6 62.9 12m-160.6-30.7 65.9 12.6m21-8.9 34.8-57.5M89 2394.5l32.5-53.6m-62.6-23.7 10.6 24.2m-3.8-23.6 4.7 10.7m88-61.5-17.8 7.8M472.8 840.2s9.3-44.5 39.2-38.8 26.5 72.6-22.1 104m-38.1-10.1c10.8 5.7 23.5 9.6 37.3 10.4m-17.3-65.3s-30.1-34.1-53.3-14.3c-15.2 12.9-5 41.6 20 60.7m89.1-73.1 8.2-7.2m-61.4 67.3-57.9 50.5c-2.3 2-5.9 1.8-8-.5h0c-2-2.3-1.8-5.9.5-8l57.8-50.4m75.6-50-11.7 10.2" /><path class="st0" d="m411.9 913.4-18.3-6.7 24.3-21.2 18 6.9m-34.4 7.4 18 6.9m-9.1-14.8 17.2 7.8m-7.6 22.9 4.1 19.1 24.4-21.1-4.4-18.8M432 934.9l-4.3-18.9m13.4 11.1-5.3-18.1m126.4-124.4c-9 .9-24.6 2.4-33.8 3.4-3.2.3-4.7 4.1-2.6 6.5l27.6 32.2c1.6 1.9 4.7 1.2 5.3-1.2l8.7-34.8c.8-3.3-1.9-6.4-5.2-6.1m-94.7 80.2s7.7-2 7.8 8.2m-55.6-24.8s-2.5-21.7 19.6-19.5m-98.7 1486.7 4.4 22.5 29.2-24.2-4.7-22.3m-15 38.7-4.7-22.3m15.5 13.3-5.8-21.4m44.1-73.3s10.2-44.3 40-38 25 73.1-24.1 103.5m-38.1-10.9c10.7 5.9 23.3 10 37.1 11.1m-15.9-65.5s-29.4-34.7-53-15.4c-15.4 12.6-5.9 41.5 18.8 61.1" /><path class="st0" d="M445.2 2170.4s13.6-59.2 53.5-50.7c39.8 8.5 33.5 97.7-32.3 138.3m-14-1.4c4.2.8 8.4 1.3 12.8 1.7m-21.4-87.6s-39.3-46.4-70.8-20.6c-14.4 11.7-12.5 34 1 55.2m148.1-60.9 15.1-12.6m-79.9 66.9 5-4.2m-56.5 64.8-69.3 58.1c-2.8 2.4-7 2-9.4-.8v0c-2.4-2.8-2-7 .8-9.4l69.2-58m74.4-45-9.8 8.2m84.1-70.4-22.3 18.7" /><path class="st0" d="m331.3 2304.4-21.4-8.4 29.1-24.4 21.1 8.7m-40.8 7.8 21.1 8.6m-10.3-17.7 20 9.6m218.7-182c-10.6.8-29 2.3-39.8 3.2-3.7.3-5.6 4.7-3.2 7.6l31.7 38.5c1.8 2.2 5.5 1.5 6.2-1.3l11.1-40.8c1-3.8-2-7.5-6-7.2m-170.9 141.9s9.1-2.2 9 9.9m56-64.4s9.1-2.2 9 9.9m-121.5 29.4s-2-21.8 20-19.1m2.9-39.2s.5-29 33.8-20.9m13.3-1070.2s4.9-26.3-18.6-34.7c-26.4-9.4-55 38.2-12.4 78.8" /><path class="st0" d="M420.3 1084s22.9-13.7 39 5.3c18.1 21.4-16.6 64.8-69.6 39.1m-12.8-71.6s-9.8-32.6-35.3-12.2c0 0 .1 8.8 13.2 5.4" /><path class="st0" d="M345.9 1050.1s-1 12.9 14.4 7.9" /><path class="st0" d="M371.3 1065.8s-19.8 5.4-18.1-6.7m107.4 57.3s33.9-1.3 23 29.4c0 0-8.3 2.7-9.3-10.7" /><path class="st0" d="M476.9 1143.6s-11.8 5.1-12.2-11" /><path class="st0" d="M453.8 1124.6s1.3 20.5 12.2 14.9m-82-79.6s15.9-13.5 26.4 6M297.2 799.7c-1.6-5.7-8.5-8.9-15.3-7l-56.8 15.6-36.9 10.1c-6.8 1.9-11.1 8.1-9.6 13.9l21.6 78.9c1.6 5.7 8.5 8.9 15.3 7l93.7-25.7c6.8-1.9 11.1-8.1 9.6-13.9zm-72.6 8.7 27.4 99.8m-9.1-104.9 27.4 99.8m-15-59.5 50.2-13.8m-118.6 32.6 48.1-13.2m24.7 10.3 50.2-13.8m-118.6 32.5 48-13.1m-18.2-58.2c-1.8-6.5 2-13.1 8.5-14.9s13.1 2 14.9 8.5" /><path class="st0" d="M237.7 792.6s8.4-42.5 27.7-34.1c17.3 7.5 2.9 29.2 2.9 29.2" /><path class="st0" d="M283.9 792.2s7.6-15.1-10.3-18.3m-50.4 21.2s-29.2-32-41.3-14.9c-10.9 15.3 12.7 26.5 12.7 26.5" /><path class="st0" d="M183.5 818.7s-14.3-9-.7-21m357 672.8c-6.9 4.5-14.4 8.7-22.6 12.4m-9.9-99.3s35.6-61.3 72-40.5c16.1 9.2 21.7 30.3 16 54.1m3.1 34.8s51.5-12.6 59.2 17.8-45.5 63.8-107.5 39.1" /><path class="st0" d="M598.6 1432.2s4.6-52.8-26.7-55.7-56 54.8-22 112.2m-42.1-105s-46.6-53.3-78.4-25.9.8 104.7 87.6 125.2l8.3 17c-8.9 8.2-21.2-.7-21.2-.7l10.2-16.6" /><path class="st0" d="m548.4 1486.2-14.2 4.6s0 9.4 11.7 11.9l6.1-12.3m-66.6-4.4c-4.4 13 21.7 5.2 26.9-2 .2-.3-22.5-11-26.9 2" /><path class="st0" d="M498.1 1504.8c6.7 11.9 18.3-12.7 16.4-21.4 0-.3-23.1 9.5-16.4 21.4m52.5-14.8c0 7.4 13 24.5 16 13.4 3.1-11.1-16-13.6-16-13.4" /><path class="st0" d="M549.5 1488.6c-5.1 5.3-8.7 27.9.8 22.5 9.6-5.4-.6-22.6-.8-22.5m-38.2 16.3s-12.8 14.8-2.2 26.5 22.2 19.7 5.9 40" /><path class="st0" d="M544.1 1502.2s7.5 20.1-9.4 24.9-33.2 5.8-24.2 32.6m-83.6-167.8s-2.7-35.4 32.8-31.4m94.6 30.9s24.6-19.7 34.3 12.5m94.1 798.7s26.4-46 53.8-30.5 14.7 77-46 104.8" /><path class="st0" d="M683 2202.6s-35.1-39.8-58.8-19.1c-23.7 20.6 1 78.4 66 93.4" /><path class="st0" d="m687.4 2276.2-6.5 13.4s6.8 6.5 16.7-.2l-4.7-12.9" /><path class="st0" d="M691.7 2277.2c5.4 5.1 26.7 7.5 20.8-2.4-6-9.8-21 2.2-20.8 2.4" /><path class="st0" d="M689.9 2277.1c.3 7.3 14.1 25.6 16.8 14.9s-16.8-15.2-16.8-14.9" /><path class="st0" d="M696 2290.3s19.7 8.4 11.5 23.9-18.7 28 6.9 40.1m-91.5-147.8s2.8-31.4 32.8-16.2m179.2-206.8c-6.7 8.5-16.2 16.4-28.7 22.1m-5.3-50.4s17.9-31.2 36.5-20.7c.5.3.9.5 1.3.8" /><path class="st0" d="M801.1 1955.2s-23.8-27-39.9-13 .7 53.2 44.8 63.4" /><path class="st0" d="M760.3 1957.9s1.9-21.3 22.3-11m89.3 12.3s25.1-25.8 40.5-11-3.3 53.1-47.9 61.2" /><path class="st0" d="M872.1 1959.2s-16.4-32.1-35.5-22.5-12.5 51.7 27.7 72.6m27.3-57.1s18.9-10 21.3 12.7M625.5 451.1c-2.5.9-17.3 20.3-11.4 42.3 4.5 16.7 17.2 31.6 35.8 45l7.7-21.1c-18.6-13.4-30.6-28-35.1-44.7-5.9-21.9 9.2-31.2 25.5-22.4 0 0-32-25.8-5.6-45.7 21.7-16.4 61.3-13.8 61.3-13.8m-45.9 126.7c22.8 2 41.5-1.4 55.8-11.1 18.8-12.8 13.3-29.7-4.8-33.6 0 0 41.1 1.3 34-31.1-5.8-26.6-38-50.6-38-50.6" /><path class="st0" d="M725.2 488c1.3 2.3-.1 26.7-18.9 39.5-14.3 9.7-33.6 12.8-56.4 10.8m-18.6-66.4s31.8 32.6 74.3 27m-71.2-86.5s17.6-46.2 74.2-34.6c0 0 44 19.5 34.9 74.2" /><path class="st0" d="m688.1 408.7-18.7 5.5 10.7 13.7 19 7 16.3-4-10.4-16.1z" /><path class="st0" d="m688.1 408.7-8 19.2 2.2 22.4 16.8-15.4 5.9-20.1" /><path class="st0" d="m669.4 414.2 12.7 36.7 33.3-20M686 414.8l16.6 6.1M687 448.5c13.3 6.8 19.7 22.6 14.5 37-2.1 5.8-5.9 10.6-10.5 14M643.9 482c-1.3-5.5-1-11.3 1-17 5.2-14.4 20.3-22.4 34.9-19.1" /><path class="st0" d="M657.6 489.4c-5.1-5.6-7-13.8-4.2-21.4 4-10.9 16.1-16.6 27-12.6s16.6 16.1 12.6 27c-2.7 7.4-9.6 13-16.8 14.2m-17.1 364-21.1-2.5c-5.4-.6-9.2-5.6-8.6-10.9l2.3-19.5c.6-5.4 5.6-9.2 10.9-8.6l31.2 3.8m70.1 47.9-54.9-6.6m78.8-30.2 29.5 3.5c5.4.6 9.2 5.6 8.6 10.9l-2.3 19.5c-.6 5.4-5.6 9.2-10.9 8.6l-17.7-2.1m-71-48 33.4 4m52.5 46.1L779.5 963c-.6 5.4-5.6 9.2-10.9 8.6l-128.8-15.5c-5.4-.6-9.2-5.6-8.6-10.9l10.4-86.4m93.6-28.7c1-8.1-4.8-15.5-13-16.5s-15.5 4.8-16.5 13" /><path class="st0" d="M728.1 815.6s19.7-31 42.5-35.4c22.9-4.4 24.7 11.6 20.2 25 0 0 23.8 21.4-7.5 30.7" /><path class="st0" d="M733.6 821.6s38.5-17.2 36.4-6.2c-2.2 10.9-22.9 8.9-22.9 8.9m-34-10.3s-11.5-34.9-32.6-44.7-26.8 5.3-25.7 19.3c0 0-28.3 15-.2 31.6" /><path class="st0" d="M706.3 818.4s-33.2-26-33.8-14.9 19.7 13.9 19.7 13.9" /><path class="st0" d="M656.5 846c3.3 30.3 26.8 47.5 26.8 47.5 4.5-51.5 22.9-71.4 22.9-71.4-28.8-18.2-49.7 23.9-49.7 23.9" /><path class="st0" d="M674 839.1c-.3.8-1.3 7.4 4.5 2.9s6.9-22.4 27.7-19.9m30.2 4.1s14 23.2 7.9 74.6c0 0 26.4-12 35.8-41.1.1.1-11.8-45.5-43.7-33.5" /><path class="st0" d="M764 853c.1.9-.2 7.5-5 1.9-4.8-5.7-2.2-23.3-23.1-25.1m-36.6 35.8-11.6 96.2m43.5-92.3-11.6 96.2m-24.7-101.4 3.5-29.3m38.3 33.3 3.7-30.1M638.8 676.1l16.9 7.2-25.3 59.5c-2.8 6.5-10.4 9.6-16.9 6.8L520.2 710c-6.5-2.8-9.6-10.4-6.8-16.9l25.3-59.5 15 6.4" /><path class="st0" d="m558.9 630.9-20.2 2.7 84.1 114.6m1.2-110.3-10.1-14.3-19.7 2.6" /><path class="st0" d="m513.2 702.6 142.5-19.3-12.6-18.1" /><path class="st0" d="m550.8 650.1 15.2-35.9 83.2 35.3-15.7 37.1" /><path class="st0" d="M596.8 656.9c-.1-7.5-7.9-18.5-16.2-11-11.2 10.1 9.2 27.4 9.2 27.4m7.4-16.6c5.4-5.2 18.7-7.4 19.2 3.7.7 15.1-25.9 12.8-25.9 12.8m-495 649.9 12.6-3.6m-62.4 18.1 18.5-5.4m43-12.5 17.6-5.1 18 62.1c2 6.8-2 14-8.8 16l-97.4 28.2c-6.8 2-14-2-16-8.8l-18-62.1 10.5-3" /><path class="st0" d="M21.1 1330.5 2.7 1350l137.6 35.7m-90.7-85.6-17.7 18.7m61.3-13.8-21.7-5.8" /><path class="st0" d="m26.6 1419.6 98.2-105-14.1-4" /><path class="st0" d="M69.2 1346.3c-4.8-5.7-17.8-9.3-19.5 1.7-2.2 14.9 24.5 15.4 24.5 15.4m-4.9-17.5c.9-7.4 9.8-17.6 17.2-9.3 10.1 11.2-12 26.3-12 26.3m-45-27c-7.2-2.1-20 2.3-15.2 12.3 6.5 13.6 28.9-.9 28.9-.9m-13.9-11.8c-3.4-6.6-1.7-20.1 9.1-17.3 14.6 3.7 4.8 28.5 4.8 28.5" /><path class="st0" d="M76.1 1318.6c-2.8-7-14-14.4-19-4.5-6.8 13.5 17.1 21.8 17.1 21.8m2.1-17.7c3.2-6.8 14.8-13.6 19.3-3.4 4 9.2-6 15.6-13.2 18.8m-22.2-43.8c-2.8-5.5-12.5-10.9-16-2.4-4.7 11.5 16.6 17.1 16.6 17.1m-.4-15.1c2.1-5.8 11.2-12.2 15.6-4.2 5.9 10.9-14.7 18.8-14.7 18.8m-32-23.8c-4.3-2.7-13.6-2.2-12.3 5.2 1.7 10.1 19.1 4.8 19.1 4.8m-6.8-10.3c-1-5 2.6-13.5 9.2-9.7 8.9 5.2-2.2 19.6-2.2 19.6m40.7-17c-.6-5.1-6.6-12-11.7-6.4-4.2 4.7-.3 10.3 3.4 14.1m8.5-7.9c3.3-3.9 12.2-6.3 13.3 1.2 1.1 7.8-9.2 9.8-14.2 10.3m-59.1 32.3c-5.8-2.4-16.9 0-13.8 8.9 4.2 12 24.2 1.9 24.2 1.9M17.1 1316c-2.3-5.9.4-16.9 9.2-13.6 6.9 2.6 6.2 10.3 4.5 16.4m73.7-22.3c.5-6.3-5.3-16-12.7-10.4-10.1 7.7 5.7 23.6 5.7 23.6m7.3-13.4c4.9-4 16.2-4.8 15.8 4.5-.5 12.6-22.6 8.8-22.6 8.8m954.7 11.9c-12.6-1.7-22.6-12.3-23-25.4-.5-14.6 11-26.9 25.6-27.4s26.9 11 27.4 25.6c.4 12.9-9 24.3-21 27.2" /><circle class="st0" cx="1056.2" cy="1295.8" r="17.6" transform="rotate(-32.5 1056.17 1295.822)"/><path class="st0" d="m1053.8 1343.5-.7-21.8m8.9 29.7.3 8.7c.1 2.2-1.7 4.1-3.9 4.1h0c-2.2.1-4.1-1.7-4.1-3.9l-.3-8.7m7-30.1.7 21.8m-7.9.2-8.7.3c-2.3.1-4 2-4 4.2h0c.1 2.3 2 4 4.2 4l8.7-.3m7.8-8.5 8.7-.3c2.3-.1 4.2 1.7 4.2 4h0c.1 2.3-1.7 4.2-4 4.2l-8.7.3m-933.1 377.2c-9.5-8.7-11.5-23.3-4.1-34.3 8.2-12.2 24.6-15.4 36.8-7.3 12.2 8.2 15.4 24.6 7.3 36.8-7.4 11.1-21.4 15-33.1 9.4" /><circle class="st0" cx="146.4" cy="1709.6" r="17.6" transform="rotate(-8.726 146.34 1709.1)"/><path class="st0" d="m116.6 1746.8 12.2-18m-5.5 22.5 12.1-18.1m-19 14-6.1-4 .6 19.2 18.7-6.3-6.6-4.4m581.6-94.8c-3.6-21.9-35.3-35.6-53.1-18.4-36.5 35.4 19.9 81 52.6 84m.5-65.6c3.9-21.9 35.7-35.2 53.3-17.8 36.1 35.8-20.8 80.8-53.6 83.3" /><path class="st0" d="M660.5 1615.5c-3.2 1.3-6.1 3.2-8.8 5.7-10.6 10.3-15.4 27.8-11.8 46.6m64.8-28.1c-2.2-13.6-15.3-24-29.1-25.9m74 2.4c3 1.3 5.9 3.2 8.4 5.7 11.5 11.4 14.4 29.7 11.6 48.3m-64.9-30.5c2.5-13.9 16.2-24.4 30.4-25.7m-36.1 72c-3.3-2-5.6-5.6-5.6-9.7 0-6.2 5-11.3 11.3-11.3 6.2 0 11.3 5 11.3 11.3 0 4.4-2.6 8.3-6.3 10.1m-10.7-.4-5.5 14.4H716l-6.3-14" /><path class="st0" d="M704.7 1570c-47.2 3.2-42.9 51.3-42.9 51.3s6.1 8.8 13 0c0 0-3.4-34.9 29.9-37.3m.9-13.9c47.2 3 43 51.1 43 51.1s-6.1 8.9-13 0c0 0 3.3-34.9-30-37.2M540.2 347c-10-7.1-32.3-7.4-30.5 10.7 2.5 24.7 41 15.4 41 15.4m-10.5-26.8c-1.7-12.2 8.5-32 23.7-22 20.7 13.7-5.8 44.4-5.8 44.4" /><path class="st0" d="M543.9 355c-13.3-7.5-27.4-7.8-26.3 3.4 1.5 15.1 33.1 8.2 33.1 8.2" /><path class="st0" d="M544.8 354.7c.3-14.4 6.3-28.2 15.6-22 12.7 8.4-9.7 33.9-9.7 33.9m7.4 2.2 22.9 38.6c1.2 2 .5 4.7-1.5 5.9h0c-2 1.2-4.7.5-5.9-1.5l-22.9-38.6" /><path class="st0" d="m577.1 400.8 7-4.2c2.1-1.3 4.9-.6 6.2 1.6v0c1.3 2.1.6 4.9-1.6 6.2l-7 4.2M571.3 391l7-4.2c2.1-1.3 4.9-.6 6.2 1.6h0c1.3 2.1.6 4.9-1.6 6.2l-7 4.2m99.7 1447.3c4.2 25 25.1 1.5 25.1 1.5s-29.3-26.5-25.1-1.5" /><path class="st0" d="M686.4 1837.4c15.9-18.7-3.5-30.4-23.4-19.6s10.6 23 10.6 23c-14.6 4-22.5 21.9-2.7 31.9s21.7-14.1 21.7-14.1 15.4 14.5 19.2-9.2-25.4-12-25.4-12" /><path class="st0" d="M680 1813.7s40.6-17 31.3 26.9m-54.6-12.5s-33.4 9.6 4 35.5m22.1 11.1c18.1 14.4 33.1 8.1 26.1-16" /><path class="st0" d="M694.6 1810.5s-10.2-18.6-29.8-11.1c-19.6 7.4-21.9 21.2-17.2 32.8m64.8-7.3s23.4 5.2 17.9 27.6-19.6 17.6-19.6 17.6m-61.8-15.1s-10.6 15.9 10.6 32.2 33.2-6.6 33.2-6.6" /><path class="st0" d="M680.5 1798.7s21.4-16.1 36.9-4.8c20.5 14.8 14.9 34 10 39.3m-80-19.8s-25.6 5.5-27.1 26.3c-1.6 20.8 20.4 25.5 26 27m79.6-3.4s10.3 23.7-8.4 33.7c-14 7.5-28.5 7.7-35-6" /><path class="st0" d="M624.3 1855.9s-2.9 44.7 42 36.5" /><path class="st0" d="M697.5 1902c-2.7 2.1-21.6 27.9-46.5-8.7 0 0-15.7 19.3-15.9 51s-38.4 52.3-38.4 52.3M732 1819.1s18.9 7.3 15 24.2-16.9 14.3-16.9 14.3" /><path class="st0" d="M728.2 1882.9s26.3-7.3 16.4-33.1m-112.1-29.7s-9.3-31.4 31.1-21.5" /><path class="st0" d="M694.4 1788.6s-22-22.5-47.1 8.1m-10.2 144c.6-.9 20.9-29.4 51.8 12.4 0 0-33.2 39.1-51.5-11 0 0 16.8-7.1 33.9 7.4m-36.8-48.5c1.2.9 7.8 5.8 7.8 5.8m-3.9 13.4 10.6.4m-25.1 9.6c.3 1 10.4 7.7 10.4 7.7m-15.2 23.5 9.8 4.6m-9.1 12.4 11.2 6.6M67.7 683.8c4.6 27.5 27.5 1.6 27.5 1.6s-32.2-29.1-27.5-1.6" /><path class="st0" d="M79.4 674.2c17.5-20.5-3.8-33.4-25.7-21.6s11.7 25.3 11.7 25.3c-16 4.4-24.7 24.1-2.9 35.1s23.8-15.5 23.8-15.5 17 16 21-10.1c4.1-26.2-27.9-13.2-27.9-13.2" /><path class="st0" d="M72.5 648.1s44.6-18.7 34.4 29.6m-60-13.7s-36.7 10.6 4.4 39m24.2 12.1c19.9 15.8 36.4 8.8 28.7-17.6" /><path class="st0" d="M88.5 644.6s-11.2-20.4-32.7-12.2-24.1 23.3-18.9 36.1m71.2-8.1s25.7 5.7 19.7 30.3-21.6 19.3-21.6 19.3m-67.9-16.5S26.6 711 49.9 728.9s36.5-7.2 36.5-7.2" /><path class="st0" d="M73 631.7s23.5-17.7 40.5-5.3c22.5 16.3 16.4 37.3 11 43.2" /><path d="M36.3 645.8c-.3.1-29.6 6.6-31.4 30.7-1.7 23.4 21.4 29.5 29 31.5.4.1.8.2 1.1.3.2 0 .4.1.5.1.9 0 1.7-.6 1.9-1.5.3-1.1-.3-2.2-1.4-2.5-.3-.1-.7-.2-1.1-.3-7.5-2-27.5-7.2-26-27.3 1.6-21.1 27.9-27.1 28.2-27.1 1.1-.2 1.8-1.3 1.5-2.4s-1.3-1.7-2.3-1.5"/><path class="st0" d="M122.9 702.7s11.3 26-9.3 37c-15.4 8.2-31.3 8.4-38.5-6.6m-63.8-38.6s-3.2 49.1 46.2 40.1m72.1-80.5s20.7 8.1 16.4 26.5-18.5 15.8-18.5 15.8" /><path class="st0" d="M125.4 724.2s28.9-8 18-36.4M20.3 655.1s-10.2-34.5 34.2-23.7" /><path class="st0" d="M88.3 620.5s-24.2-24.8-51.7 9M81.2 741c5.1 4.7 6.6 8.5 6.6 17" /><path class="st0" d="M97.7 745.8c2 6.8 2.9 15.9 1.9 27.9 0 0-49.9 7.4-37.4-38.1m-7.5.9c-5.8 4.8-14.3 11.2-23.5 15.4" /><path class="st0" d="M58.8 752.7c-6 7.5-18.4 13.4-43.5 10.9 0 0-3-23 9.1-33.6m95.4-100.7c2.2-5 5.8-10.4 11.7-15.5" /><path class="st0" d="M109.2 622.4c3-8.3 11.3-17.7 29.5-26.9 0 0 30.5 36.4-9.1 50.5" /><path d="M17.6 648c.5 0 1.1-.2 1.5-.7.7-.8.7-2.1-.1-2.8-5.2-4.7-11.5-7.9-19-9.7v4.1c6.3 1.6 11.8 4.5 16.3 8.5.3.4.8.6 1.3.6m-9.8 19.8c1.1 0 2-.9 2-2s-.9-2-2-2c-2.9 0-5.5-.4-7.8-1.1v4.2c2.4.5 5 .9 7.8.9m13.3-33.1c.8.7 2.1.7 2.8-.2s.7-2.1-.2-2.8c-5.5-5-13.5-8.1-23.8-9.5v4c9.3 1.3 16.4 4.2 21.2 8.5"/><path class="st0" d="M131.2 653.4c7.1 2.4 16.6 6.3 24.8 11.8" /><path class="st0" d="M142.1 641.3c9.5 1.2 21 8.7 32 31.4 0 0-14.3 11.5-28.3 10.7m759-430.3c13.8 17.4 19.9-9.4 19.9-9.4s-33.7-8.1-19.9 9.4" /><path class="st0" d="M909.3 241.8c4.4-21.1-15.5-21.9-26.2-5.3s17.9 13.2 17.9 13.2c-9.5 9.2-8.1 26.3 11.4 25.7 19.5-.7 10.7-19.9 10.7-19.9s18 4.7 10.8-15.1c-7.1-19.9-24.6 1.4-24.6 1.4" /><path class="st0" d="M894.5 226.3s24-30.1 35.4 7.6m-47.3 13.3s-21.6 21.4 18 25.6m21.7-.8c20 3.5 28.9-7.7 13.4-23.3" /><path class="st0" d="M904.4 217.7s-15.6-10-27.6 4-8 25.5.5 32.5m46.8-33s20.2-5.9 25.4 13.7-7.7 21.8-7.7 21.8M888 271.1s-1.5 16.7 21.7 20.3 22.8-19 22.8-19" /><path class="st0" d="M888.6 214.5s9.7-21.3 26.3-19.2c22 2.8 25.8 19.8 24.2 26m-69.7 18.4s-17.3 15-9.8 31.6c7.6 16.7 26.4 11 31.3 9.8m59.8-36s17.9 13.9 7.7 29.5c-7.6 11.6-18.7 17.9-29.4 10.1" /><path class="st0" d="M869.4 282.1s16.6 35.6 47.6 10.4" /><path class="st0" d="M945 286.8c-1.2 2.7-4.9 30.5-39.4 12.8 0 0-4 21.4 9.2 45.8s-7.6 56.3-7.6 56.3m29.6-193.1s17.6-2.3 21.7 12.3-6.9 18.1-6.9 18.1" /><path class="st0" d="M960.6 259.2s17.2-16.6-1.3-32.4m-98.6 24.3s-20.3-20.3 14.9-29.6" /><path class="st0" d="M895 200.9s-26.4-8.1-32.8 26M914.9 342c.1-.9 3.7-31.4 45-12.2 0 0-9.1 44-44.2 13.2 0 0 10-12.5 29.2-8.6m-48.7-21.9c1.3.2 8.4 1.1 8.4 1.1m2.7 12 8.3-4.1m-15.3 17.9c.7.7 11.2 1.5 11.2 1.5m-1.4 21.4 9.3 1.4" /><ellipse class="st0" cx="897.4" cy="399.1" rx="31.2" ry="96.2" transform="rotate(-82.334 897.353 399.155)"/><ellipse class="st0" cx="898" cy="396.4" rx="18.6" ry="78" transform="rotate(-82.334 897.98 396.364)"/><path class="st0" d="m802.4 383.5 20.1-149.3c6.9-51.4 55.5-87.8 108-80.7h0c52.5 7.1 89.7 54.9 82.8 106.4l-20.1 149.3" /><path class="st0" d="M848.9 197.8s20.9-27.8 52.9-29.5M995.5 303l-8.1 59.6m-875 1183.8c-5.2-4.6-17.6-6.2-17.7 4.1-.1 14 24.5 10.9 24.5 10.9m-6.7-15.4c-.2-6.9 6.7-17.4 14.6-10.8 10.7 9-7.5 25.7-7.5 25.7m16.8-83.2c-5.2-4.6-17.6-6.2-17.7 4.1-.1 14 24.5 10.9 24.5 10.9m-6.8-15.3c-.2-6.9 6.7-17.4 14.6-10.8 10.7 9-7.5 25.7-7.5 25.7M86.4 1611c-5.2-4.6-17.6-6.2-17.7 4.1-.1 14 24.5 10.9 24.5 10.9m-6.7-15.4c-.2-6.9 6.7-17.4 14.6-10.8 10.7 9-7.5 25.7-7.5 25.7m39.2-34.1c-5.2-4.6-17.6-6.2-17.7 4.1-.1 14 24.5 10.9 24.5 10.9m-6.7-15.4c-.2-6.9 6.7-17.4 14.6-10.8 10.7 9-7.5 25.7-7.5 25.7m-79.1-114.1c1.5 3.2 60.2 133 60.2 133m-15.4-153.3c1.5 3.2 60.2 133 60.2 133" /><path class="st0" d="M170.4 1496c-3.2 1.5-133.2 59.7-133.2 59.7m153.5-14.8c-3.2 1.5-133.2 59.7-133.2 59.7m106.5-32.4 33 12.4m-10.3-22.7-12.4 33M30 1516.5l33 12.4m-10.3-22.7-12.5 33m103.2-16.4 33 12.4m-10.3-22.7-12.4 33" /><path d="M705.6 2417.9c.1-1-.6-1.9-1.6-2.1-1.1-.2-2.1.5-2.4 1.5-.1.4 0 .8 0 1.3.1 1.1.4 3.2-.9 4.5-1.2 1.3-3.8 1.9-7.4 1.8-1.1 0-2 .8-2.1 1.9s.8 2 1.9 2.1h1.2c4.2 0 7.4-1 9.2-3.1 2.5-2.7 2.1-6.2 1.9-7.7.2 0 .2-.1.2-.2m-.1.3"/><path class="st0" d="M587.2 2390.3c-1.8-11.1-16-25.8-26.6-12.8-14.3 17.6 19.9 38.8 19.9 38.8m7.1-26.5c6.8-9 26.2-15.3 29.5 1.1 4.4 22.3-35.7 25-35.7 25" /><path d="M716.6 2432.2c-.7-2.8-4.6-5.2-10.9-8.9-1-.6-2.2-.2-2.7.7-.6 1-.2 2.2.7 2.7 2.9 1.7 8.3 4.9 9 6.3-.6 1-1.3 2-2.1 2.9h4.9c.2-.3.4-.6.7-1 .5-.7.7-1.7.4-2.7m-85.7-22.6c2.7-19.4 14.6-26.3 25-26.3h.3c10.5.1 22.5 7.3 24 20.3.2 1.6.7 3.2 1.4 4.8.5 1 1.7 1.4 2.7.9s1.4-1.7.9-2.7c-.6-1.2-.9-2.3-1.1-3.4-1.5-13.4-13.5-23.7-27.9-23.9-12.2-.1-26.2 7.6-29.3 29.8-1.5 11 2 20 7.9 26.9h5.5c-6.7-6.5-10.9-15.3-9.4-26.4"/><path class="st0" d="m633.1 2395.5-14.1 2.3 9.8 12.7m28-14.5c-1.7-.4-3.7 2.1-4.7 5.7-.9 3.5-.3 6.8 1.4 7.2s3.7-2.1 4.7-5.7c.9-3.6.3-6.8-1.4-7.2" /><path d="M707 2408.2c-16.3-4.4-27.6-4-33.8 1.3-5.1 4.4-4.5 10.5-4.5 10.7.1 1 1 1.8 2 1.8h.2c1.1-.1 1.9-1.1 1.8-2.2 0 0-.4-4.2 3.1-7.2 3.4-2.9 11-5.4 28.4-.9-.5 1.8-1.9 4.6-5.5 5.4-1.1.2-1.8 1.3-1.5 2.4.2 1.1 1.3 1.8 2.4 1.5 6.7-1.5 8.8-7.7 8.9-10.7 0-1-.6-1.8-1.5-2.1m-8.3 20.4v-.1s0 .3-.4.5c-.8.6-3.5 1.6-11.8-.3-1.1-.2-2.2.4-2.4 1.5s.4 2.2 1.5 2.4c3.4.8 6.4 1.2 8.8 1.2 3 0 5.2-.6 6.7-1.9 1.4-1.2 1.8-2.7 1.7-3.6z"/><path class="st0" d="M494.7 2360.7q1.8-1.35 3-3c15-21.9 58.3-8.2 44.2 30.1-14.2 38.7-84.4 22.2-87.2-18.3-.2-2.7 5.5-3 12.8-3.4" /><path class="st0" d="m544.7 2373.7 11.5 8.5-14.7 6.7m-18-25.9c-1.7-.4-3.7 2.2-4.6 5.7-.9 3.6-.2 6.8 1.5 7.2s3.7-2.2 4.6-5.7c.9-3.6.2-6.8-1.5-7.2m-23.5 14.7s11.5-16.8-27-25.4c0 0-3.1 6.6 2.4 11.3m-4.3-3.9c-.2.8-7.1 7.3 4.7 13m-6.2-1.5s-3 4.9 12 8.8m21.8 30.6s-3 6.2-9.3 6m-1-8.4s-3 6.2-9.3 6m523.7-952.4c20.3 9.5 32.9 25.3 30.1 40.6-3.7 20.4-33.2 32.1-66 26.2s-56.3-27.3-52.6-47.7 33.2-32.1 66-26.2c1.7.3 3.4.7 5 1" /><path class="st0" d="M1003.7 1467.6c17.2 8.2 27.8 21.7 25.5 34.8-3.2 17.6-28.7 27.8-57 22.6s-48.7-23.6-45.5-41.2 28.7-27.8 57-22.6c1.8.3 3.6.7 5.4 1.1m15.8 103.8c-7.5 8.5-24.5 12.5-41.8 9.3-16.3-3-29.3-11.5-34.1-21.4" /><path class="st0" d="M1014.3 1558c.1 1.7.1 3.4-.2 5.1-2.9 16.2-26.5 25.6-52.6 20.9s-44.9-21.7-41.9-38m-13.1-19.1c3.3-2.9 7.2-5.4 11.6-7.5" /><path class="st0" d="M1025 1538.9c9.2 9.6 13.8 20.8 11.9 31.7-4.4 24.3-39.6 38.2-78.5 31.2s-67-32.5-62.6-56.7c.7-4 2.3-7.8 4.6-11.2" /><path class="st0" d="M918.9 1480.9s-6.3 50.1 10.7 74.4m108-52.9s-9.4 44-32.7 63.8m-26.1-77.8c-1-10.2-19.9-23.8-29.7-8.1-13.6 21.7 24.5 37.3 24.5 37.3m5.2-29.1c4.4-9.3 26.8-15.7 30.7 2.4 5.5 25-35.6 26.9-35.6 26.9m-29.2-45.5c-.1 1.1-13.5 8.3-4.7 25.7m75.4-13.8c1 1.9 10.8 13.5-3.6 28.5" /><path class="st0" d="M923.7 1543.5c-2.2.1-4.4-.1-6.7-.5-15.4-2.8-25.9-16.6-23.3-30.9 2.1-11.4 11.7-19.6 23.3-21.1" /><path class="st0" d="M921.2 1535.3c-.7-.1-1.3-.1-2-.3-10.3-1.9-17.3-11.1-15.5-20.7 1.3-7.1 7-12.4 14.1-13.8m83-127c7-8.5-52.8 35.3-28.3 59.2 23.6 23 22.6 31.4 10.3 39.9 0 0 26.2.8 27.9-22.5 2-25.9-48.6-30-9.9-76.6m-52.7 481.4c-20.3 21.6-51.9 31-82.1 21.5-30-9.5-50.5-35.1-54.9-64.3m-1.4 0c-18.8-4.8-23.6-20.4-20.4-30.6s15.2-15.5 26.7-11.9m133.4 86.6c18.1 6.9 31.1-3.1 34.3-13.3s-3.5-21.4-15.1-25.1m-93.3-20.8c-2.2 6.9-9.5 10.7-16.3 8.5s-10.7-9.5-8.5-16.3M929 1817c-2.2 6.9-9.5 10.7-16.3 8.5-6.9-2.2-10.7-9.5-8.5-16.3" /><path class="st0" d="M895.8 1835.7c-2.2 6.9-11.1 10.1-20.1 7.3-8.9-2.8-14.4-10.7-12.2-17.5m-47.4-55.3s-3.7 15.7 1.2 17.8 12.7-17.3 12.7-17.3 55.9 8.7 108-18.2c0 0 8.6 39.2 20.6 56.8 0 0-4.3 15.6-2.5 20 4.6 11.3 11.6-11.8 11.6-11.8" /><path class="st0" d="M807 1768.6c.4-.7-1.9-62.3 60.8-77.3 61.2-14.6 90.2 28.2 93.3 33.2 0 0 18.9 8.5 26.8 29.7 9.4 25.1-2.8 56.4-11.1 66.2m-139.2-18.6c-7.1-2.2-14-.5-15.4 3.9s3.3 9.7 10.4 12c7.1 2.2 14 .5 15.4-3.9s-3.3-9.8-10.4-12M934 1834c-7.1-2.2-14-.5-15.4 3.9s3.3 9.7 10.4 12c7.1 2.2 14 .5 15.4-3.9s-3.2-9.8-10.4-12M595.4 183.5c-5.9 29.1-27.9 53.7-58.6 61.4-30.5 7.7-61.4-3.3-80.5-25.8m-1.1.8c-18.5 5.8-30.8-4.9-33.5-15.3-2.6-10.4 4.8-21.2 16.5-24.2m155.1-39.2c11.7-3 23.4 3 26 13.4s-3.1 25.7-22.2 29.3m-96-10.9c1.8 7-2.5 14-9.4 15.8-7 1.8-14-2.5-15.8-9.4m81.4-17.6c1.8 7-2.5 14-9.4 15.8-7 1.8-14-2.5-15.8-9.4" /><path class="st0" d="M538.9 195.2c1.8 7-4.2 14.5-13.2 16.8s-17.9-1.5-19.6-8.5" /><ellipse class="st0" cx="473.8" cy="203.3" rx="13.5" ry="8.3" transform="rotate(-14.211 473.846 203.356)"/><ellipse class="st0" cx="572.8" cy="180" rx="13.5" ry="8.3" transform="rotate(-14.211 572.86 180.04)"/><path class="st0" d="M436.1 181.4s62.9-15.1 83.4-75.6c0 0 37.7 50.6 73.8 35.4" /><path class="st0" d="M427.5 183.2s-24.5-43.3 14-86.3 77.9-19.7 77.9-19.7 17.7-9.6 45.8 3.1c25.1 11.3 35.5 40.5 35.5 59.5m-162.4 82.9s-11.5 7.6-5.1 25.2c6.5 17.6 23.9-17.9 17.5-26.8" /><path class="st0" d="M466.7 230.5s1.7 29.4-25.9 21.6" /><path class="st0" d="M430.1 248.9s-13.2.7-10.9 19.3 27.6-8.1 23.3-18.1" /><path class="st0" d="M456.5 252.2s5.1 37.5-30.6 25.9m-27.3 6.6c-3.4 11.8-13.1 8.6-13.1 8.6s5.4 23.3 29.3 17.6c22.1-5.3 10.7-32 10.7-32s-20.6-15.8-26.9 5.8" /><path class="st0" d="M398.2 298.2s23.5 12.8 27.3-19.2m187.8-102.3s17.7 8.5 15.4 27.3-29.8-10.7-25.4-21" /><path class="st0" d="M590 200.8s4.8 24.7 31.9 9.5" /><path class="st0" d="M632.3 204.2s14.1-3 16.5 15.6-31.2-.1-29.3-10.9" /><path class="st0" d="M605.7 217s8.4 33.9 38.6 14.3m30.5-1.3c-12.2-19.1-29.9 2-29.9 2s-5.1 29 19.6 27.9c26.6-1.2 26.3-25.2 26.3-25.2s-9.4 5.7-16-4.7" /><path class="st0" d="M678.7 242.9s-21.5 18.9-33.8-10.9M453.4 1564.3l-5.9 5.7c-1.3 1.3-3.3 1-4.5-.5l-7.9-10.5c-1.6-2.1-4.5-1.7-5.3.8l-4.1 12.4c-.5 1.6-2.1 2.5-3.6 2.1l-10.7-3.1c-2.4-.7-4.4 1.8-3.7 4.4 2.7 9.8 10.6 27.5 31.7 23.5 19.8-3.8 20.4-22.3 19.2-32.3-.3-2.9-3.3-4.4-5.2-2.5m42.6 75.5c-1.6-1.3-40.7 8.6-58.2-39.9" /><path class="st0" d="M408.8 1633.3c14.5 22.9 56.3 11.3 40.8-10.4s-40.8 10.4-40.8 10.4" /><path class="st0" d="M416.5 1632.6c.5 0 23.9 2.7 32.7-8m443.5-666.7c-19.1 6.5-17.1 24.9-14.5 34.7.8 2.8 3.9 3.8 5.6 1.7l5-6.4c1.1-1.4 3.1-1.5 4.5-.1l9.3 9.3c1.9 1.9 4.7 1 5.2-1.6l2.3-12.8c.3-1.7 1.7-2.8 3.3-2.6l11 1.6c2.5.4 4.1-2.4 3-4.9-4.1-9.4-14.4-25.8-34.7-18.9m-61.8-32.3c1.8 1 39.1-14.2 63.2 31.3" /><path class="st0" d="M879.2 935.7c18.4 19.3 38.9-16 38.9-16-17.6-20.7-57.3-3.3-38.9 16" /><path class="st0" d="M910.6 921.5c-.5 0-24.1.6-31.2 12.5M70.8 2103.9c-12.6-3.2-23.2 11.1-16.8 20 14.6 20.3 40-7.5 40-7.5" /><path class="st0" d="M70.8 2103.9c-9.6-8.6-3.9-24.4 6.9-23.6 24.7 1.8 16.3 36.2 16.3 36.2m92.8 51.4c10.3 9.3 4.3 26-7.3 25.2-26.5-2-17.6-38.7-17.6-38.7m24.9 13.5c13.3 3.8 23.6-9.5 16.4-18.5-16.4-20.5-41.3 5-41.3 5m-7.7-27.4-33.4-18.2c-9.2-5-20.9-1.6-26 7.6l-1.3 2.5c-5 9.2-1.6 20.9 7.6 26l33.4 18.2c9.2 5 20.9 1.6 26-7.6l1.3-2.5c5.1-9.2 1.7-20.9-7.6-26m-57.7 13.7 37.1-24.2m23.1 13.4-35.6 24.5M99.3 413.8c-2.2-8.7-14.4-10.4-17.6-3.5-7.5 15.5 17.6 21.7 17.6 21.7m0-18.2c2.1-8.7 13.5-10.4 16.6-3.6C123 425.7 99.4 432 99.4 432" /><path class="st0" d="M101 363.8s-22 10.3-27 29.4c0 0-9.7-11.8-34.7-8.8 0 0 .3 33.3 18.3 57 0 0 42.8 27.1 84.6.8m0 0c18.5-23.2 19.7-56.5 19.7-56.5-22.6-.8-34.6 7.9-34.6 7.9-4.6-19.3-26.3-30.1-26.3-30.1" /><path class="st0" d="M50.2 429.4s49 32 99.8.6" /><ellipse class="st0" cx="60.4" cy="412.8" rx="5.3" ry="5.7" transform="rotate(-1.788 60.391 412.814)scale(.99999)"/><ellipse class="st0" cx="139.6" cy="414.6" rx="5.3" ry="5.7" transform="rotate(-1.789 139.618 414.63)scale(.99999)"/><path d="M1122.7 301.4c-4.1-3.5-6.2-8.2-6.5-13.9-.2-5.4 3.9-9 7.7-10.6.3-.1.7-.3 1-.4v-4.2c-.9.2-1.7.5-2.6.9-6.6 2.7-10.5 8.2-10.2 14.4.3 6.8 2.9 12.5 7.8 16.7 1.5 1.3 3.2 2.4 4.9 3.4V303c-.6-.4-1.4-.9-2.1-1.6m-69.5-201.7c-1.1-2-2.9-3.5-5.2-4.1-2.2-.6-4.6-.4-6.6.7s-3.5 2.9-4.1 5.2c-.6 2.2-.4 4.6.7 6.6l86.9 157.4v-8.3l-83.4-151.1c-.6-1.1-.7-2.3-.4-3.5s1.1-2.2 2.2-2.8 2.3-.7 3.5-.4 2.2 1.1 2.8 2.2L1125 238v-8.3z"/><path class="st0" d="m1050.8 99.7 7.1-24.7 22.1 40-7 24.4m-15.9-28.6 6.7-23.4m1.5 36.7 6.8-23.5m-33 5.8-24.7-7.5 21.5 40.3 24.3 7.4m-15.3-28.9-23.3-7.1m29.9 21.2-23.3-7.1M226.7 47.6c-9.6-12.1-30-6.3-30.4 6.8-.9 29.8 43.3 21.9 43.3 21.9" /><path class="st0" d="M226.7 47.6c-2.6-15.3 15.8-26.8 25.9-18.4 23.1 19.1-13.1 47.1-13.1 47.1" /><path class="st0" d="M259.8 48.6c6.6 3.6 12.1 9.3 15.6 16.6 8.8 18.5.9 40.7-17.6 49.5s-40.7.9-49.5-17.6c-3.7-7.8-4.5-16.3-2.7-24.2" /><path class="st0" d="M256.9 58.1c3.9 2.6 7.2 6.3 9.4 10.9 6.5 13.6.7 29.9-12.9 36.3-13.6 6.5-29.9.7-36.3-12.9-2.5-5.3-3.2-11-2.2-16.4M99.7 943.5s22.4 13.4 25.1-29.4c0 0-75.1 61.7-83.8 163.7" /><path class="st0" d="M95.8 940.3s-11.6-19.9 28.9-26.2M82 965s10 31.1 37 1.4c0-.1-23.7-24.8-37-1.4" /><path class="st0" d="M83.3 964.9s11.9-2.5 35.7 1.4M66.9 992s-6 32.1 31.8 18.8c.1 0-8.9-33-31.8-18.8" /><path class="st0" d="M68.1 992.6s11.7 3.5 30.7 18.2M55.4 1021s-13.7 29.7 26.3 26c0 0-.7-34.2-26.3-26" /><path class="st0" d="M56.4 1021.8s10.5 6.2 25.3 25.2M66.1 924.5c-21.1 34.8 12.5 38.2 12.5 38.2 18.9-19.1-12.5-38.2-12.5-38.2" /><path class="st0" d="M78.2 961.4s-1.1-13-12.1-36.9m-24.6 36.9c-7 41.9 24.2 32.2 24.2 32.2 10.4-25.9-24.2-32.2-24.2-32.2" /><path class="st0" d="M64.9 992.5s-5.4-12.2-23.4-31.1m-24.2 42.7c12.2 41.6 35.3 18.4 35.3 18.4-2.2-28.4-35.3-18.4-35.3-18.4" /><path class="st0" d="M51.4 1021.8s-10.1-8.6-34.1-17.7m862.5 1330.3c5.9 4.1 14 5.5 14 5.5m-1.2-18.1c-1.2-3.7-4.3-6-7.5-6.7m7.5 6.7c1.5-8.8 12.7-11.3 16.3-4.7 8.1 15-15 22.8-15 22.8m-46.1-34.2c3.8-8.1-4.4-17.2-11.3-14-15.7 7.2-.3 28-.3 28m11.6-14c7.1-5.3 17 .6 15.1 7.8-4.5 16.4-26.6 6.2-26.6 6.2" /><path class="st0" d="M858.7 2293c-1.3 8.7 6.6 19.5 6.6 19.5m11.6-14c2.8-5.9-.9-12.4-5.7-14.2m5.7 14.2c7.1-5.3 17 .6 15.1 7.8-4.5 16.4-26.6 6.2-26.6 6.2m-12.4 10.4c2 5.2 5.1 9.4 5.1 9.4m11.6-14c.5-1 .7-1.9.9-2.9" /><path class="st0" d="M869.7 2318.3c7.1-5.3 17 .6 15.1 7.8-4.5 16.4-26.6 6.2-26.6 6.2m-40.4-34.4c.5-8.9-10.5-14.3-15.7-8.8-11.9 12.5 10.2 26.1 10.2 26.1m18.4-4.8c-6.5 5.4-18.4 4.8-18.4 4.8m5.5-17.3c1.4-2.3 3.4-3.7 5.5-4.4m-6.7-24.4c-11.9 12.5 10.2 26.1 10.2 26.1m5.5-17.3c.2-2.9-.9-5.5-2.6-7.4" /><path class="st0" d="M831.4 2294.6c-3.2.3-4.7.5-4.7.5m5.6-17.2c4.6-7.6 16-5.8 16.9 1.6.7 6-2 9.8-5.7 12.1" /><path class="st0" d="M855.3 2275.2c2.5-8.6-7.1-16.3-13.3-12.1-4.4 2.9-5.7 6.6-5.4 10.3m18.7 1.8c6.2-6.4 16.9-2.1 16.1 5.3-1.8 16.9-25.3 10.3-25.3 10.3m46 17.3c1.1 1.3 1.9 2 1.9 2m9.2-15.6c2.5-8.6-7.1-16.3-13.3-12.1-5.5 3.7-6.2 8.6-4.9 13.3m18.2-1.2c6.2-6.4 16.9-2.1 16.1 5.3-1.8 16.9-25.3 10.3-25.3 10.3m-25.7-47.3c-2.3 2.3-3.1 5-3.1 7.7m18.8 2.4c.4-1.4.5-2.7.3-4m-.2 20.9c-5-.1-7.1-.5-7.1-.5m7-16.4c1.1-1.1 2.3-1.9 3.5-2.4m8 1.2c-1.1 2.8-.9 5.8 0 8.7" /><path class="st0" d="M929.8 2284.5c-.8 7.7-6.3 9.8-11.8 10.6m-91.5-42.2c-2-8.7-14.1-10.8-17.5-4.1-7.9 15.3 17.1 22.2 17.1 22.2m18.2-16.9c1 12.4-18.3 17-18.3 17m.5-18.2c.5-2 1.5-3.5 2.8-4.7m33.3-68.7c-2-8.7-13.6-11.5-17.1-4.8m17.1 4.8c2.3-8.6 13.7-10 16.7-3.1 1.9 4.5 1.3 8.1-.5 11.1m48.8 15.7c3-8.4-6-16.7-12.6-12.9-3.3 1.9-5 4.3-5.7 7m18.3 5.9c6.6-6 17-1 15.7 6.3 0 .2-.1.3-.1.5" /><path class="st0" d="M891.9 2183.2c3-8.4-6-16.7-12.6-12.9-1.1.6-2 1.3-2.8 2.1m15.4 10.8c6.6-6 17-1 15.7 6.3-.5 2.9-1.6 5-3 6.6m-18.7 22.6c1-13-15-21-22.7-13.2-17.6 18 14.3 38.3 14.3 38.3" /><path class="st0" d="M885.9 2218.7c6.9-11 23.5-8.1 24.6 2.7 2.5 24.7-33 22.4-33 22.4" /><path class="st0" d="m955.5 2140.3-74.6-26.9c-15.2-5.5-32.2 2.5-37.7 17.7l-53.9 149.2c-5.5 15.2 2.5 32.2 17.7 37.7l74.6 26.9c15.2 5.5 32.2-2.5 37.7-17.7l53.9-149.2c5.5-15.2-2.5-32.2-17.7-37.7m-126.2 29.3 130 46.9m-155 22.3 130 47m29.7-178.6-68.7-24.8c-3.5-1.3-7.5.6-8.8 4.1l-.3.9c-1.3 3.5.6 7.5 4.1 8.8L959 2121c3.5 1.3 7.5-.6 8.8-4.1l.3-.9c1.3-3.6-.5-7.5-4.1-8.8m-71.9-9.6-6.3 17.5m71.3 5.6-6.3 17.5" /><path class="st0" d="M853.6 2136.7s9.7-21.4 30.8-12m170.9-1656.2c-6.2-13.1-28.6-16.1-36.7-2.1-16.6 28.8 27 47.4 48.1 43.3m-11.4-41.2c-1.5-14.4 16.1-28.5 30.3-20.7 29.1 16 1.4 54.5-18.8 62" /><path class="st0" d="m1071.3 508.5 16.7 59.9c.6 2.3-.7 4.6-3 5.2h0c-2.3.6-4.6-.7-5.2-3l-16.7-59.9m-27.9 18.5c5.4 17 31.7-.5 26.6-18 0-.1-33.5-3.5-26.6 18" /><path class="st0" d="M1053.6 545.8c-.2-.7-6.4-20.1 8.1-34.7m10.8-3.2c4.5 17.7 36 19.4 32 2-5-21.9-32-2-32-2" /><path class="st0" d="M1097.2 533.6c-.2-.7-4.7-20.6-24.7-25.7m-7.8 7.1s4.1 3 8.8-2.4m-50-34.1s1.2-17 17.7-11.9m-744-93.9c20.9 2.2 35.9 13.1 45.5 26.5m-84.3 76.2c-18.6-11.3-30-31.5-27.8-53.2 2-19 13-34.7 29.9-43.1m78.8 83.9c-5.2 6.9-11.7 12.3-19.1 15.9" /><path class="st0" d="M347 473.3c-3.1-3-5.7-6.4-7.8-10.3-14.4-27.2-8.6-62.4 20.6-79.2 14.2-8.2 36.9-11.3 51.3-8.3m28.3 14.9c3.1 3.1 6 6.6 8.2 10.7 15.9 29.5 12.6 54.2-8.7 70.9" /><path class="st0" d="M408.8 378.5c5.4-7.8 15-15.7 25.8-18.4 10.8-2.8 7.1 31.8 1.5 36.5m-91.4-2.5c-1.9-1.7-7.6-33 2.3-33.7 9.8-.7 20.6 16.9 20.6 16.9m-107.2 5s7-36.7 16.6-37.3 18.7 23.1 18 30.6" /><path class="st0" d="M334.5 389.6s2.1-2.7 7.7-4.1m37.3 44.5c.1-5.7 4.6-10.3 9.9-10.1 5.3.1 9.6 4.9 9.4 10.6m-57.1-2.6c.1-5.7 3.6-10.3 7.6-10.2 4.1.1 8.9 6.4 7.5 13.8m3 12.4c.9 1.6 3.8 3.7 3.8 3.7l5.6-3.5m-4.8 16.4c-.3-.8-1-8.4-.8-12.9" /><path class="st0" d="M386.9 453.4c-.6 6.4-9.4 10.8-19.6 9.9-10.3-.9-18.1-6.8-17.6-13.2M304.9 422c1.3-5.6-2.3-11.3-8-12.8-5.7-1.4-11.3 1.9-12.6 7.5m49.4-.3c-3.1.8-7.2 3.4-7.7 11m-6.2 13c-1.3 1.3-4.9 2.5-4.9 2.5l-5-5.1m.9 17.4c.5-.7 3.1-7.9 4.1-12.2" /><path class="st0" d="M288.8 441.6c-1 6.4 7.2 13.2 18.3 15.4 11.1 2.1 20.9-1.3 21.9-7.7m21.1 23.7c.3-5.8 6.4-12.3 22.6-9.7 0 0-7.3 2.7-6.9 11 .1 1.4-.2 2.6-.6 3.7m-61.4-21.4s5.4 5.4 1.7 12.8 4.1 13.5 11.2 9.1c5.6-3.6 7.6-16.6-12.9-21.9M354 517c6.4 3.7 13.7 8.7 20.2 10.5 20.4 5.7 18 4.2 19.9 8.5m-116.4-21.5s17.1 38.8 60.4 38.7" /><path class="st0" d="M410.9 517.7c.6 3.5-9.1 23.1-39.5 25.2 0 0-29.9-13-34.4 14.1-2.6 16.1 9.1 15 9.1 15s2-3.5 12.2 0 17.2-1.7 17.2-1.7 61.7.1 73.2-29.1c5.2-13.2 2.7-27.6-1.7-39.4M306.3 622.5c13.6-1.6 23.3-4.6 23.3-4.6M252.1 471s-44.7 52.4-27.7 110.3c3 10.1 7.7 18 13.5 24" /><path class="st0" d="M430.5 472.3c-6 3.6-9 14.3-4.2 22.3s15.6 10.4 21.6 6.8 5-11.9.2-19.9c-4.8-8.1-11.6-12.8-17.6-9.2m-98 15.3s-27.3-18.7-33.1 6.2c-6.3 27.2 40.3 32.4 40.3 32.4m-6.4-38.8s19-27.3 33.4-6.2c15.8 23.1-26.3 44.8-26.3 44.8m2.1 17.6-3.8-16.9m17.1 44.9 3.7 16.4c.3 1.4-.6 2.8-2 3.1l-1.6.4c-1.4.3-2.8-.6-3.1-2l-4.2-18.8m-3.3-45.6 3.2 14.8" /><path class="st0" d="M306 498.2s1.5-13.4 14.1-9.7m109.6-113.1c-2.6-1.8-9.1 3-11.8 6.8-2.7 3.7-.4 4.9 2.2 6.7s4.4 3.6 7.1-.2c2.6-3.7 5-11.5 2.5-13.3m-150.6-12.8c-3.1.2-5.2 8.1-4.9 12.7s2.8 4.1 5.9 3.9 5.6-1.4 5.3-6-3.2-10.8-6.3-10.6m68.4 25.6c-1.5-4.3-1.6-12.5 1.4-13.5s7.9 5.5 9.3 9.9m93.5 131c8.4 13.4 14 30 16.7 47.6 5.3 35-10.4 60.9-38.3 71.8m-69.8.1c-33.2-11.5-45.6-39.2-41.7-72.9.4-3.5.9-6.8 1.6-10.1" /><path class="st0" d="M376.6 599.9s-19.7 18.2-15.9 41.5c2.9 18 10.1 33.4 3.3 43.2-2.4 3.5-8.4 8.4-8.3 10.4.6 7.2 12.5 8.8 22.4 3.8 14.1-7.2 1.5-42.8 60.9-68" /><path class="st0" d="M341.1 626.8s2.6 27 25.4 42.4m31.5-8.6s12.8 8.4 13.8 18.7c.9 9.9-4.5 17-9.9 18.9-7.2 2.5-14.6-.3-12-7.1s5.3-8.5-1.4-12m-149.4-72.7s29.6 86.7 71.2 89.6c26.8 1.8 15.2-12.1 9.6-15.3-6.6-3.9-35.9-20.9-8.7-67.8" /><path class="st0" d="M335 619.7s-25.8 39.9-19.3 56.5m149.8-71.1c13.8 4.5 78.4-16.6 73.9-85.5-3.4-51.9-55.3-49.9-59.4-31.5-2.9 13 19.6 10.9 29.1 30.2s5 64.8-40.4 67.9m-236.8 11.4c-18 .2-85.1-5-83.5-80.3.9-42 48-67.1 57.3-48.6 6.6 13.2-19.8 22.3-26.2 43.9-4.7 16.1-2.1 56.8 43.1 61.6m673.1 495.1c7.4 8.5 11.9 19 12.2 30.4.6 17.8-8.9 33.9-24 44.1m-67.9-88c8.5-4.4 18.4-7 29-7.4 10.5-.3 20.4 1.6 29.1 5.4m-71.4 85.4c-10.3-9.2-16.7-21.6-17.2-35.5-.3-9.7 2.3-18.8 7.3-26.8m71.9 18.6c.1 5 4.2 8.9 9.1 8.7s8.7-4.4 8.6-9.3m-58.8 2c.1 5 4.2 8.9 9.1 8.7s8.7-4.4 8.6-9.3m21 16.6-5.2 4.4-4.5-4.5m4.5 4.5-.2 16.2m-24.8-14.1c.1 8.6 10.3 15.4 22.8 15.2s21.1-7.5 21-16.1m19.8-49.2c13.4-21.9 7.4-35.7-3.1-30.3-8.3 4.3-18.4 14.8-18.4 14.8" /><path class="st0" d="M816.2 1055.7s-10.1-13-18.9-18.8c-7.1-4.6-14.2 16.7-4.6 40m107.7 50.1s53-21.7 61.9-1.2m-138.1 53.3c-.9-4.6-1.5-15.1 1.3-21.7m-14.5 64.4c12.5 8.1 29.4 12.2 51.4 8.3 0 0 7.3-1.6 4.4-5.4-.9-1.2-6.8-4.6-14-9.7m-72-46.7c.3 8.3 2.8 18.8 8 28.8m-62.6-3.2s-34 11-32.5 46 4.8 42.1-1.4 47.2c-5.2 4.3-19.8 9.8-13 17.6s31 4.8 36.5-6.3 13.9-50.2 28.7-46.3c2.6.7 4.7 1.3 6.5 1.8m-16.7-78.1c-3.9 5.9-6.4 11.3-8.1 18.1m66.9-64.6s-16.2 7.1-32.8 19.7m76.6 140.9c4.7 6.6 12.9 10.9 21.1 11.1 14 .4 14-5.9 11.6-8.6s-18.9-4.9-12.8-19.3c2.4-5.7 4.8-10.7 6.4-15.5" /><path class="st0" d="M728.7 1186.3s-70.8-35-28.7-77.2c35.9-36 11.2-42.6-.8-38.3-13.8 4.9-56.6 38-35.9 87.4 12.7 30.3 38.2 37.3 49.7 42.7m181.5-152.6c-2.6-1.7-8.5 2.1-11 5.9s-.5 4.8 2.1 6.5 4.3 4.8 6.8 1 4.7-11.7 2.1-13.4m-96.1.2c-2.5 1.9-2.1 11.6.7 15.2s4.6 1.8 7.1-.2c2.5-1.9 4.7-3.2 1.8-6.8-2.8-3.7-7.1-10.2-9.6-8.2m178.4 157.9c2.4-10.6 1.4-21.8-3.6-32.2-7.6-16.1-23.1-26.4-40.5-29.1 0 0-23.2-4.2-43.3 9.7m26.2 97.1c9.2.3 18.8-1.5 27.9-5.6 9-4.1 16.5-10 22.2-17m-99.4-45.9c-4.5 12.5-4.3 26.2 1.7 38.7 4.2 8.7 10.6 15.8 18.4 20.8" /><path class="st0" d="M942.4 1202c-2.2-4.5-.5-9.7 3.7-11.6s9.4.2 11.5 4.7m-50.6 23c-2.2-4.5-.5-9.7 3.7-11.6s9.4.2 11.5 4.7m10.2-23.7-6.4-1.7-1.8 5.9m1.8-5.9-7.6-14.3m-14.6 23c-3.8-7.7 1.7-18 12.4-23.1 10.7-5 21.3-2.2 25.1 5.5m35.5 29.5c21.3 13.8 22.6 28.7 11.2 28.3-8.9-.3-22.3-5.4-22.3-5.4m-49.9 22.6s-2.6 15.8-7.4 24.6c-3.8 7.1-19.7-8.8-22.2-33.6" /><path class="st0" d="M977.5 1214.5c-3.9-2.3-3.9 1.1-5.3 3.7s-2.7 4.4 1.2 6.7 10.6 3.3 12 .6c1.4-2.6-4.1-8.6-7.9-11m-73.7 34.7c-3-.7-5.3-1.6-6.1 2.8s3.3 13.1 6.3 13.8 3.7-6.9 4.4-11.3-1.6-4.6-4.6-5.3m-79.6-81.1s30.9-18.5 69.8-16.1m27.4-7.5s30.1-24.5 44-16.5c13.8 8.1-12.5 13.2-12.2 24.3m-110.5 21.6s-64.8 12.8-74.1 51.4c-7.4 30.8 38.8-17.1 91.7-10" /><path class="st0" d="M876.8 1235s-18.4 55-75.4 35.7c0 0-9.3 5.8-8 20.7 1.2 14.9-2.2 33.3-31.2 28.4s2.6-11.5 3.1-15.8c.6-5.2-29.5-58.9-5.3-90.6 7.5-9.9 13.9-15.4 13.9-15.4" /><path class="st0" d="M782 1177.9s-9.2-30.5-42.4-38.6c-40.7-9.9-51.4 13.7-37 17 14.6 3.3 37 7.3 52.8 64.5m82.8 52.2s-11 41.2 27.7 45.2 42.5-1.9 45.2 9.8c3 13.4-31.4 33.4-66 14.7-34.6-18.6-36.4-62.1-28.8-68.5m268.6 349.5c-2-8.7-14.1-10.7-17.5-4-7.9 15.3 17.1 22.2 17.1 22.2" /><path class="st0" d="M1084.9 1623.7c2.3-8.6 13.7-10.1 16.6-3.2 6.7 15.7-17.1 21.4-17.1 21.4" /><path d="M1104.1 1782.7c-12.3 1.8-25.9-2.5-36.6-11.6-23.2-19.8-22.7-35.1-19.7-46.2 3.7-13.3 29.4-50.2 43.2-70 5.4-7.7 11.2-7.8 14.5-5.6 3.6 2.4 5.2 7.9 1.4 13.8-3.3 5.2-31.3 54.9-32.5 57-.5 1-.2 2.2.8 2.7s2.2.2 2.7-.8c.3-.5 29.1-51.7 32.4-56.8 5.1-8 2.5-15.9-2.5-19.2-5.2-3.5-13.4-2.8-20 6.6-14 20-40 57.3-43.8 71.3-3.1 11.3-4.3 28.8 20.9 50.3 9.8 8.3 22 13 33.7 13 2.1 0 4.1-.1 6.1-.4 8-1.2 15.1-4.8 20.3-10.2v-6.3c-4.8 6.7-12 11-20.9 12.4"/><path d="M1111.9 1741.4c-.6.9-.4 2.1.5 2.8.4.2.8.4 1.2.4.6 0 1.2-.3 1.6-.8.9-1.3 6-8.7 9.8-16.7v-12c-1.5 8.4-9.6 21.3-13.1 26.3m-1.8-44.8c-1.1.2-1.9 1.2-1.7 2.3s1.2 1.8 2.3 1.7c5.8-.8 12.6 1.4 14.3 10.2v-9.1c-3.5-4-8.8-6-14.9-5.1"/><path class="st0" d="M1094.7 1731.5s19.5-25.3 15.1-35.5-14.3-8-14.3-8m-11.3-27.5c.1-.2-10.3-22.2-22-14.3-9.9 6.7 7.5 20.3 2.9 41.8m-493.5-623.2c-2-6.1-10.7-6.7-12.7-1.7-4.6 11.4 13.6 14.6 13.6 14.6" /><path class="st0" d="M571.6 1064.8c1.1-6.3 9.1-8.1 11.6-3.4 5.8 10.7-10.7 16.3-10.7 16.3" /><path class="st0" d="M597.9 1031.4c12.8 6.3 21.8 17.4 23.1 30.7 2.1 22.4-18.4 42.7-45.8 45.2-27.4 2.6-51.3-13.5-53.4-35.9-1.3-14.3 6.6-27.8 19.6-36.3" /><circle class="st0" cx="571.3" cy="1066.7" r="25.2" transform="rotate(-45 571.302 1066.734)"/><path class="st0" d="M595.1 1103.9c.4 4.8-3.1 9.1-7.9 9.5l-22.1 2.1c-4.8.4-9.1-3.1-9.5-7.9v0m26.8-121.1c-.4-4.5-4.4-7.8-8.9-7.4L553 981c-4.5.4-7.8 4.4-7.4 8.9l.1 1.2c.4 4.5 4.4 7.8 8.9 7.4l20.5-1.9c4.5-.4 7.8-4.4 7.4-8.9z" /><path class="st0" d="m553 981.1-.9-9.7c-.5-5 3.3-9.5 8.3-10l3.9-.4c5-.5 9.5 3.3 10 8.3l.9 9.7m-20 19.5s5.7 25-14.9 37.2m35.9-39.1s0 24.3 23.2 35.4m509.9 900.2c-1.2-6.5-7.6-10.8-14-9.5l-117.9 22.7c-6.5 1.2-10.8 7.6-9.5 14l11.2 58.1c1.2 6.5 7.6 10.8 14 9.5l117.9-22.7c6.5-1.2 10.8-7.6 9.5-14z" /><path class="st0" d="M1052.5 1972.6c-.7-3.8-4.5-6.4-8.3-5.7l-3.1.6c-3.8.7-6.4 4.5-5.7 8.3l.2 1c.7 3.8 4.5 6.4 8.3 5.7l3.1-.6c3.8-.7 6.4-4.5 5.7-8.3z" /><path class="st0" d="M1047.6 1966.3s13.5-24 25.4-13c9.3 8.6-.9 17-.9 17s5.5 3 6.8 8.8-10.4 25.5-28.6 1.2" /><path class="st0" d="M1052.6 1973.2s10.8-8.5 11.9-2.3c1 6.2-7.3 3-7.3 3m-20.9-5.2s-21.4-17.3-28.4-2.6c-5.5 11.4 7.1 15.4 7.1 15.4s-4 4.8-3.1 10.7 19.1 19.9 27-9.5" /><path class="st0" d="M1034.1 1976.9s-13.2-3.9-11.9 2.3c1.4 6.1 7.9.1 7.9.1m9 3.7 6.4 33.1m-15.6-80.9 6.3 32.5m14.3 13.7 6.4 33.3m-15.6-80.9 6.1 31.8m29.6-4.9 36.4-7m-141.5 27.2 35-6.7m68.9-1.2 40.4-7.8m-141.5 27.2 38-7.3" /><path d="M1021.3 2410.5c-3.7-.9-7.5.6-9.5 3.6-1.8 2.9-2.3 5.8-1.4 8.7 2.2 7 12 11.1 12.4 11.3.2.1.5.2.8.2.8 0 1.5-.5 1.8-1.2.4-1-.1-2.2-1.1-2.6-2.4-1-8.8-4.4-10.1-8.8-.5-1.7-.2-3.5 1-5.3 1.2-1.9 3.5-2.3 5.2-1.9.9.2 3.2 1.1 3.5 4.2.1 1.1 1.1 1.9 2.2 1.8s1.9-1.1 1.8-2.2c-.4-4-2.9-6.9-6.6-7.8"/><path d="M1035.5 2411.8c-3.8-.5-8.8 1.1-11.4 5.6-.5 1-.2 2.2.8 2.7s2.2.2 2.7-.8c1.6-2.9 5-3.9 7.4-3.6.9.1 3.1.6 3.7 2.6.6 2.3.4 4.1-.8 5.8-3 4.3-11.4 5.8-14.5 6.1-1.1.1-1.9 1.1-1.8 2.2.1 1 1 1.8 2 1.8h.2c.5 0 12.7-1.1 17.4-7.8 1.8-2.6 2.3-5.7 1.4-9.1-.9-3-3.5-5-7.1-5.5"/><path d="M1075.8 2323.5c-.3-3.4-3-6.1-6.4-6.3l-85.2-6.6c-1.9-.1-3.8.5-5.2 1.9-1.4 1.3-2.1 3.2-2 5.1.7 13.5 2.2 82.4-36.7 112.8-1.5 1.2-2.2 3.1-1.8 4.9.1.3.2.6.3.8h8.5c-1.6-.4-3-.7-4.2-1-.5-.1-.6-.5-.7-.7 0-.2-.1-.6.3-.9 39.4-30.8 39.2-96.7 38.3-116.1 0-.8.2-1.5.8-2s1.3-.8 2.1-.7l85.2 6.6c1.4.1 2.6 1.2 2.7 2.7 5.3 60.5-16.4 98-26.8 112.2h4.9c4.5-6.4 10.1-15.9 15.1-28.6 9.9-25.4 13.5-53.6 10.8-84.1"/><path class="st0" d="m993.1 2331.1 66.2 5.7m-66.2 3.9 66.2 5.7m-66.2 5.4 66.2 5.6m-67.3 5.4 66.2 5.6m-68.3 4.9 66.2 5.7m-35.9 8.7c.8.1 32.1 2.8 32.1 2.8M565 1723.2c-17.2 0-31.1 7.8-31.1 26.3s13.9 40.6 31.1 40.6 31.1-22.1 31.1-40.6-14-26.3-31.1-26.3" /><path class="st0" d="M559.9 1723.2s-7.8-12.3 5-22.1c0 0 12.9 7.5 6.3 22.5" /><path class="st0" d="M550.7 1725.4s-16.1-6.9-8.7-20.2c0 0 16.2 1.1 14.7 17.4m16.2.5s-1.9-13.4 13.1-16.5c0 0 8.4 9.9-8 17.7m12.7-11.4h5.3c-.1.1 2 11.4-12.4 14.3" /><path class="st0" d="M538.7 1712.9h-7.5s-1.5 13 14.4 14.8" /><path d="M542.4 1735c-1.3 0-2.4 2-2.4 4.6 0 2.5 1.1 4.6 2.4 4.6s2.4-2 2.4-4.6c0-2.5-1-4.6-2.4-4.6m4.8 25.5c-1.3.2-2 2.4-1.6 4.9s1.9 4.3 3.2 4.1 2-2.4 1.6-4.9c-.5-2.5-1.9-4.3-3.2-4.1m6 13.9c-1.2.7-1.1 3 .2 5.2s3.2 3.4 4.4 2.8 1.1-3-.2-5.2-3.3-3.5-4.4-2.8m4-41.8c-1.3 0-2.4 2-2.4 4.6 0 2.5 1.1 4.6 2.4 4.6s2.4-2 2.4-4.6-1.1-4.6-2.4-4.6m1.8 25.3c-1.3.2-2.1 2.4-1.8 4.9s1.7 4.4 3 4.2 2.1-2.4 1.8-4.9-1.7-4.4-3-4.2m-6.7-12.1c-1.3 0-2.4 2-2.4 4.6s1.1 4.6 2.4 4.6 2.4-2 2.4-4.6-1-4.6-2.4-4.6"/><ellipse cx="565.8" cy="1749.7" rx="2.4" ry="4.6"/><path d="M566.2 1770.2c-1.3 0-2.4 2-2.4 4.6s1.1 4.6 2.4 4.6 2.4-2 2.4-4.6-1-4.6-2.4-4.6m11.8 3.9c-1.2-.5-3 1-3.9 3.4-.9 2.3-.7 4.6.5 5.1s3-1 3.9-3.4c1-2.3.7-4.6-.5-5.1m-38.4-24.3c-1.3.2-2 2.4-1.6 4.9s1.9 4.3 3.2 4.1 2-2.4 1.6-4.9c-.5-2.5-1.9-4.3-3.2-4.1m51.8 1.6c-1.3-.4-2.9 1.3-3.6 3.7s-.2 4.7 1 5.1c1.3.4 2.9-1.3 3.6-3.7s.2-4.7-1-5.1m-11.2-4.4c-1.3-.4-2.9 1.3-3.6 3.7s-.2 4.7 1 5.1c1.3.4 2.9-1.3 3.6-3.7.7-2.5.3-4.7-1-5.1"/><ellipse cx="573.9" cy="1738" rx="2.4" ry="4.6"/><path d="M572 1757.8c-1.3 0-2.4 2-2.4 4.6 0 2.5 1.1 4.6 2.4 4.6s2.4-2 2.4-4.6c0-2.5-1-4.6-2.4-4.6"/><ellipse cx="587.2" cy="1742.1" rx="2.4" ry="4.6"/><path d="M583.8 1761.7c-1.2-.5-3 .9-4.1 3.2s-.9 4.6.3 5.2 3-.9 4.1-3.2c1-2.3.9-4.6-.3-5.2"/><path class="st0" d="M772.9 1468.4c-2.4-10.4-16.9-12.9-21-4.8-9.4 18.4 20.5 26.6 20.5 26.6" /><path class="st0" d="M772.9 1468.4c2.7-10.3 16.4-12.1 20-3.8 8 18.8-20.5 25.6-20.5 25.6" /><path class="st0" d="M833 1410.7H713.7c-6.6 0-12 5.4-12 12v91.2c0 6.6 5.4 12 12 12H833c6.6 0 12-5.4 12-12v-91.2c0-6.6-5.4-12-12-12" /><circle class="st0" cx="773.4" cy="1471.7" r="42.1" transform="rotate(-80.782 773.375 1471.738)"/><circle class="st0" cx="773.4" cy="1471.7" r="31.9" /><path class="st0" d="M823.7 1412.1v113.8m-87.9-104.2h-16.5c-2 0-3.6 1.6-3.6 3.6v3.2c0 2 1.6 3.6 3.6 3.6h16.5c2 0 3.6-1.6 3.6-3.6v-3.2c0-1.9-1.6-3.6-3.6-3.6m57.5-47.9h-34.7c-4.7 0-8.6 3.9-8.6 8.6v7.7c0 4.7 3.9 8.6 8.6 8.6h34.7c4.7 0 8.6-3.9 8.6-8.6v-7.7c0-4.8-3.9-8.6-8.6-8.6m-78.9 34.5v-6.4c0-3.8 5.9-6.9 13.2-6.9h0c7.2 0 13.2 3.1 13.2 6.9v6.4" /><path class="st0" d="M760.1 1398.4c.7 1.5 0 12.3 0 12.3m32.7-12.3c.7 1.5 0 12.3 0 12.3m-89.5 695.5c13 3.1 37 4.9 57.9-15.9 0 0-9.3-2.1-15.4-27.8-1.7-7.2-4.1-12.5-6.9-16.4" /><path class="st0" d="M701.8 2096.8s24.3 10.1 53-12.1m-15.4 22.6c.5 5.1-3.2 9.6-8.2 10.1-5.1.5-9.6-3.2-10.1-8.2" /><path class="st0" d="M702.9 2040.8c5.3 3.8 14.7 14.2 4.7 37-10.6 24.2-4.4 31.4-4.4 31.4s-40.2 7.1-61.7-30c0 0 9.5.5 22.2-22.7 2.4-4.4 4.9-7.8 7.3-10.5" /><path class="st0" d="M700.6 2100.9s-29.5 3.5-51.3-25.5m8.9 25.9c-1.8 4.7.5 10.1 5.3 11.9 4.7 1.8 10.1-.5 11.9-5.3m31.8-82.2-3.2.1c-3.9.1-7 3.4-6.9 7.3v1c.1 3.9 3.4 7 7.3 6.9l3.2-.1c3.9-.1 7-3.4 6.9-7.3v-1c-.1-3.9-3.4-7-7.3-6.9" /><path class="st0" d="M710.6 2025.6s17.3-21.4 27.2-8.7c7.8 10-3.7 16.6-3.7 16.6s5 3.8 5.3 9.7-14.5 23.5-28.4-3.5" /><path class="st0" d="M714.5 2033.1s12.1-6.6 12.1-.3-7.7 1.8-7.7 1.8m-19.7-8.6s-18.3-20.5-27.6-7.3c-7.3 10.4 4.5 16.4 4.5 16.4s-4.8 4.1-4.8 10 15.6 22.7 28.2-5" /><path class="st0" d="M695.7 2033.8s-12.4-6-12.1.3 7.7 1.4 7.7 1.4" /><ellipse class="st0" cx="288.7" cy="1574.4" rx="13.7" ry="6.2"/><path class="st0" d="M303.6 1649.3c0 3.4-6.1 6.2-13.7 6.2s-13.7-2.8-13.7-6.2m-1.2-74.9 1.4 76m26-76 1.2 74.9" /><path class="st0" d="M303.6 1637.5c14.5 8.9 16.7 13.6 16.7 13.6-36.9 28.4-60.7 17.5-61.8 7.9s8.4-11.8 8.4-11.8-5.8-15.6 8.9-17.1" /><path class="st0" d="M258.4 1659.1s-.8 13.8 20 18.2 40.4-11.6 41.8-26.1m-36.5-90.3c9.9 9.9 21-8.2 8.8-23.9-.1-.1-18.7 14-8.8 23.9" /><path class="st0" d="M288.7 1555.2s-2 14.8 0 18.1m757-488c-7.3-10.9-24.9-7.5-26.2 3.6-1.6 14.1 9.7 19.2 19.8 20.9m6.4-24.5c-1.3-13 13.6-21 21.2-13 10.6 11.1 3.5 23-3.6 30.5" /><path class="st0" d="M1074.1 1075.5c-4.1-12.5-20.8-12.9-24.9-2.6m24.9 2.6c2.3-12.9 16.4-14.7 21.5-5 7.5 14-4.4 20.9-10.1 27.1m-39.2-28.8c-9.1-9.5-25.9-3-25.2 8.1.1 2 .5 3.8 1 5.4" /><path class="st0" d="M1046.3 1068.8c-3.5-12.6 9.8-23 18.7-16.5 7.2 5.3 8.6 11.9 7.3 18.2m-16.6 61.3c.5 1.4 32.9 40.7 32.9 40.7l-3.4-63.9" /><path class="st0" d="M1039.3 1109.8c.4.8 9.5 12.9 8.1 19.8s8.7 8.9 7.9 1c-.9-7.9-7.8-17-1-15.9s5.9 2.2 10.6.9c6-1.6 3.5-14.3 9.3-10.4 5.8 3.8 13 4.7 13.7.7s-2.3-8.2-2.3-8.2m-733.5 319.8c-5.4-.1-8.4 6.6-5 9.7 7.8 6.9 15.6-6.7 15.6-6.7" /><path class="st0" d="M352.1 1417.5c-4.7-2.6-3.8-9.6.7-10.2 10.2-1.5 9.9 13.3 9.9 13.3m-92.7 9.2c-2.2 3.5-5.4 6.4-9.3 8.4-11.7 6-26.1 1.3-32-10.5-4.9-9.7-2.6-21.2 5-28.2" /><path class="st0" d="M268.5 1409.3c1.9 8.5-7.6 18.3-12.1 20.6-7.1 3.6-15.8.8-19.4-6.3s-.8-15.8 6.3-19.4c3.1-1.6 6.6-1.9 9.7-1.2m22.7-25.8c11.7-6 24.4-1.6 30.3 10.1 6 11.7 1.3 26.1-10.5 32q-6 3-11.7 2.7" /><path class="st0" d="M270.4 1392.8c1.3-2.2 7.1-6 9.6-7.3 7.1-3.6 14.5-.8 18.1 6.3s.2 14.9-6.3 19.4c-7.5 5.1-18.1 1-22.3-2m-36.3-10.5c-6-11.7-1.3-26.1 10.5-32 11.7-6 26.1-1.3 32 10.5" /><path class="st0" d="M252 1402.2c-4.3-.8-8.2-3.5-10.4-7.7-3.6-7.1-.8-15.8 6.3-19.4s24.6-2.7 22.5 17.7m13.5 29.2 46.7 80.8c2.5 4.4 1.6 9.8-2 11.9h0c-3.7 2.1-8.8.3-11.3-4.2l-46.7-80.8m52.3 59.6 16.4-9.5c4-2.3 9.5-.4 12.2 4.2h0c2.7 4.7 1.6 10.4-2.4 12.7l-16.4 9.5m-20.4-35.1 16.4-9.5c4-2.3 9.5-.4 12.2 4.2h0c2.7 4.7 1.6 10.4-2.4 12.7l-16.4 9.5m53.9-82.7-45.8-16.2c-3-1.1-6.4.5-7.5 3.6l-9.2 26c-1.1 3 .5 6.4 3.6 7.5l45.8 16.2c3 1.1 6.4-.5 7.5-3.6l9.2-26c1.1-3.1-.5-6.4-3.6-7.5" /><path class="st0" d="M327.8 1405.2c-2.1 1.2-2.8 3.9-1.6 6s3.9 2.8 6 1.6 2.8-3.9 1.6-6-3.9-2.8-6-1.6" /><path class="st0" d="M297.7 1395.6s-5.8 23.4 31.6 12.3m-8.8-8.9-12.6-6.7m164.5-137.9c-2-8.7-14.1-10.7-17.5-4-7.9 15.3 17.1 22.2 17.1 22.2" /><path class="st0" d="M472.4 1254.4c2.3-8.6 13.7-10.1 16.6-3.2 6.7 15.7-17.1 21.4-17.1 21.4m66.6-59.3c-.9-1.1-1.6-2.4-2.1-3.7-8.7-25.1-54.1-23.2-50.6 17.4 3.5 41 75.6 43.7 88.9 5.3.9-2.6-4.5-4.4-11.5-6.6" /><path class="st0" d="m486.8 1212.6-13.2 5.3 12.4 10.2m24.1-20.2c-1.7-.1-3.2 2.9-3.3 6.5-.1 3.7 1.2 6.7 2.9 6.7 1.7.1 3.2-2.9 3.3-6.5.1-3.7-1.2-6.7-2.9-6.7m18.9 20.4s-6.7-19.2 32.7-17.4c0 0 1.2 7.2-5.3 10.3m5.2-2.6c0 .9 4.9 8.9-8 11.2m6.4.2s1.7 5.5-13.9 5.4m-29.1 23.8s1.3 6.8 7.4 8.2m3.1-7.9s1.3 6.8 7.4 8.2m-61.3-49.8-1.8 34.8M241.6 1852c-11.1-5.3-20.2-13.9-25.5-25.4-2.4-5.2-3.9-10.6-4.4-16.1m93-63.3c11.7 5.2 21.3 14.1 26.8 26 8.8 19 3.1 43.2-10 60.1m-105-51.6c6.2-13.8 17.9-26 33.5-33.2 6.9-3.2 14-5.2 21.1-6m-54.6 39.2s-12.2-4-31.3 3.2c-2.3.9-3 3.7-1.4 5.6 5.1 5.7 12.1 15.7 27.8 20m59.5-68s1.3-13.1 11.8-24.6c1.4-1.5 3.8-1.6 5.3-.1 4.7 4.5 13.9 15 16.4 29.5" /><path class="st0" d="M287.2 1732.2c-2.3-.2-4.1 5.4-4.4 8.5-.3 3 1.6 3 4 3.2s4.2.6 4.5-2.4c.3-3.1-1.7-9.1-4.1-9.3m156.3 29.7c-1.6 2.8-1 3.5.6 5.3s2.7 3.6 5.2 1.5 4.5-10 2.9-11.9c-1.6-1.8-7.5 3.1-8.7 5.1m-76.2-16c0-2.3-2.6-9.6-5.1-8.7-2.4.9-4.9 8.9-3.8 11.9m-148.6 41c-3.5-.8-9.8-.2-10.3 2.1-.5 2.4 4.9 5.6 8.3 6.4 3.5.8 3.6-1.2 4.2-3.6.6-2.3 1.3-4.1-2.2-4.9m48.9 12.5c2.7 4.1 1.6 9.7-2.6 12.4-4.1 2.7-9.7 1.6-12.4-2.6m53.2-34.9c2.7 4.1 1.6 9.7-2.6 12.4-4.1 2.7-9.7 1.6-12.4-2.6m94 3.4c-.8 4.9-5.4 8.2-10.3 7.4s-8.2-5.4-7.4-10.3m58.9 9.6c-.8 4.9-5.4 8.2-10.3 7.4s-8.2-5.4-7.4-10.3M294 1826.2c-.4.3-.7.5-1.1.7-10.9 7.1-22.9 8-27 1.8m39.4-25.8q.9 1.35 1.2 3m-28.6 7.1 6.8.9 1.6-6.1m-1.6 6.1 6.5 10.3m84.8-16 4.7 5 5.2-3.8m-5.2 3.8-1.9 16m-82.9-15.3c3.9 6-.3 11.3-.3 11.3 11.3-5 14.6-14.6 9.2-19.5-5.5-4.9-12.9 2.1-8.9 8.2m72.7 29.2c3.9 6.2 12.6 4.5 12.6-2.7s6.4-9.3 6.4-9.3c-18.6-3.9-22.2 7-19 12m-123.5 8.2s-15.5.5-25.4 20.2-7.5 37.8-.2 42.1 39 6 61.2-18.7c0 0 10.2 4.8 21.8-5.3 6.3-5.4 6.3-11.9 5.3-16.4-.7-2.8-3.6-4.5-6.4-3.7-6 1.8-16.6 4.3-21.2 1.2-6.5-4.4-5.2-7.2-5.2-7.2s-7.5 2.4-5.7 11.6c0 0-22.5 1.4-35.8 6" /><path class="st0" d="M321 1833.2s15.5 2.2 21.7 12.9c6.7 11.6 8.6 19.6 11.4 36.7 2.6 15.5-4 27-16.3 30.6-6.4 1.9-27.7-4.3-37.5-10.5-6-3.8-14 1-20.3-5.8" /><path class="st0" d="M331.4 1879.9c-3.7-1.7-15-4.3-22.1 0m37.8 29.2c4.6 11.2 5 18.2 3.9 30.3-1.2 12.8-6.3 24.3-14.3 33.7m-112.2 1.1c-12-12.9-18.6-29.9-16.9-47.8.7-7.9 2.9-15.2 6.4-21.9m75.9 93c-2.2.3-4.4.4-6.7.5m-58.7-23.8s20.8 75.9 79 86.4c0 0 16.4.5 11.4-9-5-9.6-32.1-22.1-31.8-53" /><path class="st0" d="M303.9 2040c22.1-25.9 32.8-66.9 32.8-66.9m-68 71.3c-1.8 2.2-3.3 4.2-4 6.1-3.7 9.3 8.4 9.5 8.4 9.5 4.6-.9 8.9-2.5 13-4.8m3.8-57.7c.1 7.7-1.2 14.2-3.3 19.9m-74.9-63.3s-68.2 13.7-53.5 69.3c14.8 55.6 79.4 44.5 79.8 28.4.4-16.2-26.8-9.8-40.1-19.8-12.9-9.7-40.8-39.3 21.1-64.5m254.9-19.6s49.1 31.7 27.6 84-76.5 48.2-74.2 32.2 18.9-10.7 31.6-18.3c12.3-7.4 53.8-46.9 7.7-82.3M278 1899.2l2.9 21.5 10.6-18.3m-16.5-57.2s-14.7 9.6-1.1 12c0 0 7.5 14 17.6 1.6 0 0 6.8 18.8 15.3 2 0 0 5.1 5.7 7.6-.7 2.4-6.5-.9-11.8-6.9-13.6 0 0 .5-5.4-2.6-8.2s-8.6.7-8.6.7-3.6-5.8-11.7-3.4-11.4 5.1-9.5 8.6m105.8 1.2c2-.4 4.6-.3 7.6 1.2 7.7 3.9 10.5 7.1 7.9 10.2m0 1s12.9 12.1-1.1 12c0 0-10.1 12.4-17.9-1.6 0 0-10.3 17.3-15.6-.8 0 0-6.2 4.7-7.4-2.1s3.1-11.5 9.3-12.1c0 0 .5-5.4 4.1-7.6.4-.3.9-.4 1.3-.5m85.5-59.9c1.9 6.4 2.7 13.3 2 20.3-1.2 13.6-7.5 25.6-16.9 34.7m-104.2-56.3c7.7-26.1 34.6-44 64.8-41.2 13.9 1.3 26.4 6.7 36.1 14.9m-80.8 79.6c-9.7-6-18.6-17.6-21.4-30.9" /><path class="st0" d="M348.2 1761.8s-2.2-17.5 10.7-36c1-1.4 2.9-1.5 4-.2 3.5 4 10.1 12.5 11.6 19.8m61.8 12.2s17.1-18.1 26-14.7c9.5 3.6-7.7 42.4-7.7 42.4m-49 33.2c-1.3 8.5-12.4 13.8-24.9 12s-20.2-10.1-19-18.5m78.6 27.6s14.5 1.2 21.9 16.8c4.6 9.7 8.4 44.5-3.4 58-11.9 13.5-62-.5-62-.5s-32.5 5.6-34.3-18.8c-1.6-22.2 9.8-4.7 19.7-5s16.7-6.1 17.6-8.4 8.3 6.2 5.4 11.4c0 0 11-6 28.4-7.2m-38.7 0 3.7-16.4" /><path class="st0" d="m379.1 1913.4 6.3 15.2 3.2-14.1m-28.2-46.3 6.6 15.9m-14.4-47.2s-9.6 2.8-10.9 7.6m123.1 57.3c6.8 10.8 10.2 23.4 9 36.5-2.1 23.3-18.1 42.4-40.1 51.2" /><path class="st0" d="M390.2 1961.6s-27.3 11.7-23 45.1c4 31.2 6.7 28.3.3 34.8-4.3 4.4-15.3 7.3-11.7 17.4s19.4.2 30.3-10.2c14.4-13.9-3.2-36.4 55.8-63.1" /><path class="st0" d="M344.8 1961s-8.8 43.6 25.8 75.2m18 12.5s12.5 6.7 22.5 4-16.6-24.4-14.1-30.3m31.2-148.9-2.4 12.9" /><path d="M812.8 2062.5h-15.1c-1.1 0-2 .9-2 2s.9 2 2 2h15.1c-.3-.6-.4-1.3-.4-2s.1-1.3.4-2m23.4 0h-14.5c.3.6.4 1.3.4 2s-.2 1.4-.4 2h14.5c1.1 0 2-.9 2-2s-.9-2-2-2m-19.2-18.3c-1.1 0-2 .9-2 2v14c.7-.4 1.5-.6 2.3-.6.6 0 1.2.1 1.7.3v-13.7c0-1.1-.9-2-2-2m-2 24.7v15.9c0 1.1.9 2 2 2s2-.9 2-2v-15.6c-.5.2-1.1.3-1.7.3-.9 0-1.6-.3-2.3-.6m-270.3-27.6h-15.1c-1.1 0-2 .9-2 2s.9 2 2 2h15.1c-.3-.6-.4-1.3-.4-2-.1-.7.1-1.4.4-2m23.4-.1h-14.5c.3.6.4 1.3.4 2s-.2 1.4-.4 2h14.5c1.1 0 2-.9 2-2s-.9-2-2-2m-19.3-18.3c-1.1 0-2 .9-2 2v14c.7-.4 1.5-.6 2.3-.6.6 0 1.2.1 1.7.3v-13.7c0-1.1-.9-2-2-2m-2 24.7v15.9c0 1.1.9 2 2 2s2-.9 2-2v-15.6c-.5.2-1.1.3-1.7.3-.8 0-1.6-.2-2.3-.6m450.5 16h-15.1c-1.1 0-2 .9-2 2s.9 2 2 2h15.1c-.3-.6-.4-1.3-.4-2s.2-1.4.4-2m23.5 0h-14.5c.3.6.4 1.3.4 2s-.2 1.4-.4 2h14.5c1.1 0 2-.9 2-2 0-1.2-.9-2-2-2m-19.3-18.3c-1.1 0-2 .9-2 2v14c.7-.4 1.5-.6 2.3-.6.6 0 1.2.1 1.7.3v-13.7c0-1.1-.9-2-2-2m-2 24.6v15.9c0 1.1.9 2 2 2s2-.9 2-2v-15.6c-.5.2-1.1.3-1.7.3-.8 0-1.6-.2-2.3-.6m-836.6-223h-15.1c-1.1 0-2 .9-2 2s.9 2 2 2h15.1c-.3-.6-.4-1.3-.4-2-.1-.8.1-1.4.4-2m23.4-.1h-14.5c.3.6.4 1.3.4 2s-.2 1.4-.4 2h14.5c1.1 0 2-.9 2-2s-.9-2-2-2m-19.3-18.3c-1.1 0-2 .9-2 2v14c.7-.4 1.5-.6 2.3-.6.6 0 1.2.1 1.7.3v-13.7c0-1.1-.9-2-2-2m-2 24.7v15.9c0 1.1.9 2 2 2s2-.9 2-2v-15.6c-.5.2-1.1.3-1.7.3-.8 0-1.6-.3-2.3-.6m203.2-188.3h-15.1c-1.1 0-2 .9-2 2s.9 2 2 2h15.1c-.3-.6-.4-1.3-.4-2s.1-1.4.4-2m23.5 0s-.1 0 0 0h-14.5c.3.6.4 1.3.4 2s-.2 1.4-.4 2h14.5c1.1 0 2-.9 2-2-.1-1.1-.9-2-2-2m-19.3-18.3c-1.1 0-2 .9-2 2v14c.7-.4 1.5-.6 2.3-.6.6 0 1.2.1 1.7.3v-13.7c0-1.1-.9-2-2-2m-2 24.6v15.9c0 1.1.9 2 2 2s2-.9 2-2v-15.6c-.5.2-1.1.3-1.7.3-.8 0-1.6-.2-2.3-.6m234.5-495h-15.1c-1.1 0-2 .9-2 2s.9 2 2 2h15.1c-.3-.6-.4-1.3-.4-2 0-.8.1-1.4.4-2m23.4-.1h-14.5c.3.6.4 1.3.4 2s-.2 1.4-.4 2h14.5c1.1 0 2-.9 2-2s-.9-2-2-2m-19.2-18.3c-1.1 0-2 .9-2 2v14c.7-.4 1.5-.6 2.3-.6.6 0 1.2.1 1.7.3v-13.7c0-1.1-.9-2-2-2m-2 24.7v15.9c0 1.1.9 2 2 2s2-.9 2-2v-15.6c-.5.2-1.1.3-1.7.3-.9 0-1.6-.3-2.3-.6m-42.6-286h-15.1c-1.1 0-2 .9-2 2s.9 2 2 2h15.1c-.3-.6-.4-1.3-.4-2s.1-1.4.4-2m23.4 0h-14.5c.3.6.4 1.3.4 2s-.2 1.4-.4 2h14.5c1.1 0 2-.9 2-2s-.9-2-2-2m-19.2-18.3c-1.1 0-2 .9-2 2v14c.7-.4 1.5-.6 2.3-.6.6 0 1.2.1 1.7.3v-13.7c0-1.1-.9-2-2-2m-2 24.6v15.9c0 1.1.9 2 2 2s2-.9 2-2v-15.6c-.5.2-1.1.3-1.7.3-.9 0-1.7-.2-2.3-.6m493.4-543.4H1045c-1.1 0-2 .9-2 2s.9 2 2 2h15.1c-.3-.6-.4-1.3-.4-2-.1-.7.1-1.4.4-2m23.4-.1H1069c.3.6.4 1.3.4 2s-.2 1.4-.4 2h14.5c1.1 0 2-.9 2-2s-.9-2-2-2m-19.3-18.2c-1.1 0-2 .9-2 2v14c.7-.4 1.5-.6 2.3-.6.6 0 1.2.1 1.7.3v-13.7c0-1.1-.9-2-2-2m-2 24.6v15.9c0 1.1.9 2 2 2s2-.9 2-2V366c-.5.2-1.1.3-1.7.3-.8 0-1.6-.2-2.3-.6M854.9 854.2h-15.1c-1.1 0-2 .9-2 2s.9 2 2 2h15.1c-.3-.6-.4-1.3-.4-2s.1-1.4.4-2m23.4-.1h-14.5c.3.6.4 1.3.4 2s-.2 1.4-.4 2h14.5c1.1 0 2-.9 2-2s-.9-2-2-2m-19.2-18.3c-1.1 0-2 .9-2 2v14c.7-.4 1.5-.6 2.3-.6.6 0 1.2.1 1.7.3v-13.7c0-1.1-.9-2-2-2m-2 24.7v15.9c0 1.1.9 2 2 2s2-.9 2-2v-15.6c-.5.2-1.1.3-1.7.3-.9 0-1.6-.2-2.3-.6m-58.6-400.9h-15.1c-1.1 0-2 .9-2 2s.9 2 2 2h15.1c-.3-.6-.4-1.3-.4-2s.1-1.4.4-2m23.5 0h-14.5c.3.6.4 1.3.4 2s-.2 1.4-.4 2H822c1.1 0 2-.9 2-2s-.9-2-2-2m-19.3-18.3c-1.1 0-2 .9-2 2v14c.7-.4 1.5-.6 2.3-.6.6 0 1.2.1 1.7.3v-13.7c0-1.1-.9-2-2-2m-2 24.6v15.9c0 1.1.9 2 2 2s2-.9 2-2v-15.6c-.5.2-1.1.3-1.7.3-.8 0-1.6-.2-2.3-.6m-44.5-253.7h-15.1c-1.1 0-2 .9-2 2s.9 2 2 2h15.1c-.3-.6-.4-1.3-.4-2s.1-1.4.4-2m23.4 0h-14.5c.3.6.4 1.3.4 2s-.2 1.4-.4 2h14.5c1.1 0 2-.9 2-2 0-1.2-.9-2-2-2m-19.2-18.3c-1.1 0-2 .9-2 2v14c.7-.4 1.5-.6 2.3-.6.6 0 1.2.1 1.7.3v-13.7c0-1.1-.9-2-2-2m-2 24.6v15.9c0 1.1.9 2 2 2s2-.9 2-2v-15.6c-.5.2-1.1.3-1.7.3-.9 0-1.6-.2-2.3-.6m-402.8-68.8h-15.1c-1.1 0-2 .9-2 2s.9 2 2 2h15.1c-.3-.6-.4-1.3-.4-2 0-.8.2-1.4.4-2m23.5-.1h-14.5c.3.6.4 1.3.4 2s-.2 1.4-.4 2h14.5c1.1 0 2-.9 2-2s-.9-2-2-2m-19.3-18.3c-1.1 0-2 .9-2 2v14c.7-.4 1.5-.6 2.3-.6.6 0 1.2.1 1.7.3v-13.7c0-1.1-.9-2-2-2m-2 24.7v15.9c0 1.1.9 2 2 2s2-.9 2-2v-15.6c-.5.2-1.1.3-1.7.3-.8 0-1.6-.3-2.3-.6m-151 551.6h-15.1c-1.1 0-2 .9-2 2s.9 2 2 2h15.1c-.3-.6-.4-1.3-.4-2s.1-1.4.4-2m23.4-.1h-14.5c.3.6.4 1.3.4 2s-.2 1.4-.4 2h14.5c1.1 0 2-.9 2-2s-.9-2-2-2M211 689.2c-1.1 0-2 .9-2 2v14c.7-.4 1.5-.6 2.3-.6.6 0 1.2.1 1.7.3v-13.7c0-1.1-.9-2-2-2m-2 24.7v15.9c0 1.1.9 2 2 2s2-.9 2-2v-15.6c-.5.2-1.1.3-1.7.3-.9 0-1.6-.3-2.3-.6M958.1 1304H943c-1.1 0-2 .9-2 2s.9 2 2 2h15.1c-.3-.6-.4-1.3-.4-2 0-.8.1-1.4.4-2m23.4-.1H967c.3.6.4 1.3.4 2s-.2 1.4-.4 2h14.5c1.1 0 2-.9 2-2s-.9-2-2-2m-19.2-18.3c-1.1 0-2 .9-2 2v14c.7-.4 1.5-.6 2.3-.6.6 0 1.2.1 1.7.3v-13.7c0-1.1-.9-2-2-2m-2 24.7v15.9c0 1.1.9 2 2 2s2-.9 2-2v-15.6c-.5.2-1.1.3-1.7.3-.9 0-1.6-.3-2.3-.6m-784.7 1109h-15.1c-1.1 0-2 .9-2 2s.9 2 2 2h15.1c-.3-.6-.4-1.3-.4-2-.1-.7.1-1.4.4-2m23.4 0h-14.5c.3.6.4 1.3.4 2s-.2 1.4-.4 2H199c1.1 0 2-.9 2-2s-.9-2-2-2m-19.3-18.3c-1.1 0-2 .9-2 2v14c.7-.4 1.5-.6 2.3-.6.6 0 1.2.1 1.7.3V2403c0-1.1-.8-2-2-2m.4 25.2c-.8 0-1.6-.2-2.3-.6v10.4h4v-10.1c-.6.2-1.1.3-1.7.3m597.1-273h-11.3c-.8 0-1.5.7-1.5 1.5s.7 1.5 1.5 1.5h11.3q-.3-.75-.3-1.5-.15-.9.3-1.5m17.6-.1h-10.9q.3.75.3 1.5t-.3 1.5h10.9c.8 0 1.5-.7 1.5-1.5s-.7-1.5-1.5-1.5m-14.5-13.7c-.8 0-1.5.7-1.5 1.5v10.5c.5-.3 1.1-.5 1.7-.5.4 0 .9.1 1.3.2v-10.3c0-.7-.7-1.4-1.5-1.4m-1.5 18.5v11.9c0 .8.7 1.5 1.5 1.5s1.5-.7 1.5-1.5v-11.7c-.4.1-.8.2-1.3.2-.6.1-1.2-.1-1.7-.4m-662-106.7h-11.3c-.8 0-1.5.7-1.5 1.5s.7 1.5 1.5 1.5h11.3q-.3-.75-.3-1.5 0-.9.3-1.5m17.7-.1h-10.9q.3.75.3 1.5t-.3 1.5h10.9c.8 0 1.5-.7 1.5-1.5s-.7-1.5-1.5-1.5m-14.5-13.7c-.8 0-1.5.7-1.5 1.5v10.5c.5-.3 1.1-.5 1.7-.5.4 0 .9.1 1.3.2v-10.3c0-.7-.7-1.4-1.5-1.4m-1.5 18.5v11.9c0 .8.7 1.5 1.5 1.5s1.5-.7 1.5-1.5v-11.7c-.4.1-.8.2-1.3.2-.6.1-1.2-.1-1.7-.4m-75.2-276.4H32c-.8 0-1.5.7-1.5 1.5s.7 1.5 1.5 1.5h11.3q-.3-.75-.3-1.5 0-.9.3-1.5m17.6-.1H50q.3.75.3 1.5t-.3 1.5h10.9c.8 0 1.5-.7 1.5-1.5s-.6-1.5-1.5-1.5m-14.4-13.7c-.8 0-1.5.7-1.5 1.5v10.5c.5-.3 1.1-.5 1.7-.5.4 0 .9.1 1.3.2v-10.3c0-.7-.7-1.4-1.5-1.4m-1.5 18.5v11.9c0 .8.7 1.5 1.5 1.5s1.5-.7 1.5-1.5v-11.7c-.4.1-.8.2-1.3.2-.6.1-1.2-.1-1.7-.4m306-222.1h-11.3c-.8 0-1.5.7-1.5 1.5s.7 1.5 1.5 1.5H351q-.3-.75-.3-1.5c-.1-.6.1-1.1.3-1.5m17.6-.1h-10.9q.3.75.3 1.5t-.3 1.5h10.9c.8 0 1.5-.7 1.5-1.5s-.7-1.5-1.5-1.5m-14.5-13.7c-.8 0-1.5.7-1.5 1.5v10.5c.5-.3 1.1-.5 1.7-.5.4 0 .9.1 1.3.2v-10.3c0-.7-.7-1.4-1.5-1.4m-1.5 18.5v11.9c0 .8.7 1.5 1.5 1.5s1.5-.7 1.5-1.5V1567c-.4.1-.8.2-1.3.2-.6 0-1.2-.1-1.7-.4m385.7 186.8H727c-.8 0-1.5.7-1.5 1.5s.7 1.5 1.5 1.5h11.3q-.3-.75-.3-1.5t.3-1.5m17.6 0H745q.3.75.3 1.5t-.3 1.5h10.9c.8 0 1.5-.7 1.5-1.5s-.7-1.5-1.5-1.5m-14.5-13.7c-.8 0-1.5.7-1.5 1.5v10.5c.5-.3 1.1-.5 1.7-.5.4 0 .9.1 1.3.2v-10.3c0-.8-.6-1.4-1.5-1.4m-1.5 18.5v11.9c0 .8.7 1.5 1.5 1.5s1.5-.7 1.5-1.5v-11.7c-.4.1-.8.2-1.3.2-.6 0-1.2-.1-1.7-.4m150-338.5h-11.3c-.8 0-1.5.7-1.5 1.5s.7 1.5 1.5 1.5h11.3q-.3-.75-.3-1.5 0-.9.3-1.5m17.6-.1h-10.9q.3.75.3 1.5t-.3 1.5h10.9c.8 0 1.5-.7 1.5-1.5s-.7-1.5-1.5-1.5m-14.5-13.7c-.8 0-1.5.7-1.5 1.5v10.5c.5-.3 1.1-.5 1.7-.5.4 0 .9.1 1.3.2v-10.3c0-.8-.7-1.4-1.5-1.4m-1.5 18.5v11.9c0 .8.7 1.5 1.5 1.5s1.5-.7 1.5-1.5v-11.7c-.4.1-.8.2-1.3.2-.6 0-1.2-.1-1.7-.4m232.6-277.9h-11.3c-.8 0-1.5.7-1.5 1.5s.7 1.5 1.5 1.5h11.3q-.3-.75-.3-1.5t.3-1.5m-627.6 174.4h-11.3c-.8 0-1.5.7-1.5 1.5s.7 1.5 1.5 1.5h11.3q-.3-.75-.3-1.5 0-.9.3-1.5m17.6-.1h-10.9q.3.75.3 1.5t-.3 1.5h10.9c.8 0 1.5-.7 1.5-1.5s-.7-1.5-1.5-1.5m-14.5-13.7c-.8 0-1.5.7-1.5 1.5v10.5c.5-.3 1.1-.5 1.7-.5.4 0 .9.1 1.3.2v-10.3c0-.7-.7-1.4-1.5-1.4m-1.5 18.5v11.9c0 .8.7 1.5 1.5 1.5s1.5-.7 1.5-1.5V1326c-.4.1-.8.2-1.3.2-.6.1-1.2-.1-1.7-.4M386 992.4h-11.3c-.8 0-1.5.7-1.5 1.5s.7 1.5 1.5 1.5H386q-.3-.75-.3-1.5t.3-1.5m17.6 0h-10.9q.3.75.3 1.5t-.3 1.5h10.9c.8 0 1.5-.7 1.5-1.5s-.7-1.5-1.5-1.5m-14.5-13.7c-.8 0-1.5.7-1.5 1.5v10.5c.5-.3 1.1-.5 1.7-.5.4 0 .9.1 1.3.2v-10.3c0-.8-.6-1.4-1.5-1.4m-1.5 18.5v11.9c0 .8.7 1.5 1.5 1.5s1.5-.7 1.5-1.5v-11.7c-.4.1-.8.2-1.3.2-.6 0-1.1-.2-1.7-.4m683-317.6h-11.3c-.8 0-1.5.7-1.5 1.5s.7 1.5 1.5 1.5h11.3q-.3-.75-.3-1.5t.3-1.5m17.7 0h-10.9q.3.75.3 1.5t-.3 1.5h10.9c.8 0 1.5-.7 1.5-1.5s-.7-1.5-1.5-1.5m-14.5-13.7c-.8 0-1.5.7-1.5 1.5v10.5c.5-.3 1.1-.5 1.7-.5.4 0 .9.1 1.3.2v-10.3c0-.8-.7-1.4-1.5-1.4m-1.5 18.5v11.9c0 .8.7 1.5 1.5 1.5s1.5-.7 1.5-1.5v-11.7c-.4.1-.8.2-1.3.2-.6 0-1.2-.1-1.7-.4M710 722.6h-11.3c-.8 0-1.5.7-1.5 1.5s.7 1.5 1.5 1.5H710q-.3-.75-.3-1.5 0-.9.3-1.5m17.6-.1h-10.9q.3.75.3 1.5t-.3 1.5h10.9c.8 0 1.5-.7 1.5-1.5s-.7-1.5-1.5-1.5m-14.5-13.7c-.8 0-1.5.7-1.5 1.5v10.5c.5-.3 1.1-.5 1.7-.5.4 0 .9.1 1.3.2v-10.3c0-.7-.6-1.4-1.5-1.4m-1.5 18.5v11.9c0 .8.7 1.5 1.5 1.5s1.5-.7 1.5-1.5v-11.7c-.4.1-.8.2-1.3.2-.6.1-1.1-.1-1.7-.4m224.7-242.5H925c-.8 0-1.5.7-1.5 1.5s.7 1.5 1.5 1.5h11.3q-.3-.75-.3-1.5t.3-1.5m17.6 0H943q.3.75.3 1.5t-.3 1.5h10.9c.8 0 1.5-.7 1.5-1.5s-.6-1.5-1.5-1.5m-14.4-13.7c-.8 0-1.5.7-1.5 1.5v10.5c.5-.3 1.1-.5 1.7-.5.4 0 .9.1 1.3.2v-10.3c0-.8-.7-1.4-1.5-1.4m-1.5 18.5v11.9c0 .8.7 1.5 1.5 1.5s1.5-.7 1.5-1.5v-11.7c-.4.1-.8.2-1.3.2-.6 0-1.2-.1-1.7-.4M511.6 24.1h-11.3c-.8 0-1.5.7-1.5 1.5s.7 1.5 1.5 1.5h11.3q-.3-.75-.3-1.5t.3-1.5m17.6 0h-10.9q.3.75.3 1.5t-.3 1.5h10.9c.8 0 1.5-.7 1.5-1.5s-.7-1.5-1.5-1.5m-14.5-13.7c-.8 0-1.5.7-1.5 1.5v10.5c.5-.3 1.1-.5 1.7-.5.4 0 .9.1 1.3.2V11.9c0-.9-.7-1.5-1.5-1.5m-1.5 18.5v11.9c0 .8.7 1.5 1.5 1.5s1.5-.7 1.5-1.5V29.1c-.4.1-.8.2-1.3.2-.6 0-1.2-.1-1.7-.4m115.4 37.3h-11.3c-.8 0-1.5.7-1.5 1.5s.7 1.5 1.5 1.5h11.3q-.3-.75-.3-1.5 0-.9.3-1.5m17.6-.1h-10.9q.3.75.3 1.5t-.3 1.5h10.9c.8 0 1.5-.7 1.5-1.5s-.6-1.5-1.5-1.5m-14.4-13.7c-.8 0-1.5.7-1.5 1.5v10.5c.5-.3 1.1-.5 1.7-.5.4 0 .9.1 1.3.2V53.9c0-.8-.7-1.5-1.5-1.5m-1.6 18.5v11.9c0 .8.7 1.5 1.5 1.5s1.5-.7 1.5-1.5V71.1c-.4.1-.8.2-1.3.2-.5.1-1.1-.1-1.7-.4m320.2 45.2h-11.3c-.8 0-1.5.7-1.5 1.5s.7 1.5 1.5 1.5h11.3q-.3-.75-.3-1.5 0-.9.3-1.5m17.7-.1h-10.9q.3.75.3 1.5t-.3 1.5h10.9c.8 0 1.5-.7 1.5-1.5s-.7-1.5-1.5-1.5m-14.5-13.7c-.8 0-1.5.7-1.5 1.5v10.5c.5-.3 1.1-.5 1.7-.5.4 0 .9.1 1.3.2v-10.3c0-.7-.7-1.4-1.5-1.4m-1.5 18.5v11.9c0 .8.7 1.5 1.5 1.5s1.5-.7 1.5-1.5V121c-.4.1-.8.2-1.3.2-.6.1-1.2-.1-1.7-.4M498.3 422.9H487c-.8 0-1.5.7-1.5 1.5s.7 1.5 1.5 1.5h11.3q-.3-.75-.3-1.5t.3-1.5m17.6 0H505q.3.75.3 1.5t-.3 1.5h10.9c.8 0 1.5-.7 1.5-1.5s-.6-1.5-1.5-1.5m-14.4-13.7c-.8 0-1.5.7-1.5 1.5v10.5c.5-.3 1.1-.5 1.7-.5.4 0 .9.1 1.3.2v-10.3c0-.8-.7-1.4-1.5-1.4m-1.5 18.5v11.9c0 .8.7 1.5 1.5 1.5s1.5-.7 1.5-1.5v-11.7c-.4.1-.8.2-1.3.2-.6 0-1.2-.2-1.7-.4m-302-81h-11.3c-.8 0-1.5.7-1.5 1.5s.7 1.5 1.5 1.5H198q-.3-.75-.3-1.5c-.1-.5.1-1 .3-1.5m17.6 0h-10.9q.3.75.3 1.5t-.3 1.5h10.9c.8 0 1.5-.7 1.5-1.5 0-.9-.7-1.5-1.5-1.5m-14.5-13.8c-.8 0-1.5.7-1.5 1.5V345c.5-.3 1.1-.5 1.7-.5.4 0 .9.1 1.3.2v-10.3c0-.8-.7-1.5-1.5-1.5m-1.5 18.5v11.9c0 .8.7 1.5 1.5 1.5s1.5-.7 1.5-1.5v-11.7c-.4.1-.8.2-1.3.2-.6.1-1.2-.1-1.7-.4M78 576.9H66.7c-.8 0-1.5.7-1.5 1.5s.7 1.5 1.5 1.5H78q-.3-.75-.3-1.5t.3-1.5m17.7 0H84.8q.3.75.3 1.5t-.3 1.5h10.9c.8 0 1.5-.7 1.5-1.5 0-.9-.7-1.5-1.5-1.5m-14.5-13.8c-.8 0-1.5.7-1.5 1.5v10.5c.5-.3 1.1-.5 1.7-.5.4 0 .9.1 1.3.2v-10.3c0-.7-.7-1.4-1.5-1.4m-1.5 18.6v11.9c0 .8.7 1.5 1.5 1.5s1.5-.7 1.5-1.5v-11.7c-.4.1-.8.2-1.3.2-.6 0-1.2-.2-1.7-.4m5.6-291.1H74c-.8 0-1.5.7-1.5 1.5s.7 1.5 1.5 1.5h11.3q-.3-.75-.3-1.5t.3-1.5m17.7 0H92.1q.3.75.3 1.5t-.3 1.5H103c.8 0 1.5-.7 1.5-1.5 0-.9-.7-1.5-1.5-1.5m-14.5-13.8c-.8 0-1.5.7-1.5 1.5v10.5c.5-.3 1.1-.5 1.7-.5.4 0 .9.1 1.3.2v-10.3c0-.7-.7-1.4-1.5-1.4M87 295.3v11.9c0 .8.7 1.5 1.5 1.5s1.5-.7 1.5-1.5v-11.7c-.4.1-.8.2-1.3.2-.6.1-1.2-.1-1.7-.4m358.3 447.8H434c-.8 0-1.5.7-1.5 1.5s.7 1.5 1.5 1.5h11.3q-.3-.75-.3-1.5 0-.9.3-1.5m17.7-.1h-10.9q.3.75.3 1.5t-.3 1.5H463c.8 0 1.5-.7 1.5-1.5s-.7-1.5-1.5-1.5m-14.5-13.7c-.8 0-1.5.7-1.5 1.5v10.5c.5-.3 1.1-.5 1.7-.5.4 0 .9.1 1.3.2v-10.3c0-.7-.7-1.4-1.5-1.4m-1.5 18.5v11.9c0 .8.7 1.5 1.5 1.5s1.5-.7 1.5-1.5V748c-.4.1-.8.2-1.3.2-.6.1-1.2-.1-1.7-.4M133.9 866.7h-11.3c-.8 0-1.5.7-1.5 1.5s.7 1.5 1.5 1.5h11.3q-.3-.75-.3-1.5 0-.9.3-1.5m17.6-.1h-10.9q.3.75.3 1.5t-.3 1.5h10.9c.8 0 1.5-.7 1.5-1.5s-.6-1.5-1.5-1.5m-14.4-13.7c-.8 0-1.5.7-1.5 1.5v10.5c.5-.3 1.1-.5 1.7-.5.4 0 .9.1 1.3.2v-10.3c0-.7-.7-1.4-1.5-1.4m-1.5 18.5v11.9c0 .8.7 1.5 1.5 1.5s1.5-.7 1.5-1.5v-11.7c-.4.1-.8.2-1.3.2-.6.1-1.2-.1-1.7-.4m965.2 653.4h-11.3c-.8 0-1.5.7-1.5 1.5s.7 1.5 1.5 1.5h11.3q-.3-.75-.3-1.5t.3-1.5m17.6 0h-10.9q.3.75.3 1.5t-.3 1.5h10.9c.8 0 1.5-.7 1.5-1.5s-.7-1.5-1.5-1.5m-14.5-13.7c-.8 0-1.5.7-1.5 1.5v10.5c.5-.3 1.1-.5 1.7-.5.4 0 .9.1 1.3.2v-10.3c0-.8-.6-1.4-1.5-1.4m-1.5 18.5v11.9c0 .8.7 1.5 1.5 1.5s1.5-.7 1.5-1.5v-11.7c-.4.1-.8.2-1.3.2-.6 0-1.2-.1-1.7-.4m-1030 150.7H61.1c-.8 0-1.5.7-1.5 1.5s.7 1.5 1.5 1.5h11.3q-.3-.75-.3-1.5c0-.5.1-1.1.3-1.5m17.7-.1s-.1 0 0 0H79.2q.3.75.3 1.5t-.3 1.5h10.9c.8 0 1.5-.7 1.5-1.5s-.7-1.5-1.5-1.5m-14.5-13.7c-.8 0-1.5.7-1.5 1.5v10.5c.5-.3 1.1-.5 1.7-.5.4 0 .9.1 1.3.2V1668c0-.8-.7-1.5-1.5-1.5m-1.5 18.5v11.9c0 .8.7 1.5 1.5 1.5s1.5-.7 1.5-1.5v-11.7c-.4.1-.8.2-1.3.2-.6.1-1.2-.1-1.7-.4m160.7-183.8h-11.3c-.8 0-1.5.7-1.5 1.5s.7 1.5 1.5 1.5h11.3q-.3-.75-.3-1.5t.3-1.5m17.7 0h-10.9q.3.75.3 1.5t-.3 1.5h10.9c.8 0 1.5-.7 1.5-1.5s-.7-1.5-1.5-1.5m-14.5-13.7c-.8 0-1.5.7-1.5 1.5v10.5c.5-.3 1.1-.5 1.7-.5.4 0 .9.1 1.3.2V1489c0-.9-.7-1.5-1.5-1.5m-1.5 18.5v11.9c0 .8.7 1.5 1.5 1.5s1.5-.7 1.5-1.5v-11.7c-.4.1-.8.2-1.3.2-.6 0-1.2-.1-1.7-.4m116.2 598.4h-11.3c-.8 0-1.5.7-1.5 1.5s.7 1.5 1.5 1.5h11.3q-.3-.75-.3-1.5 0-.9.3-1.5m17.6-.1h-10.9q.3.75.3 1.5t-.3 1.5h10.9c.8 0 1.5-.7 1.5-1.5s-.6-1.5-1.5-1.5m-14.4-13.7c-.8 0-1.5.7-1.5 1.5v10.5c.5-.3 1.1-.5 1.7-.5.4 0 .9.1 1.3.2V2092c0-.7-.7-1.4-1.5-1.4m-1.5 18.5v11.9c0 .8.7 1.5 1.5 1.5s1.5-.7 1.5-1.5v-11.7c-.4.1-.8.2-1.3.2-.6.1-1.2-.1-1.7-.4m599.5-209.5h-11.3c-.8 0-1.5.7-1.5 1.5s.7 1.5 1.5 1.5h11.3q-.3-.75-.3-1.5t.3-1.5m17.6 0h-10.9q.3.75.3 1.5t-.3 1.5h10.9c.8 0 1.5-.7 1.5-1.5 0-.9-.6-1.5-1.5-1.5m-14.4-13.8c-.8 0-1.5.7-1.5 1.5v10.5c.5-.3 1.1-.5 1.7-.5.4 0 .9.1 1.3.2v-10.3c0-.7-.7-1.4-1.5-1.4m-1.5 18.5v11.9c0 .8.7 1.5 1.5 1.5s1.5-.7 1.5-1.5v-11.7c-.4.1-.8.2-1.3.2-.6.1-1.2-.1-1.7-.4m-74.7 498h-11.3c-.8 0-1.5.7-1.5 1.5s.7 1.5 1.5 1.5h11.3q-.3-.75-.3-1.5t.3-1.5m17.6 0h-10.9q.3.75.3 1.5t-.3 1.5h10.9c.8 0 1.5-.7 1.5-1.5 0-.9-.7-1.5-1.5-1.5m-14.5-13.8c-.8 0-1.5.7-1.5 1.5v10.5c.5-.3 1.1-.5 1.7-.5.4 0 .9.1 1.3.2V2390c0-.8-.6-1.5-1.5-1.5m-1.5 18.5v11.9c0 .8.7 1.5 1.5 1.5s1.5-.7 1.5-1.5v-11.7c-.4.1-.8.2-1.3.2-.6.1-1.2-.1-1.7-.4m-619.7-57.4h-11.3c-.8 0-1.5.7-1.5 1.5s.7 1.5 1.5 1.5h11.3q-.3-.75-.3-1.5 0-.9.3-1.5m17.6-.1h-10.9q.3.75.3 1.5t-.3 1.5h10.9c.8 0 1.5-.7 1.5-1.5s-.6-1.5-1.5-1.5m-14.5-13.7c-.8 0-1.5.7-1.5 1.5v10.5c.5-.3 1.1-.5 1.7-.5.4 0 .9.1 1.3.2v-10.3c.1-.7-.6-1.4-1.5-1.4m-1.5 18.5v11.9c0 .8.7 1.5 1.5 1.5s1.5-.7 1.5-1.5v-11.7c-.4.1-.8.2-1.3.2-.6.1-1.1-.1-1.7-.4"/><circle class="st0" cx="190.8" cy="1365" r="11" /><circle class="st0" cx="175.3" cy="1424.5" r="4.9" transform="rotate(-67.5 175.28 1424.508)"/><path class="st0" d="M321.5 1337.6c-4 0-7.3 3.3-7.3 7.3s3.3 7.3 7.3 7.3 7.3-3.3 7.3-7.3c0-4.1-3.2-7.3-7.3-7.3" /><circle class="st0" cx="475.7" cy="1691.3" r="8.8" transform="rotate(-9.218 475.648 1691.15)"/><circle class="st0" cx="628.7" cy="2140.3" r="8.4" /><circle class="st0" cx="560.4" cy="2207.4" r="5" transform="rotate(-67.5 560.438 2207.438)"/><path class="st0" d="M756.5 2332.3c-5.4 0-9.7 4.4-9.7 9.7 0 5.4 4.4 9.7 9.7 9.7s9.7-4.4 9.7-9.7-4.3-9.7-9.7-9.7" /><circle class="st0" cx="980.9" cy="2272.8" r="6.2" transform="rotate(-67.5 980.9 2272.8)"/><circle class="st0" cx="932.1" cy="2024.3" r="8.2" transform="rotate(-9.218 931.989 2024.12)"/><path class="st0" d="M1092.1 2056.5a6.7 6.7 0 1 0 0 13.4 6.7 6.7 0 0 0 0-13.4" /><path d="M1121.2 1882.8c-3 0-5.5-2.5-5.5-5.5s2.5-5.5 5.5-5.5c1.5 0 2.8.6 3.8 1.6v-4.8c-1.2-.5-2.5-.8-3.8-.8-5.2 0-9.5 4.3-9.5 9.5s4.3 9.5 9.5 9.5c1.4 0 2.7-.3 3.8-.8v-4.8c-1 1-2.3 1.6-3.8 1.6"/><circle class="st0" cx="1094.3" cy="1820" r="5.2" /><path class="st0" d="M917.3 1632.6c-4.6 0-8.3 3.7-8.3 8.3s3.7 8.3 8.3 8.3 8.3-3.7 8.3-8.3c.1-4.6-3.7-8.3-8.3-8.3M802.9 1678a6.7 6.7 0 1 0 0 13.4 6.7 6.7 0 0 0 0-13.4M638 1737.6c-2.3 0-4.1 1.8-4.1 4.1s1.8 4.1 4.1 4.1 4.1-1.8 4.1-4.1-1.9-4.1-4.1-4.1" /><circle class="st0" cx="511.7" cy="1810.8" r="6.8" /><path class="st0" d="M654.7 1508c-3.9 0-7.1 3.2-7.1 7.1s3.2 7.1 7.1 7.1 7.1-3.2 7.1-7.1c0-4-3.2-7.1-7.1-7.1m398.1-312.1c-3.6 0-6.4 2.9-6.4 6.4s2.9 6.4 6.4 6.4c3.6 0 6.4-2.9 6.4-6.4s-2.9-6.4-6.4-6.4" /><circle class="st0" cx="971.9" cy="1058.9" r="11.6" /><circle class="st0" cx="820.8" cy="994" r="9.9" transform="rotate(-45 820.812 994.038)"/><circle class="st0" cx="645.4" cy="1009.5" r="5.7" transform="rotate(-67.5 645.454 1009.553)"/><circle class="st0" cx="470.2" cy="1047.5" r="6" transform="rotate(-9.218 470.167 1047.448)"/><circle class="st0" cx="331.6" cy="1132.4" r="6" /><circle class="st0" cx="539.8" cy="1156.9" r="6.3" /><circle class="st0" cx="644.3" cy="1236.1" r="4.5" transform="rotate(-67.5 644.29 1236.099)"/><circle class="st0" cx="93.3" cy="1230.7" r="9.9" transform="rotate(-67.5 93.323 1230.743)"/><circle class="st0" cx="19.7" cy="1228.3" r="4.5" /><path class="st0" d="M71.6 1102.8c-4.1 0-7.4 3.3-7.4 7.4s3.3 7.4 7.4 7.4 7.4-3.3 7.4-7.4-3.4-7.4-7.4-7.4" /><circle class="st0" cx="145.8" cy="1014.2" r="7.2" /><circle class="st0" cx="304" cy="1017.7" r="3.7" /><circle class="st0" cx="171.5" cy="945.8" r="6.8" /><circle class="st0" cx="27" cy="899.3" r="7.3" transform="rotate(-67.5 27.024 899.256)"/><circle class="st0" cx="367" cy="842.3" r="9.6" transform="rotate(-45 366.99 842.273)"/><circle class="st0" cx="476" cy="657.4" r="6.6" transform="rotate(-13.286 475.829 657.229)"/><circle class="st0" cx="76.4" cy="1445.1" r="7.1" /><circle class="st0" cx="642.4" cy="579.9" r="9.2" transform="rotate(-13.286 642.256 579.753)"/><circle class="st0" cx="840.9" cy="683.7" r="4.1" /><circle class="st0" cx="1031.5" cy="595.9" r="9.4" transform="rotate(-16.846 1031.457 595.93)"/><path class="st0" d="M1057.8 247.4c-4.2 0-7.5 3.4-7.5 7.5s3.4 7.5 7.5 7.5c4.2 0 7.5-3.4 7.5-7.5s-3.3-7.5-7.5-7.5" /><circle class="st0" cx="491.8" cy="292.3" r="9.2" transform="rotate(-13.286 491.635 292.233)"/><circle class="st0" cx="586" cy="271.5" r="5.3" /><circle class="st0" cx="667.5" cy="157.4" r="5.7" transform="rotate(-67.5 667.51 157.349)"/><circle class="st0" cx="874.5" cy="111" r="5.1" transform="rotate(-13.286 874.319 111.01)"/><circle class="st0" cx="1090.9" cy="39.9" r="7.3" /><circle class="st0" cx="819.7" cy="15.5" r="5.2" /><circle class="st0" cx="738.9" cy="31.1" r="8.7" transform="rotate(-13.286 738.724 31.147)"/><circle class="st0" cx="132.1" cy="77.6" r="6.7" /><circle class="st0" cx="34.2" cy="199.9" r="6" /><circle class="st0" cx="336.4" cy="280.7" r="11.6" /><circle class="st0" cx="113.9" cy="492" r="6.3" transform="rotate(-45 113.942 491.973)"/><circle class="st0" cx="387.6" cy="216.4" r="5.6" transform="rotate(-13.286 387.46 216.32)"/><circle class="st0" cx="305.5" cy="22" r="6.7" /><circle class="st0" cx="430.6" cy="26.2" r="5.5" transform="rotate(-45 430.624 26.234)"/><circle class="st0" cx="599.1" cy="19.1" r="3.8" /><circle class="st0" cx="886.3" cy="457.7" r="5.7" transform="rotate(-9.218 886.247 457.66)"/><circle class="st0" cx="10.9" cy="1611.7" r="8.1" /><circle class="st0" cx="938.3" cy="1375.8" r="5.9" transform="rotate(-67.5 938.347 1375.826)"/><path class="st0" d="M849.6 1372.4c-2.6 0-4.7 2.1-4.7 4.7s2.1 4.7 4.7 4.7 4.7-2.1 4.7-4.7-2.1-4.7-4.7-4.7m183.8 19.9c-2.2 0-3.9 1.7-3.9 3.9s1.7 3.9 3.9 3.9 3.9-1.7 3.9-3.9-1.7-3.9-3.9-3.9" /><circle class="st0" cx="967.4" cy="745.5" r="5.2" transform="rotate(-13.286 967.168 745.334)"/><circle class="st0" cx="563.8" cy="450.2" r="5" transform="rotate(-67.5 563.833 450.162)"/><path class="st0" d="M203.7 139.1c-2.1 0-3.8 1.7-3.8 3.8s1.7 3.8 3.8 3.8 3.8-1.7 3.8-3.8-1.7-3.8-3.8-3.8m404.9 636.6c-2 0-3.7 1.6-3.7 3.7 0 2 1.6 3.7 3.7 3.7 2 0 3.7-1.6 3.7-3.7 0-2-1.7-3.7-3.7-3.7" /><circle class="st0" cx="413.5" cy="1266.6" r="4" /><circle class="st0" cx="1105.5" cy="775.7" r="6.4" /><path class="st0" d="M1015.3 1716.7c-2.9 0-5.3 2.4-5.3 5.3s2.4 5.3 5.3 5.3 5.3-2.4 5.3-5.3-2.4-5.3-5.3-5.3" /><circle class="st0" cx="1093" cy="1248" r="5.1" /><path d="M35.3 313.6c1.1-.1 1.9-1.1 1.8-2.2s-1.1-1.9-2.2-1.8c-.2 0-22.2 2.1-34.9-6.4v4.7c9.2 5.1 21.2 6 28.6 6 3.8 0 6.4-.3 6.7-.3m-19.1-33.1c.7.8 2 .9 2.8.1.8-.7.9-2 .1-2.8-4.8-5.3-12.1-7.3-19.1-5.4v4.2c4.7-1.6 11.3-1.4 16.2 3.9"/><path class="st0" d="M17.7 279.2C14 264.9 29.2 253.6 39 261.1c22.3 17.1-3.9 50.6-3.9 50.6" /><path d="M6.4 274.9c.3 0 .7-.1 1-.2 1-.5 1.3-1.8.8-2.7L0 257.2v8.3l4.6 8.4c.4.6 1.1 1 1.8 1m9.9-7.5c.5 1 1.8 1.3 2.7.8 1-.5 1.3-1.8.8-2.7L0 229.7v8.3zm.2 1450.3c-1.8-3-5.6-6.4-13.4-5.7-1.1.1-1.9 1.1-1.8 2.2s1.1 1.9 2.2 1.8c4.7-.4 7.8.8 9.6 3.8 5.5 9.1-2.2 33.4-12.5 49.5-.2.3-.4.5-.5.8v6.3c1.4-1.5 2.8-3.2 3.9-4.9 9.3-14.6 19.8-41.8 12.5-53.8"/><path d="M4.1 1710.7c-.6-3.6-2-6.7-4.1-9v9.1c0 .2.1.4.1.6.2 1.1.1 2.3-.1 3.7v12c2.8-5.8 4.8-12 4.1-16.4m12.6-564H5.8q.3.75.3 1.5t-.3 1.5h10.9c.8 0 1.5-.7 1.5-1.5s-.7-1.5-1.5-1.5M2.2 1133c-.8 0-1.5.7-1.5 1.5v10.5c.5-.3 1.1-.5 1.7-.5.4 0 .9.1 1.3.2v-10.3c0-.8-.6-1.4-1.5-1.4m-1.5 18.5v11.9c0 .8.7 1.5 1.5 1.5s1.5-.7 1.5-1.5v-11.7c-.4.1-.8.2-1.3.2-.6 0-1.2-.1-1.7-.4m4.9 725.8c0-3.9-2.3-7.2-5.6-8.7v4.8c1 1 1.6 2.4 1.6 3.9s-.6 2.9-1.6 3.9v4.8c3.3-1.5 5.6-4.8 5.6-8.7M656.5 14.4c6.6 2.4 13.9 3.7 21.1 3.7 14.8 0 29.5-5.4 37.9-18.1h-4.9c-12 15.2-35 17-52.7 10.6-6.3-2.3-12.6-5.8-17.5-10.6h-5.5c5.7 6.7 13.7 11.5 21.6 14.4"/><path class="st0" d="M652.3 11.5s-.2 6.9 5.4 9.6m4.9-6.9s-.2 6.9 5.4 9.6" /><path d="M942.2 2.9c15.2 3.6 47.4 10.4 73.8 10.4 8.5 0 16.4-.7 22.9-2.4q2.85-.75 4.8-3c1.4-1.6 3.6-4.2 6.1-7.9h-4.9c-1.8 2.5-3.3 4.2-4.2 5.3-.8.9-1.7 1.5-2.8 1.8-24.9 6.5-71.4-2.7-90.6-7.1h-8.5c.6 1.5 1.8 2.5 3.4 2.9M179.7 7.5c1.1 0 2-.9 2-2V0h-4v5.5c0 1.1.9 2 2 2"/></svg>
