<svg id="Еда" viewBox="0 0 1125 2436" x="0" xml:space="preserve" xmlns="http://www.w3.org/2000/svg" y="0" ><style>.st0{fill:none;stroke:#000;stroke-width:4;stroke-linecap:round;stroke-linejoin:round;stroke-miterlimit:10}</style><path d="M39.9 2431.7c-2 1.1-3.7 2.6-5.2 4.3h5.9c.4-.3.8-.6 1.3-.8 2.3-1.3 5-2 7.8-2 3 0 6.1.7 9.3 2.2.4.2.8.4 1.1.6h7.3c-2.2-1.7-4.4-3.1-6.8-4.2-7.3-3.4-14.7-3.4-20.7-.1"/><path d="M50.3 2386.9c-.6-.4-1.4-.5-2.1-.1l-41.1 23c-.6.3-1 1-1 1.7s.3 1.4.9 1.7l32.7 21.9c.3.2.7.3 1.1.3.6 0 1.3-.3 1.7-.9l.3-.6c.2.1.4.2.7.2 1.1.1 2.1-.6 2.2-1.7l5.5-43.6c.1-.8-.3-1.5-.9-1.9m-8.6 44.7-29.8-19.9 34.8-19.5z"/><path d="M27.9 2413.2c-.8-.7-2.1-.6-2.8.2s-.6 2.1.2 2.8l8.9 7.8c.4.3.9.5 1.3.5.6 0 1.1-.2 1.5-.7.7-.8.6-2.1-.2-2.8z"/><path d="M39.6 2407.1c-1.1-.2-2.1.5-2.4 1.6 0 .2-.1.7-.3 11.8 0 1.1.9 2 2 2s2-.9 2-2c.1-4.9.2-10.4.3-11.2.1-1-.6-2-1.6-2.2m1079.8-1165c-.5.7-.6 1.6-.1 2.4.4.6 1 .9 1.7.9.2 0 .4 0 .6-.1 1.2-.4 2.3-.8 3.5-1.2v-10.3c-1.7 2.8-3.6 5.6-5.7 8.3m-7.3-223.9c1 7.3 2 14.8 2.6 22.7 1.7 22.1 5.8 44.3 9.8 65.7.2.8.3 1.7.5 2.6v-22.5c-2.7-15.2-5-30.7-6.2-46.1-.6-8-1.6-15.6-2.6-23-3.4-25.2-6.4-46.9 8.9-71.6v-7.1c-19.9 28.3-16.6 52.5-13 79.3m8.3 494.6c-2.3-6.9-2.9-16.6 2.5-22.7.7-.8.6-2.1-.2-2.8s-2.1-.6-2.8.2c-5.6 6.3-6.8 16.3-3.3 26.7 1.8 5.5 4.7 10.4 7.4 15.2.3.6.7 1.2 1 1.8v-8.2c-1.8-3.4-3.4-6.7-4.6-10.2m3.2-1091.5c-.2 9.3.2 17 1.4 23.3v-33.9c-.8 3.3-1.3 6.8-1.4 10.6"/><path class="st0" d="M401.1 2317.7c1.4-17.4 2.1-37.1-10-49.6-7.5-7.8-18.6-11-29.2-13.5-39.3-9.3-79.8-13.6-120.2-12.6-20.9.6-43.7 3.3-58 18.6-21.7 23.1-12.3 60.9-23 90.7-7.1 19.9-38.6 20.5-41 41.3-.6 5.5 2.1 6.1 2.2 6 16.7 9.3 48.8 4.9 64.7-13s21.6-42.6 23.9-66.5c1.2-12.7 3.2-28 14.9-33.3 5.5-2.5 12-2 18.1-1.4 22.1 2.2 44.2 4.5 66.3 6.8 15.3 1.6 31.7 3.6 43.1 13.9 17.9 16.3 15.3 44.6 12.4 68.7-1 8.6-1.8 17.8 2.3 25.5 4 7.7 15 12.3 21.7 6.9 4.7-3.8 5.6-10.6 6.1-16.5 1.6-24.1 3.7-48 5.7-72" /><path class="st0" d="M184.1 2387.8c2.7 20.9 32.6 23 53.4 24.9 33.6 2.8 61.4 5.1 95 8 6.5.5 19 1.6 25.1-1.1 6-2.7 13.5-11.4 11.3-17.5m-66.2-147.9s20.4 2.8 29.3 4.7c16.1 3.5 27.4 6.3 27.4 6.3m-83.1-13.5 17.8 1.2" /><path class="st0" d="M296.6 2317c-9.8-1.9-19.8-3.8-29.7-2.7-9.9 1-20 5.3-25.6 13.5-4.5 6.6-5.8 15-6.9 23-1.2 8-2.2 16.7 1 24.1 4.5 10.5 18.8 9.2 29.6 5.3 0 0 12.9 13.5 22.5 16 8.1 2.2 16.2 4.3 23.7 1.2 11.2-4.5 16.9-17.9 19.3-29.7 2.6-12.8 2.6-27.7-5.5-37.9-6.6-8.3-17.9-10.7-28.4-12.8" /><path class="st0" d="M266.8 2370c-4.9-14.9-.3-34.2 12.1-39.8m15.7 53.9c3.9.9 8.2.1 11.5-2.3s5.4-6.3 5.6-10.3m-31.2-26.5c.7-2.6 2.4-5 4.6-6.4s5.1-2.2 7.7-1.7m-61.3-52.8c-4.5-4.8-8.4-13.1-8.5-19.7s2.5-15.6 6.8-20.7m-19.7 73.6c-10.8.9-21.4-5.1-27.6-14-6.2-8.8-8.5-18.4-8-29.2m23.6 93.7c-7.5 1.5-15.3 2.7-22.6.8s-14.9-8.1-15.7-15.7m200.3-38c11.8 1.1 23.8-2.3 32.3-10.4 2.8-2.6 5.2-5.7 6.4-9.3s2.9-7.5.9-10.7m-33.3 74.2s7.8 8.2 13.3 9.9 15.8-4.5 15.8-4.5M865.3 576.8c-12.4 3.8-22.8 12.3-31.9 21.6s-17.1 19.6-26.8 28.2-21.4 15.7-34.3 17l-4.5-1.5c-9.9-3.9-13.2-.5-15.8 9.7-1.3 5.1-1.6 15.3 6.7 19.7 4.9 2.6 10.6-4.4 14.3-6.2 10.6-5.1 22.4-7.7 34.1-7.5 19.4.3 38.7 8.1 57.6 4.2 12.8-2.7 24.2-10.5 32.8-20.5 7-8.1 12.3-17.9 13.7-28.5s-1.7-22-9.4-29.4c-9.4-9-24.1-10.6-36.5-6.8" /><path class="st0" d="M809.2 634.4c3.4-3.2 6.9-6.4 10.3-9.6m-6 17.6c3.8-1 10-3 13.8-4m-12 11.9c4.2 2.1 9.1 2.6 13.9 1.9m-5.4-32.5 1.6-1.9m-64 34.4c2.5-.8 5.4-.2 7.4 1.3m65.6-17.4 6.8-2.5M560.3 391.8c-23.4 1.1-39 32.5-39 32.5-20 7.5-36.8 26.3-31 46.8 4.3 15.3 16.7 27.1 30.4 35.2 15.4 9.2 33.1 14.7 51 14s35.7-8.1 47.5-21.5c17.2-19.4 19.3-50 6.3-72.4-12.9-22.4-39.3-35.7-65.2-34.6" /><path class="st0" d="M536 423.8c6.7 1.2 13.5 2.5 19.6 5.6s11.3 8.5 12.7 15.2M528.8 411c-1.2-3.7-2.5-7.4-4-11-1.6-3.7-7-3.1-7.8.8-.6 2.9-1.3 5.8-2 8.7-3 0-6.1-.2-9.1-.5-3.5-.4-5.8 3.4-3.9 6.4 0 0 0 .1.1.1 1.6 2.5 2.9 5.2 3.9 8-9.2-.2-18.4 1.8-26.7 5.8-3.2 1.5-3.2 6 0 7.5 5.4 2.5 11.1 4.6 16.9 6.2m9.5 16.1c.2 2.1-.2-1.8 0 .4m2.8 8.9c.2 2.1-.2-1.8 0 .4m5.2-9 .2 1.8M166.8 707.3c-14-16.2-33.9-27.7-55.3-29.3s-43.7 7.7-55.9 25.3-10.8 49.6-3.9 65.3 24.8 38.4 39.7 50.7c14.8 12.3 30.6 17.5 49.9 18.1 19.3.5 39.5-8.7 48.6-25.7 7.6-14.1 6.9-31.1 3.7-46.8-4.2-21-12.7-41.5-26.8-57.6" /><path class="st0" d="M127 727c3.2 8.9 12.5 22.6 20.4 27.7 2.4 1.5 5.3 2.7 8 1.9 3.9-1.1 5.7-5.9 4.9-9.9s-3.2-7.1-3.2-7.1" /><path class="st0" d="M95.3 678.9c-3.3 1.4-5.8 4.2-8.4 6.6-2.6 2.5-4.5 6-4.3 9.6s2.9 7.2 6.5 7.6c1.4.2 2.9-.1 4.3 0s3 .8 3.4 2.2c.6 1.9-1.3 3.6-2.8 4.8-4.1 3.3-7.5 7.9-8 13.1s2.7 11 7.9 12.1c3 .6 6.1-.4 9.2-1 3-.6 6.5-.7 8.9 1.3 3.1 2.7 2.6 7.7 1 11.5s-4 7.5-3.9 11.6c.1 4.8 3.7 9.1 8.1 11s9.5 1.9 14.2 1.2c-1.4 4.2-2.7 8.5-2.9 12.9s1 9.1 4.1 12.2c3.9 3.9 10.1 4.8 15.4 3.5s10.1-4.3 14.8-7.2c-1.1 4.1.6 8.8 4.1 11.3s8.5 2.5 12 .1c2.8-1.9 4.4-5 6.7-7.5s5.8-4.5 8.9-3.2m-80.1-101.8 6.7 2.9m53.9 84.4v-3.3m-64.4-65.5h3.8m63.4 48.3 1.8-4.9m-30.2 25.4 2-3.3m10.7-56.5 3.1 8.1M135 699.3l5.8 3.6m2.9 8.6 3.8 3.1m-67.8 76.3c7.9 9.1 17.4 16.8 27.9 22.8m-42.8-47c.9 4.8 2.9 9.3 5.9 13.1" /><path d="M1059.8 2021.2c-35 6.8-63.1 5.7-69.8 5.3l-22.8-116.7c9-.1 41.4-1 77.9-8.2 35.9-7 61.2-17.1 68.8-20.4l11.2 57.3v-20.8l-7.7-39.6c-.1-.6-.5-1.1-1.1-1.4-.5-.3-1.2-.3-1.8 0-.3.1-27.7 12.8-70.2 21.1-42.4 8.4-79.2 8.1-79.5 8.1-.6 0-1.2.3-1.6.7-.4.5-.5 1.1-.4 1.7l23.6 120.6c.2.9.9 1.5 1.8 1.6.1 0 5.2.4 13.7.4 13 0 34.2-1 58.6-5.7 25.3-4.9 49.6-13.1 64.5-18.6v-4.3c-14.5 5.4-39.4 13.8-65.2 18.9"/><path d="M1113.4 1938.4c-.2-1.1-1.3-1.8-2.3-1.6-1.1.2-1.8 1.3-1.6 2.3l10 51.2c.2 1 1 1.6 2 1.6h.4c1.1-.2 1.8-1.3 1.6-2.3zm-4.7-24c-.2-1.1-1.3-1.8-2.3-1.6-1.1.2-1.8 1.3-1.6 2.3l2.6 13.5c.2 1 1 1.6 2 1.6h.4c1.1-.2 1.8-1.3 1.6-2.3zm-172.8-107.9c-6.4 2-11.2 6.5-12.5 11.9-1.6 6.4 2.3 14.1 6.8 17.5.4.3.8.4 1.2.4.6 0 1.2-.3 1.6-.8.7-.9.5-2.1-.4-2.8-3.5-2.6-6.5-8.8-5.3-13.3 1.2-4.8 5.9-7.8 9.9-9.1 4.1-1.4 9.2 0 12.7 3.4.8.8 2.1.8 2.8 0 .8-.8.8-2.1 0-2.8-4.5-4.5-11.3-6.3-16.8-4.4"/><path d="M1097.2 1797.8c-11.1-2-19.5 3.7-29.3 11.4-9.8 7.9-27.1 19.3-46.2 27.6-19.7 8.6-30.5 10-37.5 4.7-2.9-2.2-3.1-8.9-3.4-16-.4-10.5-1-23.6-9.8-31.9-4.5-4.2-11.6-3.8-16.7-1.9-3.3 1.2-6 4.3-7.1 8.5-.8 3.4-.7 6.8-.4 10 .1 1.1 1 2 2.1 1.9s1.9-1 1.9-2.1c-.2-2.9-.3-6 .3-8.8.8-2.8 2.5-4.9 4.6-5.7 1.4-.5 8.5-2.8 12.6 1.1 7.6 7.1 8.1 18.8 8.5 29.1.3 8.4.6 15.7 5 19 9.6 7.4 23.6 3.7 41.5-4.2 19.4-8.5 37-20.1 47.1-28.1 9.3-7.3 16.6-12.3 26.1-10.6 9.6 1.8 17.9 9.2 20.6 18.5 2.2 7.6 1 16.4-3.4 24.2-3.7 6.7-9.5 13.1-17.3 19-23 17.1-40.1 26.8-64.7 29.2-12.9 1.3-22.4-.9-33.9-7.8-5.5-3.3-11.9-9.7-17.6-15.4-5-5.1-9.4-9.5-12.7-11.3-5.6-3.1-10.4.7-14.2 3.7-2 1.5-3.8 3-5.6 3.7-6.2 2.3-12.3 2.3-17.1.1-9.4-4.5-12.5-11.5-9.5-21.6 1.2-4.2 4.1-6 6.3-6.8 3.5-1.3 7.4-.8 9.1.3.9.6 2.2.4 2.8-.5s.4-2.2-.5-2.8c-3-2-8.4-2.4-12.7-.8-4.4 1.6-7.5 5-8.8 9.4-3.5 11.9.5 21 11.7 26.3 5.8 2.7 12.9 2.7 20.2.1 2.4-.9 4.6-2.6 6.7-4.3 4.1-3.2 6.7-5.1 9.8-3.4 2.8 1.6 7.2 6 11.8 10.6 5.8 5.9 12.4 12.5 18.3 16 10.1 6 19 8.7 29.5 8.7 2.2 0 4.5-.1 6.8-.3 28.1-2.7 46.9-15.1 66.8-30 8.3-6.2 14.4-13 18.4-20.2 4.8-8.8 6.2-18.7 3.7-27.3-3.2-10.7-12.7-19.3-23.8-21.3"/><path d="m1005.2 1890-1.8.3c-6.5 1.1-13.2 2.2-19.6 4.2-8.2 2.6-14.6 6-19.6 10.5-.8.7-.9 2-.2 2.8.4.4.9.7 1.5.7.5 0 1-.2 1.3-.5 4.6-4.1 10.5-7.3 18.2-9.7 6.2-1.9 12.8-3 19.1-4.1l1.8-.3c1.1-.2 1.8-1.2 1.6-2.3-.1-1-1.2-1.8-2.3-1.6m110.9-14.6c-8.4-3.6-15.6-2.7-24.7-1.6-2.9.4-5.9.7-9.3 1-1.1.1-1.9 1-1.8 2.1s1 1.9 2.1 1.8c3.4-.3 6.5-.6 9.4-1 8.8-1.1 15.2-1.8 22.6 1.3.3.1.5.2.8.2.8 0 1.5-.5 1.8-1.2.5-1 .1-2.1-.9-2.6m-43.6-57.4c-11.4 10.6-25.2 19-39.7 24.1-1 .4-1.6 1.5-1.2 2.6.3.8 1.1 1.3 1.9 1.3.2 0 .4 0 .7-.1 15.1-5.3 29.3-13.9 41.1-24.9.8-.8.9-2 .1-2.8-.8-.9-2-1-2.9-.2m-48.7 27.9c-1.6.4-3.2.8-4.8 1.1-1.6.4-3.2.8-4.8 1.1-1.1.2-1.8 1.3-1.5 2.4.2.9 1 1.6 1.9 1.6h.4c1.6-.4 3.2-.8 4.8-1.1 1.6-.4 3.1-.8 4.7-1.1 1.1-.2 1.8-1.3 1.5-2.4 0-1.1-1.1-1.8-2.2-1.6"/><path class="st0" d="M752.2 741.9c-31.1-27-74.1-48.2-115.1-52.4-4.1 1.3-8.6 4.8-12.6 8.6-3.2 2.9-2.4 7.4-3.4 11.6-34.1 41.9-68.1 81.8-102 123.7-6.8 8.3-13.8 17.5-13.6 28.2 0 3.9 2.2 8.6 6.1 8.7 1.4 0 2.7-.6 4-1.2 10.5-5 103.4-59.5 107.1-61.5 9.4-4.9 19.4-8.8 29.3-12.6 32.3-12.5 64.5-25.2 98.2-33.1.1-.1.3-.9.2-.6 1.9-6.4 2.7-12.8 1.8-19.4" /><path class="st0" d="M637.6 700.6c18 1.4 35.7 6.9 51.4 15.8m7.1 4c3.7 2.2 7.5 4.5 11.2 6.7M512 855.8c4.7 1.7 10.3.6 14-2.7M622.7 728c-8 6.1-8.6 17.5-5.1 20.5 7 6.1 16.8 3.4 26.1-7.3 5-5.8 1.8-14.5-.9-17.2-3.6-3.7-14.2-.6-20.1 4m-65.4 75.5c-5.7 4.4-6.1 12.5-3.6 14.6 5 4.3 12 2.4 18.6-5.2 3.6-4.2 1.3-10.4-.6-12.3-2.5-2.6-10-.4-14.4 2.9m66.5-33.4c-2.2-1-5.2-1.7-7.2-.2s-3.1 5.3-1.1 6.7c-5.3 1.6-10.5 3.3-15.8 4.9 0 .1 2.1 8.8 4.2 12.6 4.1-1.3 15-6.5 15.6-6 .7.5-.2 2.3.4 3.1 1.3 1.8 3.7 1.9 5.6.7 4-2.3 6.4-7.2 5.8-11.8s-2.3-7.7-7.5-10m54.5-34.4c-3.7 1.1-4.7 4.3-6.8 8.6-3.5-2.8-10.7-2.3-13.2 1.6s-2 9.8 0 13.8c2 4.2 5.3 6.8 9.2 8.2 3.4 1.3 12.2 1.3 17-1.1 4.6-2.1 8.1-8.5 8.6-13.4.4-4-.9-10.3-3.1-13.6s-7.9-5.2-11.7-4.1m-1.1 11 1-.9m-7.9 3.9h-1.6m11.5.2.3-.5m-9 4.6h-.6m194.3 141.9c5.4-.5 8.4 7 9.7 12.3s-1.9 11.2-6.9 13.2c-6.1 2.4-13.7-.6-19.1 3.1-5.5 3.8-5.1 11.9-3.8 18.5 1.4 6.5 2.8 14.2-1.7 19.2-4.5 4.9-12.2 4.2-18.8 3.4s-16.9-2-20.3 3.7c-2.4 4 .8 10.5 2.6 14.8s4 6.7 4.7 11.3c.8 5.6 2.2 8.1-2.4 13.4-3.7 4.2-13.6 8.2-18.9 6.4-3.9-1.3-7.2-4.1-11.1-5.5s-9.1-.9-11 2.7c-2 3.8 1.9 8.1 4.2 11.8s8.3 8.4 5.1 11.3" /><path class="st0" d="M793.5 1048.9c-3.8 3.9-5 5.2-10.2 6.8-8.4 2.6-18.5-3.2-20.5-11.8-2.2-9.4 4.2-18.5 10.2-26.1 32.1-40.6 96.6-119.1 96.6-119.1 4.1-4.2 4.9-6.2 7.9-10.2 3.1-4 13.4-7.8 17.8-5.3 10.2 5.8 9.5 12.1 8.7 17.2" /><path class="st0" d="M765.4 1064.6c3.3 5.8 10.8 8.9 17.2 7.2 6.5-1.7 13.3-8.9 11.7-15.4-2.4-9.8-.1-19.8 5.5-28.2 26.3-40.1 56.8-79.4 84.6-118.4 2.8-3.9 5.8-8 10.3-9.6 6.9-2.4 14.2 1.9 19.5 6.9 19.3 18.3 20.5 43.4 8.5 67.1-10 19.6-26.2 43.4-38.5 60.1-18.6 25.1-27.9 46-62.8 64.8-24 12.9-42.3 2.4-57.5-3-15.1-5.3-33.9-35.7-31.5-56.3s10.5-36 23.1-52.4c24.3-31.8 47.1-63.6 76.8-91 8-7.4 19.1-18.8 29.7-16.1 10.8 2.8 10.1 7.4 12.2 10.9" /><path class="st0" d="M810.4 1056.4c-3.7-5.2-4.2-12.5-1.1-18m5-6.9c25.2-32.7 48-67.3 68.2-103.3m-46.3 107.6 2.6 6.6m15.7-32.2 2.5 6.2m13.7-32.1 2.1 5.4m10.6-23.6 2 5.2m-31.3 61.3 2.7 6.8m14-34.2 2 5m10.7-24.7 2.5 6.3m-111.6 58c-1.3-1.8-2.3-3.9-2.9-6.1" /><path class="st0" d="M770.2 1047.8c1.8-.5 3.5-1 5.3-1.5m-621.9 684.3c-20.1-14.9-30.7-16.8-49-12-8.4 2.2-31.1 18.4-32 46.4-.3 11.5.3 25.9 5.3 34.7 4 7 15.4 18 29.2 18.9 16.1 1 24.5-7.5 36.2-14.9 15.2-9.7 45.8-46.8 10.3-73.1" /><path class="st0" d="M107.2 1725.8c-9.3 3.5-16.7 11.6-19.4 21.2m-1.6 6.5c-1.5 3.9-2.4 8.1-2.7 12.3m51-36.2c3.8 5.6 9.5 10 16 12.2" /><path class="st0" d="M141.2 1736.4c9.9-12.7 26.3-20 42.3-18.8m275.3 63.8s0 .1 0 0q.15.15 0 0" /><path class="st0" d="M655.2 1563.7c-6.9-10.3-11.3-23.5-7.1-35.2-6.8-4.4-13.6-8.8-20.4-13.1l-8.1 19.2c16.7 19.9 25.5 35.9 23 61.8 0 0-20.1 92.1-55.3 118.2s-58.1 43.6-114.5 38.6l-5.4 1.6c-2.4 1.1-11.7-2.2-13.1-4.4-3.6 4.8-7.3 9.7-10.9 14.5 5.1 5.5 14.7 16 15.4 16.6v-.1c.1.1.1.1 0 .1 1.8 17.1 29.7 32.9 46.6 36.3 16.8 3.3 101.6 17.7 167.8-79.7 12.5-18.4 24.4-61.8 26-84s-7.8-43.1-20.6-61.4c-7.1-10.2-16.4-18.7-23.4-29" /><path class="st0" d="M587.4 1727.4c18.4-15.8 33.6-35.1 44.7-56.6m-73.3 74.9c7.3-4.1 14.5-8.1 21.8-12.2m206.3-173.4c-11.1-3-23.3-5.3-31-13.8-5.9-6.5-8-15.5-12.2-23.3-3.2-6-9.4-11.9-16-10.1-4.7 1.2-7.6 6.1-9.1 10.8-4.2 13.5 5.7 31.8 10.3 39s13.3 26.1 15 38.5 2.5 25 7 36.6 13.8 22.3 26.1 24.3c6.7 1.1 13.5-.5 20.1-2.2 15.8-4.2 32.6-10.8 40.8-25 8.7-15.2 4.6-35.4-6.4-48.9-11.1-13.5-27.7-21.3-44.6-25.9" /><path class="st0" d="M806 1645.5c3.1-3.2 8.1-4.4 12.4-3-.3.4-.6.7-.9 1.1m-51 5.3c-8-7.7-12.6-18.9-12-30m-29.4-79.3c-1.6-4.2-2.1-8.8-1.5-13.3m3.8-13.2c-2-17.4.4-35.3 6.7-51.7m52.8 132.8 4 3.6m7.6-16.6 3.2 2.8m-4.3 6.5 4.4 4m-5.5 14.7 5.1 4.6M814 1596l3.9 3.6m-9.6 4.9 2.9 2.6M245 572.9c7.7 21.7 15.4 43.5 23.1 65.2 2.2 6.3 5.2 13.4 11.5 15.6 5.4 1.9 11.6-.7 15.6-4.8 4-4.2 6.2-9.6 8.3-15 8.1-20.3 16.2-40.5 24.3-60.8 4.3-10.9 8.8-22.1 8.5-33.9-.2-11.7-6.3-24.1-17.4-28.2-3 28.2-11.8 55.8-25.6 80.6-3.6-13 1.6-26.5 3.5-39.9 1.9-13.3-1.8-30-14.6-34-13.1-4-25.2 7.7-33.9 18.3m105.9-131.5c28.6-24.9 27.6-20.9 57.9-31.5s64.1-22.4 78.8-51c3.5-6.7 6.1-14.7 12.7-18.5 9.4-5.5 22.5 1.7 25.8 12 3.3 10.4-1.2 21.9-8.3 30.1s-16.6 14-25.6 20.2c-31.3 21.7-57.3 50.8-75.4 84.3-7.7 14.2-14.1 29.5-25.2 41.3-11 11.8-28.4 19.6-43.5 14-21.4-7.8-27.4-28.9-23.7-51.3m-75-98.8 16.2-87c2.4-12.6 7.6-28 20.4-29.3 11.6-1.1 20.3 11.7 20.2 23.3s-6 22.3-10.1 33.2-6.2 24 .5 33.5m-114 175.5c16.9-61.8 60.9-115.6 118.1-144.3" /><path class="st0" d="M185.9 637.9c25.3 22.5 70.5 47.6 103.9 41.7 22.6-4 40.5-21.3 54.4-39.6 34.8-45.8 56.4-96.8 55.5-154.3" /><path class="st0" d="M234.2 669.2c-27.1 8.1-53.7 12.6-77.7-2.4-111.1-69.8-54.1-156-29.8-194.3 26.4-41.7 56.3-68 93.1-94.4s78.6-44.9 120.2-62.8c19.4-8.3 39.4-31.2 56.4-43.6 14 6.8 22.2 23.7 18.9 38.9s-17.8 27.2-33.3 27.6c9.2 11.4 18.5 23.4 25.7 36.3m-38.9 96.9h3.9m-18.1 8.8h5.8m8.4 8.1h6.2M113.5 595.5l-1.8-7.7m27.6-2.8-1.5-11m-15.7-18.6v10.4m90.8 29.6 3.8 8.8m11.2-5 5.6 8.6m-31 7.6 5.2 8.2m176.5-326.5 10.7-14.5M515 2212.9c-8.7 11.8-17.7 24-21.2 38.2s-.2 31.2 11.7 39.8c10.5 7.5 25.6 6.7 36.5-.2s17.9-18.9 20.9-31.4c3-12.6 1.1-28.3-.5-41.1" /><path class="st0" d="M561.3 2161c-20.5-8-45.6-8.3-62.5 5.8-3.9 3.3-7.3 7.4-8.6 12.3-2.1 8 1.9 16.6 8 22.2s13.9 8.8 21.6 11.9c-.2 0 21.6 5.6 39.9 5.1 9.3-.2 19.5-1.9 25.7-8.9 7.1-7.9 6.6-20.7 1-29.7s-15.2-14.9-25.1-18.7" /><path class="st0" d="M499.7 2185.7c1.4-10.5 10.4-19.5 20.9-21m-26.1 108.2c2-7.7 6.1-14.9 11.8-20.5-1.4 7.6-2.7 15.2-4.1 22.9 2.9-2.7 5.8-5.5 8.7-8.2.9-.8 2-1.7 3.2-1.4 1.2.4 1.6 1.9 1.8 3.2.7 5 1.3 10 2 15 2.3-2.6 4.6-5.3 6.9-7.9.7-.9 1.6-1.8 2.8-1.9 1.9-.2 3.2 2.1 3.2 4.1 0 2.1-.7 4.1-.6 6.2s1.7 4.3 3.7 4.1c1-.1 1.9-.9 2.7-1.6 5.2-5 9.6-10.8 13.1-17.1 1.4 4.3 1.5 9.1.2 13.4m-23.2-119.9c1.9-.3 3.7-.6 5.6-.9" /><path d="M36.3 1201.2c6.2-21.7 3.1-44.8.1-60.2-1.4-7.6-3.2-15.2-4.9-22.6-2.7-11.8-5.5-23.9-7-36-7.1-56.6-9.7-119.3 49.2-149.9-.3 11.1-7 20.7-14 30.8-4.3 6.3-8.8 12.7-11.8 19.7-9.3 21.9-2.5 46.8 4.9 63.8 3.6 8.2 7.8 16.2 11.9 24 5.7 10.9 11.6 22.1 15.7 33.8 3.8 11 10.8 38.9-4.7 59.7-.5.7-.5 1.7 0 2.4s1.5 1 2.3.6c17.4-6.9 25-27.9 23.7-44.9-.7-8.8-6-27.3-11.6-47-5.3-18.6-10.8-37.8-11.5-46.2-2.3-28.1 10.4-51.5 32.1-59.6 1-.4 1.6-1.5 1.2-2.6-.4-1-1.5-1.6-2.6-1.2-23.5 8.7-37.1 33.7-34.7 63.6.7 8.8 6 27.3 11.6 47 5.3 18.6 10.8 37.8 11.5 46.2 1.1 13.2-3.7 28.8-14.5 37.1 7.8-15.2 8.3-35.3 1-56.5-4.1-12-10.1-23.3-15.9-34.3-4.1-7.7-8.2-15.7-11.7-23.7-7.1-16.3-13.7-40.1-4.9-60.6 2.8-6.6 7.2-12.9 11.4-19 7.7-11.1 15.7-22.6 14.6-36.4-.1-.7-.4-1.3-1-1.6s-1.3-.4-1.9-.1c-29.1 14.1-46.8 36.6-54.1 68.7-6.2 27.6-3.8 58-.1 86.6 1.6 12.3 4.4 24.5 7.1 36.4 1.7 7.3 3.4 14.9 4.8 22.4 2.8 15.1 5.9 37.5-.1 58.4-5.1 17.9-16.7 32.3-31 39 9.2-14.3 12-30.6 12.7-42.4 1-17-1.4-34.1-3.8-50.5-1.9-13.5-4.5-27.1-6.9-40.3-1.2-6.3-2.3-12.7-3.5-19.2v22.5c2.3 12.3 4.6 25 6.4 37.6 2.3 16.3 4.8 33.1 3.8 49.7-.6 10.4-3 24.5-10.2 37.3v10.3c16.9-6.4 30.6-22.5 36.4-42.8m.1-293.7c29.8-18.6 60-29.6 86.7-39.4 42.2-15.5 78.7-28.8 101.4-65.4 27.4-44.1 82.3-61.1 136.3-74.6 19.1-4.9 38.3-9.7 57.4-14.5s38.3-9.7 57.4-14.5c5.6-1.4 10.6-2.5 15.3-1.2 8.7 2.5 12.8 12.9 11.9 21.6-1.1 9.5-6.7 18.2-11.7 25.8-4.8 7.5-9.7 15-14.6 22.4-4.9 7.5-9.8 15-14.6 22.5-.6.9-.3 2.2.6 2.8s2.2.3 2.8-.6c4.8-7.5 9.7-15 14.6-22.4 4.9-7.5 9.8-15 14.6-22.5 5.2-8 11.1-17.1 12.3-27.6 1.2-10.3-4-22.8-14.7-25.8-5.6-1.6-11.4-.3-17.3 1.2-19.1 4.9-38.3 9.7-57.4 14.5s-38.3 9.7-57.4 14.5c-54.7 13.8-110.5 31-138.7 76.4-22 35.4-57.8 48.6-99.4 63.8-26.9 9.8-57.3 21-87.5 39.8-.1 0-.1.1-.2.1C18.6 916.8 7.7 928.2.2 939v7.1c7.1-11.9 18.6-24.5 36.2-38.6"/><path d="M401.2 875.2c-12.5 13.7-25 24.4-38.2 32.9-34.8 22.2-87.8 29.5-121.7.6-3.3-2.8-6.5-6-9.5-9.1-7-7.1-14.3-14.5-23.8-18.3-8.5-3.5-19.6-1.9-26.9 3.7-5.2 4-7.7 9.4-7 15.3.1 1.1 1.1 1.9 2.2 1.7 1.1-.1 1.9-1.1 1.7-2.2-.7-5.7 2.6-9.5 5.4-11.7 6.2-4.7 15.9-6 23-3.1 8.8 3.5 15.4 10.2 22.5 17.4 3.1 3.2 6.3 6.4 9.8 9.4 15.4 13.2 35.5 20.1 58.3 20.1 1.2 0 2.5 0 3.8-.1 22.2-.7 45.1-7.9 64.4-20.2 13.5-8.7 26.3-19.6 39-33.5.7-.8.7-2.1-.1-2.8-.9-.9-2.2-.9-2.9-.1M442 704.1c-29.2-19.7-77.6-28-112.4-19.2-35.5 8.9-53.3 43-69 73-.5 1-.1 2.2.8 2.7.3.2.6.2.9.2.7 0 1.4-.4 1.8-1.1 15.3-29.3 32.7-62.5 66.4-71 33.9-8.5 80.8-.5 109.2 18.6.9.6 2.2.4 2.8-.5.6-.8.4-2.1-.5-2.7"/><path d="M467.8 743.5c-1-.4-2.2.2-2.5 1.3-4.9 14.4-5.4 29.9-5.9 44.9l-.3 9.3c-.7 15.8-2.9 35.7-14.2 50.2-13.9 18.1-37.9 24.4-63.4 29.8-27.9 5.8-59.2 12.3-89.3 8.2 54.6-26.2 105.3-63.4 146.9-107.7.8-.8.7-2.1-.1-2.8-.8-.8-2.1-.7-2.8.1-42.8 45.3-95.2 83.2-151.6 109.4-.8.4-1.3 1.2-1.1 2.1.1.9.8 1.6 1.6 1.7 8.9 1.7 17.9 2.4 26.9 2.4 24.1 0 48.3-5 70.3-9.6 26.3-5.5 51.1-12.1 65.8-31.2 11.9-15.4 14.3-36.1 15-52.4l.3-9.3c.5-14.7 1-29.8 5.7-43.7.3-1.2-.2-2.4-1.3-2.7m-106.2-1c-37.6 7.9-73.8 23.9-104.9 46.2-.9.6-1.1 1.9-.5 2.8.4.5 1 .8 1.6.8.4 0 .8-.1 1.2-.4 30.6-22 66.3-37.7 103.3-45.6 1.1-.2 1.8-1.3 1.5-2.4-.1-.9-1.2-1.6-2.2-1.4m37.9-5.6c-3.8.9-7.6 1.7-11.4 2.6s-7.5 1.7-11.3 2.6c-1.1.2-1.8 1.3-1.5 2.4.2.9 1 1.6 1.9 1.6h.4c3.8-.9 7.6-1.7 11.4-2.6s7.5-1.7 11.3-2.6c1.1-.2 1.8-1.3 1.5-2.4-.1-1.1-1.2-1.8-2.3-1.6M205.4 890c-9.8-2.8-19.9 2.8-22.6 12.4-1.3 4.7-.7 9.6 1.7 13.8s6.3 7.3 11.1 8.6c1.7.5 3.4.7 5.1.7 8 0 15.3-5.2 17.6-13.1 1.3-4.7.7-9.6-1.7-13.8-2.5-4.2-6.4-7.3-11.2-8.6m9 21.3c-2.1 7.5-10 11.8-17.7 9.7-3.7-1-6.8-3.4-8.7-6.8-1.9-3.3-2.4-7.1-1.3-10.7 1.7-6.2 7.5-10.2 13.7-10.2 1.3 0 2.7.2 4 .6 3.7 1 6.8 3.4 8.7 6.8 1.8 3.2 2.3 7 1.3 10.6"/><path d="M200.1 903.2c-2.7 0-4.9 2.2-4.9 4.9s2.2 4.9 4.9 4.9 4.9-2.2 4.9-4.9-2.2-4.9-4.9-4.9m0 5.8c-.5 0-.9-.4-.9-.9s.4-.9.9-.9.9.4.9.9-.4.9-.9.9m45.9 184.5c-2.3-3.5-4.7-7-6.9-10.4-17.5-26.6-33.8-55.6-34.7-87.1-.8-29.7 21.7-67.2 53.1-72.9 1.1-.2 1.8-1.2 1.6-2.3s-1.2-1.8-2.3-1.6c-15.4 2.8-29.9 12.9-40.8 28.4-10.3 14.7-16 32.4-15.6 48.5.9 32.5 17.5 62 35.3 89.1 2.3 3.5 4.6 7 7 10.5 15.3 22.8 31.1 46.4 38.4 73 13.8 50-7.6 107.6-49.9 137.2 19.4-36.5 36.1-74.9 26.2-112.5-7.1-27-22.8-50.2-37.2-69.4-3.4-4.5-6.9-9.4-10.7-14.6-17.2-24-36.8-51.2-57.4-59-1-.4-2.2.1-2.6 1.2-.4 1 .1 2.2 1.2 2.6 19.5 7.4 38.7 34.1 55.6 57.6 3.8 5.2 7.3 10.2 10.7 14.7 14.2 18.9 29.6 41.7 36.6 68 10.2 38.5-9 78.6-29.5 116.4-.4.8-.3 1.8.4 2.4.4.4.9.6 1.4.6.4 0 .7-.1 1-.3 48.1-29 73.1-91.8 58.2-145.9-7.7-27.2-23.7-51.1-39.1-74.2"/><path d="M198.6 1126.4c-2.9-5-6-10.1-8.7-15.3l-1.4-2.7c-6.6-12.6-12.4-23.6-10.5-37.5.1-1.1-.6-2.1-1.7-2.2s-2.1.6-2.2 1.7c-2.1 15.2 4 26.7 10.9 39.9l1.4 2.7c2.8 5.3 5.8 10.5 8.8 15.5 4.9 8.3 10 16.9 13.7 25.8 13.6 32.9 9.4 74.6-11 108.9-22.8 38.1-59.2 60.5-85.8 72.6-1.7.8-3.5 1.5-5.2 2.3-8.1 3.6-16.5 7.2-23.9 12.6-6.1 4.5-16.6 14.1-17.7 27.9-.4 5.5-1.4 8-3.2 8-2 .1-3.3-3.3-3.5-5.8-1.5-17.6 9.1-32.4 15.5-39.7 9-10.2 20.2-19.6 34.3-29 73.1-48.3 82.5-85.4 81.6-103.2-2-39.6-19.7-59.9-33.9-76.2-3.4-3.9-6.6-7.6-9.3-11.2-17.1-22.9-65.7-98.7-62.4-127.6.1-1.1-.7-2.1-1.8-2.2s-2.1.7-2.2 1.8c-3.4 30.4 45.1 106.2 63.2 130.4 2.8 3.7 6 7.5 9.4 11.4 13.8 15.9 31 35.6 33 73.8.9 16.9-8.4 52.4-79.8 99.6-14.4 9.5-25.9 19.2-35.1 29.6-6.9 7.8-18.1 23.6-16.5 42.7.4 4.6 2.9 9.4 7.3 9.4h.4c6.2-.3 6.7-8.3 7-11.7.7-8.9 6.6-18 16.1-25 7-5.1 15.2-8.7 23.1-12.2 1.7-.8 3.5-1.5 5.2-2.3 27.1-12.3 64.3-35.2 87.6-74.2 21-35.3 25.3-78.4 11.2-112.5-3.8-9-8.9-17.7-13.9-26.1M49.7 908.3c-16.5 5.5-30.5 17.6-38.5 33.2-.5 1-.1 2.2.9 2.7.3.1.6.2.9.2.7 0 1.4-.4 1.8-1.1 7.4-14.7 20.6-26.1 36.1-31.2 1-.3 1.6-1.5 1.3-2.5-.3-1.1-1.4-1.7-2.5-1.3"/><path d="M100.8 1011.1c-.2-1.1-1.3-1.8-2.3-1.6-1.1.2-1.8 1.3-1.6 2.3 1.8 9.5 5.8 18.7 11.4 26.6.4.5 1 .8 1.6.8.4 0 .8-.1 1.2-.4.9-.6 1.1-1.9.5-2.8-5.3-7.3-9-16-10.8-24.9m172 169.9c-1.1.3-1.7 1.4-1.4 2.5 4 13.5 4 28.4 0 41.9-.3 1.1.3 2.2 1.4 2.5.2.1.4.1.6.1.9 0 1.7-.6 1.9-1.4 4.2-14.2 4.2-29.9 0-44.1-.3-1.2-1.4-1.8-2.5-1.5"/><path class="st0" d="M287.5 1731.4c-5-13.7-4.4-28.7 2.9-41.6 14.2-25.1 48.6-32.6 76.8-16.7s39.6 49.2 25.4 74.4c-8.1 14.4-22.9 23-39.4 24.7" /><path class="st0" d="m285.2 1723.2-75.8 103.9s1.5 31 31.7 47.1 58.4 13.1 58.4 13.1l59.4-115.8" /><path class="st0" d="M304.5 1745.3c8 6.4 16.9 11.6 26.5 15.3m-84.8 32.4-25.6 34.1m31.4-40.6 6-7.5m87.9-97.2 5 2.8m13.1 7.4 5.3 3m-11-15.6 6.2 3.5m-77.2 93.7c7.5 7.9 17.1 13.7 27.6 16.7m243.3-430.8-127.1 151.8s80 56.4 137-21.1c53.8-73.3-9.9-130.7-9.9-130.7" /><path class="st0" d="M515.4 1519.7c23.5-10.8 43-30.3 53.8-53.8m4.6-24.1L572 1455m-79.1 6.2 5.4 4.5m6-18.2 5.4 4.5m5.7-19.3 5.4 4.5m6.5-20.4 5.4 4.5m-53.1 55 5.4 4.5m11.5-2.4 5.9 4.6m5-19.6 6 4.5m6-20.4 6 4.5m5.5-18.2 6 4.5m-23.5 39.2 6 4.5m4.9-18.3 6 4.5m3.6-18.4 6 4.5M437.7 1506c8.6 6 18.5 10.2 28.8 12.2m143.9-255 41.9 176.7 75-11.5-11.5-181.3zm-19.834-24.937 130.779-20.004 4.173 27.283-130.778 20.004z" /><path class="st0" d="m602 1208.7-6.1 28.8 120.5-18.4-10.9-26.2zm73.5 107.3c-2.4-1.3-9.4 1.7-12.1 4.2-3.7 3.5-5.3 7.5-6 12.4-.6 5.1 2.9 18.1 6.6 21.2 0 0-.1-6.7 1.2-9.6 1.4-3 3.8-5.3 6-7.8s4.4-5.1 5.4-8.2c1.4-4.3 3.5-9.3-1.1-12.2m7.7 5.5s.4 6.7-.8 9.7-3.4 5.5-5.5 8.1-4.2 5.3-5 8.5c-1.1 4.4-.4 9.9 2.9 12.9 4.8 2.1 9-3 11.3-6 3.2-4.1 4.4-6.8 4.8-12.4.3-4.7-3.9-17.9-7.7-20.8m-29.4 90-18.9-74.6m-.9-6.2-2.7-7.3M608 1211.8l-4.3 19.9M710 1248l.2 31.8m-66.9-86.8c8.6-8.2 17.4-16.9 21.5-28s2-25.6-7.9-32c-5.5-3.5-12.3-4.2-18.8-3.9-10.1.4-22.1 4.7-23.6 14.7-.9 6.1 3.4 12.5 9.4 14s12.8-2.1 14.9-7.9" /><path class="st0" d="M672.2 1182.3c4.9-9.9 9.8-20.1 11.2-31s-1.3-23-9.7-30.3c-5.1-4.4-11.6-6.5-17.9-8.7s-12.8-4.6-17.6-9.2-7.4-12.2-4.4-18.2m222.6-380c-10.5-3.8-21-6.2-31.8-6.3-10.5-.2-21.2 1.8-32.2 6.4-20.4 8.4-24.3 32.7-14.5 49.1 0 0 16.3 25.7 21.4 37.8 3 6.9 4.8 11.4 14 12.5 15.4 1.8 23.4-11.4 29.3-19.2 8.4-11.1 21.9-19.6 28.8-31.3 9.6-16.4 5.9-41.5-15-49m-65.2 19.2 4.4 14.4m27.8-14.4v14.6m33.3-13.1-6.9 12.9m-49.2 11.1 3.5 11.8m18-13.4v11.8m24.6-10.6-6 11.2m-27.9 9 1.7 10.7m17.8-11-3.6 11.5" /><path class="st0" d="M809 699.9c-5.1-4.3-9.1-7.6-14.2-11.9 9.9 1 19.5 4.5 27.8 10m7 .7c5-6.8 20.3-10.2 28.3-13 .3 5.5-8.3 10.5-8.5 16" /><path class="st0" d="M839.4 689.9c-4.5-5.3-7.5-10-13.3-13.9-6 4.7-16.2 15.6-16.2 15.6m-433.3 811.8c-5.1-11.8-20.2-19.6-32.5-11.2-6.1 4.2-11.6 9-15.9 14.8-4.2 5.6-7.3 12.2-9.2 20-3.4 14.4 8.2 26.1 21 27.2 0 0 20.4 1.3 28.9 3.3 4.9 1.1 8.1 1.9 12.3-2.7 7.1-7.7 3-17.3 1.1-23.5-2.8-8.9-2-19.6-5.7-27.9m-47.6 31.8 9.6 3.3m3-20.8 8 5.8m6-23.3 4.3 8.9m-13.4 31 7.8 2.8m-.2-15.1 6.4 4.7m4-17.6 3.6 7.7" /><path class="st0" d="M322.9 1516.1c-4.3 1.1-7.7 1.9-12 3 4.4-5 10.1-8.8 16.4-11.2m3-3.5c-1.7-5.4 2.4-15 4.1-20.5 3.1 2 2.4 8.7 5.4 10.9" /><path d="M1053.1 2170.1c-35.2-17-74.1-21-115.7-11.9-41.6 9.2-75.2 29.1-99.7 59.4-20.3 25.1-30 51.8-34.5 69.8-1.2 4.8.1 9.8 3.6 13.3 2.7 2.8 6.4 4.3 10.2 4.3 1 0 2.1-.1 3.1-.3l286.5-63.1c4.9-1.1 8.7-4.5 10.4-9.2 1.6-4.7.7-9.8-2.5-13.6-11.9-14.5-32.2-34.6-61.4-48.7m60.1 60.9c-1.2 3.4-4 5.9-7.5 6.6l-286.5 63.1c-3.5.8-7-.3-9.5-2.9-2.5-2.5-3.4-6.1-2.6-9.5 7.8-31 36.3-105.4 131.2-126.2 14.9-3.3 28.9-4.7 42-4.7 67 0 109.9 38.2 131.1 63.9 2.3 2.7 2.9 6.4 1.8 9.7m-297.8 136.5c-2.1-.3-15.8-2.5-18.3-13.9-2.5-11.6 9-18.7 10.9-19.8l317.1-69.8v-4.1l-318.2 70c-.2 0-.4.1-.5.2-.7.4-16.5 9-13.1 24.3 3.4 15.2 21.4 17 22.2 17h.6l309.1-68v-4.1z"/><path d="M821.1 2302.4c-.2-1.1-1.3-1.8-2.4-1.5-1.1.2-1.8 1.3-1.5 2.4l5.6 25.3c.2.9 1 1.6 2 1.6h.4c1.1-.2 1.8-1.3 1.5-2.4zm285.8-62.9c-.2-1.1-1.3-1.8-2.4-1.5-1.1.2-1.8 1.3-1.5 2.4l5.6 25.3c.2.9 1 1.6 2 1.6h.4c1.1-.2 1.8-1.3 1.5-2.4zm-258.1 109.2-10.6 2.3c-1.1.2-1.8 1.3-1.5 2.4.2.9 1 1.6 2 1.6h.4l10.6-2.3c1.1-.2 1.8-1.3 1.5-2.4-.3-1.2-1.3-1.8-2.4-1.6m49.8-19.2-39.5 8.7c-1.1.2-1.8 1.3-1.5 2.4.2.9 1 1.6 2 1.6h.4l39.5-8.7c1.1-.2 1.8-1.3 1.5-2.4-.2-1.1-1.3-1.8-2.4-1.6m-38.3-2.3-10.1 2.2c-1.1.2-1.8 1.3-1.5 2.4.2.9 1 1.6 2 1.6h.4l10.1-2.2c1.1-.2 1.8-1.3 1.5-2.4s-1.4-1.8-2.4-1.6m52.8 7.4-16.7 3.7c-1.1.2-1.8 1.3-1.5 2.4.2.9 1 1.6 2 1.6h.4l16.7-3.7c1.1-.2 1.8-1.3 1.5-2.4-.3-1.2-1.4-1.9-2.4-1.6m211.6-46.6-70.3 15.5c-1.1.2-1.8 1.3-1.5 2.4.2.9 1 1.6 2 1.6h.4l69.8-15.4v-4.1c-.2-.1-.3 0-.4 0m-16.8-15.3c-1.1.2-1.8 1.3-1.5 2.4.2.9 1 1.6 2 1.6h.4l16.2-3.6v-4.1zm-135.3 76.8c-44.5 8.9-114.7 24.9-142.9 31.3-1.3.3-2-.7-2.1-1-.2-.3-.6-1.4.5-2.3l.1-.1 11.7-11.4c.8-.8.8-2 0-2.8s-2-.8-2.8 0l-11.7 11.3c-2.1 1.8-2.6 4.7-1.4 7.1 1 2.1 3 3.3 5.2 3.3.5 0 .9-.1 1.4-.2 28.1-6.4 98.3-22.4 142.8-31.3 43.7-8.8 116.4-25.2 151.6-33.2v-4.1c-34.9 8-108.4 24.6-152.4 33.4M1117 2302c-.5 1-.1 2.2.9 2.7l7.1 3.6v-4.5l-5.3-2.7c-1-.5-2.2-.1-2.7.9m-261.9 134h18.6l251.3-55.3v-4.1zm-17.5-2c-4.4-2.8-7.4-7.1-8.5-12.2l-5.5-24.9 301.4-66.3v-4.1l-304.2 67c-.5.1-1 .4-1.3.9-.3.4-.4 1-.3 1.5l5.9 26.9c1.2 5.5 4.2 10 8.3 13.3h8.2c-1.4-.6-2.8-1.2-4-2.1"/><path d="M838.5 2381.6c-.2-1.1-1.3-1.8-2.4-1.5-1.1.2-1.8 1.3-1.5 2.4l2.1 9.6c.2.9 1 1.6 2 1.6h.4c1.1-.2 1.8-1.3 1.5-2.4zm285.7-63.2c-.2-1.1-1.3-1.8-2.4-1.5-1.1.2-1.8 1.3-1.5 2.4l2.2 9.9c.2.9 1 1.6 2 1.6h.5v-8.7zm-77.7-238.7-78.1-18.9c-1-.2-2.1.3-2.4 1.4l-30.1 97.3c-.3 1.1.3 2.2 1.3 2.5.2.1.4.1.6.1.9 0 1.6-.6 1.9-1.4l18.9-61.1 76.3 18.5c.7.2 1.5-.1 2-.6.5-.6.6-1.4.3-2.1l-7.8-19.6 17.8-12.6c.6-.5 1-1.2.8-2-.2-.7-.8-1.3-1.5-1.5m-20.7 13.8c-.8.5-1 1.5-.7 2.4l7 17.5-72.3-17.5 9.5-30.7 72 17.4zm-169.9 127.4c-.9-.7-2.1-.5-2.8.4l-9.4 12.3c-.7.9-.5 2.1.4 2.8.4.3.8.4 1.2.4.6 0 1.2-.3 1.6-.8l9.4-12.3c.7-.9.5-2.1-.4-2.8m14.7-3.5-5.2 6.3c-.7.9-.6 2.1.3 2.8.4.3.8.5 1.3.5.6 0 1.1-.2 1.5-.7l5.2-6.3c.7-.9.6-2.1-.3-2.8-.8-.8-2.1-.7-2.8.2m21.7-7.8c-.9-.6-2.1-.4-2.8.4l-7.2 10c-.6.9-.4 2.1.4 2.8.4.3.8.4 1.2.4.6 0 1.2-.3 1.6-.8l7.2-10c.7-.9.5-2.2-.4-2.8m-17.5-13.9c-.9-.7-2.1-.6-2.8.3l-7.3 9.1c-.7.9-.6 2.1.3 2.8.4.3.8.4 1.3.4.6 0 1.2-.3 1.6-.7l7.3-9.1c.6-.9.4-2.1-.4-2.8m186.9 10.9c-.8-.8-2.1-.8-2.8 0-.8.8-.8 2.1 0 2.8l7.1 6.9c.4.4.9.6 1.4.6s1-.2 1.4-.6c.8-.8.8-2.1 0-2.8zm-4.4-19.7c-.8-.7-2.1-.7-2.8.1s-.7 2.1.1 2.8l9.9 9.1c.4.4.9.5 1.4.5s1.1-.2 1.5-.6c.7-.8.7-2.1-.1-2.8z"/><circle class="st0" cx="638.7" cy="308.6" r="51.6" /><circle class="st0" cx="638.7" cy="307" r="17.9" /><path class="st0" d="m603.7 288 6-4m3.4 19.4-3.4-6.1m-3 37.7 4.7-10.1M632 335l11.5-5.1m29.2-9.7 4.9 9.7M665.2 307l7.5-8.5m-11.1-18.8 11.1 4.3m-22-2.2-4.5-7.7m-22 0 6.3-8.1m-33.1 52.6 3.9-7.7m42.2 32.6 7.2 5.7m-31.9-2.9 8.6-2.8m32.4-11 5.4-5.9m12.4-15.7 5.7-5.1" /><circle class="st0" cx="422.7" cy="561.7" r="14.7" /><circle class="st0" cx="475.6" cy="562.3" r="14" /><path class="st0" d="M422.7 547s2.7-23.6 11.2-32c8.4-8.4 24.8-19.1 24.8-19.1s-5.7 20.9 2.8 33.3c8.6 12.4 14 19.2 14 19.2" /><path class="st0" d="M480.4 496.3c-5.2-2.7-21.7 0-21.7 0s3.8 15.3 17.2 17.2c13.5 1.9 19 0 19 0s-9.3-14.5-14.5-17.2m-21.7 0 13.8 8.4m-52.6 65c-3-2-4.9-5.5-5.2-9.1" /><path d="M1082.5 2120.7c-9.2 0-16.7 7.5-16.7 16.7s7.5 16.7 16.7 16.7 16.7-7.5 16.7-16.7-7.4-16.7-16.7-16.7m0 29.4c-7 0-12.7-5.7-12.7-12.7s5.7-12.7 12.7-12.7 12.7 5.7 12.7 12.7-5.7 12.7-12.7 12.7m40.9-12.1c0-2.1.6-4.1 1.6-5.9v-6.2c-3.4 2.9-5.6 7.3-5.6 12.1s2.2 9.2 5.6 12.1v-6.2c-1-1.7-1.6-3.7-1.6-5.9"/><path d="M1123 2103.8c-7.9-11.5-2.6-31.4-2.5-31.6.2-.8-.1-1.7-.8-2.1-.7-.5-1.6-.5-2.3-.1s-16.7 10.9-25.1 19.4c-8.9 8.8-11.7 32.2-11.8 33.2-.1 1.1.7 2.1 1.8 2.2s2.1-.7 2.2-1.8c0-.2 2.7-23 10.6-30.8 5.6-5.6 15-12.4 20.4-16.1-1.2 7.2-2.3 20.7 4.1 30 1.9 2.8 3.7 5.3 5.3 7.5v-6.9c-.5-1-1.2-1.9-1.9-2.9"/><path d="M1121.2 2073.7c1.2-.2 2.5-.3 3.8-.4v-4c-3.4.3-6.1.7-6.8.9-.6.1-1 .4-1.3.9s-.4 1-.3 1.6c.1.5 2.2 8.4 8.4 13.9v-5.9c-1.9-2.7-3.1-5.3-3.8-7"/><path d="M1119.6 2070.3c-.9-.6-2.2-.3-2.7.7-.6.9-.3 2.2.7 2.7l7.5 4.6v-4.7zm-38.7 73.5c-2.4-1.6-4.1-4.5-4.3-7.6-.1-1.1-1-1.9-2.2-1.8-1.1.1-1.9 1.1-1.8 2.2.4 4.3 2.6 8.3 6.1 10.6.3.2.7.3 1.1.3.6 0 1.3-.3 1.7-.9.5-1 .3-2.2-.6-2.8"/><path class="st0" d="M848.5 320c-42.2-45.7-3.3-74-3.3-74l-44.3-37.4-146.5 211.2 115.1 99.7 196-161.1-40.7-35.6s-34.1 43-76.3-2.8" /><path class="st0" d="M797.8 243.1c-15.7 24.8-32.2 49-47.9 73.8m72.5-90.6 46.9-108.7 25.6 9.3-56.7 112.5m-7.9 50.2 61.7-88.8 21.2 17.4-24.9 30.2-21.4 33 44.3-31.8 9.4 17-72.1 53.4m91.1 15.8 36.5-21.8 12.2 16.8-32 19.6" /><path class="st0" d="m928.6 326.2 56-77.8-20.2-9.9-21.6 26.2 27.3-75.8-26.3-9.9-12.2 24-59.3-28.6" /><path class="st0" d="M931.8 277.5c-10.3 12.4-20.5 24.9-30.8 37.3m-161.8 15.1-16.5 25.9" /><circle class="st0" cx="794.6" cy="390.9" r="42.3" /><circle class="st0" cx="794.6" cy="390.9" r="26.9" /><path class="st0" d="M429.9 601.9c-25.3 11.5-30.7 35.4-30.7 35.4l-16.3.3c-2.4 0-3.9 2.5-2.8 4.6l10.7 21c1.1 2.2 4.2 2.4 5.5.3l9.1-14s26.1 7.3 47.6-4.9 19.6-35 19.6-35-17.5-19.3-42.7-7.7" /><path class="st0" d="M448.7 598.9c.4 13.4 5.5 25.6 15.5 34.6" /><ellipse class="st0" cx="461.6" cy="613.6" rx="2.7" ry="2.6"/><path class="st0" d="m574.9 638.4-17.6-2.7-24.9 22.7-16.5-18.2 24.9-22.6-2.8-23.2m15.1 33.9 17.1-2.9m17.4-56.5c-1-4.8-3.3-9.4-6.9-13.3-10.7-11.8-29-12.7-40.7-2-11.8 10.7-12.7 29-2 40.7 6.2 6.8 14.8 9.9 23.3 9.4" /><path class="st0" d="M571.5 626.8c-13.2-14.5-14.2-37.7-.6-50s35.3-10.5 48.5 4 8.4 41.2-7.2 50.8" /><path class="st0" d="M620.1 625c-1.3 5.2-2.7 12-7.2 16.1-10.8 9.8-26.5 10.2-35 .9-3.6-3.9-5.3-8.9-5.3-14.1m47.1-24.8c.3 6.2-2 12.4-6.2 17m-52.7-8.9-5.6 5.6m-12.8 1342.7c-10.8 8-24.3 12.7-38.8 12.7-36.1 0-65.3-29.2-65.3-65.3s29.2-65.3 65.3-65.3 65.3 29.2 65.3 65.3c0 16-5.8 30.7-15.4 42.1" /><path class="st0" d="M490.1 1949.2c-4.7-1.5-9.1-3.8-12.9-6.7m-9.8-9.9c-5.1-7.2-8.2-16.1-8.2-25.7 0-24.5 19.9-44.4 44.4-44.4m27 44.5c-4.9-6.5-19-13.7-27-9.4-7.9 4.3-1.6 24.3 3.9 29.2 5.6 4.8 17.7 8.7 17.7 8.7l43.8 52.8 11.2-8.7-45.9-52.8s1.2-13.3-3.7-19.8m215-132.7c-23.8-9.8-41.1 18.4-41.1 18.4L691.6 1903c-.5 4.4 5.2 6.6 7.8 3l66.2-93.3c-.1.1 3.8-28.5-20-38.4m-43.7 40.2 18 6.2m13.8 36.3-11.8-5.2m-25.6 10 18.5 6.5m19.1-96 20.5-84.2m-8.8 86.2 12.6-32.5m-5 36.1 38.5-50.2" /><circle class="st0" cx="321.9" cy="1964.7" r="33.8" /><path class="st0" d="m336.5 1986.1 36.8 61.7m-67.5-71c-3-6.4-2.3-14.3 1.7-20s11.3-9.1 18.3-8.4c2.8.3 5.5 1.1 7.7 2.8 4.1 3 6.1 8.3 6.1 13.4 0 4.7-1.5 9.6-4.9 13-3.4 3.3-8.8 4.7-13.1 2.8s-6.9-7.5-4.9-11.8 8.7-5.7 11.8-2.2" /><ellipse class="st0" cx="689.2" cy="2214.3" rx="22.4" ry="16.2" transform="rotate(-36.862 689.162 2214.279)"/><path class="st0" d="m706.1 2199.7 13.3-28.3 19.5 25.9-30.9 4.9m-39.1 22.4-29.5 1.4 19.8 26.5 12.1-24.8" /><ellipse class="st0" cx="339.9" cy="1021.2" rx="22.4" ry="16.2" transform="rotate(-52.178 339.928 1021.218)"/><path class="st0" d="m351.9 1002.4 5.8-30.5 25.6 19.9-28.1 13.2m-30.6 32.5-29.6 8.3 26 20.2 5.2-27m1.2-26.9c7.8 5.7 15.5 11.4 23.3 17.2" /><path d="M34.6 37.7c4.4 7.8 10.8 14 17.9 17.3 3.7 1.7 7.4 2.6 11 2.6 3.5 0 6.8-.8 9.7-2.5 12.1-6.8 14.5-25.6 5.3-42-2.9-5.2-6.7-9.7-11-13.1h-7.3c5.9 3.1 11.2 8.4 15 15 8.1 14.4 6.4 30.9-3.8 36.6-4.8 2.7-10.9 2.6-17.1-.2-6.4-3-12.1-8.5-16.1-15.6C30.4 21.9 31.6 6.3 40.6 0h-5.9c-7.3 8.7-7.7 24.1-.1 37.7"/><path d="M112.8 74.6 75.9 50c-.9-.6-2.2-.4-2.8.6-.6.9-.4 2.2.6 2.8L108 76.2 73.1 95.6l-1.6-41.1c0-1.1-1-2-2.1-1.9-1.1 0-2 1-1.9 2.1L69.3 99c0 .7.4 1.3 1 1.7.3.2.6.3 1 .3.3 0 .7-.1 1-.3L112.7 78c.6-.3 1-1 1-1.7s-.3-1.3-.9-1.7M74.6 12.2C64.3 18.4 53.3 25 38.9 33.4c-1 .6-1.3 1.8-.7 2.7.4.6 1 1 1.7 1 .3 0 .7-.1 1-.3 14.3-8.4 25.3-15 35.6-21.2.9-.6 1.3-1.8.7-2.7-.5-.9-1.7-1.2-2.6-.7"/><path d="M76.9 63.6c-1.1.1-1.9 1-1.9 2.1l.8 11.8c.1 1.1.9 1.9 2 1.9h.1c1.1-.1 1.9-1 1.9-2.1L79 65.5c-.1-1.1-1-2-2.1-1.9"/><path d="M90.9 69.1c-.6-.4-5.1-3.7-9-6.6-.9-.7-2.1-.5-2.8.4s-.5 2.1.4 2.8c8.9 6.7 9.3 6.9 9.5 7 .3.1.6.2.9.2.7 0 1.4-.4 1.8-1.1.5-1 .1-2.2-.8-2.7"/><path class="st0" d="M414.9 1225.6c-4.6-1.2-9.3-2.4-14.1-2.4s-9.8 1.6-13 5.2c-4.6 5.1-4.5 12.8-3.2 19.6 4.4 22.4 20.5 42.1 41.5 50.9 4.1 1.7 8.5 3.1 12.9 2.4 9.1-1.4 14.8-11.4 14.7-20.6s-4.5-17.7-8.8-25.8" /><ellipse class="st0" cx="465.9" cy="1243.3" rx="12.2" ry="12.9"/><path class="st0" d="M470.7 1179.5c-5.4-2.8-11-5.3-16.8-7.3-1.8-.6-3.8-1.2-5.5-.3-1.7 1-2.2 3.4-1.6 5.2.6 1.9 2 3.4 3.4 4.8 9.2 9.1 19.8 16.7 29 25.9 9.1 9.2 17 20.5 18.6 33.3m-1.5-86.2c-5.4-2.8-11-5.3-16.8-7.3-1.8-.6-3.8-1.2-5.5-.3-1.7 1-2.2 3.4-1.6 5.2.6 1.9 2 3.4 3.4 4.8 9.2 9.1 19.8 16.7 29 25.9s17 20.5 18.6 33.3" /><path class="st0" d="M473 1216.6c6.1-5.3 12.2-10.6 18.3-16m9.3-8.4c3.3-3.7 6.5-7.3 9.8-11m16.6-7.3c4.5-5 8.9-10 13.4-15 1.2-1.4 2.5-2.8 3.2-4.5s.7-3.8-.4-5.3c-1.7-2.4-5.5-2.1-8-.7-5.3 3-7.8 9.4-8.5 15.4-.5 4-.3 8.1 1.5 11.7s5.4 6.4 9.4 6.2 7.7-4 7-7.9m9.8-33.6c3.2-3.6 6-7.5 8.2-11.8.9-1.7 1.7-3.8.6-5.4-1.2-1.9-4.2-1.7-5.9-.2s-2.3 3.8-2.8 6c-.9 3.9-1.8 8-1.1 12s3.1 7.9 7 9.1c3.8 1.2 8.8-1.3 9-5.4M880 1902c-.5-5.7-.7-8.2-1.2-13.9-88.4 16.4-96.5 112.1-95.8 147.7-16.9 3.7-40.4 1.2-52.5 13.7-4.2 4.3-6 13.6-5.1 19.6 1.2 8.1 10.7 16.4 18.4 19.2 9.9 3.5 15.6-7.2 23.1-11.9 4.2-2.6 10.9-7.9 14.5-5.9 3.3 1.8 3.3 11.8 3.3 15.6.2 11-.3 18.9 8.2 23.7 3.6 2 25.5 2.8 29.2 1.1 12.2-5.5 10.9-19.2 10.2-23.5-2.8-17.1-16.7-26.9-24.9-37.6l-1.5-2.2c37.2-17.7 65.4-35.6 84.4-67.3 13.7-22.9 18.7-51.7 1.8-83.9-7.1 2.9-6.2 2.4-12.1 5.6" /><circle class="st0" cx="867" cy="1917.9" r="6.8" /><path class="st0" d="M755.7 2048.4c8.7-.5 17.4-1.7 25.8-3.7m-12.7 14.8c4.4-2.3 8.7-4.5 13.1-6.8m20.4 3c2 5.2 4.5 10.2 7.6 14.8m-14.8-8.9c-.5 5.4-.1 10.8 1.3 16.1m-10.2-83.3c-9.9-15.1-12.3-38-4-54s25.7-26.9 43.8-27.4m-43.4 51.4 5.1.6" /><path class="st0" d="M786.6 1942.7c2.4 1.3 4.8 2.5 7.2 3.8m5.7-17.8c1.1 1.8 2.1 3.5 3.2 5.3m-8.9 2.6 2.3 1.9m-11 15.2 3.7 1m41.1-44.5c2.9 16 11.4 29.3 24.1 39.5s27.5 16.1 43.7 15.4M264 2153.8s46.7 46.1 102.6 9.8 27.6-94.4 27.6-94.4zm38.6 59.3 130.2-84.6M325.5 2096c-5.8 6.8-15.5 10-24.2 7.8-5.7-1.4-10.7-4.9-14.9-8.9-5.6-5.2-10.3-11.9-11.3-19.5s2.7-16.1 9.8-18.9c4.6-1.8 10.2-1 14 2.1 3.9 3.1 5.9 8.3 5.1 13.2-.3 1.9-1.1 3.8-2.5 5.1-2.7 2.3-7.2 1.5-9.4-1.1-2.3-2.7-2.5-6.7-1.1-10" /><circle class="st0" cx="449.9" cy="2216.9" r="10" /><circle class="st0" cx="423.5" cy="2259" r="5.5" /><circle class="st0" cx="463.4" cy="2253.7" r="6.7" /><path class="st0" d="M631.3 2403.9c-15.5-11.8-31.7-24.5-38.3-42.8-2.8-7.7-3.7-16-4.3-24.2-.8-10.1-1-20.6 3.2-29.8s14.2-16.4 24.1-14.3c7 1.5 12.4 7.4 15.5 13.8 3.5 7 4.8 15.5 1.6 22.7s-11.7 12.1-19.1 9.6-10.7-13.6-4.9-18.8m42.8 34.6c12.5-15.3 15.8-37.5 8.4-55.7-3.5-8.5-9-16-14.3-23.5-11.7-16.6-22.5-34.3-26.9-54.1s-1.2-42.2 12.4-57.2M482.2 1643s41.3 47.5 73.5 27.5 7.7-77.9 7.7-77.9z" /><path class="st0" d="M567.9 1605.6s1.5-16.5 12.9-14.5 8.3 11.1 5.7 31.9c-2.5 20.8-14.4 5.2-14.4 5.2m-46 70.7 74.6-46.2m-79.4-41.4c-10.9.4-21.9-3.1-30.6-9.8-8.6-6.7-14.8-16.5-17-27.2-.9-4.5-1.2-9.2.5-13.5 1.7-4.2 5.6-7.8 10.1-8 5.7-.3 10.4 4.6 13 9.7 1.6 3.2 2.8 6.8 2.3 10.3s-2.7 7.1-6.1 8.1c-3.4 1.1-7.7-1-8.3-4.5m133.2 455.3c-11.2-6.2-25.3-3.5-37.1 1.5-30.4 12.8-53.4 38.2-75.3 62.8 0 0-11.2 12.3-11.2 28.2 0 7.7 12.8 16.2 20.2 18.6 11.5 3.6 21.4-12.6 30-21 14.7-14.2 32.2-25.6 51.1-33.3 11.6-4.7 24.6-8.7 31.5-19.1 6.3-9.5 5-22.8-2-31.6-2-2.5-4.4-4.6-7.2-6.1" /><path class="st0" d="m625.6 2037.8 2-8.4 9.8 11-8.6 2.6m-127.9 91.3-9.9 2.1 12.5 10.4 2.3-8.7m140.5-308.8c-12.3-10-41.1 5.8-52.6 19.9s-10.8 33.7 1.6 43.7c12.3 10 31.6 6.6 43-7.5 11.5-14.1 20.3-46.1 8-56.1" /><path class="st0" d="M594 1875.1c-.4-10.4 4.6-20.9 12.9-27.1M402 1942l-9-35 13.9-35.2s-6.5-12.2 0-20.4 17.2-9.9 17.2-9.9 3.9 9.5.5 20-17.7 10.3-17.7 10.3m-14 35.1-34.1-44.4s-8.8 1.6-12.3-2.3c-3.5-4-4.4-18.7-4.4-18.7s12.1 2.3 15.7 7.2 1 13.8 1 13.8" /><ellipse class="st0" cx="691.2" cy="1979.5" rx="50.4" ry="48.6"/><ellipse class="st0" cx="704" cy="1969.1" rx="8.4" ry="8.3"/><ellipse class="st0" cx="684.9" cy="2006.8" rx="4.9" ry="5.2"/><ellipse class="st0" cx="706.4" cy="1993.8" rx="6" ry="5.5"/><ellipse class="st0" cx="675.1" cy="1958.5" rx="12.1" ry="12.5"/><path class="st0" d="M754.6 2258c17-31.7 12.4-73.7-11-101-16-18.7-38.8-30-58.6-44.7s-30.5-27.8-29.7-52.4m49.1 350.1 25.8-28.6 45-5.1-44.5-40.1-.5 45.2m.3-21 21 19m-57.8 23.7 18.8 17.1M319.2 1148.7c13.5 9.8 16.9 31.9 19 48.5 3.1 24.5-12.1 45.4-14.4 61.9M304.5 1114c-10.9-14.4-20.3-29.9-28.1-46.1m-11.2-45.4c-3.5-17.5 3.2-36.7 16.9-48.2m77.5-35.4c43.2-10.9 82.9-34.6 112.9-67.5" /><circle class="st0" cx="422.7" cy="1005.2" r="9" /><circle class="st0" cx="405" cy="1161" r="5.4" transform="rotate(-9.218 404.954 1160.913)"/><path class="st0" d="M602.2 1092.4c-3 0-5.4 2.4-5.4 5.4s2.4 5.4 5.4 5.4 5.4-2.4 5.4-5.4c0-2.9-2.4-5.4-5.4-5.4" /><circle class="st0" cx="358.7" cy="1139.9" r="15.7" /><circle class="st0" cx="333.8" cy="1323.4" r="37.4" transform="rotate(-9.218 333.758 1323.275)"/><path class="st0" d="m311.6 1308.9-2.5 6.4m12.1 3.8-2.5 6.5m-8.4 3.4-2.1 9.4m-22.4 62.9c-19.3 9.1-33.2 20.3-31 25s19.7 1.1 39-8 33.2-20.3 31-25-19.7-1.1-39 8" /><path class="st0" d="m254.8 1426.3 22.6 47.9s18.2-.5 38.1-9.9 32.6-21.7 32.6-21.7l-23.3-49.3" /><path class="st0" d="M266.2 1429.8c.3 2.6.6 5.3 1.7 7.7 1.2 2.4 3.4 4.4 6.1 4.5 2.6.1 5.4-2.3 4.9-4.9-.3-2-2.2-4.1-1-5.7 1.3-1.8 4.1-.3 5.6 1.5 2.7 3.3 5 6.9 6.7 10.8.7 1.7 1.5 3.6 3.2 4.3 2.7 1.1 5.5-2.1 5.6-5s-1.4-5.6-2.2-8.4-.6-6.4 1.9-7.9c2.2-1.3 5.1-.3 7.2 1.2 2 1.6 3.7 3.7 5.9 4.9 2.3 1.2 5.5 1.3 7-.8 1.6-2.4-.1-5.7-1.9-8s-3.9-5.2-2.6-7.9c.7-1.4 2.1-2.3 3.4-3.1s2.7-1.7 3.3-3.2-.3-3.5-1.8-3.6m-122.9 95.4c-6.3-3.8-14.8-2.4-20.8 1.8-6.1 4.2-10 10.8-12.9 17.6-5.6 13.5-17.1 43.8-17 43.7-.3 2.9 37.5-10.2 43.2-16.5 6.1-6.8 12.3-13.8 14.9-22.5s.4-19.5-7.4-24.1" /><path class="st0" d="M185.7 1499.6c17.6-10 41.7-7.4 55.7 7.2 14.8 15.4 16.5 36.8 11 56.5-2.7 9.6-4.8 11.9-.4 21 4.3 8.9 14 12.8 11.8 24.7-1 5.5-5.6 10.5-11.2 11-5.6.4-11.3-4.8-10.4-10.3 2.4 6.9-4 15.3-11.3 14.8s-12.5-9.6-9.2-16.1c-1.3 6.4-9.8 9.6-15.6 6.5-5.8-3-8.3-10.6-6.8-16.9 1.5-6.4 6.4-11.5 12-14.9 9.6-5.8 16.4-4.1 20.3-15.5 2.6-7.6.5-17.5-3.7-24.1-5.5-8.8-15.6-14.4-25.9-14.6-.4 1.4-.8 2.7-1.2 4.1" /><ellipse class="st0" cx="186.4" cy="1516.2" rx="5" ry="4.9" transform="rotate(-27.142 186.446 1516.394)"/><path class="st0" d="M218.6 1533c6.5-9.8 9.6-21.9 8.5-33.6m1.7 45.1c9.8.5 19.7-4.1 25.6-11.9m-21.3 29.9c3.3 1.1 6.7 2.3 10.2 2.2s7.2-1.6 8.9-4.6m36.4 35.5c13.7-31.2 5.1-70.9-20.3-93.6-7.4-6.6-16-11.9-23-19s-12.3-16.8-10.9-26.6m116.5 189.1v-30.1m51.4 55 28.8-11.2m-47.3-6.5 18.5-33.8m-51.4-13.7v-9.6m55.9 15.8 5.7-9m26.9 54.2 12.7-5.3M845 1818.4l-35.9-35.3c6-8.6 10.8-16.8 16.8-25.4" /><path class="st0" d="M828.1 1800.9c7-8.1 14-16.2 20.9-24.3l-3 5.1" /><ellipse class="st0" cx="866.1" cy="1764.9" rx="12.1" ry="11.5" transform="rotate(-19.573 866.124 1764.985)"/><ellipse class="st0" cx="892.2" cy="1741" rx="15.7" ry="13.7" transform="rotate(-19.573 892.247 1740.988)"/><path class="st0" d="M882.9 1656.2c20 22.2 59.1 64.9 58.7 63.9m-23.4-22.9c-2.4 4.8-4.8 9.6-5.6 14.9s.2 11.1 3.9 14.9c3.3 3.4 8.6 4.7 13.1 3.3s8.1-5.5 8.9-10.2m-527.4-256c24-5.6 45.5-21.4 58-42.6 6.8-11.5 11.1-24.9 9.3-38.1-3-23.1-24.2-40.8-46.9-45.6-11.4-2.4-24-2-33.8 4.3-9.4 6.1-15 17.4-14.2 28.6s8 21.6 18.2 26.2c9.2 4.2 21 3.4 28.3-3.6s8.1-20.3.4-27m81.3-.8c5-50.3 28.1-98.6 64.2-134m25.1 120c8.6 45.1 17.8 91.6 43.7 129.6 4.5 6.5 9.6 12.9 16.4 16.9s15.7 5.3 22.6 1.4m-310.8-400.2s59.9 56.7 116.8 2.2c56.9-54.4 3-116.8 3-116.8zm103.7-99.2 32.1-97.1m-45.3 109.8 5.4-93.9m308.792 468.223 145.588-46.39 38.8 121.768-145.588 46.39zm-8.892-7.523 132.1-81.9m-78.5 48.1-9.3-13.3 36.1-21 8.4 13.1m-36.6 167-20-62.5m-3.3-10.5-5.7-17.6" /><path class="st0" d="M922.1 1339.4c14.6.6 29.2-7.4 36.6-19.9s7.4-29.2-.2-41.7c15.1-12.8 28.4-29.5 30.4-49.1s-11.5-41.5-31.2-42.9c-1.5-18.5-12.8-35.8-29-44.8s-36.9-9.2-53.4-.8c-6.5 3.3-12.5 8-19.4 10.3-7.8 2.5-16.2 1.8-24.3 2.8-18.4 2.1-35.5 13.4-44.9 29.5-9.3 16-10.6 36.5-3.3 53.5-10 7.2-20.3 17.2-19.6 29.6.8 13.4 15.1 22.8 28.5 23 13.4.3 26-6.1 38-12.2 5.9 9.1 16.8 14.6 27.6 14s21-7.3 25.9-16.9c7.8 7.8 13.1 13.6 17.2 23.8" /><path class="st0" d="M792.9 1226.2c-4.2-11.6-2.7-25.2 4-35.6s18.4-17.4 30.7-18.4m48.5-22c12.6-8.6 30.7-7.8 42.5 1.9m11.9 254.1 14.5 47.3-21.2 6.7" /><path d="m939.3 1573.2-16.4-11.1c-3.4-2.3-7.4-3.1-11.4-2.3s-7.4 3-9.7 6.4l-15.8 23.3c-2.3 3.4-3.1 7.4-2.3 11.4s3 7.4 6.4 9.7l16.3 11.1c2.6 1.8 5.5 2.6 8.5 2.6 4.9 0 9.7-2.3 12.7-6.7l15.8-23.3c2.3-3.4 3.1-7.4 2.3-11.4-.7-4-3-7.5-6.4-9.7m.8 18.8-15.8 23.2c-3.5 5.1-10.5 6.5-15.5 3l-16.4-11.1c-2.5-1.7-4.1-4.2-4.7-7.1s.1-5.9 1.7-8.4l15.8-23.3c1.7-2.5 4.2-4.1 7.1-4.7.7-.1 1.4-.2 2.1-.2 2.2 0 4.4.7 6.3 1.9l16.4 11.1c2.5 1.7 4.1 4.2 4.7 7.1.5 3.1-.1 6.1-1.7 8.5m99.5 49.3-16.4-11.1c-3.4-2.3-7.4-3.1-11.4-2.3s-7.4 3-9.7 6.4l-15.8 23.3c-4.7 7-2.9 16.4 4 21.1l16.3 11.1c2.6 1.7 5.5 2.6 8.5 2.6 1 0 1.9-.1 2.9-.3 4-.8 7.4-3 9.7-6.4l15.8-23.3c2.3-3.4 3.1-7.4 2.3-11.4-.6-4-2.8-7.4-6.2-9.7m.8 18.9-15.8 23.3c-1.7 2.5-4.2 4.1-7.1 4.7s-5.9-.1-8.4-1.7l-16.4-11.1c-5.1-3.4-6.4-10.4-3-15.5l15.8-23.3c1.7-2.5 4.2-4.1 7.1-4.7s5.9.1 8.4 1.7l16.4 11.1c2.5 1.7 4.1 4.2 4.7 7.1.5 2.9-.1 5.9-1.7 8.4"/><path d="M971.4 1593.9c-12.3-8.4-29.9-4-39.3 9.7s-6.9 31.7 5.5 40.1c4.2 2.8 9 4.3 14.1 4.3 2.2 0 4.5-.3 6.8-.9 7.4-1.9 13.9-6.5 18.4-13.1s6.4-14.4 5.4-21.9c-1-7.6-4.9-14.1-10.9-18.2m2.1 37.9c-3.9 5.8-9.6 9.9-16.1 11.5-6.3 1.6-12.6.6-17.6-2.8-10.5-7.1-12.5-22.6-4.4-34.5 5.3-7.9 13.8-12.2 21.9-12.2 4.2 0 8.3 1.2 11.8 3.6 5.1 3.4 8.3 8.9 9.2 15.4.9 6.4-.8 13.2-4.8 19"/><path d="m1009.6 1627-20.7-14.1c-.4-.3-1-.4-1.5-.3s-1 .4-1.3.8l-24.7 36.3c-.3.4-.4 1-.3 1.5s.4 1 .8 1.3l20.7 14.1c.3.2.7.3 1.1.3.6 0 1.3-.3 1.7-.9l24.7-36.3c.6-.9.4-2.1-.5-2.7m-26.4 35.2-17.4-11.8 22.4-33 17.4 11.8zm86.4-.7c-5.6-3.8-12.5-4.7-19.6-2.7-7 2-13.2 6.7-17.6 13.2s-6.5 14-5.8 21.3c.7 7.4 4.2 13.5 9.7 17.3 3.7 2.5 8 3.7 12.4 3.7 9.1 0 18.7-5.1 24.9-14.2 9.1-13.6 7.4-30.9-4-38.6m.7 36.3c-7.9 11.7-22.2 15.9-31.7 9.5-4.6-3.1-7.4-8.2-8-14.3-.6-6.3 1.2-12.9 5.1-18.6s9.4-9.8 15.4-11.6c2.1-.6 4.1-.9 6.1-.9 3.7 0 7.2 1 10.2 3 9.5 6.4 10.8 21.2 2.9 32.9m-173.7-120.2-22.3-16c-.9-.6-2.1-.4-2.8.5-.6.9-.4 2.1.5 2.8l22.3 16c.4.3.8.4 1.2.4.6 0 1.2-.3 1.6-.8.6-1 .4-2.3-.5-2.9m230.8 145.7c-.2-1.1-1.2-1.8-2.3-1.7h-.1v4c.2 0 .5 0 .7-.1 1.1-.1 1.8-1.1 1.7-2.2m-8.9-7.7c-1 2.3-.5 5.2 1.1 7.4 1.4 1.8 3.3 2.8 5.3 2.7v-4c-1.1.1-1.9-.8-2.2-1.1-.8-1-1-2.4-.6-3.3.5-1.1 1.5-1.9 2.8-2.3v-4.1c-2.8.3-5.3 2.1-6.4 4.7"/><path d="M1121 1731.2c-17.2-9.9-32.8-19.2-49.3-31.9-.9-.7-2.1-.5-2.8.4s-.5 2.1.4 2.8c16.7 12.9 32.4 22.2 49.7 32.2 1.7 1 3.7 2.1 6 2.7v-4.2c-1.3-.5-2.6-1.2-4-2"/><path class="st0" d="M1019 1593.6c-15.7-10.2-35.2-12.9-51.9-21.4s-31.2-27.9-23.9-45.1c5-11.7 20.1-17.8 31.8-13s18.1 19.8 13.3 31.6m16.1-49.3c16.8-19.7 22.4-48.3 14.4-72.8-4.2-12.9-11.8-24.4-15.6-37.4s-3-28.8 7.3-37.6" /><ellipse class="st0" cx="1060.5" cy="1546.7" rx="10" ry="10.1"/><ellipse class="st0" cx="1085.7" cy="1609.2" rx="20.3" ry="17.2"/><ellipse class="st0" cx="898.8" cy="1538.3" rx="10.4" ry="8.4"/><path class="st0" d="M1018.8 1760.4c-12.3 13.2-9.2 39.8-9.2 39.8s23.2-2.1 37.4-19.4c15.3-18.6 9.8-40.4 9.8-40.4s-25.7 6.8-38 20m-9.2 39.8 31.1-38" /><path d="M1109.2 1311.9c-7.2-16.2-5-41.1-4.2-48.4 3.7.9 11.8 3.5 20 9.4v-5c-10.8-7-20.7-8.7-21.4-8.8-.5-.1-1.1 0-1.5.4-.4.3-.7.8-.8 1.3-.2 1.3-4.7 32.5 4.2 52.8 3.9 8.8 11.7 15.5 19.4 20.3v-4.8c-6.4-4.4-12.6-10.1-15.7-17.2"/><path d="M1121.6 1288.4c-.5-1-1.7-1.4-2.7-.9s-1.4 1.7-.9 2.7l7 13.4v-8.7z"/><circle class="st0" cx="714.6" cy="1115.3" r="14.5" /><circle class="st0" cx="72.4" cy="2349.1" r="14.5" /><circle class="st0" cx="516.3" cy="2023.8" r="23.8" /><circle class="st0" cx="415.8" cy="1988.3" r="10.1" transform="rotate(-67.5 415.81 1988.31)"/><path class="st0" d="m459.3 2123.3-15.3-43.2-26.4-8.2m33.2-16.3-6.8 24.5-18.1-32.3m-280.6-195.5c-8.2-7.8-19.4-13.4-30.7-12.2-26.8 2.9-48.3 42.2-50.2 68.8-1 13.7 10.4 25.4 19.2 36 9.7 11.7 21.3 22.8 35.8 27.2 14.2 4.3 30.5 1.6 42.5-7.3s19.5-23.6 19.5-38.5c0-16.6-8.3-31.8-16.5-46.2-5.6-9.9-11.4-20-19.6-27.8" /><path class="st0" d="M133.2 1843c23.1.2 40.6 14.2 57.8 29.7s32.9 33.3 53.3 44.2c7.7 4.1 17.4 9.4 16.7 18.1-.3 4.4-3.4 8-6.7 10.9-27.6 24.1-106.1 28.1-107.2 26.6" /><ellipse class="st0" cx="113.7" cy="1903.9" rx="15.6" ry="9.2" transform="rotate(-82.201 113.737 1903.891)"/><path class="st0" d="M102.3 1940.7c-5.3-4-10.4-8.5-14.3-13.9s-6.4-12-6.1-18.7c.4-7.2 4-14 9.1-19.2 5-5.2 11.3-9 17.8-12.3 3.9-2 8-3.9 10.7-7.3s3.4-8.9.2-11.9" /><path class="st0" d="M103 1924.1c3.1 2.6 6.3 5.2 10 6.6 3.8 1.4 8.4 1.3 11.5-1.2 2.3-1.9 3.5-4.8 4.4-7.7 2.8-9.4 2.9-19.6.2-29.1-1.2-4.2-2.8-9.2 0-12.7m10.4 30.6c.3 5.1.1 10.3-1.2 15.3s-3.8 9.7-7.5 13.2c-2.8 2.6-6.3 4.5-10.1 5.3m36.5-56.8c10.3 18.3 9.4 42.4-2.2 59.9m20.7-71c15.8 13.6 31.6 27.2 47.3 40.9 4 3.5 9.3 7.1 14.1 4.9M637.6 642.4c11.5-14.1 23.6-34.5 26.9-58s-3.2-48.2-17.6-66.9m14.7-24.5c20.5 26.7 32.6 59.7 34.1 93.3M524.6 780.7c44.7-64.4 104.9-118 174.1-154.9m51.9-70.7c53.3-39 106.6-78 159.9-117.1M738.2 596.4c31.9-22.3 63.7-44.7 95.6-67m-403.3-195c16.4-5.1 28.5-18.7 38.8-32.5s19.8-28.7 34-38.3 34.9-12.4 47.8-1.1c8 6.9 11.5 17.8 12.7 28.3 2.2 19.3-3.6 41.2-20.2 51.3M472.8 260c19.1-18.7 47.5-27.4 73.9-22.6m-171.5-20.7s27.8 39.2 66.9 21.9c44.2-19.5 28.9-64.2 28.9-64.2zm39.7 47.6 67-29.6m-82.5 2.5 72.6-32.1m372 1647.3c-2.1 0-3.8 1.6-3.8 3.6s1.7 3.6 3.8 3.6 3.8-1.6 3.8-3.6-1.8-3.6-3.8-3.6" /><circle class="st0" cx="863.4" cy="1846.9" r="10.5" /><path class="st0" d="M604.3 960.1c-80.2 31.2-50 109-50 109l158.9-62.5s-33.3-75.9-108.9-46.5m-47.6 115.2 159.2-61.8m-123.3-56.9 19.2-7.4" /><path class="st0" d="M560.7 1043.9c-5.1-11.8-3-26.4 5.2-36.3m80-68.8c2.7-13.9 5.3-28.3 2.1-42.1-1.1-4.5-2.8-9-6-12.4s-7.9-5.5-12.5-4.6-8.4 5.3-7.8 9.9 6.4 7.9 10.4 5.4m-11.7 38.9c-14.2-6.2-22.9-23-19.7-38.1.7-3.4 1.9-6.6 2.4-10s.2-7.1-1.9-9.9m-25 85.8c-4.9-4.2-9.7-8.7-13.5-14s-6.3-11.6-6.1-18.1c.1-6.5 3.3-13.1 8.9-16.4m7 20.4c-1.9-5.2-1.1-11.3 2.1-15.9 2.1-3.1 5.1-5.4 7.2-8.4 3.3-4.7 4.2-11 2.3-16.4M555 980.8c1.3-6.1 2.6-12.3 1.9-18.4-.7-6.2-3.9-12.4-9.5-15.1-2.4-1.2-5.5-1.5-7.6.2-2 1.7-1.4 5.9 1.2 6.2m83.5-89.9c-2.9-14.1 8.8-27.6 22.2-32.9 13.4-5.2 28.2-4.7 42.5-6s29.7-5.5 38.2-17m6.1 38.2c8.1-3.7 16.9-5.9 24.9-9.7 8.1-3.8 15.7-9.7 18.7-18.1s-.1-19.4-8.4-22.7c-3.1-1.2-6.8-1.2-9.6.6-2.8 1.9-4.2 5.8-2.7 8.8s6.2 3.9 8.4 1.4M651.3 859c13.7-6.6 29.8-5.4 44.7-2.1 14.8 3.2 29.4 8.4 44.5 9.5 15.2 1.1 31.7-2.8 41.4-14.5m44.5-32.3c24.5-9.9 48.1-24.9 61.6-47.6s14.5-54.2-2.8-74.1m22.5 2.1c-9.2-16.4-3.3-37.2 5.5-53.8 8.8-16.7 20.5-32.5 23.1-51.2 3.2-23.4-10.3-48.1-31.7-57.9" /><path class="st0" d="M919 585.1c-4.2-11-8.3-22-14.6-31.9s-14.9-18.6-25.8-23.1M231.1 2023.8c-3.4.2-6.6 1.7-9.6 3.4-15.1 8.6-27.4 22.3-34.3 38.3-1.9 4.4-2.8 9.3-2.4 14.1v.1c.3 3.4 2.4 6.8 5.7 7.5 3 .6 5.9-1.1 8.4-2.9 16-11.4 29.5-26.4 39-43.6 2.2-3.9 4.1-8.8 2-12.7-1.7-3-5.4-4.4-8.8-4.2m77.1-4.1c-15.6-7.4-33.6-9.7-50.6-6.3-5 1-9.6 3.1-13.5 6.3 0 0-.1 0-.1.1-2.6 2.1-4.2 5.8-2.8 8.9 1.2 2.8 4.3 4.2 7.2 5.2 18.5 6.6 38.5 9 58.1 7 4.4-.4 9.5-1.6 11.5-5.6 1.6-3.1.6-6.9-1.5-9.6-2.1-2.8-5.2-4.5-8.3-6M180.1 2087c-2.7 1.4-4.9 3.9-6.8 6.5-9.8 13.2-15.7 30.3-16.7 47.7-.3 4.8.5 9.6 2.2 14.1v.1c1.2 3.1 3.9 5.6 6.8 5.1 2.6-.5 4.4-3.1 5.9-5.6 9.7-16.2 16.2-34.9 18.9-54.3.6-4.4.8-9.6-2.1-12.6-2.1-2.3-5.5-2.3-8.2-1m-20.6 72.9c-2.7-1.4-6-1.7-9.2-1.8-17-.5-34.8 4.7-49.8 14.3-3.3 2.1-6.1 4.8-8.3 7.9l-.9 1.2c-1.9 2.7-2.4 6.4-.3 8.5 1.9 1.9 5.1 1.9 8 1.7 18.8-1.3 37.8-6.7 55.3-15.6 3.9-2 8.3-4.8 9.1-8.9.6-3-1.2-5.8-3.9-7.3m-66.3-498.8 144 68.2 28-48.1-134.7-88.4z" /><path class="st0" d="m72.41 1655.864 42.2-77.334 18.17 9.915-42.2 77.334z" stroke-width="4" /><path class="st0" d="m91.6 1620.7-22.7-16.9-33.1 21.6m408.3 774.5c5.4 6.9 15.1 9.6 23.7 8s16.1-7.1 21.8-13.8c3.4-4 6.2-8.5 7.4-13.7s.6-10.7-2.3-15c-3.8-5.7-10.9-8.2-17.7-9-8.5-1-17.5.3-24.9 4.7s-13.1 11.9-14.2 20.5c-1 8.5 2.9 17.8 10.4 21.9" /><path class="st0" d="M499.9 2373.2c20-11.3 37.4-21.8 59.4-28.2 4.4 4.4 13.2 1.7 14.4-4.3 1.2-6.1-5.9-12-11.6-9.6 2.3-1.8 3.5-4.9 2.8-7.6-.7-2.8-3.5-5-6.3-4.6-3.2.4-5.2 3.3-7.1 6-14.2 20.3-39.4 25.5-62.3 35.1" /><ellipse class="st0" cx="41.7" cy="1693.5" rx="10.1" ry="9.7"/><circle class="st0" cx="1077.1" cy="1181.2" r="28" /><circle class="st0" cx="66.4" cy="1258.5" r="6.9" transform="rotate(-67.5 66.417 1258.517)"/><path class="st0" d="M18.6 1448.1c-3-11.9.2-24.6 5.5-35.7s12.4-21.2 17.9-32.3c2.4-4.8 4.5-10.1 3.3-15.3s-6.8-9.7-11.7-7.8m128.7-126c-20.1 27.4-45.4 50.9-74.2 68.8m5.4-66.6c7.9-4.1 15.9-8.4 22.6-14.2 6.8-5.9 12.1-13.8 13.4-22.6.4-2.9.2-6.3-2.2-8.1-2.3-1.8-5.6-1.2-7.9.5-2.3 1.6-3.7 4.2-5.1 6.7-1.1 2-2.3 4.2-1.8 6.6.4 2.3 3.3 4.1 5.1 2.7m-2.5 195.5c-.5-9.9 5.9-19 13.9-24.8s17.6-8.9 26.8-12.4c24.7-9.4 48.1-22.3 69.3-38.3m-49.7 83.3c28.5-6 58.5-12.7 79.8-32.5 2.5-2.3 4.8-4.8 6-7.9 1.1-3.1.8-7.1-1.7-9.3-2.3-2.1-5.8-2.3-8.6-1.3s-5.2 3.1-7.3 5.4c-1.8 1.9-3.5 4.4-2.9 6.9.7 2.5 5.2 3.2 5.5.6m39.3 3.7c17.4-3.1 35.9 0 51.4 8.6" /><path d="M117.2 1433.9c-4.5.2-8.8 1.4-12.9 2.6-1.4.4-2.8.8-4.1 1.1-6.9 1.7-14.2 2.5-21.2 3.2-8.8.9-17.8 1.8-26.4 4.6-16 5.1-30.4 19.8-28 35.9-5.1 2.7-22.1 13.1-17.5 28.7 2.3 7.6 7.9 14.7 12.9 21 .7.8 1.3 1.7 1.9 2.5 9.9 12.8 21.9 26.6 38.3 28.4 1.1.1 2.1.2 3.2.2 11.2 0 22.9-6 31.8-16.4 8.7-10.1 13.8-22.9 18.2-34.2 6.3-15.7 12.6-31.5 19-47.3l.2-.6c2.8-7.2 5.5-15.4 1.4-22.2-3.6-5.8-11-7.7-16.8-7.5m11.6 28.3-.2.6c-6.3 15.8-12.6 31.6-19 47.3-4.4 11-9.3 23.4-17.6 33-8.9 10.4-20.7 15.9-31.6 14.8-14.8-1.6-25.7-14.1-35.5-26.8-.6-.8-1.3-1.6-2-2.5-4.7-6-10.1-12.8-12.2-19.7-4.3-14.6 16.5-24.5 16.7-24.6.8-.4 1.3-1.3 1.1-2.2-3.1-14.5 10.3-28 25.1-32.8 8.2-2.7 17.1-3.6 25.6-4.5 7.2-.7 14.6-1.5 21.8-3.3 1.4-.4 2.8-.8 4.3-1.2 3.9-1.1 8-2.3 12-2.5h.7c4.3 0 9.9 1.5 12.5 5.7 3.2 5.2.8 12.4-1.7 18.7"/><path d="M66.8 1470.7c-11.7 0-21.3 11.1-21.3 24.7s9.6 24.7 21.3 24.7 21.3-11.1 21.3-24.7-9.6-24.7-21.3-24.7m0 45.4c-9.5 0-17.3-9.3-17.3-20.7s7.8-20.7 17.3-20.7 17.3 9.3 17.3 20.7-7.8 20.7-17.3 20.7"/><path d="M70.8 1476.9c-1-.4-2.2.1-2.6 1.2-.4 1 .1 2.2 1.2 2.6 4.8 1.8 8.4 6.7 8.8 11.8.1 1 1 1.8 2 1.8h.2c1.1-.1 1.9-1.1 1.8-2.2-.6-6.7-5.1-12.8-11.4-15.2m49.8-12.5c-1-.4-2.2.1-2.6 1.2-3.5 9.3-7.2 19.2-11.2 30.2-.4 1 .2 2.2 1.2 2.6.2.1.5.1.7.1.8 0 1.6-.5 1.9-1.3 4-11 7.7-20.9 11.2-30.2.4-1-.2-2.2-1.2-2.6m26.6-29.5c-.9.6-1.2 1.9-.5 2.8 4.1 6.1 4.5 14.9 1.2 24.1-2 5.4-4.9 10.5-7.7 15.4-1.5 2.7-3.1 5.4-4.6 8.2-5.3 10.4-7.1 19.3-5.3 27.3.2.9 1 1.6 1.9 1.6h.4c1.1-.2 1.8-1.3 1.5-2.4-1.6-7 0-15 4.9-24.5 1.4-2.7 3-5.4 4.5-8.1 2.9-5.1 5.9-10.3 8-16.1 3.8-10.4 3.2-20.5-1.6-27.7-.6-.9-1.8-1.2-2.7-.6m-141.1 126c-.4 1 .1 2.2 1.1 2.6.2.1.5.2.8.2.8 0 1.5-.5 1.8-1.2 3.9-9.4.7-19.8-2.8-26.7-1.4-2.9-3-5.7-4.5-8.4-.8-1.5-1.7-3-2.5-4.4v8.2c1.2 2.1 2.4 4.2 3.4 6.4 3 6.1 6 15.3 2.7 23.3"/><path class="st0" d="M1031.8 619.2c-18.7-2.9-35.3 8.5-48.3 20.8-33.1 31.2-57.1 71.8-68.8 116.5 0 0-19.7 36.3-35.5 63.8-3.5 6-3.3 13.6.9 19.2 7 9.4 20.4 15.1 32 13.7 16.1-2 28.5-13.9 37-27.2 8.5-13.2 14.2-28.2 23.4-41 14.2-19.9 35.7-33 55-48.1 19.3-15 37.7-33.7 41.8-58.3s-12-55.4-37.5-59.4" /><path class="st0" d="M929.6 816.8c-2.8 2.8-5.7 5.6-9.4 7.2s-8.4 1.6-11.8-1c-4.1-3.1-5-9-3.5-13.6s4.7-8.3 7.6-12c14.1-18.7 20.2-42.3 29.6-63.9 12.4-28.6 31.1-54.2 54.4-74.6 2.8-2.4 5.8-4.9 9.6-5.4 5-.6 10.2 2.5 13.5 6.6 6.5 8 7 19.3 3.4 28.2s-10.7 15.8-18.3 21.6-15.9 10.8-22.9 17.3c-25.2 23.4-31.1 62.5-52.2 89.6" /><path class="st0" d="M989.5 687.2c-8.1 9.2-12.4 18.5-9.8 20.8 2.7 2.3 11.3-3.2 19.4-12.4s12.4-18.5 9.8-20.8-11.3 3.3-19.4 12.4M884.9 844.5l45.5 40M1055.7 633l45.2 39.7c4 3.5 5.8 8.8 4.9 14-5.1 28.5-8.8 60.9-31.9 76.3-9.9 6.6-21.5 10.6-31.5 17-14 8.9-24.6 22.1-34.8 35.1-14.7 18.6-29.5 37.2-44.2 55.8-3.7 4.6-7.4 9.3-12.5 12.5s-11.7 4.5-17.5 2.1" /><circle class="st0" cx="725.2" cy="926.8" r="42.3" /><path class="st0" d="m725.2 904.9-2.1 11.6-2.8 7-13.8 6 15.3 4.1 7.8 10.9 1.2-14.2 15-7.3-12.3-5.5z" /><ellipse class="st0" cx="200" cy="2157.3" rx="9.2" ry="7.8"/><circle class="st0" cx="221" cy="2205.8" r="11.8" /><path class="st0" d="M245.2 700.7c-4.8-1.4-9.9.1-14.2 2.5-11.8 6.4-19.7 19.4-20 32.8 0 0 0 14.3 15.6 16.4 6.2.9 9.6-1.7 14.6-5.4s8.5-9.1 11.1-14.8c2.5-5.6 4.4-11.7 3.6-17.8-.8-6-4.8-12-10.7-13.7" /><path class="st0" d="M226.8 744.8c-5.6-10.4-2.7-24.5 6.4-32m713-178.6 40.3 46.5 128-82.6-36.1-52.3zm88.7-92.8 19.1-20 24.4 24.4m-132.2 88.4 67.9-71m-42.7 74.5 103.1-65.1m-90.6 82.6 101.1-66.7" /><circle class="st0" cx="1027.1" cy="454.2" r="13.6" /><path class="st0" d="M1023.4 445.5c-4.6-10.5-6-22.4-4.1-33.6" /><circle class="st0" cx="1007.5" cy="1057.8" r="88.7" transform="rotate(-45 1007.5 1057.819)"/><circle class="st0" cx="1007.5" cy="1055" r="30.7" transform="rotate(-22.5 1007.476 1055.002)"/><path class="st0" d="M1060.2 1033.5c-2.4-6.3 6-13 3.8-19.4-1.9-5.4-9.6-5.8-15.2-4.3s-12.3 3.5-16.6-.4c-5.9-5.2-2.7-17.3-9.8-20.5-10.4-4.6-18.3 18.7-28.5 13.6-3.2-1.6-4.6-5.6-7.4-7.8-5-4-13-.7-16.3 4.8-3.2 5.6-17.7 33.9-22.4 39.7-4.8 6.1-7.8 14.1-6 21.6.9 4.2 3.3 8.1 3.2 12.3-.1 7.4-7.4 15.4-2.9 21.3 5.2 6.9 16.9-1 24.6 2.8 4 2 5.8 6.7 8 10.7 6.5 12 34.9 11.1 39.8 10.5s9.6 1.6 14.5 2.3c10.5 1.5 21-4.3 27.2-12.9 8.9-12.4 9.4-29 15.7-43 3.2-7 7.6-15.8 2.4-21.5-4-4.3-12-4.4-14.1-9.8m16.2 410.6c-19-27.4-31.5-60.6-28.3-93.8 1.6-16.5 7-32.8 6-49.4s-11.3-34.5-27.8-36.5m10.1-49.8c17.6 4.6 30.9 19.8 37.6 36.8 6.6 16.9 7.5 35.5 7.2 53.7-.2 13.9-.9 27.9 2.2 41.4s10.8 26.7 23.3 32.8" /><ellipse class="st0" cx="330.5" cy="81.7" rx="27.7" ry="101.4" transform="rotate(-52.836 330.473 81.681)"/><ellipse class="st0" cx="330.5" cy="81.7" rx="13.8" ry="64" transform="rotate(-52.836 330.474 81.681)"/><path class="st0" d="M249.7 20.4s-98.6 102.1.3 172.4 161.2-50 161.2-50" /><path class="st0" d="M232.5 179.7c-11 20.3-26.2 38.1-44.5 52.2-3.9 3-8.1 5.9-11.2 9.8s-5.1 8.9-4 13.9c1.2 5.7 6.6 10.4 12.4 10.7s11.4-3.6 12.9-9.1c-.8 3.7-1.7 7.6-1 11.4s3.3 7.7 7.1 8.6c3.7.9 7.5-1 9.7-3.8s3.3-6.5 4.4-10c3.6-12.5 7-25 12.8-36.6 5.8-11.5 14.3-22 25.9-27.9M241.9 46.7c-13.2 15.7-21.8 35.1-24.7 55.6M81.6 386.9c-20.1-14.9-30.7-16.8-49-12-8.4 2.2-31.1 18.4-32 46.4-.3 11.5.3 25.9 5.3 34.7 4 7 15.5 18 29.2 18.9 16.1 1 24.5-7.5 36.2-14.9 15.2-9.7 45.8-46.8 10.3-73.1" /><path class="st0" d="M35.3 382.1c-9.3 3.5-16.7 11.6-19.4 21.2m-1.7 6.5c-1.5 3.9-2.4 8.1-2.7 12.3m51.1-36.2c3.8 5.6 9.5 10 16 12.2" /><path class="st0" d="M69.3 392.8c9.9-12.7 26.3-20 42.3-18.8m33.3-38.7s-9.9 14.1-10.5 19.9c-.4 5.8 8.2 20.1 8.2 20.1s12.7-9.2 9.4-22.4-7.1-17.6-7.1-17.6M372.3 19.5s8.2 15.1 13.1 18.3c5 2.9 21.6 1.6 21.6 1.6s-2.6-15.5-15.9-18.4c-13.2-3-18.8-1.5-18.8-1.5M7 122s-4 16.8-2.4 22.4c1.8 5.5 15 15.7 15 15.7s8.4-13.2.5-24.3S7 122 7 122m209.8 206.3c-26.4.4-52.6-12.1-68.8-33-16.2-20.8-21.9-49.4-15-74.8m15.2-25.8c13-25.9 21.9-53.9 26.2-82.6M104.6 267c-1.7-36.5 6.5-73.5 23.5-105.8M71.7 647.1c-17.1-22-25.7-50.4-23.7-78.2s14.6-54.7 34.7-74M28.9 615.4c-5.3-14.8-7.5-30.8-6.4-46.5.9-12.2 3.8-24.2 8.5-35.5m680.2-419.9c-71.8 25.3-48.7 100.3-48.7 100.3l149.7-52.9s-29.2-72.7-101-47.4" /><path class="st0" d="M670.3 141.1s-12.2-50.1 28-64.3 59.3 33.5 59.3 33.5m-92.7 44.5-21.4-4.2-3.5 17.7 20.2 3.3m2.3 42.2 4 11.2 149.7-52.9-4-11.2m-60.9-44.2c13.5 1.5 26.1 9.1 33.8 20.2M633 140.5c-10.1-.9-13.5 8.6-13.5 8.6l24 1.5s-.3-9.2-10.5-10.1" /><path class="st0" d="M634 174.4c-7.7 10.8-13.8 15.9-24.1 24.3s-23.5 14-36.7 12.3-25.6-11.9-27-25.1c-9.2 9.1-25.5 9-35.4.7s-13.1-23.3-8.6-35.4 15.8-21.1 28.4-24.2c-13.5-9.8-12.4-32.1-.8-44.2 11.5-12.1 29.7-15.4 46.3-14 9.3.8 18.7 2.9 26.6 7.8s14.2 13 15.3 22.3c.9 7.4-1.3 15.6 2.8 21.9 2.5 3.9 4 2.5 6.9 6.1" /><circle class="st0" cx="707.8" cy="103.8" r="6.8" /><path class="st0" d="M546.7 107.6s3.6-25.6 29.1-14.1M523.3 155s-9.6 15.5 7.2 21.5m42.2-2.1s10.9 23 34 5.3" /><path d="M1125.1 219.7c-1.1-.5-2.2-.9-3.3-1.1-7.7-1.7-16.5 1.1-25.5 8.3-18 14.4-28.6 36.2-37.9 55.5 0 0 0 .1-.1.2l-1.5 3.8c-2.5 5.6-2 12.9-.6 17.8 1.9 6.4 13.1 9.6 18.4 9.8h.4c7.3 0 11-7.8 14.3-14.7.9-2 1.8-3.9 2.8-5.5 6.8-11.8 16-22.4 26.5-30.6.8-.6 1.6-1.3 2.4-1.9 1.3-1 2.7-2.1 4-3.2v-38.4zm-6.4 38.5c-.8.6-1.7 1.3-2.5 1.9-10.9 8.5-20.5 19.5-27.5 31.8-1 1.7-1.9 3.7-2.9 5.8-2.9 6.2-6 12.7-10.9 12.5-5.1-.2-13.7-3.3-14.8-6.9-1.1-4.1-1.7-10.5.4-15.1v-.1l1.5-3.8c9.1-18.9 19.4-40.2 36.7-54 5.6-4.4 14-9.4 22.1-7.5.7.2 1.4.4 2.1.7v31.6c-1.3.8-2.8 2-4.2 3.1"/><path class="st0" d="m1064.1 309.1-6.1 3.2 10.1 4.3-.1-6M965.8 466.9c.8-26 2.4-54.1 19-74.2 28.4-34.5 85-28 119.9-55.8" /><path d="M1124.9 350.7c-12.1 11.1-26.7 18.2-40.9 24.2-1 .4-1.5 1.6-1.1 2.6.3.8 1.1 1.2 1.8 1.2.3 0 .5-.1.8-.2 13.6-5.7 27.5-12.4 39.4-22.6z"/><circle class="st0" cx="901.7" cy="483.8" r="14.7" /><circle class="st0" cx="939.7" cy="449.6" r="6.5" /><circle class="st0" cx="1000.3" cy="288" r="15.7" /><path class="st0" d="M1007.4 278.9c7.2-4.8 13.2-15.3 12.7-24s-4-16.8-7.4-24.8M998.4 83c-21.2 2.7-57.6 21.4-57.6 21.4l99.7 111.6c4.1 4.6 11.3 5 15.9.9l45.3-40.5c4.6-4.1 5-11.3.9-15.9l-60.7-67.9s-22.3-12.1-43.5-9.6" /><path class="st0" d="M977.8 100.5c10.9-3.5 22.4-5.2 33.8-5.1M998.4 83l4.4-34.1 44.7 50m-90.6-4c-3-.5-5.4-3.3-5.4-6.4 0-3 2.5-5.8 5.5-6.3-.3-5.3 1.9-10.4 4.7-14.9 4.5-7.3 11.2-13.8 19.5-15.7 8.3-2 16.5-.6 19.4 7.4" /><path class="st0" d="M950.2 99.3c-11.8-4.2-21.7-8.8-32.7-14.9 5.2-14.8 12.3-28.9 21-41.9 9.4 5.7 18.8 11.4 28.1 17.1m5.2-3.8c-5.2-7.1-15.7-21.4-15.7-21.4l8.8-5.3 14.9 22.2m20.8 120 62.1-55.5m-92.9-48.2c2.9-4.1 7.6-7 12.7-7.7" /><circle class="st0" cx="719.6" cy="261.6" r="18.5" /><circle class="st0" cx="714.6" cy="2297.7" r="18.5" /><path class="st0" d="M970.9 925.9c4.3-38.7 38.4-66 69.2-89.8s63.6-53.9 63.4-92.8m3 202.2c-14.4-12.9-25-29.9-30.3-48.5-1.6-5.5-3.1-11.6-7.9-14.6-5.2-3.1-12.4-1-16.3 3.6-4 4.6-5.3 10.9-5.6 16.9-.2 4.4.1 9 2.3 12.9s6.6 6.7 10.9 5.9c4.4-.8 7.6-6.1 5.4-10" /><path class="st0" d="M1101.2 819.8c17.7-42.4 30.9-88 26.4-133.7s-29.6-91.4-71.4-110.5" /><path d="M1125.1 557.2q-2.1-2.4-5.1-3.9c-4.1-2-8.5-1.9-12.1.2-.9.6-1.2 1.8-.7 2.7.6.9 1.8 1.2 2.7.7 2.3-1.4 5.3-1.4 8.3 0 3.2 1.6 5.5 4.5 5.9 7.6.4 2.9-.5 5.9-2.5 8.4-2.2 2.9-5.6 4.8-8.9 5.2-6.5.8-13.6-3.1-17.1-9.4-3.2-5.6-4-13.2-2-20.8 1.6-6.2 4.7-12.3 10.1-19.7.6-.9.5-2.1-.4-2.8-.9-.6-2.1-.4-2.8.4-5.7 7.9-9 14.4-10.7 21.1-2.2 8.6-1.3 17.3 2.4 23.8 4 7.1 11.4 11.5 18.9 11.5.7 0 1.4 0 2.2-.1 4.5-.5 8.7-3 11.6-6.7.1-.1.2-.2.2-.3z"/><path class="st0" d="M1017 6.1c4.8 15 15.9 27.8 30.1 34.7 14.1 6.9 31.1 7.7 45.9 2.1 5.5-2.1 10.8-5.1 14.4-9.6 3.7-4.6 5.4-11 3.5-16.5-3.2-9.4-15.4-12.6-25.2-11-5.7 1-11.7 3.5-14.2 8.8-2.4 5.3 1.3 13 7.1 12.5M775.9 65.4c34.3 17.5 75.1 21.7 112.2 11.7M745 22.1c25.3 17.5 56 27 86.8 26.7M453.3 128c10.5-8.4 21.2-17 28.8-28.2s11.7-25.4 7.7-38.3c-5.3-17.2-26.1-27.8-43.1-22-8.3 2.8-15.7 9.4-17.9 17.9s1.6 18.6 9.6 22.2 19.1-1.3 20.6-10m49.9 13.7c5.6-12.8 4.1-28.5-3.9-40s-22.2-18.4-36.2-17.6M90.1 208.5c15.6-34.5 19.8-73 32.4-108.7s37.5-71.1 74.4-79.1M79.1 156.2c-3.7 21.2-15.8 39.8-26.5 58.5s-20.8 39.1-19.4 60.6c.6 9.2 3.8 19 11.3 24.4s20 4.2 24-4.1c4.5-9.1-4.5-20.7-14.6-21.2M177 2210.2c-11.6 13.1-19.4 29-29.2 43.5s-22.6 28.1-39.4 32.9-37.9-2.5-43.4-19.1c-4.4-13.3 2.1-28.1 11.4-38.6 4.4-4.9 9.6-9.5 16-11.1s14.1.5 17.3 6.3-.5 14.6-7 15m135.8-151.7s-9.9 14.1-10.5 19.9c-.5 5.7 8.2 20.1 8.2 20.1s12.7-9.2 9.4-22.4-7.1-17.6-7.1-17.6m-2.3 40 .9-12.9m-151.2-68.9 22.1 31.8 31.7-13.6-6.3-38.5zm0 0c-5.3.2-9.2-2.3-11.4-7.2s-8.2-24.4 25-38.7c17.2-7.4 33 1 35.9 7.7 2.4 5.8 2.1 12.1-1.2 17.4m-8 9.6 5.2 25.5m-18.5 7.5-15.1-21.3m24.5 17.5-9.8-23M88.2 2014l3-3.7m6.3-4.6 5.1-.2m8.2-.3 5.2-2.2m-19.5 12.4 4.3-1.9m-20.7 6.5 3.5.9m-23.9 156.9c12.4-10.8 24.2-22.9 30.8-38s7.2-33.5-1.8-47.3c-4.9-7.3-12.9-13.1-21.7-13s-17.5 7.7-16.9 16.5m39-120.6c-22-11.2-39.2-31.2-47.1-54.6s-6.2-49.8 4.5-71.9M654.7 8.1C623 .3 600.6 18.4 600.6 18.4l-14.4-11c-1.7-1.3-4.1.4-3.5 2.4v0c2.8 8.7 1.1 18.3-4.5 25.5l-1 1.3c-1.3 1.7.4 4.2 2.5 3.5l17.7-6s18.7 25.7 47.4 30.1 43.5-18 43.5-18-2-30.4-33.6-38.1" /><path class="st0" d="M674.2 19c-9.4 12.6-13.6 27.6-10.9 43.2m14-22.6c-1.4-1.1-3.3-.9-4.4.4-1 1.3-.8 3.3.6 4.4s3.3.9 4.4-.4c1-1.4.7-3.3-.6-4.4M644.8 18s5.8 7.8-2 11.7m-17.3 0s5.8 7.8-2 11.7m21.3-1.3s5.8 7.8-2 11.7m259.3 2048.5c-30-14-55.2 22.8-30.2 39.4 18.9 12.6 39.8-2.8 34.1-20.6-4.7-14.6-29.7-16.5-31.2 1.1-1.4 16.6 22.4 11.1 14.8-1.7M61.3 847.1C53.5 808.4.4 810.3 2.1 846 3.4 873.1 33 882.2 46 864.2c10.7-14.8-5.2-40.1-23.1-29.1-16.9 10.3 5.2 29.3 12.1 13" /><path d="m15.8 1998.6-15.8-81v20.8l11.6 59.3c-2 .8-6.1 2.5-11.6 4.5v4.3c9-3.3 14.5-5.7 14.7-5.7.8-.3 1.3-1.3 1.1-2.2m7.8 277.7c-1.6-7.4-4.7-12.6-9.2-15.3-5-3.1-9.8-2-10-1.9l-4.5 1v4.1l5.4-1.2s3.4-.8 7 1.4c3.5 2.2 6 6.5 7.4 12.8 3.6 16.6-6.6 19.4-7 19.5L0 2299.4v4.1l13.6-3c.2-.1 14.6-3.7 10-24.2"/><path d="M2.1 2289.5c-.2-1-1.1-1.6-2.1-1.6v4.1l.6-.1c1-.3 1.7-1.3 1.5-2.4m6.6-20.4c-.2-1.1-1.3-1.8-2.4-1.5L0 2269v4.1l7.2-1.6c1.1-.3 1.8-1.3 1.5-2.4m2.3 44.6c.3-2.5-1-4.9-3.2-6l-7.8-3.9v4.5l6 3c1.1.6 1.1 1.6 1 1.9 0 .3-.3 1.4-1.5 1.6-1.7.4-3.6.8-5.6 1.3v4.1c2.3-.5 4.5-1 6.5-1.5 2.5-.5 4.3-2.5 4.6-5m15.7 37.2-5.9-26.9c-.2-1.1-1.3-1.8-2.4-1.5l-18.4 4v4.1l17.3-3.8 5.5 24.9c2.3 10.4-4.3 20.8-14.8 23.1l-8.1 1.8v4.1l8.9-2c12.7-2.8 20.7-15.3 17.9-27.8"/><path d="M1.4 2328.3 0 2322v8.7c1-.4 1.6-1.4 1.4-2.4m25-190.3c0-8.8-7.2-16-16-16-4 0-7.6 1.5-10.4 3.9v6.2c2.1-3.6 6-6.1 10.4-6.1 6.6 0 12 5.4 12 12s-5.4 12-12 12c-4.5 0-8.4-2.5-10.4-6.1v6.2c2.8 2.4 6.5 3.9 10.4 3.9 8.9 0 16-7.1 16-16"/><path d="M10.3 2126.1c.4 0 .9-.1 1.2-.4.9-.7 1-1.9.3-2.8 0-.1-4.6-5.8-11.9-16.2v6.9c5.4 7.6 8.7 11.7 8.8 11.8.5.5 1.1.7 1.6.7m11.3-34c5.9 0 8.6-.9 8.8-1 .6-.2 1-.7 1.2-1.2.2-.6.1-1.2-.2-1.7-1-1.5-9.7-15-15.3-17.9-3.5-1.8-10.7-1.6-16.2-1.1v4c5.6-.5 11.9-.7 14.3.6 3.2 1.7 8.8 9.3 12.1 14-2.8.3-7.7.5-15.4-.6-5-.7-8.6-3.6-11-6.8v5.9c2.7 2.3 6.1 4.2 10.5 4.8 4.6.8 8.3 1 11.2 1"/><path d="M7.3 2082.4c.7 0 1.3-.3 1.7-1 .6-.9.3-2.2-.7-2.7l-8.4-5.1v4.7l6.3 3.8c.4.2.8.3 1.1.3m-2-344.6c2.9-.5 5.3-2.3 6.9-5 2.1-3.6 2.5-8.6 1.1-12.6-1.4-4.4-4.5-7.8-8.1-9.1-1.7-.6-3.5-.7-5.1-.4v4.1c1.2-.4 2.5-.4 3.8 0 2.5.9 4.7 3.3 5.7 6.6 1.1 3 .8 6.7-.8 9.3-.7 1.2-2 2.7-4.2 3.1-1.5.3-3 0-4.5-.6v4.2c1.1.3 2.2.5 3.4.5.5 0 1.1 0 1.8-.1"/><path d="M2.4 1723.3c-.2-1.1-1.2-1.8-2.3-1.7H0v4c.2 0 .5 0 .7-.1 1.1-.1 1.8-1.1 1.7-2.2m19.7-379.4c.8 0 1.6-.5 1.9-1.4.4-1.1 8.8-27.8-3.8-52.2-5.5-10.6-13-17.6-20.2-22.3v4.9c6 4.3 12.2 10.5 16.7 19.2 10 19.3 5.8 40.8 4.1 47.2-3.8-1.3-12.6-4.7-20.8-10.2v4.8c10.4 6.5 20.8 9.7 21.6 9.9.2.1.4.1.5.1"/><path d="M22.1 1343.9c.3 0 .6-.1.9-.2 1-.5 1.4-1.7.9-2.7L0 1295v8.7l20.4 39.2c.3.6 1 1 1.7 1m-10.8-1100c2.5-8-.9-17.4-8-22.4q-1.5-1.05-3.3-1.8v4.5c.3.2.7.4 1 .6 5.7 4.1 8.4 11.6 6.5 18-1.3 4-4.1 7.3-7.4 10.3v5.2c4.8-3.9 9.2-8.3 11.2-14.4M-.1 217.5l.1 2.8v-3.7c-.1.3-.2.6-.1.9"/><path d="M2.3 225.1c1.1-.1 2-1 1.9-2.1l-.2-1.9 2.5 1.6-2.4 1.6c-.9.6-1.2 1.8-.6 2.8.4.6 1 .9 1.7.9.4 0 .8-.1 1.1-.3l5-3.3c.6-.4.9-1 .9-1.7s-.4-1.3-.9-1.7l-8.4-5.3c-.6-.4-1.4-.4-2.1 0-.4.2-.7.6-.8 1v3.7l.2 3c0 1 .9 1.8 2.1 1.7m2.3 460.8c-.8-8.6-2.4-17.1-4.6-25.3v20.5c.2 1.7.4 3.5.6 5.2C2 700 1.8 714.1 0 729v24.1c5.2-24.1 6.7-46.2 4.6-67.2m-1.4-122c-.3-2.5-1.5-4.9-3.2-6.9v18.1c2.6-3.4 3.7-7.3 3.2-11.2M852.2.6c-3.6.8-7.2.5-10.5-.6h-8.2c.6.5 1.3 1 2 1.4 3.8 2.4 8.1 3.7 12.5 3.7q2.55 0 5.1-.6L873.7 0h-18.6z"/><path class="st0" d="M938.5 1972.2s15.9 57.5-40.8 93" /><path class="st0" d="M919.4 1988.3s8.5 40.7-26 54.7m-302.7 0s24.7-14.9 30.3 14.5m-94.3 69s17-24.1 35.8-28.9" /></svg>
