<svg height="2436" viewBox="0 0 1125 2436" width="1125" xml:space="preserve" xmlns="http://www.w3.org/2000/svg" ><style>.st0{fill:none;stroke:#000;stroke-width:4;stroke-linecap:round;stroke-linejoin:round;stroke-miterlimit:10}</style><g id="Layer_3_copy"><path class="st0" d="M904.6 2111.2s-8.9 1.7-9.2 10.4c-.4 10.5 25.9 26.4 61.7 32.2 35.7 5.8 66.9 1.3 70.2-11.5 2.1-7.9-6.6-11.7-9.2-12.4m-92.4 25.6c9 3.4 19.5 6.4 31 8.2 20.5 3.3 39.5 3.3 52.6.2M902 2142.5c2.7 2.3 6 4.5 10 6.7m32.7 47.1s1.8 6-2.6 8.9-17.7.9-24 1.1c-3.5.1-7 2.6-6.4 5.7.7 3.7 14.8 11.4 41.6 15 22.9 3.1 39.9 1.5 40.8-2.9.6-2.7-.7-5.6-8-7.2-6.4-1.4-19.7-3.5-21.6-7.5s-.2-10.4-.2-10.4" /><path class="st0" d="M895.3 2121.6s-7 27.7 5 48 42.2 26.9 54.9 28.8c12.5 1.9 33.3-.1 47.5-10.3 18.6-13.5 22.2-36.4 24.4-45.7" /><path class="st0" d="M910 2103.4s-4 7.2-4.3 16.7 2.5 16.8 2.5 16.8m109.1-17.1s.1 11-2.9 20.1-7.3 14.6-7.3 14.6m-59.1-88.9s-12.1-.8-23.6 8.9-17.3 23.3-12.7 29.3 13.1 1.9 13.1 1.9-12 22.3-4 26.4 13.4-19.4 13.4-19.4 5.6 17.8 26.3 20.5 29.5-14.8 29.5-14.8-2.9 13.8 4.9 15.5c7.8 1.6 6.5-17.6 6.5-17.6s7.7 8.5 15.2 1.9 2.3-24.8-5.8-32.5c-3.7-3.5-8.2-6.3-12-8.3" /><path class="st0" d="M984.5 2048.2c-3.9-3.3-14-9.1-24.7-1.1-8.9 6.7-16.1 24.2-11.6 43.4s40.7 2.3 47.9-7.3c6.3-8.5 1.3-24.1-11.6-35" /><path class="st0" d="M983.1 2047.1s-6.9-16.1 1.5-18.5 6.2 16.2 6.2 16.2 7.8-12.6 14.1-6.4c6.4 6.2-9.4 11.9-9.4 11.9s15.6 5.2 12.9 11.6-16.1-5.8-16.1-5.8m-21.9-1.2s-2.9 2.4-4.5 4.5m19.1 19s2.9-2.4 4.4-4.5m-12.4-5s-3 2.8-4.7 3.9m-12.5 2c-1.7 2.1-2.6 5-2.6 5M410.7 1021.5c-2.8 4.5-7.3 15.6 2.5 25.3 8.1 8.1 27.1 12.9 45.9 5.5 18.9-7.4-3.6-41.8-14.5-47.8-9.5-5.1-24.7 2.3-33.9 17" /><path class="st0" d="M410 1022.8s-14.7 5.5-17.7-3 16.3-7.3 16.3-7.3-14.9-8.9-7.4-14.1c6.2-4.3 12.8 8.9 12.8 8.9s4.4-16.3 11.1-14c6.7 2.4-.6 14.1-.6 14.1m-4.9 27.5s2.9 2.6 5.2 3.9m16.6-22.2s-2.9-2.6-5.3-3.9m-3.2 13.4s3.3 2.7 4.7 4.2m3.9 12.4c2.4 1.5 5.5 1.9 5.5 1.9m-334.6 99.2s-2.4 3.7-3.8 5.3m79.9 26.7s-.7 4.4-1.3 6.4m-51.8-42.3s4.2-1.2 6.4-1.5m-6.5 94.1s3.2-.8 4.7-.9M92 1173s3.2-.8 4.7-.9m81.2 19.6s1 3.1 1.3 4.6m-65.5 26.8s.3 4.4.1 6.5m25.8-68.4c-9-.5-24.5 5.9-25.8 22.3-1.3 16.5 13 23.1 25 23.7s25.3-8.1 24.4-21.7c-.8-13.4-8.1-23.4-23.6-24.3" /><path class="st0" d="M162.8 1181.4c-3.4-6-9.4-9.9-18.5-10.4-8.3-.5-22.6 5.4-23.8 20.6-.3 3.7.3 6.9 1.5 9.6m-27.7-13.6c-1.5-.1-4.2 1.1-4.4 4s2.2 4.2 4.3 4.3 4.3-1.5 4.2-3.9-1.5-4.3-4.1-4.4m80.5 18.8c-1.7-.1-4.6 1.2-4.8 4.4-.2 3.3 2.4 4.6 4.7 4.7 2.2.1 4.7-1.6 4.6-4.3s-1.6-4.6-4.5-4.8m-16.1-62.6c-1.5-.1-4.1 1-4.3 3.9s2.2 4.1 4.2 4.2 4.2-1.4 4.1-3.8c-.2-2.4-1.4-4.1-4-4.3" /><path class="st0" d="M141.5 1119.3c-24.4-1.5-66.1 16.9-69.6 64.5s35.2 66.7 67.6 68.4 65.1-25.8 66-62.6c.8-39.1-22.2-67.7-64-70.3" /><path class="st0" d="M78.9 1219.3c15.2 29.8 35.7 44.3 62.9 45.7 35 1.8 77.4-25 72.7-74.2-3-30.9-21.2-58.3-49.6-66.7m848.4-461.6s-10.4 4.6-14 18.7.7 25.4 7.2 31.1c2 9.6 5.6 24.4 15.1 22 9.4-2.4-4-26.5-4-26.5s7.9 11.6 20.5 9.6 16.3-12.7 16.3-12.7 1.1 43.8 11.2 41.3-2.1-41.6-2.1-41.6 8.8 7.8 20.2 4.8c11.4-2.9 16.8-12.5 15.5-25.9-1.2-13.2-9-25.8-23-31.7" /><path class="st0" d="M1087.3 708.1s-7 87.4-7.9 99c-.9 11.5-9.3 11.7-13 4.1-3.7-7.7-44.1-98.3-44.1-98.3" /><path class="st0" d="M1086.5 717.8s6.4 22.9 7.7 29.4c2.2 10.7-9.2 12.5-10 1.4m-45.5-140.1c-12.3 1.2-31.8 13.7-29.8 37.8s22.9 30.6 39.3 28.9c16.3-1.7 32.4-17.2 28.1-36.6-4.3-19.3-16.5-32.1-37.6-30.1" /><path class="st0" d="M1008.8 641.9s.3 11.2 9.1 12.7c10.7 1.8 15.6-6.3 15.6-6.3s1.4 7.6 9.8 6.3c8.3-1.3 8.8-8.3 8.8-8.3s9.3 2.8 15.7-.3c7-3.4 7.7-10.1 6.8-13.3m-37.5 112.9c5.9 5.2 22.4 18.2 44.7 23.7m-15.7-22.8c5.3 2.5 11 4.7 16.8 6.3m-56.7-35s13.9 14.7 34.2 25.8m8.7-13.6c4.8 2.4 10.1 4.6 15.7 6.3m-39.9-20.8c2.7 2.2 5.9 4.6 9.4 7" /><path class="st0" d="M1085.4 731.9s-7.2 29.5-30.5 52.6m28.6-75.1s-8.3 33.9-35.1 60.5m9.2-35.7c-4.4 6.8-9.7 13.9-16.2 20.6m13.1-40.3c-5.1 8.7-11.4 17.8-19.1 26.5m35.8-31.9q-1.5 3.75-3.6 8.4m14.8 52c-2.5 5.6-9.4 18.5-21.9 28.1" /><path class="st0" d="M1049.2 771.6c5.3 4.4 16.5 12.4 31.1 15.9M965.4 1932.7c-6 5.4-17.9 2-28.7-4.8-14.3-8.9-19.4-18-17-24.3 0 0 1.3-1.8 2.6-3.4-6.8-.7-9.3 8.3-9.3 8.3-2.3 6.3 3.7 17.4 18.7 27.4 13.3 8.8 26.3 9.1 30.7 5.6 0 0 9.8-7 3.9-14.1-.8 2.7-.9 5.3-.9 5.3" /><path class="st0" d="M913 1915.6c-2.2 8.3-.6 17.6 6.9 24.2 11 9.6 23.7 12.4 35.5 3.9m8.5-10.3c4.6-8.6 6.1-20.6-4.4-30.5-13.4-12.6-29.9-8.4-39.5.5" /><path class="st0" d="M930.8 1946.8c-10.7 16.8-29 45.4-30.9 48.3-2.7 4.1-11.8-1.9-9.1-6 2-3 20.1-30.5 31.1-47.1M740.3 731.5c-6.7-8.7-16.5-12.8-29.2-9.2-9.7 2.7-23.5 15.6-18.4 34.7s22.9 21.2 35.7 17.5c12.9-3.7 23.5-18.5 17.2-33.5l-1.2-2.7" /><path class="st0" d="M692 744.2c-4.3-1-9.1-.8-14.4.7-9.7 2.7-26.2 16.5-18.4 34.7 8.5 19.9 22.9 21.2 35.7 17.5 9.3-2.7 17.4-11.2 18.9-21.3" /><path class="st0" d="M657.8 763.2c-4.6-.5-9.2 0-13.4 1.1-13 3.4-23.2 20.1-17.3 35.2s16.6 21.7 33.4 17.4c6.7-1.7 15.3-8.1 18.7-18m47-58.7s45.6-28.1 49-30.1 7.2 4.7 3.9 6.7c-3.4 2-45.8 27.1-49.4 29.2-3.5 2-6.8-3.8-3.5-5.8" /><path class="st0" d="M774.8 710.3s-3.9 6.4 4.3 6.5m-148.3 89.8c-6.4 3.6-11.4 6.4-12.5 7.1-3.6 2-6.8-3.8-3.4-5.9 0 0 5.4-3.2 12.7-7.5m96.5-65.6s-1.7 5.8 1.1 10.3c2.7 4.6 5.7 6.4 8.8 6.6M487.1 176.4c-10.5-7.8-34.7-11.8-50.2 8.6s-3.7 40.3 10.4 50.6 37.6 9.5 48-8.8 9.9-37-8.2-50.4" /><path class="st0" d="M455.5 240.1c-9 17.2-24.5 46.7-26.1 49.7-2.3 4.2-11.7-.9-9.4-5 1.7-3.1 17.6-32.2 26.9-49.3" /><path class="st0" d="M429.6 289.3s-1.1-9.6-9.6-4.6m11-70.7s4-18.7 15.4-27.5c11.3-8.7 27.5-7.5 35.2.5 7.6 8 13.5 19.5 8.3 29.9-5.2 10.3-17.3 19.8-32.2 12.4-14.9-7.3-15.5-18.8-11.7-27 3.9-8.2 14.9-15.1 25.3-9.5s11 15.7 6.9 21.6-11 7.1-18.9 2.2c-8-4.9-2.7-15.2 1.2-17.1s10.5 3.1 6.4 7.6m-45.2 1323c-14.6-.9-39.7 10.1-41.7 38.7s21.1 40 40.5 41 41-14.1 39.6-37.5c-1.5-23.5-13.4-40.7-38.4-42.2" /><path class="st0" d="M430.8 1609.1c2 21.6 5.5 58.6 5.8 62.4.4 5.3-11.5 6.3-11.9 1-.3-3.9-3.2-40.9-4.8-62.6" /><path class="st0" d="M436.6 1670.9s-6.9-8.3-11.8 1.6m-32.8-73s-7.6-20-2.3-35.1 21.2-23.7 33.2-21 22.1 10.1 23.5 23-4.8 25.1-20.1 26.6c-10.4 1.1-19.1-6.5-20.5-13.9-1.9-10 5.6-17.4 12.7-17.9 13.2-.9 14.2 12.6 8 16.5m383.7-544.5c-2.5-6.8 2-25.5 30.2-30.3s43.3 5.8 43.7 15.2c.3 9.3-23 18.3-35.3 20-12.5 1.6-35.6 3.1-38.6-4.9" /><path class="st0" d="M808.9 1030s-5.9 4.1-2.6 11.1c2.9 6.2 13 4 13 4s7.8 4.8 20.8 3.1 19.8-5.4 19.8-5.4 3.1 3.6 9.2 1.7c6-1.8 5.5-6.7 5.5-6.7s14.8-1 15.8-11.4c.8-8.3-6.5-10.2-6.5-10.2" /><path class="st0" d="M812.9 1045.4s-2 4.8 5.6 8.3c7.7 3.5 19.7 4 31.5 2.4 11.5-1.6 24.9-6.5 31.3-12.3 3.7-3.3 5.3-7.7 4-9.3m-254.9 1291c1.9-7.9 19.1-20.5 51.9-1.8 32.8 18.6 41.6 40.2 35.8 48.5-5.9 8.4-36.4-2.8-50.5-11.3-14-8.6-39.4-26-37.2-35.4m-10.7 17.2c-1.5 1.9-3.2 6 .5 13.2 5.6 10.8 22.2 23.8 37.1 32.3 14.4 8.2 30.7 14.3 43.2 13.2 5.9-.5 10.8-4.5 12.4-7.6" /><path class="st0" d="M633.4 2320c-6.5-1.1-10.9 1.5-12.2 3.4-1.2 1.7-2.3 5.2 3.3 13.3 6.9 9.8 20.2 21 35 30.3 14.3 8.9 37.9 17.4 51.1 18.5 8 .7 13.8-2.1 15.1-6.2 1.4-4.5-2.3-9-5.3-11.7" /><path class="st0" d="M619.9 2327.2c-1.8.7-3.1 1.7-3.7 2.5-1.1 1.7-2.2 5.1 3.6 13.2 7.1 9.9 20.8 21.3 35.8 30.8 14.6 9.2 38.4 18.1 51.7 19.5 8.1.9 13.8-1.8 15-5.8.4-1.3.3-2.7-.1-4m-254.7-402.7c.8-7.2 13.5-21.8 40.7-13.1s35.8 25 31.9 33.5c-4 8.4-28.8 5.8-40.6 1.6s-33-13.5-32-22" /><path class="st0" d="M467.9 1977.3s-7.1.9-7.4 8.7c-.3 6.8 9.7 9.5 9.7 9.5s4.7 7.8 17 12.3 20 4.3 20 4.3 1.1 4.6 7.4 5.8c6.2 1.1 8-3.4 8-3.4s13.6 5.9 19.2-2.9c4.4-7-1.1-12-1.1-12" /><path class="st0" d="M464.4 1992.7s-4 3.3 1.2 10c5.2 6.6 15.6 12.6 26.9 16.6 10.9 3.9 25.1 5.6 33.5 3.4 4.8-1.3 8.2-4.4 7.8-6.5m283.3 371.4 17.7 7.2 16.3-10.2-17.8-7.2s-10.2 5.7-16.2 10.2" /><path class="st0" d="m835.4 2414.4-.7-19.7 16.3-10.2s.9 15.3.8 18.8c-3.6 3.6-16.4 11.1-16.4 11.1" /><path class="st0" d="M835.4 2414.4s-15.1-5.3-17.4-6.4c0-3-.9-20.4-.9-20.4M1050.7 532l17.7 7.2 16.3-10.2-17.8-7.2c-.1 0-10.2 5.7-16.2 10.2" /><path class="st0" d="m1069 558.8-.7-19.7 16.3-10.2s.9 15.3.8 18.8c-3.6 3.6-16.4 11.1-16.4 11.1" /><path class="st0" d="M1069 558.8s-15.1-5.3-17.4-6.4c0-3-.9-20.4-.9-20.4m-707 1129.7 17.7 7.2 16.3-10.2-17.8-7.2s-10.2 5.7-16.2 10.2" /><path class="st0" d="m362.1 1688.5-.7-19.7 16.3-10.2s.9 15.3.8 18.8c-3.7 3.6-16.4 11.1-16.4 11.1m0 0s-15.1-5.3-17.4-6.4c0-3-.9-20.4-.9-20.4m687.1-1263.1s-9.7-2.8-17.8 2.8c-7.7 5.2-21.9 32.5-9.2 42.7 8.2 6.5 28.2-1 38.5-18.2 7-11.6-3.2-22.3-3.2-22.3s14-16.9 29-32c15.1-15.2 19.4-24.5 13-28.7-7.7-5.1-14.5 1.6-25.5 19.3-7 11.3-13.4 26.4-24.8 36.4M74.1 1893.1s9.7-2.8 17.8 2.8c7.7 5.2 21.9 32.5 9.2 42.7-8.2 6.5-28.2-1-38.5-18.2-7-11.6 3.2-22.3 3.2-22.3s-14-16.9-29-32c-15.1-15.2-19.4-24.5-13-28.7 7.7-5.1 14.5 1.6 25.5 19.3 7 11.4 13.4 26.5 24.8 36.4m559.1-50.8c-1.6-5.2-.5-11.8 8.2-19.1 10.8-9 65.5-52.8 72.8-57.3 0 0 13.8-10.1 23 .2 6.4 7.3 2.8 17.5-2.7 21.5s-70 54.3-77 60.8c-3.9 3.7-9.6 4.1-14.4 2.8" /><path class="st0" d="M654.9 1812.2s16.6 2.4 11 29.2m16.3-50.6s16.6 2.4 11 29.2m13.9-48.6s16.6 2.4 11 29.2m-76.7 42.3c-2.4-2-19 .8-30.4 4.5s-7.4 14.6 0 13.9c-3.5 5.3-1.9 18.6 11.6 12.8 2.5 9.6 13.1 7.6 15.6-1.9 2.1-7.7 7.8-25.5 3.2-29.3" /><path class="st0" d="m623.4 1854.7 18-11.8-9.8 19.1m99.7-100.5c1-6.3 3.2-14.7 5.7-21.3 4.2-11.2 14.9-6.7 13.9.6 5.4-3.3 18.7-1 12.2 12.2 9.5 2.9 7 13.4-2.6 15.5-4.6 1-12.7 3.1-19.3 3.7m-2.6-5.2 12.1-5.6m-6.9-8.5-8.1 11.3M662.4 439c-1.6-5.2-.5-11.8 8.2-19.1 10.8-9 30.3-24.7 37.6-29.2 0 0 13.8-10.1 23 .2 6.4 7.3 2.8 17.5-2.7 21.5s-34.8 26.2-41.8 32.7c-3.9 3.7-9.6 4.1-14.4 2.8" /><path class="st0" d="M684.1 409s16.7 1.9 11.1 28.7m5.9-41.5s16.8 1.4 11.2 28.2m-41.8 15.2c-2.4-2-19 .8-30.4 4.5s-7.4 14.6 0 13.9c-3.5 5.3-1.9 18.6 11.6 12.8 2.5 9.6 13.1 7.6 15.6-1.9 2.1-7.7 7.9-25.5 3.2-29.3" /><path class="st0" d="m652.6 451.4 17.9-11.8-9.8 19.1m64.6-72.4c1-6.3 3.2-14.7 5.7-21.3 4.2-11.2 14.9-6.7 13.9.6 5.4-3.3 18.7-1 12.2 12.2 9.5 2.9 7 13.4-2.6 15.5-4.6 1-12.7 3.1-19.3 3.7m-2.6-5.2 12.1-5.6m-6.9-8.5-8.1 11.2M116 2247.9c.3-5.4-2.4-11.6-12.6-16.5-12.6-6.1-35.4-16.6-43.5-19.2 0 0-15.8-6.5-22.2 5.8-4.5 8.6 1.5 17.7 7.9 20.2s40.2 17 48.5 21.6c4.7 2.6 10.3 1.6 14.6-.8" /><path class="st0" d="M87.7 2224s-15.8 5.9-3.8 30.5m-15.8-38.8s-16 5.5-4 30.1m44.2 4.7c1.9-2.5 18.6-3.9 30.6-3s10.7 12.4 3.4 13.5c4.7 4.2 6.3 17.6-8.2 15.2-.1 9.9-10.9 10.6-15.6 1.9-3.9-7-13.8-22.9-10.2-27.6" /><path class="st0" d="m128.6 2257.5-20.3-7 14.1 16.1M42.2 2212c-2.5-5.9-6.7-13.5-10.7-19.3-6.8-9.8-16.1-2.9-13.3 4-6-1.9-18.4 3.5-8.9 14.8-8.5 5.1-3.5 14.7 6.3 14.4 4.7-.1 13.1-.1 19.7-1.1m1.2-5.7-13.2-2.5m4.7-9.9 10.6 8.9m209.1-589.4c-.2-3-2.1-9.4-7.5-12.7-4.8-2.9-17.6-7.5-24.1-7.5-4 0-10.7 1.5-13.4 8.6-1.9 5-1.2 11.6 4 16.3 3.8 3.4 18.5 10.1 26.8 8.8 2.9-.5 7.9-2.3 10.8-7" /><path class="st0" d="M243.7 1628.1c.9-1.5 10-3.3 16.6-3.6s6.7 6.1 2.7 7.2c2.8 2 4.6 9.3-3.6 8.9.6 5.5-5.3 6.5-8.5 2-2.5-3.5-8.9-11.7-7.2-14.5" /><path class="st0" d="m255.2 1630.7-11.5-2.6 8.7 8m-47.7-25.4c-1.8-3.1-4.3-6.6-6.9-9.6-4.4-5-9-.6-7.1 3-3.4-.6-9.9 3.1-4 8.7-4.4 3.3-1 8.3 4.4 7.5 2.6-.4 6.6-.7 10.2-1.7m.9-3.3-7.4-.5m2-5.8 6.3 4.3m775.2-562.8c-2.9-.9-9.5-1.5-14.5 2.3-4.4 3.4-13.4 13.6-15.8 19.7-1.4 3.7-2.6 10.5 3.1 15.6 4 3.6 10.3 5.4 16.6 2.2 4.6-2.2 16.2-13.5 18-21.7.6-2.9.8-8.2-2.5-12.6" /><path class="st0" d="M978.6 1055c-1.1-1.4.6-10.5 2.8-16.8s8.2-3.9 7.7.1c2.9-1.9 10.3-.9 6.9 6.6 5.3 1.4 4.1 7.3-1.2 8.6-4.3 1.1-14.2 4.1-16.2 1.5" /><path class="st0" d="m985.2 1045.2-6.6 9.8 10.6-5.2m-41.1 35.1c-3.5.5-7.8 1.6-11.4 2.9-6.2 2.2-3.9 8.2.2 7.7-1.9 3-.8 10.3 6.6 6.9 1.5 5.3 7.4 4 8.6-1.3.6-2.5 1.8-6.4 2.2-10.1m-2.8-2.1-3.2 6.7m-4.6-3.9 6.3-4.4M249.3 619.5c.9-2.9 1.4-9.6-2.5-14.5-3.5-4.4-13.8-13.2-20-15.5-3.7-1.4-10.5-2.4-15.6 3.3-3.6 4-5.2 10.4-2 16.7 2.3 4.5 13.7 16 22 17.6 2.9.6 8.2.6 12.5-2.8" /><path class="st0" d="M244.8 619.9c1.3-1.1 10.5.4 16.8 2.5s4.1 8.1 0 7.7c1.9 2.9 1 10.3-6.4 7.1-1.4 5.3-7.3 4.2-8.6-1.1-1.2-4.3-4.3-14.2-1.8-16.2" /><path class="st0" d="m254.8 626.4-10-6.5 5.4 10.5m-35.8-40.5c-.6-3.5-1.7-7.7-3.1-11.4-2.4-6.2-8.3-3.7-7.7.3-3-1.8-10.3-.6-6.8 6.7-5.2 1.6-3.9 7.4 1.4 8.6 2.5.5 6.5 1.7 10.1 2m2.2-2.7-6.7-3.1m3.8-4.7 4.5 6.2m77.3 561.2c-.9-2.9-.5-12 2.5-17.5 3.7-7 10.4-11.9 17.2-13.3 3.9-.8 13.4-1.5 18.4 4.2 3.6 4 5.2 10.1 3.6 17-1.7 7.5-8.6 17-19.4 18.2-3 .3-9.4 1.1-16.8-3.7" /><path class="st0" d="M293.9 1153.3c-1.3-1.1-10.5.4-16.8 2.5s-4.1 8.1 0 7.7c-1.9 2.9-1 10.3 6.4 7.1 1.4 5.3 7.3 4.2 8.6-1.1 1.2-4.2 4.4-14.1 1.8-16.2" /><path class="st0" d="m284 1159.8 9.9-6.5-5.4 10.6m35.8-40.5c.6-3.5 1.7-7.7 3.1-11.4 2.4-6.2 8.3-3.7 7.7.3 3-1.8 10.3-.6 6.8 6.7 5.2 1.6 3.9 7.4-1.4 8.6-2.5.5-6.5 1.7-10.1 2m-2.1-2.8 6.7-3m-3.8-4.7-4.5 6.2m-34 8.8s10.9-1.8 17.7 6.4c6.3 7.6 5.5 15.6 3.6 20.7" /><path class="st0" d="M299 1127s12.2-2 19.7 7.2c6.7 8.1 6.3 16.5 4.3 22.1m739.5 688.2c-.9-2.9-.5-12 2.5-17.5 3.7-7 10.4-11.9 17.2-13.3 3.9-.8 13.4-1.5 18.4 4.2 3.6 4 5.2 10.1 3.6 17-1.7 7.5-8.6 17-19.4 18.2-3 .3-9.4 1.1-16.8-3.7" /><path class="st0" d="M1067 1844.9c-1.3-1.1-10.5.4-16.8 2.5s-4.1 8.1 0 7.7c-1.9 2.9-1 10.3 6.4 7.1 1.4 5.3 7.3 4.2 8.6-1.1 1.2-4.3 4.4-14.2 1.8-16.2" /><path class="st0" d="m1057.1 1851.4 9.9-6.5-5.4 10.5m35.8-40.5c.6-3.5 1.7-7.7 3.1-11.4 2.4-6.2 8.3-3.7 7.7.3 3-1.8 10.3-.6 6.8 6.7 5.2 1.6 3.9 7.4-1.4 8.6-2.5.5-6.5 1.7-10.1 2m-2.1-2.7 6.7-3.1m-3.9-4.7-4.4 6.2m-34 8.8s10.9-1.8 17.7 6.4c6.3 7.6 5.5 15.6 3.6 20.7" /><path class="st0" d="M1072.1 1818.5s12.2-2 19.7 7.2c6.7 8.1 6.3 16.5 4.3 22.1m-344.9 280.1c-2.7 2.9 6.2 11.3 5.6 19.9-.5 6.7-8.1 14.2-14.6 20s-2.8 20.3 9.8 20.1c8.6-.1 13-7.4 13-7.4s8.3 6.8 19.5-.5c8.5-5.6 9.6-13.7 9.6-13.7s14.8-1.7 17.4-11.9c2.7-10.1-4.3-22.4-21.6-18.6-23.3 5.1-31.8-15.2-38.7-7.9" /><path class="st0" d="M761.7 2161.8s-4.4 8.8 3.3 18.6m1.1-40.1s5.5 8 14.4 10c8.8 2.1 13.1 9.6 13.6 15.8M320.2 78c1.6 2.6 4 1.5 3.9-.7 0-1-.8-3.8.7-4.8 3.1-2.2 6.7 1 6.2 9.9-.4 6.7-6.1 15.1-11.7 21.8-5.6 6.6 0 20.5 12.4 18.6 8.5-1.3 11.9-9.1 11.9-9.1s9.1 5.6 19.2-3.2c7.7-6.7 7.7-14.9 7.7-14.9s14.4-3.7 15.6-14.1-7.3-21.6-23.9-15.5c-15.7 5.8-26.2-1-32.6-4-6.1-3-16.9 3.8-9.4 16" /><path class="st0" d="M337.8 95.5s-3.1 9.3 5.8 18m-4.3-39.9s6.5 7.2 15.6 8 14.3 7.7 15.7 13.8m122.7 2326.3s.9-26 22.6-23.8 22.5 23.5 22.5 27-1 5.7-5.1 6.4-30.9-3.4-35.5-4.2c-4.8-.9-4.5-5.4-4.5-5.4" /><path class="st0" d="M536.7 2429.8s30.8-22.5 36.6-28.6c.8-1 1.1-2.5 1.1-4.2 0-3.4-.8-23.7-21.7-26.1-2.5-.3-7.2-.4-11.6 2.5 0 0-22.4 13.9-38.2 27.5" /><path class="st0" d="M509.1 2428.8s-4-2.8-2.7-9.8 6.1-7.5 9-7.4 8.1 2.9 7.8 10.5-5.3 8.1-5.3 8.1m15.5-22.5s4.3 4.2 10.1 1.5 10-8.5 9.2-11.5c3.5 5.7 7.2 7.2 9 5.4 2.8-2.9-2.3-10.8-2.3-10.8s11.6 3.9 12.5-7.5m492.2-808.5s1.1-31.6 27.5-29 27.4 28.6 27.4 32.9-1.2 6.9-6.3 7.7-37.6-4.1-43.2-5.1-5.4-6.5-5.4-6.5" /><path class="st0" d="M1117 1586.2s37.4-27.3 44.6-34.8c1-1.3 1.3-3 1.3-5.1 0-4.1-1-28.9-26.5-31.8-3-.3-8.7-.5-14.2 3 0 0-27.2 16.9-46.5 33.5" /><path class="st0" d="M1083.3 1585s-4.9-3.3-3.3-11.9 7.4-9.1 11-9c3.6.2 9.9 3.6 9.4 12.8s-6.4 9.8-6.4 9.8m18.9-27.3s5.2 5.1 12.3 1.8c7.1-3.2 12.2-10.3 11.2-14 4.2 7 8.7 8.8 10.9 6.5 3.4-3.5-2.7-13.1-2.7-13.1s14.1 4.8 15.3-9.2M-61 1576.3s1.1-31.6 27.5-29 27.4 28.6 27.4 32.9-1.2 6.9-6.3 7.7-37.6-4.1-43.2-5.1-5.4-6.5-5.4-6.5" /><path class="st0" d="M-8.1 1586.2s37.4-27.3 44.6-34.8c1-1.3 1.3-3 1.3-5.1 0-4.1-1-28.9-26.5-31.8-3-.3-8.7-.5-14.2 3 0 0-27.2 16.9-46.5 33.5" /><path class="st0" d="M-41.8 1585s-4.9-3.3-3.3-11.9 7.4-9.1 11-9c3.6.2 9.9 3.6 9.4 12.8s-6.4 9.8-6.4 9.8m18.9-27.3s5.2 5.1 12.3 1.8c7.1-3.2 12.2-10.3 11.2-14 4.2 7 8.7 8.8 10.9 6.5 3.4-3.5-2.7-13.1-2.7-13.1s14.1 4.8 15.3-9.2m582.6-654.3s-1-28.2-24.5-25.9c-23.6 2.4-24.5 25.6-24.5 29.4s1.1 6.2 5.6 6.9 33.6-3.6 38.7-4.6c5-.9 4.7-5.8 4.7-5.8" /><path class="st0" d="M570.1 885.9s-33.5-24.4-39.8-31.1c-.9-1.1-1.2-2.7-1.2-4.6 0-3.7.9-25.8 23.7-28.4 2.7-.3 7.8-.5 12.7 2.7 0 0 24.4 15.1 41.6 30" /><path class="st0" d="M600.3 884.8s4.3-3 2.9-10.7-6.6-8.2-9.8-8c-3.2.1-8.8 3.2-8.4 11.4.3 5.5 2.7 7.6 4.3 8.3m-15.5-23.9s-4.6 4.5-11 1.6-10.9-9.2-10-12.5c-3.8 6.2-7.8 7.8-9.8 5.9-3.1-3.1 2.4-11.7 2.4-11.7s-12.6 4.3-13.6-8.2m-78.2-495.8c-11.8 4.4-22.2 18.5-17.9 36.7s23.1 72.6 26.3 81 7.6 26.7 14.2 25.8c6.7-.8 2.8-11.6 2.8-11.6s10.1 8.9 18-6.2c7.7-4 12-5.6 12-5.6s5.8 7.4 12.9 3.9 3.5-13.9 3.5-13.9-3.7-11.9-5.9-18.4c-2.2-6.4-24.7-68-28.4-77.1-3.6-9.2-14.7-23.2-37.5-14.6" /><path class="st0" d="M517.9 466.1s7.7 1.4 13.6-2.9c6.4-4.6 3.5-13.9 3.5-13.9s-3.7-11.9-5.9-18.4c-2.2-6.4-24.7-68-28.4-77.1s-14.4-26-44.6-13.5m38.6 130.3s7.9 23.8 10.6 32.1 9.6 9.1 12.9 7.6c4.3-2 6.2-6.4 3.7-13.3-2.5-6.8-11.8-34.5-11.8-34.5" /><path class="st0" d="M458.8 383.9s2.1 10.5 8.6 9 4.3-10.2 4.3-10.2 3.2 5.7 10.9 3.2c7.8-2.5 7.8-10.9 7.8-10.9m-6.3 57.4s3.7 9.5-.7 11.6-7.1-6.6-7.1-6.6.4 6.7-4.8 8.9M671.9 83.9c1.5 21 20.3 42.1 45.3 37.9 8.7-1.5 16.5-4.2 22.9-8.2m-42.2-75.9C685.4 43.1 677.5 54 674 65.8m78 36.3c4.7-7.1 7.2-16 6.7-26.9-.7-16-15.6-43.6-46.8-41" /><path class="st0" d="M697.6 46c1.3 1.7 10 1.4 13.5 0 3.8-1.6 2.5-8.5-.1-12.4s-5.5-4.1-8.1-1.7c-2.9 2.6-8.5 9.9-5.3 14.1m31.6 16.7c0 3.5 6.4 8.7 10 9.9 3.9 1.3 7.5-4.7 8.1-9.4s-1.4-6.7-5-6.6c-3.9 0-13.1.8-13.1 6.1m-58.7 20.5c3.1 1.6 10.7-1.6 13.4-4.2 3-2.8-.7-8.8-4.6-11.5s-6.6-1.9-8.2 1.3c-1.7 3.4-5.4 11.9-.6 14.4m39.7-16c-3.4.6-7.4 7.9-7.9 11.6-.6 4.1 6 6.5 10.8 6.2 4.7-.3 6.3-2.6 5.6-6.1-.8-3.8-3.2-12.7-8.5-11.7m-24 33.1c-.4 3.5 5.3 9.4 8.7 11.1 3.7 1.8 8-3.7 9.2-8.3s-.6-6.8-4.1-7.2c-3.9-.5-13.1-.9-13.8 4.4m47 4.4c0 3.5 6.4 8.7 10 9.9 3.9 1.3 7.5-4.7 8.1-9.4s-1.4-6.7-5-6.6c-3.9 0-13.1.7-13.1 6.1m340.4 940.3c-4.9-4.6-12.1-11.5-19.5-7.1-7.4 4.3-23.9 23.2-28.2 37.5s8.6 19 14.7 21.7c6.6 2.9 46.9 23.6 59.7 9s-3.1-38.8-26.7-61.1" /><path class="st0" d="M1069 1040.9s11.4-9.9 31-9.5 13.3 11.2 15 25.8c1.7 14.7 7 22.3 0 26.9-7 4.5-10.7 5-10.7 5" /><path class="st0" d="M1114.6 1041.7s7.2-1.1 20 8.1c12.8 9.1 10.7 16.3 9.2 18.1-1.5 1.9-15.1-3.3-25.8 5m-86.7 20.1s-5.8 13.9.7 32.4c6.6 18.5 14.8 9.1 29.2 6.1 14.5-3 23.4-.4 25.5-8.5 2.1-8 1.4-11.7 1.4-11.7" /><path class="st0" d="M1046.5 1136s1.3 7.3 14 16.6 18.9 5.2 20.1 3.1c1.3-2.1-7.5-13.6-3.1-26.4M295 723.5c-3.5-.8-8-3.5-9.8-11.4-3.2-14 .6-23 14.6-26.5 13.9-3.5 26.6-.5 31.5 15.5 3.1 10-2.7 15.7-7.5 18.5" /><path class="st0" d="M288.5 691.6s-8.9-2.5-10.4 4.5c-1.1 5.3 3.2 7.5 5.3 8.3m37.5-18.6s8.6-5.6 12.8.4c4.1 6-3.8 10.5-3.8 10.5m-17 7.9s.2-2.3 2.8-2.7c2.7-.4 3.5 1.2 3.5 1.2m-21.8 4.3s-.9-2.1-3.6-1.5c-2.6.6-2.8 2.6-2.8 2.6m11.2 2.5c-1.6 1.8-1.3 8.4 7 6.8m-11.3 7.6s-3-1.2-7.8-.2-5.3 5.9-4.6 8.7 2.8 6.4 9.3 5.2m29-17.8s-5.8-.5-7.9 2.9c-2.5 4.1-1 7.9 1.3 9.7s7.1 2.2 10.9.2c3.2-1.7 9-4.2 8.8-11.3-.3-8.5-5.9-10.3-5.9-10.3m-34.1 32.3c-6.1.4-8.2 4-8.6 7.1-.4 3.5 1.1 8.7 6.9 9.6s9.7-2.9 9.7-2.9 7.1 1.1 13.3-1.9" /><path class="st0" d="M326.9 741.7c-8.5-.9-11.3 3.4-11.8 7-.4 3.5 1.1 8.7 6.9 9.6s9.7-2.9 9.7-2.9 9.4-3.1 8.9-12.4-4.7-14.7-4.7-14.7m-39.6 3.8s-2.1 9.4 3.5 19.7m693.5 1055c3.5-.8 8-3.5 9.8-11.4 3.2-14-.6-23-14.6-26.5s-26.6-.5-31.5 15.5c-3.1 10 2.7 15.7 7.5 18.5" /><path class="st0" d="M999.8 1774.9s8.9-2.5 10.4 4.5c1.1 5.3-3.2 7.5-5.3 8.3m-37.5-18.6s-8.6-5.6-12.8.4c-4.1 6 3.8 10.5 3.8 10.5m17 8s-.2-2.3-2.8-2.7-3.5 1.2-3.5 1.2m21.8 4.2s.9-2.1 3.6-1.5 2.8 2.6 2.8 2.6m-11.2 2.5c1.6 1.8 1.3 8.4-7 6.8m11.3 7.6s3-1.2 7.8-.2 5.3 5.9 4.6 8.7c-.8 2.8-2.8 6.4-9.3 5.2m-29-17.8s5.8-.5 7.9 2.9c2.5 4.1 1 7.9-1.3 9.7-2.2 1.8-7.1 2.2-10.9.2-3.2-1.7-9-4.2-8.8-11.3.3-8.5 5.9-10.3 5.9-10.3m34.1 32.3c6.1.4 8.2 4 8.6 7.1.4 3.5-1.1 8.7-6.9 9.6s-9.7-2.9-9.7-2.9-7.1 1.1-13.3-1.9" /><path class="st0" d="M961.4 1825c8.5-.9 11.3 3.4 11.8 7 .4 3.5-1.1 8.7-6.9 9.6s-9.7-2.9-9.7-2.9-9.4-3.1-8.9-12.4 4.7-14.7 4.7-14.7m39.6 3.8s2.1 9.4-3.5 19.7m-319.4 397.4c-.9-2.3.7-8.7 10.3-10.4s14.8 2 15 5.2c.1 3.2-7.9 6.3-12.1 6.9-4.2.5-12.2 1-13.2-1.7" /><path class="st0" d="M669.1 2232.5s.4 9.5 11.4 9.1c11-.3 16.4-8.5 13.9-14.3m353.2-225.6c-.9-2.3.7-8.7 10.3-10.4s14.8 2 15 5.2c.1 3.2-7.9 6.3-12.1 6.9-4.2.5-12.2 1-13.2-1.7" /><path class="st0" d="M1047.6 2001.7s.4 9.5 11.4 9.1 16.4-8.5 13.9-14.3m-684.3 7.9c.9-2.3-.7-8.7-10.3-10.4s-14.8 2-15 5.2c-.1 3.2 7.9 6.3 12.1 6.9s12.2 1 13.2-1.7" /><path class="st0" d="M388.6 2004.4s-.4 9.5-11.4 9.1c-11-.3-16.4-8.5-13.9-14.3m126-799.4c.9-2.3-.7-8.7-10.3-10.4s-14.8 2-15 5.2c-.1 3.2 7.9 6.3 12.1 6.9 4.2.5 12.2 1 13.2-1.7" /><path class="st0" d="M489.3 1199.8s-.4 9.5-11.4 9.1c-11-.3-16.4-8.5-13.9-14.3M78 429.8c.9-2.3-.7-8.7-10.3-10.4s-14.8 2-15 5.2c-.1 3.2 7.9 6.3 12.1 6.9 4.2.5 12.1 1 13.2-1.7" /><path class="st0" d="M78 429.8s-.4 9.5-11.4 9.1c-11-.3-16.4-8.5-13.9-14.3m954.1 1173.9c-.4-2.4-5-7.2-14.1-3.8-9.2 3.4-11.9 9.2-10.4 12s10 1.5 13.9-.1 11-5.2 10.6-8.1" /><path class="st0" d="M1006.8 1598.5s4.4 8.4-5.3 13.6-18.5.9-19.2-5.5m-375.9 109.1c.4-2.4 5-7.2 14.1-3.8 9.2 3.4 11.9 9.2 10.4 12s-10 1.5-13.9-.1c-4-1.7-11.1-5.2-10.6-8.1" /><path class="st0" d="M606.4 1715.7s-4.4 8.4 5.3 13.6 18.5.9 19.2-5.5m163.9-817.1c.3-2.5-2.6-8.4-12.4-7.9s-14 5.2-13.4 8.4 9.1 4.4 13.3 4c4.2-.3 12.1-1.6 12.5-4.5" /><path class="st0" d="M794.8 906.7s1.7 9.3-9.1 11.4-17.9-4.7-16.7-10.9m230.6 220.2c.3-2.5-2.6-8.4-12.4-7.9s-14 5.2-13.4 8.4 9.1 4.4 13.3 4c4.3-.3 12.1-1.6 12.5-4.5" /><path class="st0" d="M999.6 1127.4s1.7 9.3-9.1 11.4-17.9-4.7-16.7-10.9M717.5 300c-.4-2.4-5-7.2-14.1-3.8-9.2 3.4-11.9 9.2-10.4 12s10 1.5 13.9-.1 11.1-5.3 10.6-8.1" /><path class="st0" d="M717.5 300s4.4 8.4-5.3 13.6-18.5.9-19.2-5.5m323.1-118.5c25.9 9.6 46.5 22.5 52.2 36.6 5.8 14.3 2.7 40.1-19.6 46.2-22.3 6.2-51.3-1.8-66.8-7.5s-43.6-21.6-49.9-37.2c-5.6-13.8-2.6-46.8 31.4-46.9 16.8-.1 39.9 4 52.7 8.8" /><path class="st0" d="M1029.7 211.5s8.2 3.2 5.6 8.5c-1.7 3.5-21 .7-36.7-5s-19.4-11.2-18.5-14.4c.9-3.3 12.5-.9 12.5-.9m75.7 54.6s-5.1 6.1-11.4 1.8-6.9-14.2-6.9-14.2-5.8 18.2-25.2 14.2-21.4-18.2-21.4-18.2-1.1 17.2-11.5 17.5c-10.3.3 0-20.5 0-20.5s-11.7 10.2-25.5 3.6c-13.9-6.6-7.6-23.8-7.6-23.8s-5.3 7.3-12.2 3.4c-6.9-4 0-14.7 0-14.7s-4.7 7.2-15.6 1.4M323.4 2351c-3.4-2.3-7.2 3-4.6 6.4 2.7 3.4 18.5 23 18.5 23 3.2 6.1 24.4 6.7 49.6.5 26.5-6.6 43.9-16.4 44.8-26 0 0 1.8-28.9 2.1-33 .2-4.1-6.9-6.9-9-1.7m-36.9-38.9c-9.7-2.5-19 .1-25.3 9.3-4.9 7-3.9 22.4 6.6 29.5 13.8 9.4 26.5 4.4 32.9-5s5.3-24.7-6.9-31.1" /><path class="st0" d="M381.8 2295s12.8-30.4 31.5-38.6c3-1.3 7.8 2.5 4.9 4.3-25 15.2-29.6 34-31.3 37" /><path class="st0" d="M413 2256.7s-2.2 5.3 5.2 4m-40.4 30.9s2 4.6 6.3 6.1c4.2 1.5 7.2 1.1 9.3-.5" /><path class="st0" d="M393.9 2273.4c-4.2-4.1-10.1-8.2-17.9-12.2-24.1-12.3-27.2-9.3-28.4-7.1s11.7 7.5 11 14.9c-.8 7.7-7.6 17.2-16.6 24.1-9.1 6.9-21.3 12.9-7.2 21.1-13.7-.2-22.2 13.7-7.5 25.7-6.8 3.1-7.3 9.6-.4 13.4s36.6 3 55.8-1.6c19.8-4.7 31.2-11.1 38.8-15.8s11-12.3 1.8-16.5c3.5-10.6-.6-25.7-18.1-23.8" /><path class="st0" d="M403.5 2291.8c-.1-3.9-1.5-8.4-4.9-13.1m-71.3 61.3s16.6 6.2 43.5.1m-36-25.8s4.9 1.3 12.9 1.4c4.5.1 9.9-.2 16-1.3m-15.6 52.4 10.1 18.4m56.9-34.5.7 20m-33.3-8.1 4.3 18.3m36.5-61.4s-.5 3.9-11.8 7.6m-28.7 10.1s6.9-1.1 10.9-2.5m495.2-744.9c3.4 4.3 9.2 15.4.2 26.6-7.5 9.3-26.7 16.3-47.1 10.8s-.8-43.9 9.8-51.2c9.4-6.5 26-.4 37.1 13.8" /><path class="st0" d="M889.9 1591s15.9 4.1 18-5.1c2.2-9.2-17.7-5.8-17.7-5.8s14.5-10.9 6.1-15.5c-6.9-3.8-12.4 10.7-12.4 10.7s-6.3-16.5-13-13.3 2.2 14.6 2.2 14.6m8.1 28.1s-2.7 3-5 4.6m-19.7-21.2s2.7-3 5-4.6m4.9 13.5s-3.1 3.1-4.4 4.9m-2.7 13.3c-2.3 1.8-5.5 2.6-5.5 2.6" /><path class="st0" d="M833.7 1608c-15.3 10.9-46.6 33.2-54.3 39.4-10.3 8.2-1.4 44.5 7.5 42.4s4.9-22.1 4.9-22.1 1.5 5.7 15.6 3.9c14.1-1.7 20.6-18.7 20.6-18.7s4.5 9.7 13 7.8c8.6-1.9 8.2-11.8 8.2-11.8s2.1 34.7 10.9 33.1 2.6-32.7 2.6-32.7 11.7 5 34.5-.3 22.1-19.2 22.1-19.2.3 21.6 7 21.8 11-8.6 8.6-23.5-7.3-13-17.3-17.1-22.3-8.9-22.3-8.9" /><path class="st0" d="M786.8 1689.8s5.6 25.2 8.6 31.5 3.7 9.8 13 8.3c9.3-1.6 68.1-11.8 68.1-11.8s45.1-10.4 51.7-11.5 6.6-6.5 5.7-11.1-5.1-44.2-5.1-44.2" /><path class="st0" d="M793.5 1715.9s61.7-8.2 85.2-12.8 54.1-15.9 54.1-15.9m-143.8 12s50.2-7.2 72.8-10.9 56.7-11.9 69.2-16.2m-65.8-.7c22.3-4 52.2-11.3 63.8-15.2m-136.4 26.3c12.2-1.8 41.3-6 60.3-9m-677.2-272.1s-2.8 8.5-13.7 8.2-19.3-21.8-1.6-35.7c2.9-18.8 16-33.5 35-37.4s38.5 1.2 46.5 18.6c12.3 4.7 18.2 16.4 17.3 26-.9 9.5-11.5 15.2-11.5 15.2" /><path class="st0" d="M168.4 1391.2s4.9 13.9 27.7 18.7 42.8-11 47.1-26.1" /><path class="st0" d="M169.8 1408s11.5 31.1 14.7 37.6c3 6 10.4 7.3 17.5 7.8 11.1.7 20.4-.6 30.8-5.2s12-8.9 13-13.4c.8-3.4 1.6-40.5 1.2-44.7m-65.1 24.1 13.8 38.4m42.4-47.3 1.1 39m-39.9-26.6 8 35.8m14.8-39.2 3 35.8m-38.5-83s.7-6.6-3.5-7.4c-4.4-.8-6.9 3-7 7.5-.1 4.7 2.5 9.8 5.4 11.3 3.4 1.7 9.4-.6 12.5-3.2 3-2.5 4.9-6.2 2.8-9-2.2-2.8-6.6-2.3-10.2.8m41.1 3.6s-4.8-2.2-6.4.5c-1.7 2.8.5 5.5 3.8 6.8 3.5 1.3 7.9.9 9.8-.7 2.1-1.9 1.9-6.6.8-9.3s-3.4-5-6-4.3c-2.6.6-3.4 3.7-2 7m-36.8-23.9c-1.2 0-3.3 1-3.3 3.1s2 2.7 3.6 2.7c1.6-.1 3.3-1.3 3.1-3s-1.2-2.8-3.4-2.8m8.8 34.1c-1.2 0-3.2 1.1-3.2 3.5s2 3.2 3.7 3.1c1.6-.1 3.3-1.5 3.1-3.4s-1.5-3.2-3.6-3.2m20.3-33c-1.2 0-3.2 1.1-3.2 3.5s2 3.2 3.7 3.1c1.6-.1 3.3-1.5 3.1-3.4s-1.5-3.2-3.6-3.2M169 188.8c-19.3 6.4-57.1 11.1-59.7 14.7-9.7 13.6-18.4 25.2-9.9 31.8 0 0 77.1 61.1 85.1 65.2s19 4.9 28.9 1.7 65.8-22.8 74.9-26.6c6.4-2.7-.8-20.5-1.2-26.9-.2-4-2.8-5-5.6-6.8-1.7-1.1-3.7-2.5-6.1-4.1 0 0-72.5-44.6-78.6-48.8-6.1-4.4-14-4.7-27.8-.2" /><path class="st0" d="M285.6 245.1c2.6 4.4-3.5 5.2-5.5 6-4.4 1.8-56.9 19.8-66.8 23s-15.7.9-23.7-3.2c-6.9-3.5-62.9-45.9-78.2-57.4 0 0-7.3-6-2-10" /><path class="st0" d="M206.6 246.3s17 11.8 18.6 12.7c1.7.9 2.9 1.4 5 .8s12-4 12.8-4.2 1.2-2 .6-3c0 0-17.8-11.9-19.1-12.7-1.5-.9-1.9-1.4-4.7-.9s-11.8 3.2-12.8 3.8-1.6 2.5-.4 3.5m-25.7 8.5s17 11.8 18.6 12.7c1.7.9 2.9 1.4 5 .8s12-4 12.8-4.2 1.2-2 .6-3c0 0-17.8-11.9-19.1-12.7-1.5-.9-1.9-1.4-4.7-.9s-11.8 3.2-12.8 3.8c-1 .7-1.7 2.6-.4 3.5m50.2-16.8s17 11.8 18.6 12.7c1.7.9 2.9 1.4 5 .8s12-4 12.8-4.2 1.2-2 .6-3c0 0-17.8-11.9-19.1-12.7-1.5-.9-1.9-1.4-4.7-.9s-11.8 3.2-12.8 3.8c-1 .7-1.7 2.6-.4 3.5m-28.9-18.1s14.3 9.7 15.9 10.6 2.9 1.4 5 .8 12-4 12.8-4.2 1.2-2 .6-3c0 0-15.1-9.4-16.4-10.2-1.5-.9-1.9-1.4-4.7-.9s-11.8 2.8-12.8 3.5c-1.1.6-1.7 2.5-.4 3.4m-26.7-18.8s14.3 9.7 15.9 10.6 2.9 1.4 5 .8 12-4 12.8-4.2 1.2-2 .6-3c0 0-15.1-9.4-16.4-10.2-1.5-.9-1.9-1.4-4.7-.9s-11.8 2.8-12.8 3.5c-1 .5-1.6 2.4-.4 3.4m-26 5.7s13.5 10.7 15.1 11.7 2.8 1.6 4.9 1.1c2.2-.5 12.2-3.2 13.1-3.3.8-.1 1.4-1.9.9-3 0 0-14.4-10.5-15.7-11.4-1.4-1-1.8-1.5-4.7-1.2-2.8.3-12 2-13 2.5-1 .7-1.8 2.6-.6 3.6m-26.2 6.6s13.6 10.6 15.2 11.6 2.8 1.6 4.9 1.1 12.2-3.2 13.1-3.3 1.3-1.9.8-3c0 0-14.5-10.4-15.7-11.3-1.4-1-1.8-1.5-4.7-1.2-2.8.3-12 2-13 2.6s-1.8 2.4-.6 3.5m53.3 12.9s13.8 10.3 15.5 11.2c1.6 1 2.8 1.5 5 1 2.1-.6 12.1-3.5 13-3.7.8-.2 1.3-1.9.8-3 0 0-14.7-10.1-16-10.9-1.4-.9-1.9-1.5-4.7-1.1s-11.9 2.3-12.9 2.9c-1.2.7-1.9 2.6-.7 3.6m-24.6 7.2s13.7 10.5 15.3 11.5 2.8 1.6 4.9 1.1 12.2-3.3 13-3.4 1.3-1.9.8-3c0 0-14.6-10.3-15.8-11.2-1.4-1-1.8-1.5-4.7-1.2s-11.9 2.1-13 2.7c-1 .6-1.7 2.4-.5 3.5M845.6 1211c22.4 5.7 54.1 10.1 56.5 13.5 10.8 15 20.4 27.9 10.9 35.2 0 0-85.4 67.7-94.2 72.2s-21 5.5-32 1.9-72.8-25.2-83-29.5c-7.1-3 .9-22.7 1.3-29.8.3-4.5 3.1-5.5 6.2-7.6 1.8-1.2 4.1-2.8 6.8-4.6 0 0 15.4-9.5 33.4-20.6" /><path class="st0" d="M875.4 1254c10.4-7.8 19.5-14.7 24.5-18.5 0 0 8-6.7 2.3-11m-195.3 46.1c-2.8 4.9 3.9 5.7 6.1 6.6 4.9 2 63 21.9 74 25.4s17.4 1 26.2-3.5c4.8-2.5 31.5-22.2 54.7-39.6" /><path class="st0" d="M794.4 1271.9s-18.8 13-20.6 14-3.2 1.6-5.5.8c-2.3-.7-13.3-4.5-14.2-4.7s-1.3-2.2-.7-3.3c0 0 19.8-13.2 21.2-14 1.6-1 2.1-1.6 5.2-1s13.1 3.5 14.2 4.3c1.1.7 1.7 2.8.4 3.9m28.4 9.5s-18.8 13-20.6 14-3.2 1.6-5.5.8c-2.3-.7-13.3-4.5-14.2-4.7s-1.3-2.2-.7-3.3c0 0 19.8-13.2 21.2-14 1.6-1 2.1-1.6 5.2-1s13.1 3.5 14.2 4.3c1.1.7 1.8 2.8.4 3.9m-55.6-18.6s-18.8 13-20.6 14-3.2 1.6-5.5.8c-2.3-.7-13.3-4.5-14.2-4.7s-1.3-2.2-.7-3.3c0 0 19.8-13.2 21.2-14 1.6-1 2.1-1.6 5.2-1s13.1 3.5 14.2 4.3c1.1.7 1.8 2.8.4 3.9m79.6-40.6c4.1.7 9.2 1.7 10.1 2.2 1.2.6 2 2.7.7 3.8 0 0-3.4 2.7-7.2 5.7m5.8 3.5c4.4-3.2 9.4-6.8 10.2-7.3 1.5-1.1 2-1.7 5.2-1.3 3.1.4 13.2 2.2 14.4 2.9s2 2.7.7 3.8c0 0-16.8 12.9-18.6 14m-13.2 8.2s-15.1 11.7-16.9 12.8-3.1 1.7-5.5 1.2c-2.4-.6-13.5-3.7-14.5-3.8-.9-.2-1.6-1.9-1-3" /><path class="st0" d="M768 1238.5c-8 3.7-13.8 2.6-13.8 10.7 0 12.2 46.8 16 62.9 15.3 7.6-.3 20.9-3.6 31.5-6.2 0 0 17.6-4.4 19.3 1.2s-.7 17 3 19.1c2.3 1.3 9.1 1.6 8.2-10.2-.9-11.9-2.5-16.7-12.3-18.7 0 0-10-1.8-10-4.5 0-6.2 0-10.9-14.4-12.4m-65.7-29.3c-3.3-3.2-8.3-5.8-16-6.7-11.5 22.3 5.3 30.5 15.8 31.3" /><path class="st0" d="M775.1 1221.3c-3-4.1-6.7-9.7-9.4-15.6m9.4 27.1s-15.1-20.3-36.7-3.7c11.6 21.2 32.1 10.1 36.7 3.7" /><path class="st0" d="M775.1 1232.8s-14 .3-26.7-2.3m63.8-52.1c-12.9-.8-35.1 9-36.9 34.2s18.7 35.4 35.8 36.3 36.3-12.4 35-33.2c-1.3-20.7-11.8-35.9-33.9-37.3" /><path class="st0" d="M798.7 1218s0 6.5 6.5 8.1c6.8 1.6 11.7-6.5 11.7-6.5s-.4 15.9 6.7 15.9c5.1 0 4.7-15.9 4.7-15.9s5.4 3 9.6 1.2c6.7-2.7 7.1-12.2 6.6-15.2M70.9 326.3c7 4.4 24.4 16.9 27.9 19.5s4.6 9.5-3 15c-7.7 5.5-30.2 13.5-50.5 0-21.5-14.3-20.2-32.5-16.2-43.9s8.3-11.1 12.7-8.5c4.8 2.7 21.9 13.4 29.1 17.9" /><path class="st0" d="M97.5 346.2s-14.3 16.2-34.3 11.3c-20.1-4.9-25.7-17.2-26.8-26.5-1.2-10.2 5.5-22.5 5.5-22.5" /><path class="st0" d="m49.1 351.5 19.5-26.7 8.2 31.8m-40.5-27 32.3-4.8m729.5 1502.1c-6.8 4.3-23.8 16.4-27.3 19s-4.5 9.3 2.9 14.7 29.5 13.2 49.3 0c21-14 19.7-31.7 15.8-42.8s-8.1-10.8-12.4-8.3c-4.5 2.6-21.2 13-28.3 17.4" /><path class="st0" d="M772.2 1846.3s13.9 15.8 33.5 11 25.1-16.8 26.2-25.9c1.2-9.9-5.3-22-5.3-22" /><path class="st0" d="m819.4 1851.5-19-26-8 30.9m39.5-26.2-31.5-4.7m312.7-959.3c7.9 1.5 28.2 6.6 32.3 7.7 4.2 1.1 7.6 7 2.6 14.7s-22.6 23.1-45.9 18c-24.7-5.3-30-22.3-30.3-34.1-.4-11.8 3.6-13 8.5-12.3 5.3 1 24.7 4.5 32.8 6" /><path class="st0" d="M1144.4 874.8s-7.2 19.8-27.1 22.5c-20 2.7-29.5-6.5-33.8-14.5-4.7-8.8-3.1-22.4-3.1-22.4" /><path class="st0" d="m1102.4 896.9 8.1-31.2 18.8 25.9m-46.4-10 27.6-15.9m-1122.4.5c7.9 1.5 28.2 6.6 32.3 7.7 4.2 1.1 7.6 7 2.6 14.7s-22.6 23.1-45.9 18c-24.7-5.3-30-22.3-30.3-34.1-.4-11.8 3.6-13 8.5-12.3 5.3 1 24.7 4.5 32.8 6" /><path class="st0" d="M19.4 874.8s-7.2 19.8-27.1 22.5c-20 2.7-29.5-6.5-33.8-14.5-4.7-8.8-3.1-22.4-3.1-22.4" /><path class="st0" d="m-22.6 896.9 8.1-31.2 18.8 25.9m-46.4-10 27.6-15.9m407.4 424.6c31.7-9.3 50.5-6.1 53.4 4.4 3.2 11.8-17.3 27.4-49.1 37.9-30.2 10-56.4 10-61.2 1.5-8-14 16-29.7 45-39.9" /><path class="st0" d="m334.7 1331.1 4.3 12.3c4.8 8.5 31 8.5 61.2-1.5 31.8-10.5 52.3-26.1 49.1-37.9l-3.3-10m-88.9 76c4.3 7.9 27 8.1 52.3-.4 26.6-9 42.9-22.6 40-33.6m-67 86c3.5 6.5 21.9 6.9 43-.2 22.2-7.4 36.9-19.1 34.4-28.1" /><path class="st0" d="m346.6 1348.1 46.5 96.1c4 8.7 21.7 11 41.2 3.9 20.5-7.5 31.8-17.1 30-29.8l-18.5-102.6m-50.7-5.8c-2.8-22.6-7.7-61.1-8.2-65.2-.7-5.6-13-3.9-12.3 1.6.5 3.9 6 42.4 9.2 64.9 0 0 .7 3.7 5.7 2.7 3.5-.6 5.7-2.7 5.6-4" /><path class="st0" d="M374.6 1247c2.3 5.3 12 3.8 12.2-2.3m-11 10.9s4.5 7.8 13.4 8.1m-11.7 3.7s5 6.3 12.9 5.5m-11.3 5.6s3.7 5.2 12.7 5.1m-11.2 5.9s4.7 5.1 12.4 4.5m-10.9 6s4.1 4.9 11.8 4.3" /><path class="st0" d="M394.2 1296.5c25.9-7.3 40.9-5.7 42.8 1.5 2.2 8.3-15.2 20-41.7 28.5-25.2 8.1-46.8 9-50.5 3.2-6-9.4 13.2-20.9 36.6-29.1m330.3-466c9.3-5.5 28.5-8.7 37.3 4.6s-3.3 27-15.7 34.2-28.3 5.5-35.6-4.8c-7.6-10.6-1.9-24.6 14-34" /><path class="st0" d="M701 858.9s21.1-4.8 37.3-3.2" /><path class="st0" d="M716.8 867.2s7.4-20.4 17.5-33.1m-30 34s7.4-20.4 17.5-33.1" /><path class="st0" d="M705.4 846.2s21.1-4.8 37.3-3.2m300.1 824.7c-11.1 4.8-26.3 20.4-19.6 38 6.8 17.7 27.2 16 41.8 9.6s23.2-22.5 18.3-36.6c-4.9-14.6-21.5-19.2-40.5-11" /><path class="st0" d="M1061.9 1689.6c4-4 7.6-8.9 10-14.9-8.5 1.2-15.2 4-20.5 7.4-8.8-4.2-16.4-3.5-16.4-3.5s3 4.8 8.5 9.9c-8.2 8.4-10.4 17.3-10.4 17.3s10.4-2.5 20.9-9.7c4.6 2.5 9.9 4.3 15.9 4.7-2.4-4.6-5.1-8.3-8-11.2m-426-1026.4c10.6 3.6 26 16.8 21.1 33.7s-24 17-38 12.2c-14.1-4.8-23.2-19.1-19.8-32.5 3.5-13.9 18.5-19.5 36.7-13.4" /><path class="st0" d="M620 685.1c-4-3.4-7.7-7.7-10.4-13 8 .5 14.4 2.5 19.6 5.2 7.8-4.6 14.9-4.6 14.9-4.6s-2.4 4.7-7.1 9.9c8.2 7.1 11 15.2 11 15.2s-9.9-1.5-20.1-7.3c-4.1 2.7-8.9 4.8-14.4 5.6 1.8-4.5 4-8.1 6.5-11m81.9 1247.4c-17.3 6-43.8 13.5-47.1 15.7-4.3 2.8-6.8 17-1.4 21 0 0 66.6 50.6 73.8 54.3s12.4 5.8 21.3 2.9 59.3-21.3 62.9-22.1c2.8-.7 3.9-9.6 3.5-15.4-.2-3.6-2.5-4.5-5-6.2-1.5-1-3.4-2.3-5.5-3.7" /><path class="st0" d="M813.4 1985.6c2.3 4-3.2 4.7-5 5.4-4 1.6-51.2 17.8-60.2 20.7-8.9 2.9-14.2.8-21.3-2.9-6.2-3.2-56.7-41.3-70.4-51.7 0 0-6.5-5.4-1.8-9" /><path class="st0" d="M706.3 1978.1s24.9 17.3 27.4 18.6c2.4 1.3 4.2 2.1 7.3 1.1 3.1-.9 20.6-7 21.8-7.2 1.2-.3 1.8-2.9.9-4.4 0 0-26.2-17.5-28.1-18.6-2.1-1.3-2.8-2.1-7-1.3-4.1.8-20.3 5.8-21.8 6.7s-2.4 3.7-.5 5.1" /><path class="st0" d="M718.9 1979s14.1 9.8 15.4 10.5c1.4.7 2.4 1.2 4.1.6 1.7-.5 9.5-3.2 10.2-3.3.7-.2 1-1.6.5-2.5 0 0-14.8-9.9-15.9-10.5-1.2-.7-1.6-1.2-3.9-.7-2.3.4-9.3 2.5-10.1 3s-1.3 2.1-.3 2.9m45.2 8.1 2.3 8m-61.2-19.8-2.2 8m34.7 15v8.2m6.5-43s24.9 17.3 27.4 18.6c2.4 1.3 4.2 2.1 7.3 1.1 3.1-.9 20.6-7 21.8-7.2 1.2-.3 1.8-2.9.9-4.4 0 0-26.2-17.5-28.1-18.6-2.1-1.3-2.8-2.1-7-1.3-4.1.8-20.3 5.8-21.8 6.7-1.4.9-2.3 3.6-.5 5.1m57.8 9 2.3 8m-61.1-19.8-2.3 8m34.7 15v8.2M665.7 1949s24.9 17.3 27.4 18.6c2.4 1.3 4.2 2.1 7.3 1.1 3.1-.9 20.6-7 21.8-7.2s1.8-2.9.9-4.4c0 0-26.2-17.5-28.1-18.6-2.1-1.3-2.8-2.1-7-1.3-4.1.8-20.3 5.8-21.8 6.7s-2.4 3.7-.5 5.1m57.8 9 2.2 8m-61.1-19.8-2.3 8m34.8 15v8.2m5.4-41.1s24.9 17.3 27.4 18.6c2.4 1.3 4.2 2.1 7.3 1.1 3.1-.9 20.6-7 21.8-7.2 1.2-.3 1.8-2.9.9-4.4 0 0-26.2-17.5-28.1-18.6-2.1-1.3-2.8-2.1-7-1.3-4.1.8-20.3 5.8-21.8 6.7-1.4.9-2.4 3.7-.5 5.1m57.8 9 2.1 7.4m-60.9-19.2-2.3 7.7m34.7 15.3v8.2" /><path class="st0" d="M757.2 1964.4s14.1 9.8 15.4 10.5c1.4.7 2.4 1.2 4.1.6 1.7-.5 9.5-3.2 10.2-3.3.7-.2 1-1.6.5-2.5 0 0-14.8-9.9-15.9-10.5-1.2-.7-1.6-1.2-3.9-.7-2.3.4-9.3 2.5-10.1 3s-1.3 2.1-.3 2.9m-42.3-27.7s14.1 9.8 15.4 10.5c1.4.7 2.4 1.2 4.1.6s9.5-3.2 10.2-3.3c.7-.2 1-1.6.5-2.5 0 0-14.8-9.9-15.9-10.5-1.2-.7-1.6-1.2-3.9-.7-2.3.4-9.3 2.5-10.1 3s-1.3 2.1-.3 2.9m-36.4 12.3s14.1 9.8 15.4 10.5c1.4.7 2.4 1.2 4.1.6 1.7-.5 9.5-3.2 10.2-3.3.7-.2 1-1.6.5-2.5 0 0-14.8-9.9-15.9-10.5-1.2-.7-1.6-1.2-3.9-.7-2.3.4-9.3 2.5-10.1 3-.8.6-1.3 2.1-.3 2.9M951.7 743.4s-32.1 22.3-35.2 23.9c-3.1 1.7-5.4 2.7-9.4 1.4-4-1.2-26.5-8.9-28-9.3s-2.3-3.7-1.2-5.7c0 0 33.7-22.5 36.2-24 2.8-1.7 3.6-2.7 8.9-1.7s26.1 7.4 28 8.6c1.9 1.4 3.1 5 .7 6.8m1.3-3.6 6.1 16.3m-47.7 13.3v17.5" /><path class="st0" d="m877.4 755-6.3 19.2c.2 1.2.8 2.2 1.6 2.4 1.6.4 31 10.7 35 11.9s6.3.2 9.4-1.4c3.1-1.7 40.8-27.3 40.8-27.3 1.2-.9 1.5-2.3 1.2-3.6" /><path class="st0" d="M935 744.6s-18.1 12.5-19.8 13.5c-1.8 1-3.1 1.5-5.3.8s-12.2-4.1-13-4.3c-.9-.2-1.3-2.1-.7-3.2 0 0 19-12.7 20.4-13.5 1.6-.9 2-1.5 5-1s11.9 3.2 13 3.9c1 .7 1.7 2.7.4 3.8M15 1986.9s32.1 22.3 35.2 23.9 5.4 2.7 9.4 1.4c4-1.2 26.5-8.9 28-9.3 1.6-.4 2.3-3.7 1.2-5.7 0 0-33.7-22.5-36.2-24-2.8-1.7-3.6-2.7-8.9-1.7s-26.1 7.4-28 8.6c-1.9 1.4-3.1 4.9-.7 6.8m-1.4-3.6-6.7 33.9m48.4-4.4-.6 35.2" /><path class="st0" d="m89.2 1998.5 5.7 36.8c-.2 1.2-.8 2.2-1.6 2.4-1.6.4-31 10.7-35 11.9s-6.3.2-9.4-1.4c-3.1-1.7-40.8-27.3-40.8-27.3-1.2-.9-1.5-2.3-1.2-3.6m29.2-28.5s13.9 9.6 15.2 10.4c1.4.7 2.4 1.2 4.1.6s9.3-3.1 10-3.3 1-1.6.5-2.5c0 0-14.6-9.7-15.7-10.4-1.2-.7-1.6-1.2-3.9-.7s-9.2 2.5-10 3c-.7.6-1.2 2.1-.2 2.9m55.1 24-35.9 12m36.6 1.5-36.6 12m442-1967.8s32.1 22.3 35.2 23.9c3.1 1.7 5.4 2.7 9.4 1.4 4-1.2 26.5-8.9 28-9.3s2.3-3.7 1.2-5.7c0 0-33.7-22.5-36.2-24-2.8-1.7-3.6-2.7-8.9-1.7s-26.1 7.4-28 8.6c-1.9 1.4-3.1 5-.7 6.8m-1.3-3.6-6.1 16.3m47.7 13.3V114" /><path class="st0" d="m571.6 82.1 6.3 19.2c-.2 1.2-.8 2.2-1.6 2.4-1.6.4-31 10.7-35 11.9s-6.3.2-9.4-1.4c-3.1-1.7-40.8-27.3-40.8-27.3-1.2-.9-1.5-2.3-1.2-3.6" /><path class="st0" d="M514 71.7s18.1 12.5 19.8 13.5c1.8 1 3.1 1.5 5.3.8s12.2-4.1 13-4.3c.9-.2 1.3-2.1.7-3.2 0 0-19-12.7-20.4-13.5-1.6-.9-2-1.5-5-1s-11.9 3.2-13 3.9-1.7 2.7-.4 3.8M615.8 175c-9.8-4-18.3-13.8-8.6-32.6 13 0 20.6 7.2 22.8 16.3" /><path class="st0" d="M620.4 165.2c-2.6-3.9-5.3-8.4-7.5-13.1m2.3 23c-7.2-4.5-18.7-7.6-32.6 3.1 9.5 17.3 24.3 15.1 33.5 10" /><path class="st0" d="M614.9 182.1c-5.8-.2-13.7-.9-21.2-2.4m64 1c12 3.1 17.9 8.2 17.6 14.1-.5 10.1-20.5 17-48 17.1-26.1.1-46.6-6.6-48.2-14.4-1.1-5.4 2.2-9.6 8.2-12.7" /><path class="st0" d="M674.5 206.1c-.5 10.1-20.2 17-47.3 17.1-25.8.1-45.9-6.5-47.5-14.4m94.8 31.5c-.5 10.1-20 17-47 17.2-25.6.1-45.6-6.5-47.1-14.4" /><path class="st0" d="M579 196.1s.6 11.6 1.5 25.5-1.3 32.6-1.3 32.6c1.6 7.9 22.1 14.5 48.2 14.4 27.5-.1 47.5-7 48-17.1 0 0-1.6-19.2-1.5-29.3.1-10.2 1.5-27.4 1.5-27.4" /><path class="st0" d="M637.4 158.3c-7.8-.5-21 5.4-22.1 20.5s11.2 21.2 21.5 21.7 21.7-7.5 21-19.9-7.2-21.5-20.4-22.3" /><path class="st0" d="M640.7 165.7s-3.7 2.3-1.5 6.7c1.7 3.4 5.2 3.3 7.5 2M622.9 248s-1.7 2.6-2.7 3.8m-29.3-24.5s.2 3.1 0 4.6m73.2-4.4s-1.1 2.9-1.9 4.2m-48 1.8s-3.1.6-4.6.7m25.8-1.5s2.8 1.4 4 2.3m-41.1 9.4s2.7 1.6 3.9 2.6m52.3-5.5s.7 3.1.8 4.6m-249.5 788.2c-12 3.1-17.9 8.2-17.6 14.1.5 10.1 20.5 17 48 17.1 26.1.1 46.6-6.6 48.2-14.4 1.1-5.4-1.2-14-18.9-16.8m-75.9 51.1c.5 10.1 19.8 17 46.5 17.2 25.3.1 45.1-6.5 46.6-14.3m-93.7 16.6c.5 10.1 20 17 47 17.2 25.6.1 45.6-6.5 47.1-14.4" /><path class="st0" d="M484.5 1049.7s-.6 22.6-1.5 36.5 1.3 32.6 1.3 32.6c-1.6 7.9-22.1 14.5-48.2 14.4-27.5-.1-47.5-7-48-17.1 0 0 1.6-19.2 1.5-29.3-.1-10.2-1.5-38.3-1.5-38.3M191.6 839.6c-9.8-4-18.3-13.8-8.6-32.6 13 0 20.6 7.2 22.8 16.3" /><path class="st0" d="M196.1 829.8c-2.6-3.9-5.3-8.4-7.5-13.1m2.3 23c-7.2-4.5-18.7-7.6-32.6 3.1 9.5 17.3 24.3 15.1 33.5 10" /><path class="st0" d="M190.6 846.8c-5.8-.2-13.7-.9-21.2-2.4m43.7-21.5c-7.8-.5-21 5.4-22.1 20.5s11.2 21.2 21.5 21.7 21.7-7.5 21-19.9-7.1-21.4-20.4-22.3" /><path class="st0" d="M216.4 830.3s-3.7 2.3-1.5 6.7c1.7 3.4 5.2 3.3 7.5 2m412.1 1199.8c9.8-4 18.3-13.8 8.6-32.6-13 0-20.6 7.2-22.8 16.3" /><path class="st0" d="M629.9 2029.1c2.6-3.9 5.3-8.4 7.5-13.1m-2.3 23c7.2-4.5 18.7-7.6 32.6 3.1-9.5 17.3-24.3 15.1-33.5 10" /><path class="st0" d="M635.4 2046c5.8-.2 13.7-.9 21.2-2.4m-43.7-21.4c7.8-.5 21 5.4 22.1 20.5s-11.2 21.2-21.5 21.7-21.7-7.5-21-19.9c.9-12.4 7.2-21.5 20.4-22.3" /><path class="st0" d="M609.6 2029.6s3.7 2.3 1.5 6.7c-1.7 3.4-5.2 3.3-7.5 2m456-590.5c.2 1.3.4 2.7.5 4 9.9 8.7 11.5 21.7 7.3 30.3s-16 10.3-16 10.3m-69.3-19.9s-3.5 8.6-12.8 3c-10.3-6.2-9.3-26.9 7.9-34 11.5-37 52.5-8.1 40.8-42.2-1.8-5.1 13.4-.5 26.1 14.4" /><path class="st0" d="M981.4 1466.7s1.1 6.6 17.6 17.1c16.7 10.6 37.9 12.8 47 .1" /><path class="st0" d="M974 1478s.4 31.8 1.2 39c.8 6.7 7.3 10.4 13.7 13.3 10.2 4.5 19.4 6.5 30.7 5.7 11.4-.8 14.3-4.3 16.8-8.1 1.9-2.9 15.4-37.4 16.5-41.6M983 1494l-1.5 31.9m55.8-20.6-10.3 29.6m-28.1-32.1-5 29.5m25.6-25.3-7.8 28.5m24.1-113.5c-4.8 4.8-16.4 18-18.7 20.8s-1.9 8.5 5.2 11.4c7.1 3 26.7 5.2 40.4-9.4 14.5-15.5 10.1-29.7 4.8-38.1-5.4-8.3-8.7-7.3-11.8-4.5-3.2 3.2-14.9 14.9-19.9 19.8" /><path class="st0" d="M1018.3 1442.9s14.4 10.3 29.5 2.6 17.3-18.6 16.5-26.2c-.9-8.3-8.6-17-8.6-17" /><path class="st0" d="m1057.9 1438.2-20.5-17.8-.6 27m27.3-29.1-26.7 2.1m-60.2 21.1s-.5 17 30.6 23.2m52.3-12.9s.6 18.5-19.2 22.9m-22.1.3c-1.2-.4-3.4.1-4.1 2.3-.7 2.3 1 3.6 2.5 4.1 1.6.5 3.6-.4 3.9-2.3s-.3-3.5-2.3-4.1m-22.7-36.8c-1.2-.4-3.4.1-4.1 2.3-.7 2.3 1 3.6 2.5 4.1 1.6.5 3.6-.4 3.9-2.3.3-1.8-.3-3.5-2.3-4.1m12.3-10.5c-1.2.3-3 1.6-2.6 3.3.4 1.6 2.4 1.7 4 1.2s3-1.9 2.5-3.1c-.6-1.4-1.8-2-3.9-1.4m54.5 43.2c-.6-1-2.1-2.3-3.5-1.6s-1 2.6-.2 3.9 2.4 2.3 3.4 1.5 1.3-2.1.3-3.8m-81.4-591.3c-2.2 14.9-32.9 22.2-73.7 18.3-38.8-3.7-68.2-16.6-69.4-28.5-2.1-20 33.6-25.5 71.9-22.5 49.3 4 73.4 18.1 71.2 32.7m-113.4 20.5c-9.4-3-17.1-6.5-22.4-10.2m124.6 11.2c-12.6 6.6-35.7 9.2-63.5 6.5-8.4-.8-16.3-2-23.6-3.6m88.8 28.2c12.2 5.9 17.8 12.7 16.8 19.5-2.2 14.9-37.7 21.5-85.3 16.6-45.2-4.7-79.7-18.3-81.4-30.3-1.3-9.3 6.8-15.3 20.3-18.7" /><path class="st0" d="M839.6 874.2c6.3-16.4 37.3-21.6 69.9-19.3 43.1 3 66.3 15.6 69.1 30" /><path class="st0" d="M838.2 867.6s-5 39.4 10 60.7 47.9 25 61.8 25.5c13.6.5 35.7-4.3 49.9-17.7 18.6-17.6 20.2-45.7 21.7-56.5" /><path class="st0" d="M983.6 883.7s24.9 3 24.1 19.9c-.9 16.9-11.2 23.6-24.3 27-8.6 2.2-19.4 1.1-19.4 1.1" /><path class="st0" d="M981.8 899.6s7.7.9 7.5 6.2c-.3 5.2-3.5 7.3-7.5 8.4-2.7.7-6 .3-6 .3m-58.7-37.9s17.3-3.6 12.8-8.6c-3.9-4.3-17.5-.8-29.8 2.5-12.2 3.4-24.7 2-24.7 2s15.9 8 26 11.1c10 3 34.4 7.6 38.3.5 4-7.3-22.6-7.5-22.6-7.5m84.7-370.2c4.2 1.8 6.7 4.2 7.4 7.2 3.7 15.8-49.1 40.7-126.8 60.5-73.7 18.8-134.9 23.1-143.5 12.2-2.9-3.7-2.7-7.8.2-12" /><path class="st0" d="M1004.9 503.6c7 2.6 11.2 6.5 12.3 11.3 4.8 20.5-50.1 49.6-131.6 71-77.4 20.3-142.3 22.7-152 8.3-4.4-6.6-2.8-13.6 3.4-20.7" /><path class="st0" d="M747.7 601.3s17.5 36.2 43.2 38.4c26.3 2.3 66.8-4.3 102.1-13.2s73.2-23 91.6-36.6c21.2-15.7 23.3-54.3 23.3-54.3m-266.8 39.5s-11.8-5.5-7.7-18.1c4-12.6 19.7-1.2 19.7-1.2" /><path class="st0" d="M765 543.3s-6-8.7-14.3-5.7c-8.9 3.2-8.4 13.2-8.4 13.2m39.1-15.1s-5.3-9.3-13.9-7.4c-5.7 1.3-8 5.6-8.9 8.7m41.1-9.3s-5.3-9.3-13.9-7.4c-5.7 1.3-8 5.6-8.9 8.7" /><path class="st0" d="M817.2 520.7s-5.3-9.3-13.9-7.4c-5.7 1.3-8 5.6-8.9 8.7" /><path class="st0" d="M837.1 514.8s-5.3-9.3-13.9-7.4c-5.7 1.3-8 5.6-8.9 8.7" /><path class="st0" d="M855.7 510.5s-4.7-9.7-13.5-8.7c-5.9.7-8.5 4.7-9.6 7.7m169.5-.2s7.8-10.4-1.8-19.6c-9.5-9.2-17.9 8.2-17.9 8.2" /><path class="st0" d="M966 492.6s1.1-10.5 9.9-11.8c9.3-1.4 13.7 7.7 13.7 7.7m-41.8 5.2s.2-10.7 8.7-13.1c5.6-1.6 9.7 1.1 12 3.4M928 495.3s.2-10.7 8.7-13.1c5.6-1.6 9.7 1.1 12 3.4" /><path class="st0" d="M909.2 497.5s.2-10.7 8.7-13.1c5.6-1.6 9.7 1.1 12 3.4" /><path class="st0" d="M888.9 501.7s.2-10.7 8.7-13.1c5.6-1.6 9.7 1.1 12 3.4" /><path class="st0" d="M870.5 506.8s-.5-10.8 7.7-14.1c5.5-2.2 9.7.2 12.1 2.2" /><path class="st0" d="M849.6 503.5c1.2-2.2 4.2-6.1 9.4-7.5 6.7-1.7 11.4.6 13.4 2m-6.8 54.6c1.4-1.9 3.7-4.1 7-5 4.8-1.2 8.5 0 10.8 1.3m5.4 17.6c-1.5 2.2-4.3 5.3-8.8 6.4-5.5 1.4-9.7.1-12.1-1.2m-108.5 8.1c-5 5.8-15.3 6.1-17.8-2.5-2.5-8.7 1.9-13.4 5.8-13.3m241.4-41.4c6.9 1.8 15.1-2.7 13.3-11-1.9-8.8-8-10.9-11.5-9m-227.4 67.8s7.9-8.4 18.2.8c4.7-7.3 13.9-8.6 21-3.9 4.7-7 14.5-7.7 22.2-2.7 3.7-6.7 13.6-10.7 21.7-4.5 3.1-8.4 13.5-11.1 20.7-4.6M760.7 576s-2.9 13.8 9.1 12.7c10.3-.9 10.1-10.8 10.1-10.8" /><path class="st0" d="M779.2 581.7s2.3 7.8 12.6 6.7c10.4-1.1 9.8-11 9.8-11" /><path class="st0" d="M801.6 578.5s2.3 7.8 12.6 6.7 9.8-11 9.8-11m.1.1s2.3 7.8 12.6 6.7 9.8-11 9.8-11m0-.1s2.3 7.8 12.6 6.7c10.4-1.1 9.8-11 9.8-11m111.4-52.4s-11-3.3-15.4 9.9c-7.7-4-16.3-.5-20.1 7.2-7.6-3.7-16.3.6-20.6 8.8-6.5-3.9-17-2.5-21.1 7-6.8-5.8-17.2-2.8-20.2 6.5m102.4-35.8s9.3 10.5-1.6 15.6c-9.3 4.4-14.1-4.3-14.1-4.3" /><path class="st0" d="M972 531s1.9 7.9-7.7 12.2c-9.5 4.2-13.9-4.6-13.9-4.6" /><path class="st0" d="M951 539.5s1.9 7.9-7.7 12.2c-9.5 4.2-13.9-4.6-13.9-4.6" /><path class="st0" d="M929.5 547.2s1.9 7.9-7.7 12.2c-9.5 4.2-13.9-4.6-13.9-4.6" /><path class="st0" d="M907.9 554.7s1.9 7.9-7.7 12.2c-9.5 4.2-13.9-4.6-13.9-4.6m-126.6-5.6s42.1-31.1 101.3-46 116.4-8.9 116.4-8.9" /><path class="st0" d="M845.3 529s7.3-13.5 21.2-6.3c-6.8 8.8-21.2 6.3-21.2 6.3m43-10.8s-12.8-8.4-21.7 4.5c10.2 4.5 21.7-4.5 21.7-4.5M541.8 958.8c-8.8 10.9-9.6 23.6 6.8 39.6 16.3 15.9 34.3 10.3 43.1.1 9.7-11.3 9.9-28.8-4.9-40.2-14.9-11.5-31.6-16.1-45 .5" /><path class="st0" d="M538.1 982.7c2-.5 8.5-3 17.9-13.2 11.6-12.5 9.9-21.3 9.9-21.3m-23.3 42.6c2.3-.8 9.3-4 20-15.7 13.3-14.5 12.2-23.9 12.2-23.9m-14.9 54.3c2.7-.7 9.9-3.4 20.6-15.1 11.1-12.1 12.5-21.6 12.6-24.8m-41.4 34.9s8.8-1.5 22.2-17c13.2-15.3 12.8-24.7 12.8-24.7m8.1 36.3c13.9 12 52.2 46.2 54.6 48.4 3.4 3-3.3 10.5-6.6 7.5-2.5-2.2-39.8-36.1-53.5-48.4" /><path class="st0" d="M567.1 936.8c-10.7-2.3-29-1.1-38.6 20.5-8.5 19.1.2 42.4 9.6 55.5 2.4 16.6 13.6 6.8 13.6 6.8s-4.8 41.9 4.8 43.2 3.5-39.5 3.5-39.5 6.3 10 14.8 8.7 8.9-17 8.9-17 14.9 1.4 21.9-14.6c6.9-15.9 10.3-53-38.5-63.6M84.9 1635s-4.1 23.9-5.6 32.2 4.1 12.2 7.6 12.4c4.6.2 8.2-2.6 9.3-9.6 1-7 4.8-33 4.8-33m10.7-143.8c13.9 2.4 32.8 28.4 32.8 40.5-.1 21.5-5.9 67.9-8.1 86.1s-25.5 17.5-40.5 16.1-40.6-8.4-38.9-23 14.8-70.4 18.6-84.8 15.2-38.6 36.1-34.9" /><path class="st0" d="M58.2 1604.3s4.1 17.2 21 13c8.7 5.8 29.5 9.6 41.8 5.9 5.7 3.5 12.2 2.6 15.6-4.9m-14.8-79.1s-2.2 8.6 2.3 9.4 4.6-7.2 4.6-7.2m-41.8 38.8s-1 11.8-7 10.8-2.6-11.1-2.6-11.1m29.2-87s-17.7 4.2-1.3 18.4c-4.5 17.5 19 15.7 24.3 11.3 1 4 4.4 10.9 13.4 3.7m497.5 667.6c-4.7 3.8-15 6.2-27.9 6.3-11.7 0-21.6-2-26.9-5m52.5 12.5c-4.4 3.5-13.9 5.7-25.8 5.8-10.8 0-20-1.9-24.8-4.6m48.9 12.1c-4.1 3.3-12.9 5.3-24.1 5.4-10.1 0-18.6-1.7-23.2-4.3m61.9-59.9-.6 10.4c-.4 8.1-16 13.7-37.4 13.8-20.3.1-36.3-5.2-37.5-11.5l-.8-13.5" /><path class="st0" d="M579.6 2180.2c1.8 16.7 5.2 47 6.7 51.3 1.8 5.6 8 7.6 14 9 9.5 2.1 17.7 2.2 27.2-.5 9.6-2.7 11.5-6.2 13-9.8.8-2.1 4.1-33.1 5.8-50.3m8.2-22.6c2-3.5 2-7.9 1.7-12.4-1.5-23.1-14.4-40-41.5-41.5-15.8-.9-42.9 10-45.1 38-.5 6.3.4 11.8 2.3 16.5 0 0 3.5 8.3 12.1 2.9.6 5 .1 13.4 4.1 14.1s3.2-12 3.2-12 5.3 7.9 17.4 7.1 16.7-5.7 16.7-5.7.2 6.7 6.9 6.4c6.6-.3 6.1-8.9 6.1-8.9s10.4 5.6 16.1-4.5m-53.7 34.3 2.7 44m21.1-44-2.6 44" /><path class="st0" d="M606.3 2124.8s.7-7 7.9-8.6c6.5-1.4 9.7 3.3 9.7 3.3m13.7 8.2s-.5-4.7-5.3-5.7c-4.4-1-6.5 2.2-6.5 2.2M495.1 633.7c24.2-8.5 56.7-19.7 60.7-16.4 5.3 4.3-21.7 21.9-64.5 67.8-9.1-13.8-12.8-4.1-12.2 7.8 0 0-.1 31 3.9 42.9m-72.4-69.2c-3.4-9.5 1.4-18.4 9.6-9.5 2.6-1.2 5.6-2.4 8.9-3.5" /><path class="st0" d="M410.6 666.6s-.2 25.9-.5 38.4c-.2 9.9 42.7 28.8 64.5 30.9 11.3 1.1 13 .5 18.5-4.6 3.3-3 56-62.3 60.4-67.3s3.9-5.8 4.1-7.8c.3-5.8-1.2-38-1.2-38" /><path class="st0" d="M483 677.8s-27.2-.3-69.2-24.2m68.7 75.9c6.5-3.4 14.5-13.7 39.9-40.5 25.4-26.9 29.6-33.7 34.1-39m-105.6-13.5c-10.5-5.4-19.2-17.2-6.4-37.3 14.5 1.3 22.3 10 23.9 20.5" /><path class="st0" d="M456.9 626.1c-2.5-4.6-5.1-9.9-7.1-15.4m.3 25.9c-7.6-5.7-20.2-10.3-36.8.3 9 20.2 25.8 19.3 36.6 14.4" /><path class="st0" d="M449.1 644.5c-6.4-.8-15.2-2.3-23.4-4.8m50.9-19.7c-8.6-1.3-24 4-26.7 20.8s10.5 24.8 21.9 26.4c11.5 1.6 25-6.2 25.4-20.2s-5.8-24.8-20.6-27" /><path class="st0" d="M480.5 629.2s-4.4 2.2-2.3 7.4c1.6 4 5.5 4.2 8.3 2.9m141.7 565.9c-.4 8.7-17.8 14.8-41.6 14.9-22.7.1-40.4-5.7-41.8-12.5-2.4-11.5 18-16.7 40.3-17.1 28.7-.6 43.5 6.1 43.1 14.7" /><path class="st0" d="M628 1203.4s2.8 21 4.6 30.5c1.3 6.9 3.8 16.9 5.3 22.7 1.4 5.4-.2 11.2-4.5 14.8-8.5 7.3-25.7 11.9-47 12.2-23.4.3-42.6-5.3-49.7-12.8-2-2.2-2.8-5.3-2.1-8.2 1.3-5.1 4-15.8 5.4-24.9 2-12.3 4.5-32.2 4.5-32.2" /><path class="st0" d="M542.2 1223.2s2.1 12 11 5.7c0 8.8-.8 18.9 2.5 19.9s6-19.2 6-19.2 5.5 10.1 21.4 10.3 19.4-11.3 19.4-11.3 1 7.5 6 7.4 4.5-9.2 4.5-9.2 7.1 12.1 19.1 5.2m-43.5 23.6s-.9 11 4.8 11 4.1-9.8 4.1-9.8m-379.4 871.4c80.4 5.2 90.3-54 91.7-63.7s2.4-42.1-35.3-46.2-51.1 28.8-51.1 28.8-9.1-34.4-47-35.2-41.1 31.5-41 41.3 2.3 69.8 82.7 75" /><path class="st0" d="M204.6 2103.9c8.3-7.5 15.5-14.2 15.5-14.2m-62.9 17.4c-4.3 4.9-6.7 10.6-3.6 15.6 5.9 9.6 18.7 5.6 29.3-1.1m19-47.9s-13.6 10.4-24.3 18.1" /><path class="st0" d="M240.2 2076.2s.4-5.6 1-15.8c9.1-22.5 33.7-23.6 41.5-14 13.2 16.2-7.1 42.5-19.3 50.7-9.4 6.3-22.6 11.3-44.6 9.9-20.4-1.4-35.8-9.6-42.5-15.5-11-9.8-27.8-38.4-12.6-52.8 8.9-8.5 33.2-4.1 39.3 19.3-.7 10.3-1 15.8-1 15.8" /><path class="st0" d="M234 2106.3c-7.5-8.7-13.9-16.6-13.9-16.6m59.9 25.2c3.8 5.5 5.4 11.5 1.7 16.2-7 8.8-19.2 3.1-28.9-4.9m-12.6-50s12.2 12.1 21.8 21.1m-48-43.5c-1.1-.1-3.8 1.5-4.1 3.6-.3 2 2.2 3.9 3.6 4.1s3-.8 3-2.5c.1-1.7-.7-5-2.5-5.2m15.2 10.6c-1.1-.1-2.9 1.9-3.2 3.9s1.3 3 2.7 3.1 4.4-1.3 4.4-3-2.1-3.7-3.9-4m-12.2 6.8c-1.1-.1-4.6 1.4-4.8 3.4-.3 2 3.1 4.6 4.5 4.8s2.9-3.3 2.9-5-.8-3-2.6-3.2m25.9-36.6c-1.1-.1-2.9 2-3.2 4.1-.3 2 1.3 3 2.7 3.1s4-.9 4-2.6c.1-1.7-1.7-4.4-3.5-4.6m-43.9 75.2c-1.1-.1-2.9 2-3.2 4.1-.3 2 1.3 3 2.7 3.1s4-.9 4-2.6-1.7-4.3-3.5-4.6m-53.6-71.5c-1.1-.1-2.9 2-3.2 4.1-.3 2 1.3 3 2.7 3.1s4-.9 4-2.6-1.7-4.4-3.5-4.6m37.3-16.5c-1-.1-2.6.5-2.9 2.3s1.4 3.7 2.7 3.9 4.8-1.8 4.8-3.3-2.9-2.7-4.6-2.9m38.7 92.2c-1-.1-2.6.5-2.9 2.3s1.4 3.7 2.7 3.9 4.8-1.8 4.8-3.3c-.1-1.5-3-2.7-4.6-2.9m62.5-23.2c-1-.1-2.6.5-2.9 2.3s1.4 3.7 2.7 3.9 4.8-1.8 4.8-3.3c0-1.6-3-2.7-4.6-2.9m-59.2 165.3c-.8-.5-2.6-.5-3.5 1.2s.2 3 1.3 3.6 2.6.2 3.4-1.2c.7-1.4.3-2.9-1.2-3.6m18.3 8.3c-.8-.5-2.6-.5-3.5 1.2-.9 1.6.2 3 1.3 3.6s2.6.2 3.4-1.2c.7-1.3.3-2.8-1.2-3.6m-14.8 8.8c-.8-.5-2.6-.5-3.5 1.2-.9 1.6.2 3 1.3 3.6s2.6.2 3.4-1.2c.6-1.4.2-2.9-1.2-3.6m-14.8 7.6c-.8-.5-2.6-.5-3.5 1.2s.2 3 1.3 3.6 2.6.2 3.4-1.2c.7-1.3.3-2.8-1.2-3.6m18.3 8.4c-.8-.5-2.6-.5-3.5 1.2s.2 3 1.3 3.6 2.6.2 3.4-1.2c.7-1.4.2-2.8-1.2-3.6" /><path class="st0" d="M266.9 2263.8c2.4-4.1 1-8.7-3.5-11.1-1.9-1-5.2-1.3-7.9.3-.5-1-1.4-1.8-2.6-2.5-1.1-.6-2.8-.8-4.4-.3-.5-1.2-1.5-2.3-2.9-3.1-1.1-.6-3.1-.9-4.9-.1-.4-1.4-1.5-2.7-3.1-3.5-1.1-.6-3.1-.9-4.9-.1-.4-1.4-1.5-2.7-3.1-3.5-.9-.5-2.4-.8-3.9-.4-.3-2.4-1.9-4.7-4.6-6.1-2.6-1.4-8.2-1.5-11.1 3.6-1.8 3.3-1.1 6.3.7 8.4-1.2.5-2.3 1.5-3.1 2.9-.6 1.1-.8 2.8-.3 4.4-1.2.5-2.3 1.5-3.1 2.9-.6 1.1-.9 3.1-.1 4.9-1.4.4-2.7 1.5-3.5 3.1-.6 1.1-.9 3.1-.1 4.9-1.4.4-2.7 1.5-3.5 3.1-.6 1.1-.8 2.8-.3 4.4-1.2.5-2.3 1.5-3.1 2.9-.5.9-.8 2.4-.4 3.8-2.4.3-4.7 1.9-6.1 4.6-1.4 2.6-1.5 8.2 3.6 11.1 3.2 1.7 5.9 1.1 8-.4.7 1.1 1.8 2.1 2.9 2.6 1.4.8 3.1.8 4.6.1.6 1.6 1.9 2.8 3.3 3.6 1.4.7 3.1.8 4.6.1.6 1.6 1.9 2.8 3.3 3.6 1.3.7 2.8.7 4.2.2.6 1.4 1.9 2.5 3.1 3.1s2.5.7 3.8.4c.3 2.2 1.6 4.6 4.4 6.1 5.1 2.8 9.2-.5 11.1-4 1.3-2.4 1.1-5.3-.5-7.7 1.2-.7 2.1-1.8 2.6-2.9.7-1.3.7-2.8.2-4.2 1.4-.6 2.5-1.9 3.1-3.1.7-1.4.8-3.1.1-4.6 1.6-.6 2.8-1.9 3.6-3.3.7-1.4.8-3.1.1-4.6 1.6-.6 2.8-1.9 3.6-3.3.7-1.3.7-2.8.2-4.2 1.4-.6 2.5-1.9 3.1-3.1.7-1.3.8-2.9.2-4.3 2.5-.5 5-2 6.6-4.7M604 515.3c.8-.5 2.6-.5 3.5 1.2.9 1.6-.2 3-1.3 3.6s-2.6.2-3.4-1.2c-.7-1.3-.2-2.8 1.2-3.6m-18.3 8.4c.8-.5 2.6-.5 3.5 1.2.9 1.6-.2 3-1.3 3.6s-2.6.2-3.4-1.2c-.7-1.4-.2-2.9 1.2-3.6m14.9 8.7c.8-.5 2.6-.5 3.5 1.2.9 1.6-.2 3-1.3 3.6s-2.6.2-3.4-1.2c-.7-1.3-.3-2.8 1.2-3.6m14.7 7.7c.8-.5 2.6-.5 3.5 1.2.9 1.6-.2 3-1.3 3.6s-2.6.2-3.4-1.2c-.7-1.4-.2-2.8 1.2-3.6m-18.3 8.3c.8-.5 2.6-.5 3.5 1.2.9 1.6-.2 3-1.3 3.6s-2.6.2-3.4-1.2c-.6-1.3-.2-2.8 1.2-3.6" /><path class="st0" d="M561.9 523c-2.4-4.1-1-8.7 3.5-11.1 1.9-1 5.2-1.3 7.9.3.5-1 1.4-1.8 2.6-2.5 1.1-.6 2.8-.8 4.4-.3.5-1.2 1.5-2.3 2.9-3.1 1.1-.6 3.1-.9 4.9-.1.4-1.4 1.5-2.7 3.1-3.5 1.1-.6 3.1-.9 4.9-.1.4-1.4 1.5-2.7 3.1-3.5.9-.5 2.4-.8 3.8-.4.3-2.4 1.9-4.7 4.6-6.1 2.6-1.4 8.2-1.5 11.1 3.6 1.8 3.3 1.1 6.3-.7 8.4 1.2.5 2.3 1.5 3.1 2.9.6 1.1.8 2.8.3 4.4 1.2.5 2.3 1.5 3.1 2.9.6 1.1.9 3.1.1 4.9 1.4.4 2.7 1.5 3.5 3.1.6 1.1.9 3.1.1 4.9 1.4.4 2.7 1.5 3.5 3.1.6 1.1.8 2.8.3 4.4 1.2.5 2.3 1.5 3.1 2.9.5.9.8 2.4.4 3.9 2.4.3 4.7 1.9 6.1 4.6 1.4 2.6 1.5 8.2-3.6 11.1-3.2 1.7-5.9 1.1-8-.4-.7 1.1-1.8 2.1-2.9 2.6-1.4.7-3.1.8-4.6.1-.6 1.6-1.9 2.8-3.3 3.6-1.4.7-3.1.8-4.6.1-.6 1.6-1.9 2.8-3.3 3.6-1.3.7-2.8.7-4.2.2-.6 1.4-1.9 2.5-3.1 3.1s-2.5.7-3.8.4c-.3 2.2-1.6 4.6-4.4 6.1-5.1 2.8-9.2-.5-11.1-4-1.3-2.4-1.1-5.3.5-7.7-1.2-.7-2.1-1.8-2.6-2.9-.7-1.3-.7-2.8-.2-4.2-1.4-.6-2.5-1.9-3.1-3.1-.7-1.4-.8-3.1-.1-4.6-1.6-.6-2.8-1.9-3.6-3.3-.7-1.4-.8-3.1-.1-4.6-1.6-.6-2.8-1.9-3.6-3.3-.7-1.3-.7-2.8-.2-4.2-1.4-.6-2.5-1.9-3.1-3.1-.7-1.3-.8-2.9-.2-4.3-2.5-.6-5-2.1-6.5-4.8m-294.6 546.2c18.2 4.2 45-10.3 53.3-34.2 7.9-22.7-1.2-41.7-16.7-49-25.6-12-51.5 9.4-60 31.6-11.1 28.5 3.8 47 23.4 51.6M227.6 917c-2.3-2-4.9-3.6-7.6-4.9-25-11.4-52.5 7.6-58.2 29.1-5.6 21.3 4.2 40.9 19.5 47.7" /><path class="st0" d="M271 1060.3c14.8 3.4 36.6-8.4 43.3-27.8 6.4-18.4-1-33.9-13.6-39.8-20.8-9.8-41.9 7.7-48.8 25.7-8.9 23.1 3.2 38.2 19.1 41.9" /><path class="st0" d="M313.6 992.9c-15-19.2-30.7-30.3-42.9-33.2-8.3-2-17.5-2-27.8 6.4-21.7 17.8-27.3 53.2-11.1 78.2 3.7 5.8 12.9 15.2 23.7 20" /><path class="st0" d="M281.8 964.2c-13.7-16.9-27.9-26.7-39-29.4-8-1.9-16.8-2-26.8 6.3-21 17.4-26.4 52-10.7 76.4 3.4 5.3 11.4 13.8 21 18.7" /><path class="st0" d="M260.1 943c-12.8-14.9-25.9-24-36.3-26.5-8-1.9-16.8-2-26.8 6.3-21 17.4-26.4 52-10.7 76.4 2.9 4.5 9.8 11.3 17.5 16.2m46.1 25.5s20.7.3 27.8-22.9c2.4-7.9.8-19.7-6-23.3m-10.6-21.4c.2-.9 2.2-2.6 3.9-2.3s2.5 2.8 2.3 4-1.4 2.2-2.8 1.8-3.7-2-3.4-3.5" /><path class="st0" d="M246.7 948.2c.2-.9 2.2-2.6 3.9-2.3s2.5 2.8 2.3 4-1.4 2.2-2.8 1.8-3.6-2-3.4-3.5m-22.2 0c.2-.9 2.2-2.6 3.9-2.3s2.5 2.8 2.3 4-1.4 2.2-2.8 1.8c-1.3-.5-3.7-2-3.4-3.5m-12-23.1c.2-.9 2.2-2.6 3.9-2.3s2.5 2.8 2.3 4-1.4 2.2-2.8 1.8-3.7-2-3.4-3.5m-4.7-559.5s-1.9-7.5-9.8-8.4c-6.9-.7-10.2 3.6-11.1 5.1m37.1 3.6s-1.2-7.7-8.9-9.3c-5.1-1.1-8.5.9-10.3 2.6" /><path class="st0" d="M259.5 382.7s10.5-11.2 17.6.7c4.4 7.4 7.6 56.5 8.5 71.3.2 4.1-1 8.3-3.7 11.4-2.1 2.5-5.3 4.7-9.7 4.7-3.8 5.9-13.1 7.2-20.4 4.6-5.1 6-15.2 9.4-26.2.3-5.1 3.3-11 5.1-18.4 3.7-7.2-1.3-11.8-5-15.3-9.9-11.3 3.3-21.7-2.2-24.3-9.7-7.8-.2-16-4.8-17.4-11.6-6.3-2.5-7.6-9.4-7.7-14-.1-2.4.4-4.8 1.4-7 5.3-11.7 26.2-57 33.1-62.5 10.9-8.6 16.6 5.7 16.6 5.7" /><path class="st0" d="M248 373.1s4.5-6.3 12.2-4.3c6.7 1.8 8.2 7 8.5 8.8m-35.9-10.1s3.8-6.7 11.7-5.5c5.2.8 7.6 3.9 8.7 6.1m-32.2-8.9c2-.8 5.1-1.6 8.8-.9 4.3.8 7.1 2.5 8.8 4M173.4 390c2.2-4.6 6.5-12.3 11.5-14.1 6.5-2.3 13.1 2.9 14.4 8.1m-12.6 16.6s6.3-14.2 12.6-16.3c6.5-2.2 13.9 2.3 14.4 8.1m58 15.5c-.4-5.2-1.7-13.6-5.6-16.9-5.2-4.5-13.3-2-16.4 2.3m5.8 20.1s-.8-15.5-5.9-19.7c-5.3-4.4-13.8-2.8-16.4 2.3" /><path class="st0" d="M206.8 408s4.7-21.6 17.2-19.6c13.6 2.2 10.7 24.8 10.7 24.8m-68.4-7.3s-11.2 23.6-16.1 42.3m122.5-22.8s2 26-.1 45.3m-74.4-27.6s-4.1 14.7-6.3 26.4m38.5-29.3s-1.5 11.8-3.2 21.1M109.3 53.2S93.1 10 46.9 28.3C56.6 71.1 98 62 109.3 53.2" /><path class="st0" d="M109.3 53.2s-24.7-6.5-45.5-17.5m12.9 6.6s-7.5 3.2-10 5.4" /><path class="st0" d="M79.8 34.7s.5 6.4 1.4 8.9m6.2 3.3s-7.5 3.2-10 5.4m954.8 1303s-16.2-43.2-62.4-24.9c9.8 42.8 51.1 33.7 62.4 24.9" /><path class="st0" d="M1032.2 1355.3s-24.7-6.5-45.5-17.5m13 6.7s-7.5 3.2-10 5.4" /><path class="st0" d="M1002.8 1336.9s.5 6.4 1.4 8.9m6.2 3.3s-7.5 3.2-10 5.4M601.6 398s-13.2-44.2 34.7-57.5c18.1 40-20.4 57.7-34.7 57.5" /><path class="st0" d="M601.6 398s15.7-20.1 25.7-41.4m-6.3 13.1s7.9-2 11.2-1.8" /><path class="st0" d="M614 365.5s3.5 5.4 4.2 8m-2.9 6.3s7.9-2 11.2-1.8m-381 1375c2.5-14.5-6.5-37.6-13.8-44.1-9.2-8.2-27.7-3.9-41.5 9.9-4.2 4.2-11.9 15.2-3.7 28.4 1 1.6 2.3 3.2 3.8 4.7" /><path class="st0" d="M225.1 1721.2s-2.5-3.5-4.8-5.6m20.6 7.8c1.6-2.5 3.7-4.7 6.2-6.4 9.4-6.6 26.9-5.5 42.2 6.2 4.6 3.5 13.5 13.1 7 25.8-5.5 10.5-24.9 25-45.1 13.6-1.7-1-3.3-2-4.6-3.2" /><path class="st0" d="M285 1739.2s-2.1 3.4-4 5.5m-26-16.8s2.1-3.4 4.1-5.5m8.5 12.3s-2.4 3.7-3.3 5.6m-114.1-.7c4.3-11.7 18.5-17.9 38.7-19.9m-20.2 54.1c-5.8-4.3-10.4-8.6-13.7-12.6m158.1 68.2c-9.8-2-19.9-4.3-30.4-7-44.1-11.5-81.3-27.2-105.2-42.6m247.4 48.7c-3.4 1.9-7.4 3.5-12.1 4.7-17.2 4.7-42.6 4.9-73.2.7m-43-102c1 .2 2 .5 3 .7 99 24.4 144.5 58 136.7 83.2m-298.6 20c-3.3 15.9-5.6 17.2-6.5 26.5-1.8 18.4 53.9 50.7 126.3 67.2 76.2 17.4 131.7 15.6 139.4-1.9 3.3-7.5 10.6-34.2 10.6-34.2" /><path class="st0" d="M209.7 1901c12.6 4.1 27.3 8.2 44.4 12.1 118.5 26.9 147.7 0 147.7 0M134 1850.4s1 23.4 63.8 46.5" /><path class="st0" d="M361.9 1912.6c32.7-1.4 42.7-10.6 42.7-10.6m-189-15.7c12.1 4.1 26 8.2 42.1 12.2 40.7 10.2 70.8 13.8 92.7 14.1m-212.7-76.8s1.4 21.3 62.8 45.1m75.5-103.8c-4.3-1.4-12.7-.1-15.3 7.9-2.7 8 3.5 13 9.3 14.8s12.3-1.2 14.6-7.8c2.2-6.4-1.2-12.5-8.6-14.9m61.8 29.1c-1.6-.5-4.7 0-5.7 3s1.3 4.9 3.5 5.5 4.6-.5 5.5-2.9c.7-2.4-.5-4.7-3.3-5.6m-99.8-29.5c-1.6-.5-4.7 0-5.7 3s1.3 4.9 3.5 5.5c2.2.7 4.6-.5 5.5-2.9.7-2.4-.5-4.7-3.3-5.6m45.6-7.7s12.1-33.3 47.7-19.6c-7.1 33-38.9 26.3-47.7 19.6" /><path class="st0" d="M283.6 1769s18.9-5.2 34.8-13.8m-9.9 5.2s5.8 2.4 7.7 4.1" /><path class="st0" d="M306.1 1754.6s-.3 4.9-1 6.8m-4.7 2.6s5.8 2.4 7.7 4.1m-156-32.3s-9 18.9-17 51.1c-8.1 32.2-9.4 56.4-1.4 56.3 2.1 0 11.2-27.8 11.2-27.8s-2.2 31.2 27.4 41.8 36.8.5 36.8.5-18.3 43.6-7.7 47.9 18.6-38.1 18.6-38.1-.5 19.9 21.7 24.6c22.2 4.8 26.1-10.9 26.1-10.9s-1.4 10.7 7.4 13.6c9 2.9 11.9-10.4 11.9-10.4s36.9 44.6 64.6 15.4c-.8 11.1-2.7 20.3 2.9 22.2s14.7-35.3 14.7-35.3 19.8 14.2 38.1 6.7c-.2 8.3.7 14.6 2.6 13.2 10.4-7.5 27-95.5 27-95.5" /><path class="st0" d="M209.5 1754.4c-8.7-3.1-16.6-11.3-8.8-28.2 11.4-.5 18.3 5.5 20.6 13.4" /><path class="st0" d="M213.1 1745.7c-2.4-3.3-5-7.1-7.1-11.2m2.9 20c-6.5-3.6-16.6-5.9-28.4 4 9 14.7 21.9 12.3 29.7 7.4" /><path class="st0" d="M208.9 1760.7c-5 0-12-.2-18.6-1.3m37.4-20.4c-6.8-.1-18.2 5.5-18.6 18.8s10.6 18.1 19.6 18.2 18.7-7.4 17.6-18.2c-1.1-10.9-7-18.6-18.6-18.8" /><path class="st0" d="M231.6 1745.7s-3.1 2.2-1 6c1.6 2.9 4.7 2.7 6.7 1.4m156.3 43.8c7.9-1.8 15.6-8.2 10.5-23.8-9.9-1.6-16.5 3-19.3 9.6" /><path class="st0" d="M391.3 1788.9c2.4-2.6 5.1-5.7 7.3-9.1m-4.5 17.2c6-2.5 15.1-3.5 24.4 6.4-9.3 12-20.4 8.5-26.7 3.5" /><path class="st0" d="M393.5 1802.4c4.4.5 10.5 1 16.4.7m-30.6-21.5c6 .6 15.3 6.6 14.3 18.3-1 11.6-11.1 14.8-19 13.9s-15.6-8.3-13.5-17.7 7.9-15.5 18.2-14.5" /><path class="st0" d="M375.1 1787s2.5 2.2.3 5.3c-1.7 2.4-4.4 1.8-6 .6m3.8-11s-.4-12.5-15.7-12.4c-13.7.1-14.9 14.9-13.8 18.8 1 3.4 7.4 11.3 17 9.7m-89.9-83.9s-1-16.3 15.3-11.8c0 0 3.7 9.3-9.9 13.5" /><path class="st0" d="M268.3 1712.6s5.2-15.5-11.7-15.4c0 0-6 8 6 15.6m583 627.1c-1.8-1.8-3.4-4-4.8-6.4-7.3-13-2.8-27.3 11.5-34.8 8.4-4.4 25.9-4.4 34.6 11.8 2 3.7 3 7.3 3.2 10.6" /><path class="st0" d="M889.2 2315.3c4.1-1.7 4.7 3.8 4.7 3.8s.3 10.2.6 18c.3 8.1-11.1 14.6-16.3 17-6.4 2.9-16.5 5.5-22.3 1.3-5.1-3.8-14.9-13.4-14.9-13.4s-4-3.8 1.1-6.4" /><path class="st0" d="M891.3 2321.8s-5.9-2.6-5.8 4.6c0 0-7-1.9-6.4 6.6-4.5-3.2-8.4.7-8.6 3.8m-25.5 5s2.5-5.7 7.7-.7c0 0 3.3-6.5 9.2-.4.6-5.5 6.1-5.8 8.6-3.8l7.7 17.3m.9-21.2 5.3 17.7m1.1-24.3 4.6 19.8m-28.3-5.5 9.6 15.8m-18.8-15.4 11.6 16.6m8.8-52.7s-5.8-4.8-12.4-1.4m-12.6 13.7s-4.5 2-2.1 7.1m-208-936.3c1.8-1.8 3.4-4 4.8-6.4 7.3-13 2.8-27.3-11.5-34.8-8.4-4.4-25.9-4.4-34.6 11.8-2 3.7-3 7.3-3.2 10.6" /><path class="st0" d="M594.3 1363.6c-4.1-1.7-4.7 3.8-4.7 3.8s-.3 10.2-.6 18c-.3 8.1 11.1 14.6 16.3 17 6.4 2.9 16.5 5.5 22.3 1.3 5.1-3.8 14.9-13.4 14.9-13.4s4-3.8-1.1-6.4" /><path class="st0" d="M592.2 1370.1s5.9-2.6 5.8 4.6c0 0 7-1.9 6.4 6.6 4.5-3.2 8.4.7 8.6 3.8m25.5 4.9s-2.5-5.7-7.7-.7c0 0-3.3-6.5-9.2-.4-.6-5.5-6.1-5.8-8.6-3.8l-7.7 17.3m-.9-21.1-5.3 17.7m-1.1-24.3-4.6 19.8m28.3-5.5-9.6 15.8m18.8-15.4-11.6 16.6m-8.8-52.8s5.8-4.8 12.4-1.4m12.6 13.8s4.5 2 2.1 7.1M156.8 611.9c-1.6 7.7-19.6 10.3-43.2 6.6-22.5-3.5-39.3-11.5-39.7-17.8m2.7 81.5c-4.4-2.2-8.1-4.5-10.7-6.7m49.1 16c-3.7-.2-7.6-.5-11.7-1.2-6.8-1.1-13.2-2.8-18.9-4.9m57.4 1.8c-3.5 1.8-8.2 3.2-13.9 3.9m18.6-45.1c-1.4 6.8-18.4 10-39.3 6.7-19.8-3.1-33.5-11-33.9-16.6m15.9-11.7c-3.8-1.5-7-3.1-9.4-4.8m63.2 10.9c-7.1 1.9-18 1.9-31.3-.2-4.5-.7-8.7-1.6-12.5-2.6m5.2 115.6c18.8 4.2 27.7 10.7 26.5 16.7-1.5 7.2-18.3 9.6-40.4 6.1-21-3.3-36.7-10.8-37.2-16.7-.6-8.6 14-10.7 31.5-9.2" /><path class="st0" d="M74 599.7s2 16.6-.3 32.1c-2.8 18.9-11.9 22.9-15.3 46.3s16.8 36 38.6 39.4m59.7-104.9s-7.3 15.2-9.9 30.6c-3.1 18.8 4.4 25.4.5 48.7s-27 29.2-48.8 25.7" /><path class="st0" d="M74.5 749.1s11.7-5.1 13.6-15.2-7.9-21-7.9-21m31.4 42s-9.6-8.4-8.3-18.6c1.2-10.2 14-17.5 14-17.5" /><path class="st0" d="M109.9 726.7s24.2 5.5 37.8 2.9 17.9-23.3 14.8-32.3c-2.2-6.3-9.8-11-13.8-13.1" /><path class="st0" d="M147.1 697.2c1.6 1.3 4 3.7 4.6 6.9.7 3.3-.8 9-3.6 11.6-5.1 4.9-21.4 3-27.8 2.1M73.9 600.6s-.8-21.6 41.2-15.1c42 6.4 42.2 19 41.7 26.4" /><path class="st0" d="M94.3 592s1.2-1.1 3.3-1.1m10.5 5.5s1.5-.5 3.5.3m5.8-4.7s1.5-.3 3.4.8m13.5 5.6s1.5-.2 3.4.9m802.2-241.4c7.2-11.1 7.8-27.6-6.5-36.1-14.9-35.7-53-3.2-44.5-38.3 1.3-5.3-12.2 1.7-24.7 16.7-6 7.2-14.1 14.4-12.3 35.4.1 1.3-.1 2.7-.1 4.1-5.8 6.9-6.2 17.9-1.2 26.1 4.9 8.2 11.5 7.7 11.5 7.7" /><path class="st0" d="M939.9 357.9s-8.8-3.9-24.3 8.1c-15.6 12.1-43.3 19.4-53.6 7.6" /><path class="st0" d="M939.9 357.9s2.5 31.7 2.4 39c-.1 6.7-6.3 11.1-12.4 14.5-9.7 5.4-18.7 8.3-30.1 8.5-11.4.3-14.7-2.9-17.5-6.5-2.2-2.7-18.8-35.9-20.3-39.8m70.5 1.1 4.4 31.6M879.4 391l13 28.5m25-34.6 7.7 28.9M897.3 391l10.4 27.6m25.7-96.8c3.9 11.9-21.4 32-46.9 13m-34.8 5s1.6 25.7 37.2 24m-23.6-64.9s-3.4 11.9 7.3 22m-540.8-24 2.5 8.1c.6 1.9 2.1 3.4 4 4l8.1 2.5c2.2.7 2.6 3.6.8 4.9l-6.9 4.9c-1.6 1.1-2.6 3-2.5 5l.1 8.5c0 2.3-2.6 3.6-4.4 2.2l-6.8-5.1c-1.6-1.2-3.7-1.5-5.6-.9l-8.1 2.7c-2.2.7-4.2-1.3-3.5-3.5l2.7-8.1c.6-1.9.3-4-.9-5.6l-5.1-6.8c-1.4-1.8 0-4.4 2.2-4.4l8.5.1c2 0 3.9-.9 5-2.6l4.9-6.9c1.4-1.6 4.3-1.2 5 1M60.7 2358.2l2.5 8.1c.6 1.9 2.1 3.4 4 4l8.1 2.5c2.2.7 2.6 3.6.8 4.9l-6.9 4.9c-1.6 1.1-2.6 3-2.5 5l.1 8.5c0 2.3-2.6 3.6-4.4 2.2l-6.8-5.1c-1.6-1.2-3.7-1.5-5.6-.9l-8.1 2.7c-2.2.7-4.2-1.3-3.5-3.5l2.7-8.1c.6-1.9.3-4-.9-5.6l-5.1-6.8c-1.4-1.8 0-4.4 2.2-4.4l8.5.1c2 0 3.9-.9 5-2.6l4.9-6.9c1.4-1.6 4.3-1.1 5 1m645.2-1198.6 2.5 8.1c.6 1.9 2.1 3.4 4 4l8.1 2.5c2.2.7 2.6 3.6.8 4.9l-6.9 4.9c-1.6 1.1-2.6 3-2.5 5l.1 8.5c0 2.3-2.6 3.6-4.4 2.2l-6.8-5.1c-1.6-1.2-3.7-1.5-5.6-.9l-8.1 2.7c-2.2.7-4.2-1.3-3.5-3.5l2.7-8.1c.6-1.9.3-4-.9-5.6l-5.1-6.8c-1.4-1.8 0-4.4 2.2-4.4l8.5.1c2 0 3.9-.9 5-2.6l4.9-6.9c1.4-1.6 4.3-1.2 5 1m-173.4 731.6 6.4 5.6c1.5 1.3 3.5 1.8 5.5 1.3l8.3-2.1c2.2-.5 4.1 1.7 3.2 3.8l-3.4 7.8c-.8 1.8-.6 3.9.4 5.6l4.5 7.2c1.2 1.9-.3 4.4-2.6 4.2l-8.5-.8c-2-.2-3.9.6-5.2 2.1l-5.5 6.5c-1.5 1.7-4.3 1.1-4.8-1.2l-1.8-8.3c-.4-1.9-1.8-3.5-3.6-4.3l-7.9-3.2c-2.1-.9-2.3-3.8-.4-4.9l7.3-4.3c1.7-1 2.8-2.8 3-4.8l.6-8.5c.1-2.1 2.8-3.2 4.5-1.7m580.7 194.6 6.4 5.6c1.5 1.3 3.5 1.8 5.5 1.3l8.3-2.1c2.2-.5 4.1 1.7 3.2 3.8l-3.4 7.8c-.8 1.8-.6 3.9.4 5.6l4.5 7.2c1.2 1.9-.3 4.4-2.6 4.2l-8.5-.8c-2-.2-3.9.6-5.2 2.1l-5.5 6.5c-1.5 1.7-4.3 1.1-4.8-1.2l-1.8-8.3c-.4-1.9-1.8-3.5-3.6-4.3l-7.9-3.2c-2.1-.9-2.3-3.8-.4-4.9l7.3-4.3c1.7-1 2.8-2.8 3-4.8l.6-8.5c.1-2.1 2.8-3.2 4.5-1.7m-1125 0 6.4 5.6c1.5 1.3 3.5 1.8 5.5 1.3l8.3-2.1c2.2-.5 4.1 1.7 3.2 3.8l-3.4 7.8c-.8 1.8-.6 3.9.4 5.6l4.5 7.2c1.2 1.9-.3 4.4-2.6 4.2l-8.5-.8c-2-.2-3.9.6-5.2 2.1l-5.5 6.5c-1.5 1.7-4.3 1.1-4.8-1.2l-1.8-8.3c-.4-1.9-1.8-3.5-3.6-4.3l-7.9-3.2c-2.1-.9-2.3-3.8-.4-4.9l7.3-4.3c1.7-1 2.8-2.8 3-4.8l.6-8.5c.1-2.1 2.8-3.2 4.5-1.7M329.6 597.7s-27.9-8.1-45.1-11.7c-2.1-.4-3.5-2.2-3.5-4.6s-.7-23.9 0-32.5c.3-3.1 2.9-5.4 5.9-4.6 0 0 36.2 9.4 45.1 11.7 2.1.5 3.5 2.4 3.5 4.6 0 0 .5 24.3 0 32.5-.1 3.1-2.9 5.3-5.9 4.6M359.8 495c1-.6 2.1-.7 3.4-.4 0 0 36.2 9.4 45.1 11.7 2.1.5 3.5 2.4 3.5 4.6 0 0 .5 24.3 0 32.5-.1 1.4-.7 2.6-1.6 3.4" /><path class="st0" d="M283.4 544.8s.4-2.5 14.7-10.4c20.8-11.4 46.6-28 51-31.3s11.1-8.3 11.1-8.3M333.4 597s31.6-21.4 42-27.6c10.4-6.3 32.6-20.4 35-22.8m-14.7-29.2c3.6-3.1 6.8-5.9 9-7.9m-54 37.7c8-4.4 17.2-9.7 24.2-14.1 4.8-3 9.8-6.8 14.5-10.5m-50.8 31.2c2.1-1.1 4.7-2.5 7.6-4.1m-65.5 25.1s13.6 1.9 24.6 5.2 30.4 6.7 30.4 6.7m-54.9-22.3s2.3-4.8 9.3-4.2 7.6 8.3 7.6 8.3 1.6-6.4 9.7-4.6 8.5 8.8 8.5 8.8 2.7-6.3 11.3-4.4 8.1 9.3 8.1 9.3m49.6-69.1s-20.9-6.5-27.6 0c-7.7 7.5 6.5 17.3-3.6 23.4-10.3 6.2-22.8-6.3-37.6.3-8.7 3.9-3.3 13.5-3.3 13.5m713.1 742.4s24.5-7.1 39.5-10.2c1.8-.4 3.1-1.9 3.1-4s.6-20.9 0-28.5c-.2-2.7-2.6-4.7-5.2-4 0 0-31.7 8.2-39.5 10.2-1.8.5-3.1 2.1-3.1 4 0 0-.4 21.3 0 28.5.2 2.7 2.6 4.7 5.2 4m-26.4-89.9c-.9-.5-1.9-.7-3-.4 0 0-31.7 8.2-39.5 10.2-1.8.5-3.1 2.1-3.1 4 0 0-.4 21.3 0 28.5.1 1.2.6 2.3 1.4 3" /><path class="st0" d="M1066.4 1241.8s-.3-2.2-12.9-9.1c-18.2-10-40.8-24.5-44.7-27.4s-9.7-7.2-9.7-7.2m23.5 89.4s-27.6-18.7-36.8-24.2c-9.1-5.5-28.5-17.8-30.7-19.9m13-25.6c-2.7-2.3-5.1-4.4-6.9-6m45.3 31.6c-6.8-3.8-14.4-8.1-20.2-11.8-4.2-2.6-8.6-5.9-12.7-9.2m43.4 26.7c-1.6-.9-3.5-1.9-5.6-3m57.1 6.2s-2.2-4.1-8.3-3.3c-6.2.8-6.3 7.6-6.3 7.6s-1.7-5.5-8.7-3.7-7.1 8-7.1 8-2.6-5.4-10-3.4-7.4 8.4-7.4 8.4m.4 11.8s2.2 4.1 8.4 3.2c6.2-.8 6.3-7.6 6.3-7.6s1.7 5.5 8.7 3.6 7-8.1 7-8.1 2.6 5.4 10 3.4c7.4-2.1 7.2-8.5 7.2-8.5m-33.3-34.8s-9.1 2.6-14.2 3.4-15.5 3.6-15.5 3.6m18.2-14s-9.1 2.6-14.2 3.4-15.5 3.6-15.5 3.6m18.1-13.8s-9.1 2.6-14.2 3.4-15.5 3.6-15.5 3.6m-686 340.7s20.4-5.9 33-8.5c1.5-.3 2.6-1.6 2.6-3.3s.5-17.4 0-23.8c-.2-2.3-2.1-3.9-4.3-3.3l-33 8.5c-1.5.4-2.6 1.8-2.6 3.3 0 0-.3 17.8 0 23.8.1 2.2 2.1 3.9 4.3 3.3m-22.1-75c-.7-.4-1.6-.5-2.5-.3l-33 8.5c-1.5.4-2.6 1.8-2.6 3.3 0 0-.3 17.8 0 23.8.1 1 .5 1.9 1.1 2.5" /><path class="st0" d="M330.3 1524.2s-.3-1.9-10.8-7.6c-15.2-8.3-34.1-20.5-37.3-22.9s-8.1-6-8.1-6m19.7 74.7s-23.1-15.6-30.7-20.2-23.8-14.9-25.6-16.6m10.8-21.4c-1.9-1.6-3.5-3-4.9-4.3m35.9 25c-5.4-3-11.3-6.4-15.8-9.3-3.5-2.2-7.2-4.9-10.6-7.7m35.8 22.2c-1.2-.7-2.7-1.4-4.2-2.3m47.8 18.3s-10 1.4-18 3.8-22.2 4.9-22.2 4.9m40.2-20.8s-9.9 1.4-17.9 3.8-22.2 4.9-22.2 4.9m272.7 10.5s28.8 89 31.4 96.6 10.6 8.2 12.6-2.5 17.8-97.2 17.8-97.2m-56.6 19.2c-.4 5.8-1.3 21.4-1.3 26.4.1 10.3 10.9 9.8 9.5-.6m46-118.8c.7-2.9.9-6 .5-9.2-2.1-18.6-12.2-31.8-32.2-32.1-11.7-.1-31.2 9.6-31.7 32.5-.5 22 17.1 30.4 32.3 31.1" /><path class="st0" d="M562.9 1479.8c-11.7 1.5-28 11.4-28.5 32.3-.5 22.8 18.4 31 33.9 31.1 10.6 0 21.7-6 27-15.7" /><path class="st0" d="M620.4 1476.9c11.6-1.3 32 6.5 34.8 29.2s-15.2 32.7-30.6 34.3-33.2-9.6-33-28.3c.1-18.8 8.9-32.9 28.8-35.2m-59.2-13.6s-.8 10.5 7.3 12.8c9.9 2.8 15.3-4.3 15.3-4.3s.6 7.3 8.5 6.9 9.1-6.9 9.1-6.9 8.5 3.6 14.8 1.3c6.9-2.5 8.3-8.7 7.7-11.8" /><path class="st0" d="M624.2 1498.7s1.6 8.2 7.6 8.5c7.3.4 9.5-6 9.5-6s1.9 5.4 7.2 3.7 4.8-6.9 4.8-6.9m-117.8 23.8s2.7 8.1 8.7 8.4c7.3.4 9.5-6 9.5-6s2 5.3 6 4.8c4.2-.5 4.8-5.7 4.8-5.7m-13.6 16.1s1.2 13.3 7.8 14.1 9.6-3.6 9.6-3.6 5 9.3 17 9.2 13.8-12.7 13.8-12.7-2.6 26.6 4.9 26.5c7.3-.1 1.3-28.6 1.3-28.6s5 9.8 14.4 8.5c9.5-1.2 9-8.5 9-8.5s-.4 6.3 2.2 6.9c2.5.6 4.4-13.5 4.4-13.5M606 1520s1.1 7.8 7.1 7.5c5.5-.3 5.2-6.1 5.2-6.1m-45 57.8c1.7 5.1 36.3 14 48.5-2.4m-33.9 47.4c.9 3.2 19.2 8.7 25.5-1.3m-21.5 13.1c4.7 2.1 13.4 3.4 19.1-.4m211.4-238.4c-20.9-6-76.3-18.1-87.8-20.4-6.7-1.3-14.3-4.7-19.3 2.9-3.5 5.4-3.6 23.4-2.5 33.6 2.8 24.8 24.5 79.4 87 95.3 66.3 16.9 99.7-17.7 114.9-45.9 5.5-10.2 9.4-22.3 9.9-27.9.7-8.2-7.5-9.6-15.6-12.2-13.6-4.3-64.9-19.2-86.6-25.4" /><path class="st0" d="M736.2 1380.1s-6.7 56.8 38.6 87.5c45.2 30.7 79.4 20 99.6 5.8 22.1-15.6 34.6-50.7 34.6-50.7" /><path class="st0" d="M723.2 1374.9s-16.6 69.3 41 108.2c48.5 32.8 89.9 22.4 113 9.2 31.6-18 42.5-65.7 42.5-65.7" /><path class="st0" d="M823.6 1408.2s-7.4 5.1-6.4 9.5c.9 3.7 5.5 3.4 7 1.4 2.7-3.4-.6-10.9-.6-10.9m-50.7 25s-8.7 1.8-9.5 6.3c-.7 3.8 3.8 5.3 5.9 4 3.8-2.2 3.6-10.3 3.6-10.3m69.3-7.6s-5.7 6.9-3.5 10.8c1.9 3.4 6.3 1.7 7.2-.6 1.5-4-3.7-10.2-3.7-10.2m-35.7 28.6s-7.1 5.5-5.8 9.8c1.1 3.7 5.7 3.1 7.1 1 2.4-3.5-1.3-10.8-1.3-10.8m-17-48.6s-8.4 3-8.6 7.5c-.1 3.8 4.5 4.7 6.4 3.2 3.5-2.7 2.2-10.7 2.2-10.7m87.7 20.1s-5.5 7.1-3.2 10.9c2 3.3 6.3 1.5 7.1-.8 1.5-4-3.9-10.1-3.9-10.1m-17.7 28.4s-5.5 7.1-3.2 10.9c2 3.3 6.3 1.5 7.1-.8 1.5-4-3.9-10.1-3.9-10.1m-90.1-58.9s-8.7 2-9.4 6.4c-.6 3.8 3.9 5.2 6 3.9 3.8-2.2 3.4-10.3 3.4-10.3m-346.8 696.6s-39 8.1-46.9-34c35.7-12.7 48.2 21.7 46.9 34" /><path class="st0" d="M422.6 2091.8s-16.1-15-33.7-25.2m10.8 6.5s-1.1-7-.7-9.8" /><path class="st0" d="M395.6 2078.8s4.9-2.6 7.1-3.1m5.3 3s-1.1-7-.7-9.8m-6.8 53.4s8.1-35.7 40.9-32.8 39.7 33.4 34.5 52.4-21.6 42-59.3 44.9c-3.2 1-5.7 2.5-7.3 3.5-1.2.8-2.7.9-4 .3-1.9-.9-4.8-2.3-8-3.5-5.5-2-42-19.9-38-55.8 3.4-30.6 15-42.4 30.5-46.2" /><path class="st0" d="M421.4 2091.3c2.1-7.1 8.5-14 8.5-14s5-1.2 4.4 2.7c-1.7 1.3-5.3 5-8.5 11.4m13.3 4.8s12.6.5 19 6.9m-27.2-6.9s-3 .2-5.1 2.1m-38.1-6.9s-3 .2-5.1 2.1m10.3-1247.3s39.7 2.6 41.8-40.2c-37.2-7.6-44.7 28.2-41.8 40.2" /><path class="st0" d="M392.9 846.2s13.9-17.1 29.9-29.6m-9.8 7.8s.1-7-.7-9.8" /><path class="st0" d="M417.9 829.5s-5.2-1.9-7.5-2m-4.8 3.7s.1-7-.7-9.8m-23.7 19.9c-3.3.3-6.9.6-10.6.9-32.8 2.9-39.7 33.4-34.5 52.4s15.3 40.1 53 43c32.3 0 61.1-17.4 60.8-53.3-.3-30.8-12.2-42.8-27.6-46.6" /><path class="st0" d="M394.3 853c-2.1-11.3-9.7-22.9-9.7-22.9s-5.9-1.6-6.3 3.9c1.7 2.1 5.6 10.3 8.8 20.4M348 864s-6 11.1-3.8 19.8m8-25.3s1.6-2.6 4.1-3.6m69-7.8s3 .2 5.1 2.1" /><path class="st0" d="M373.9 848.5s-1.8 4.2 6.3 5.8c8.2 1.7 24.4-.8 29.4-2.9s2.5-4.4 2.5-4.4m464.4-173.4s-13.5 12-10.4 20.5c2.7 7.3 12 5.4 14.5 1.1 4.5-7.5-4.1-21.6-4.1-21.6m62.4-551.8s-13.5 12-10.4 20.5c2.7 7.3 12 5.4 14.5 1.1 4.5-7.6-4.1-21.6-4.1-21.6M289 1243.3s-15.2 9.7-13.5 18.7c1.5 7.6 11 7.2 14.1 3.4 5.6-6.9-.6-22.1-.6-22.1m223.9 407.6s13.5 12 10.4 20.5c-2.7 7.3-12 5.4-14.5 1.1-4.4-7.5 4.1-21.6 4.1-21.6M751 2405.3s13.5 12 10.4 20.5c-2.7 7.3-12 5.4-14.5 1.1-4.4-7.6 4.1-21.6 4.1-21.6m-599.8-233.6s13.5 12 10.4 20.5c-2.7 7.3-12 5.4-14.5 1.1-4.4-7.6 4.1-21.6 4.1-21.6m536.6-80.5s-15.4 9.3-13.9 18.3c1.3 7.6 10.8 7.5 14 3.7 5.7-6.6-.1-22-.1-22m380.4-172.8s15.4 9.3 13.9 18.3c-1.3 7.6-10.8 7.5-14 3.7-5.7-6.6.1-22 .1-22M561.4 736.2s11.1 14.2 6.5 22.1c-3.9 6.7-12.7 3.1-14.4-1.5-3-8.3 7.9-20.6 7.9-20.6M940.6 997s11.1 14.2 6.5 22.1c-3.9 6.7-12.7 3.1-14.4-1.5-3.1-8.3 7.9-20.6 7.9-20.6M221.3 656.4s11.1 14.2 6.5 22.1c-3.9 6.7-12.7 3.1-14.4-1.5-3-8.3 7.9-20.6 7.9-20.6M668 1101.3s4.4 17.5-3 22.8c-6.3 4.5-12.9-2.3-12.6-7.2.6-8.8 15.6-15.6 15.6-15.6m-161.9 331.4s-4.4 17.5 3 22.8c6.3 4.5 12.9-2.3 12.6-7.2-.6-8.8-15.6-15.6-15.6-15.6M342.7 394.6s-3 17.8 4.8 22.5c6.6 4 12.7-3.3 12-8.2-1.3-8.6-16.8-14.3-16.8-14.3M71.9 1011.8c-8.7 1.8-15.2 7.5-16.6 17.4-1.1 7.6 5.7 19.5 16.9 21.1 14.8 2.1 23-6.9 24.4-16.9s-5.5-21.9-17.8-22.2" /><path class="st0" d="M67.7 1018.8s3.5 2.9 7.4 2.5c4-.5 6.2-1.9 7.3-4.1m28-11.3c-5.3 7.2-6.2 15.8-.6 24.1 4.3 6.4 17.3 10.6 26.7 4.2 12.3-8.4 12.4-20.6 6.7-29s-18.8-12.5-28.1-4.5" /><path class="st0" d="M112 1013.9s4.5-.2 7.2-3.2c2.6-3 3.3-5.6 2.6-7.9" /><path class="st0" d="M108.6 964.7s1.7-5-2.4-4.6c-2.5.3-7.6 7.7-22.4 12.4s-22.3 1.3-22.3 1.3c-1.8-1-6.9 2.9-2.6 6.2 3.5 2.6 11.9 2.5 20.7.2-8.9 14.8-7.5 39.8-7.5 39.8l5.2.1c.2-3.1-3.5-20 10.5-42 .2-.3.2-.5.3-.7 2.1-.9 4.3-2 6.3-3.1 1.6 17.8 21.6 37.5 21.6 37.5l3.9-3.4c-1.9-2.4-15.7-12.2-20.3-37.3 5.4-3.4 9-6.4 9-6.4m454.9 821.6c8.7 1.8 15.2 7.5 16.6 17.4 1.1 7.6-5.7 19.5-16.9 21.1-14.8 2.1-23-6.9-24.4-16.9s5.5-21.9 17.8-22.2" /><path class="st0" d="M567.6 1793.3s-3.5 2.9-7.4 2.5c-4-.5-6.2-1.9-7.3-4.1m-28-11.3c5.3 7.2 6.2 15.8.6 24.1-4.3 6.4-17.3 10.6-26.7 4.2-12.3-8.4-12.4-20.6-6.7-29s18.8-12.5 28.1-4.5" /><path class="st0" d="M523.3 1788.4s-4.5-.2-7.2-3.2c-2.6-3-3.3-5.6-2.6-7.9" /><path class="st0" d="M526.7 1739.2s-1.7-5 2.4-4.6c2.5.3 7.6 7.7 22.4 12.4s22.3 1.3 22.3 1.3c1.8-1 6.9 2.9 2.6 6.2-3.5 2.6-11.9 2.5-20.7.2 8.9 14.8 7.5 39.8 7.5 39.8l-5.2.1c-.2-3.1 3.5-20-10.5-42-.2-.3-.2-.5-.3-.7-2.1-.9-4.3-2-6.3-3.1-1.6 17.8-21.6 37.5-21.6 37.5l-3.9-3.4c1.9-2.4 15.7-12.2 20.3-37.3-5.3-3.4-9-6.4-9-6.4m304-1598c30.7 8.7 44.5 20.7 41.5 31-3.4 11.7-28.2 14.4-59.6 7-29.9-7-51.3-20.4-50.9-30.1.6-16 28.3-17 57.3-10.8 0 .1 8.4 2 11.7 2.9" /><path class="st0" d="M822.2 174.6c28.2 8 40.9 19 38.1 28.4-3.1 10.7-25.9 13.2-54.8 6.4-27.4-6.4-47.1-18.7-46.8-27.6.6-14.6 26-15.5 52.6-9.9.1.1 7.9 1.8 10.9 2.7" /><path class="st0" d="M776.2 176.5c-4.1-2.2-7.5-4.5-10.2-6.8m92.4 21.3c-10.8 3.2-28.1 2.6-48.1-2.1-9.6-2.3-18.4-5.2-25.8-8.4" /><path class="st0" d="m761.7 148-11.6 115.3c-1.2 10.3 13.8 22.5 35.9 27 23.2 4.8 39.1 2.3 44.6-10.5l41.2-105.4" /><path class="st0" d="M807.1 276.8s4-41.4-40.7-45c-9.1 38.6 28.1 47.6 40.7 45" /><path class="st0" d="M807.1 276.8s-17.4-15.1-30-32.2m7.9 10.5s-7.4-.4-10.2.4" /><path class="st0" d="M790.5 250.1s-2.2 5.4-2.4 7.8m3.7 5.1s-7.4-.4-10.2.4m12.5-22.7c5.8-9.6 16.8-18.6 37.7-18.5 3.9 25.6-10.9 37-25.1 40.9" /><path class="st0" d="M802.2 251.8c5.7-5 12.2-11.2 17.9-17.9m-8.7 9.9s7.4.2 10.2 1.2" /><path class="st0" d="M806.3 238.4s1.7 5.6 1.7 7.9m-4.1 4.9s7.4.2 10.2 1.2M102.1 869c-7.6-4.6-24.8-3.9-35.8 14.9s-2.5 33 7.6 39 26.9 1.6 34.3-14.7 6.8-31.3-6.1-39.2" /><path class="st0" d="M93.7 884.1c-2.8-1.7-9.1-1.4-13.2 5.5s-.9 12.1 2.8 14.3 9.9.6 12.6-5.4 2.5-11.5-2.2-14.4" /><path class="st0" d="M89.8 866.8s1.6 11.4-2 16.8m20.9-7.2s-7.9 4-11.8 10.1m-33.5 5.8c3.5-.2 10.9-.1 14.8 2.8m-6-18.5c1.3 2.5 4.5 7.8 9 10.9m23.5 25.1c-1.9-2.9-6.4-8.9-11-10.3m18.2-6.4c-2.8.4-9 1-14.1-.8m-13.2 28.8s-.7-11.8 2.8-18.5m-21.7 8.9s8.6-5.3 13.1-12.6m726.1 1152.8c-4.6 5.6-6 19.8 8.2 30.9s26.7 5.7 32.7-1.8 4.3-21.8-8.2-29.6c-12.5-7.9-24.8-9.2-32.7.5" /><path class="st0" d="M816.3 2063c-1.7 2.1-2.2 7.3 3 11.3 5.2 4.1 9.8 2.1 12-.7s1.6-8-3-10.9-9.1-3.2-12 .3" /><path class="st0" d="M801.7 2064.2s9.5-.1 13.5 3.5m-3.5-17.8s2.4 6.9 6.9 10.8m1 28c.3-2.8 1.1-8.9 3.9-11.8m-15.7 2.8c2.2-.8 6.9-2.8 9.9-6.1m23.1-16.4c-2.6 1.2-8 4.2-9.7 7.8m-3.2-15.5c0 2.3-.2 7.4-2.2 11.4m22.1 14s-9.7-.7-14.8-4.4m4.8 18.7s-3.4-7.6-8.9-12.1m22-2002c4.1 7.9 19.2 16.2 38.4 5.8s19.2-27 13.7-37.3c-5.5-10.4-22.2-15.3-36.9-5.1-14.8 10.1-22.1 23.1-15.2 36.6" /><path class="st0" d="M865.9 66.6c1.5 2.9 7.1 6 14.1 2.1 7-3.8 7.1-9.9 5-13.7-2-3.8-8.1-5.6-13.6-1.9-5.3 3.7-8 8.5-5.5 13.5" /><path class="st0" d="M860.3 83.4s4.5-10.6 10.4-13.3m-21.6-4.7s8.9.7 15.4-2.5m31.6 12.4c-3-1.7-9.4-5.6-11.2-10m-4.5 18.8c.2-2.8.2-9-2-14m-7.1-33.6c.1 3.5.8 10.9 4 14.5m-18.8-3.9c2.6 1.1 8.2 3.8 11.6 8m26.2-17.9s-5.5 10.5-12 14.4m23.2 3.6s-10.1.1-17.8 4M408.8 29.3c-3.9 3.2-11.4 11.8-5.7 23.7 4.8 9.9 20.4 20.1 39.8 19.4s9.9-39 1.9-47.7c-7-7.8-23-5.8-36 4.6" /><path class="st0" d="M407.8 30.2s-15 .3-15-8.3 17-1.5 17-1.5-10.7-12.7-2.2-15.1c7-2 8.8 12.1 8.8 12.1s9.1-13.4 14.4-9.1-5 12.6-5 12.6m-13.1 23.3s1.8 3.2 3.5 5.2m22-14.9s-1.8-3.2-3.5-5.1m-7.2 11.1s2.1 3.4 2.9 5.3m-.4 12.3c1.7 2.1 4.3 3.5 4.3 3.5m323.5 1048.3c-19.8-47.7-52.3-126.8-55.9-135.4-4.9-11.7 21.2-22.3 26.1-10.6 3.5 8.3 33.9 85.6 52.7 133.6 0 0 3.5 10.4-6.4 16.4-8.7 5.2-15.4-1.1-16.5-4" /><path class="st0" d="M728.5 965.3c1.3 13.1-19.5 21-26.7 9.2m34 9.1s-.1 20.4-17.4 31.1m27.3-5.9s-2.7 18-19.2 25.2m28.6-1.6s-1.6 14.4-19.3 24.3m28.5-.7s-3.6 15.4-19.5 22.7m28.4-.4s-2.6 14.2-18.5 21.6" /><ellipse class="st0" cx="714.5" cy="968.7" rx="6.3" ry="3.4" transform="rotate(-20.829 714.46 968.682)"/><path class="st0" d="M174 2433c36.4-17.3 96.6-46.1 103.2-49.2 9-4.2-.6-24-9.6-19.8-6.3 3-64.4 31.9-100.3 49.8 0 0-7.5 4.2-4.8 12.8 2.2 7.6 9.3 7.4 11.5 6.4" /><path class="st0" d="M266.5 2364.5c-7.6 6.9.3 22.3 10.6 19.3m-24.4-12.5s-10.6 11.9-6.2 27.1m-12.7-17.7s-7.8 11.9-2 24.6m-15.7-15.8s-6.6 9.2-1.5 24.2m-16.2-15.4s-5.9 10.8-.6 23.4m-16.2-15.1s-5.9 9.6-.6 22.2" /><ellipse class="st0" cx="272.8" cy="2373.8" rx="2.7" ry="4.9" transform="rotate(-27.098 272.77 2373.657)"/><path class="st0" d="M22.7 1301.2c24.7-1.7 46.1.2 55.6 7.3 7.5 5.7 14.2 17.3 4.7 22.8-2.8 1.6-1.7 9.9-5.2 12.2-16.4 10.6-43.1 14.4-57.8 15.4s-43.4-.5-53.9-8.4c-2.8-2.1-4-9.5-5.7-13.6-13.4-1.2-4-18.2 15.7-25.5 13.8-5 34.3-9.4 46.6-10.2" /><path class="st0" d="M83.1 1330.5c-6.7.4-8.4-8.4-8.4-8.4s1.2 11.8-12 16.2c-15.1 4.9-19.8-5.6-19.8-5.6s5.4 13.2-3.6 14.5c-7.1 1-7-12.9-7-12.9s-5.1 14.4-34.3 12.8c-13.8-.7-20-14.4-20-14.4s2.7 13.1-4.4 12.7-8.4-14.8-8.4-14.8-.4 7.8-7.9 5.9m1190.5-35.3c24.7-1.7 46.1.2 55.6 7.3 7.5 5.7 14.2 17.3 4.7 22.8-2.8 1.6-1.7 9.9-5.2 12.2-16.4 10.6-43.1 14.4-57.8 15.4s-43.4-.5-53.9-8.4c-2.8-2.1-4-9.5-5.7-13.6-13.4-1.2-4-18.2 15.7-25.5 13.9-5 34.4-9.4 46.6-10.2" /><path class="st0" d="M1208.3 1330.5c-6.7.4-8.4-8.4-8.4-8.4s1.2 11.8-12 16.2c-15.1 4.9-19.8-5.6-19.8-5.6s5.4 13.2-3.6 14.5c-7.1 1-7-12.9-7-12.9s-5.1 14.4-34.3 12.8c-13.8-.7-20-14.4-20-14.4s2.7 13.1-4.4 12.7-8.4-14.8-8.4-14.8-.4 7.8-7.9 5.9M1119 121.4s-1.6-47.4-41.2-43.5c-39.6 4-41.1 42.9-41.1 49.3s1.8 10.4 9.4 11.6 56.4-6.1 64.9-7.7c8.5-1.4 8-9.7 8-9.7" /><path class="st0" d="M1039.6 136.2S983.4 95.1 972.7 84c-1.5-1.9-2-4.5-2-7.7 0-6.2 1.5-43.4 39.7-47.7 4.5-.5 13.1-.8 21.3 4.6 0 0 40.9 25.4 69.8 50.3" /><path class="st0" d="M1104.6 131.9s2.9-5.8.1-17.6-8.7-22.2-15.4-25.2-24.1-.4-31.4 11.2-7.2 21.8-4.3 25.4c3.7 4.6 34.8.6 37.5-2.4 4-4.5-3-18.1-6.4-20.9s-14.9-1.7-17.7 7.6 9.2 7.6 14 6.8m-53.6-7.7c-2.3-1.9-9.3-6.5-10.7-8m-6.8-5.3s-26.6-20-31.3-24.2m56.2 7.3c7.2-7.3 22-12.4 31.3-12 8 .4 1.8-9.1-19.8-1.6-22 7.6-17.8 20-11.5 13.6m-17.7-12.2c7.2-7.3 22-12.4 31.3-12 8 .4 1.8-9.1-19.8-1.6-22 7.6-17.8 20-11.5 13.6m-18.7-11.8c7.2-7.3 22-12.4 31.3-12 8 .4 1.8-9.1-19.8-1.6-22 7.6-17.8 20-11.5 13.6M256.5 97.7s5.4-1.2 13.4-12.5c6.3-8.9 4.6-26.1-6.2-31.2-.1-48.8-76-36.8-77.5-7.5-10.5 1.3-15.6 11.3-14.6 20.8.9 9.5 7.1 18.7 7.1 18.7" /><path class="st0" d="M257.9 81s-6.4 16.7-28.7 9.9c-13.3 5-38.2 3.1-46.1-17.2" /><path class="st0" d="M256.5 97.7s-11.5 31.1-14.7 37.6c-3 6-10.4 7.3-17.5 7.8-11.1.7-20.4-.6-30.8-5.2s-12-8.9-13-13.4c-.8-3.4-2.1-34.2-1.8-38.5m65.7 17.9-13.7 38.4M188.2 95l-1.1 39.1m40-26.6-8.1 35.8M204.3 104l-3.1 35.8m59-75.7c0 2.8-5.2 7-8.1 8-3.2 1.1-6-3.8-6.5-7.6s1.1-5.4 4-5.4c3.1 0 10.6.6 10.6 5m-46.9 13.8c-2.2-1.8-2.2-8.5-1.1-11.3 1.2-3.1 6.8-2.3 10-.2s3.5 4.3 1.6 6.5c-2 2.4-7.2 7.7-10.5 5m-16.5-29.8c2.6 1.1 4.6 7.5 4.4 10.5-.2 3.4-5.8 4.2-9.5 3.2s-4.6-3.1-3.5-5.8c1.2-2.9 4.6-9.6 8.6-7.9m30.7-18.6c2.6.9 5 7 5 9.9 0 3.3-5.4 4.4-9.1 3.8-3.7-.7-4.7-2.7-3.8-5.4 1-2.8 3.8-9.6 7.9-8.3M479 2292.1c-1 5.8 0 18.3 37.9 22.7 37.4 4.4 40.4-8.4 40.9-13.1.7-5.7-8.3-42.3-37.3-45.7-17.8-2-38.7 19.4-41.5 36.1" /><path class="st0" d="M507.8 2258.4s-12.8 5.7-7.8 15.8 28 11 36.4 7.1c5.6-2.6 5.3-14.6-7.8-17.4s-17 2.3-17.3 4.8 7.1 6.1 15.6 5.3m-418-1759.7c.8 4.7 0 14.8-30.7 18.4-30.4 3.6-32.8-6.8-33.2-10.6-.5-4.7 6.8-34.4 30.3-37.1 14.3-1.6 31.3 15.8 33.6 29.3" /><path class="st0" d="M85.5 487s10.4 4.6 6.4 12.8-22.7 8.9-29.6 5.7c-4.5-2.1-4.3-11.9 6.4-14.1s13.8 1.9 14.1 3.9c.2 2-5.8 4.9-12.6 4.3m517.2 609.6c-6.7-5.8-23.9-7.8-37.7 9.1s-7.7 32.2 1.4 39.7 26.3 5.8 36.2-9.2c9.7-14.9 11.6-29.7.1-39.6" /><path class="st0" d="M582 1106.4c-2.5.9-9 3.9-14.5 10.1-6.8 7.8 4.2 15.4 4.2 15.4s4.1 8.1-2.2 13.7-20.5 5.1-24.7 5" /><path class="st0" d="M594.9 1122.5c-3.7-1.6-9.1-3.2-14.8-2.8-10.4.8-8.4 12.3-8.4 12.3s-1.4 8.8-9.8 8.4c-6.6-.3-14.2-6.8-18.5-11" /><path class="st0" d="M592.2 1139.2c-1.4-2.1-3.2-4.3-5.4-6.1-8-6.6-13.9-2.2-13.9-2.2s-7.1 5.4-12.9-.7c-3.6-3.8-5-10.9-5.5-16.6" /><path class="st0" d="M571.7 1132s8 3 9.4 8.2c1.3 4.8-3.3 13.2-7.2 19.8M766 2316.5c6.8-5.6 11.8-22.2-2.5-38.7s-30.4-13.1-39.4-5.5-10.3 24.9 2.8 37.2c13.2 12.2 27.4 16.7 39.1 7" /><path class="st0" d="M769.7 2311.7c-.5-2.6-2.3-9.6-7.5-16-6.5-8.1-15.9 1.5-15.9 1.5s-8.7 2.7-13.1-4.5-1.5-21.1-.7-25.2" /><path class="st0" d="M751.7 2321.6c2.2-3.4 4.7-8.4 5.2-14.1 1-10.4-10.7-10.4-10.7-10.4s-8.4-2.9-6.6-11.1c1.5-6.5 9.1-12.8 14-16.3" /><path class="st0" d="M735.7 2316.1c2.4-1 4.8-2.4 6.9-4.3 7.9-6.8 4.5-13.3 4.5-13.3s-4.1-7.9 2.9-12.6c4.4-2.9 11.6-3 17.3-2.5" /><path class="st0" d="M746.3 2297.1s-4.4 7.4-9.7 7.8c-5 .4-12.5-5.5-18.3-10.5m337.8 31.2c-9.6 4.3-21.6 8.3-35.2 11.5-19.3 4.6-37 6.2-49.8 5.3m109.7-35.6c-1.9 4.6-7 9.3-14.7 13.8m-116.4 8.7c1.4-12.9 28.3-25.1 58.8-32.7 38.4-9.6 62.7-8.1 70.4-.1m-115 45.1c-4.7-.8-8.4-2.1-10.7-3.9" /><path class="st0" d="M996.9 2312.1c4.2-2 9.6-3.8 15.2-5.3 18.4-4.6 28.8-3 29.7 1.9.9 5-9.3 11-24.6 14.6-14.5 3.4-26.7 2.8-28.5-.8-1.2-2.3-.1-4.6 2.4-6.8" /><path class="st0" d="M1078.9 2296.5c13.5 18.1 25.9 42.6 30.2 57.5 4.9 16.8-27.7 36.9-74 48.1-44 10.7-83.6 8.5-87-4.9-4.2-16.4-3.1-49.7 1.6-67.6" /><path class="st0" d="M945.6 2361.6s-.7 9.3 3.7 10.8c4.4 1.4 7.2-8.5 7.2-8.5s-1.9 16.7 9.3 20.9c11.2 4.1 15.5-14.4 15.5-14.4s-2.3 28.5 5.5 28.7c7.8.3 2.2-28.6 2.2-28.6s4.8 11.4 25.1 6.7c12.9-3 12.7-13 12.7-13s1.4 9.9 8.7 9.7 5.6-12.9 5.6-12.9 19 16.8 41.5 7.4c16.8-7 10.2-34.5 10.2-34.5s4.3 8.3 12.3 8.8M73.3 1095.3c-3.5-.2-9.5 2.4-10 9.3-.5 6.8 5.1 9.6 9.7 9.8s9.8-3.4 9.5-9-3.2-9.7-9.2-10.1m-41.7 18.9c-3.5-.2-9.5 2.4-10 9.3s5.1 9.6 9.7 9.8 9.8-3.4 9.5-9-3.1-9.7-9.2-10.1m155.3-59.2c-3.5-.2-9.5 2.4-10 9.3-.5 6.8 5.1 9.6 9.7 9.8s9.8-3.4 9.5-9-3.2-9.7-9.2-10.1m358 261.6c-3.5-.2-9.5 2.4-10 9.3-.5 6.8 5.1 9.6 9.7 9.8s9.8-3.4 9.5-9-3.1-9.7-9.2-10.1m-36.8 37.1c-2.1-.1-5.8 1.5-6.1 5.6s3.1 5.8 5.9 6 6-2.1 5.8-5.5c-.2-3.3-1.9-5.9-5.6-6.1m201.3 192.7c-3.5-.2-9.5 2.4-10 9.3-.5 6.8 5.1 9.6 9.7 9.8s9.8-3.4 9.5-9-3.2-9.8-9.2-10.1m236.8-407.6c-3.5-.2-9.5 2.4-10 9.3-.5 6.8 5.1 9.6 9.7 9.8 4.7.2 9.8-3.4 9.5-9s-3.2-9.7-9.2-10.1m165.8 81.3c-3.5-.2-9.5 2.4-10 9.3-.5 6.8 5.1 9.6 9.7 9.8 4.7.2 9.8-3.4 9.5-9-.4-5.6-3.2-9.7-9.2-10.1m-276.7-79.4c-3.5-.2-9.5 2.4-10 9.3-.5 6.8 5.1 9.6 9.7 9.8 4.7.2 9.8-3.4 9.5-9-.4-5.6-3.2-9.8-9.2-10.1m4.5-471.5c-3.5-.2-9.5 2.4-10 9.3s5.1 9.6 9.7 9.8 9.8-3.4 9.5-9-3.2-9.7-9.2-10.1m283.4-75.4c-3.5-.2-9.5 2.4-10 9.3-.5 6.8 5.1 9.6 9.7 9.8s9.8-3.4 9.5-9-3.2-9.7-9.2-10.1m-300 194.8c-3.5-.2-9.5 2.4-10 9.3s5.1 9.6 9.7 9.8 9.8-3.4 9.5-9c-.4-5.6-3.2-9.7-9.2-10.1m171.5-17.5c-3.5-.2-9.5 2.4-10 9.3s5.1 9.6 9.7 9.8c4.7.2 9.8-3.4 9.5-9s-3.1-9.7-9.2-10.1M812.6 373.7c-3.5-.2-9.5 2.4-10 9.3-.5 6.8 5.1 9.6 9.7 9.8 4.7.2 9.8-3.4 9.5-9-.4-5.6-3.2-9.7-9.2-10.1m28.3 41.1c-3.5-.2-9.5 2.4-10 9.3-.5 6.8 5.1 9.6 9.7 9.8s9.8-3.4 9.5-9-3.2-9.7-9.2-10.1M742.3 467c-1.9-.1-5.1 1.3-5.3 4.9-.3 3.6 2.7 5.1 5.2 5.2s5.2-1.8 5-4.8-1.7-5.1-4.9-5.3m-34.8-306.4c-1.9-.1-5.1 1.3-5.3 4.9-.3 3.6 2.7 5.1 5.2 5.2s5.2-1.8 5-4.8c-.2-2.9-1.7-5.1-4.9-5.3m-171.8 83.7c-3.5-.2-9.5 2.4-10 9.3-.5 6.8 5.1 9.6 9.7 9.8 4.7.2 9.8-3.4 9.5-9s-3.2-9.8-9.2-10.1m-227.2-68.7c-3.5-.2-9.5 2.4-10 9.3s5.1 9.6 9.7 9.8c4.7.2 9.8-3.4 9.5-9s-3.2-9.7-9.2-10.1m19 36c-3.5-.2-9.5 2.4-10 9.3s5.1 9.6 9.7 9.8c4.7.2 9.8-3.4 9.5-9-.4-5.6-3.2-9.7-9.2-10.1m-5.3 200.6c-3.5-.2-9.5 2.4-10 9.3-.5 6.8 5.1 9.6 9.7 9.8 4.7.2 9.8-3.4 9.5-9s-3.2-9.8-9.2-10.1M32.8 447.4c-3.5-.2-9.5 2.4-10 9.3-.5 6.8 5.1 9.6 9.7 9.8s9.8-3.4 9.5-9c-.4-5.6-3.2-9.7-9.2-10.1m378-19.3c-3.5-.2-9.5 2.4-10 9.3-.5 6.8 5.1 9.6 9.7 9.8 4.7.2 9.8-3.4 9.5-9s-3.1-9.7-9.2-10.1M490.6 542c-3.5-.2-9.5 2.4-10 9.3s5.1 9.6 9.7 9.8c4.7.2 9.8-3.4 9.5-9-.3-5.7-3.2-9.8-9.2-10.1M61.3 86.3c-3.5-.2-9.5 2.4-10 9.3s5.1 9.6 9.7 9.8 9.8-3.4 9.5-9-3.2-9.8-9.2-10.1M647.2 6.8c-3.5-.2-9.5 2.4-10 9.3s5.1 9.6 9.7 9.8 9.8-3.4 9.5-9-3.2-9.7-9.2-10.1m436.7.6c-1.8-.1-4.8 1.2-5 4.6s2.5 4.8 4.9 4.9 4.9-1.7 4.7-4.5-1.6-4.8-4.6-5m-677 101.4c-3.5-.2-9.5 2.4-10 9.3-.5 6.8 5.1 9.6 9.7 9.8 4.7.2 9.8-3.4 9.5-9-.4-5.6-3.2-9.7-9.2-10.1M14 202c-3.5-.2-9.5 2.4-10 9.3-.5 6.8 5.1 9.6 9.7 9.8s9.8-3.4 9.5-9c-.4-5.6-3.2-9.7-9.2-10.1m138.4 100.2c-3.5-.2-9.5 2.4-10 9.3-.5 6.8 5.1 9.6 9.7 9.8s9.8-3.4 9.5-9c-.4-5.6-3.2-9.7-9.2-10.1M932.9 84.6c-3.5-.2-9.5 2.4-10 9.3s5.1 9.6 9.7 9.8c4.7.2 9.8-3.4 9.5-9s-3.2-9.7-9.2-10.1m154.5 881.5c-3.5-.2-9.5 2.4-10 9.3s5.1 9.6 9.7 9.8 9.8-3.4 9.5-9-3.2-9.7-9.2-10.1m-617.5-23.4c-3.5-.2-9.5 2.4-10 9.3s5.1 9.6 9.7 9.8c4.7.2 9.8-3.4 9.5-9-.4-5.6-3.2-9.7-9.2-10.1m147.9 133.1c-3.5-.2-9.5 2.4-10 9.3-.5 6.8 5.1 9.6 9.7 9.8 4.7.2 9.8-3.4 9.5-9s-3.1-9.7-9.2-10.1m38.9-466.5c-3.5-.2-9.5 2.4-10 9.3-.5 6.8 5.1 9.6 9.7 9.8 4.7.2 9.8-3.4 9.5-9s-3.2-9.7-9.2-10.1m59.3 969.5c-3.5-.2-9.5 2.4-10 9.3-.5 6.8 5.1 9.6 9.7 9.8 4.7.2 9.8-3.4 9.5-9-.4-5.6-3.2-9.8-9.2-10.1m201-241.5c-3.5-.2-9.5 2.4-10 9.3-.5 6.8 5.1 9.6 9.7 9.8s9.8-3.4 9.5-9c-.4-5.6-3.2-9.8-9.2-10.1m-793.6 94.9c-3.5-.2-9.5 2.4-10 9.3-.5 6.8 5.1 9.6 9.7 9.8 4.7.2 9.8-3.4 9.5-9-.4-5.6-3.2-9.7-9.2-10.1m-28.8-32.1c-3.5-.2-9.5 2.4-10 9.3-.5 6.8 5.1 9.6 9.7 9.8s9.8-3.4 9.5-9c-.4-5.6-3.2-9.8-9.2-10.1m-50.3 54.4c-3.5-.2-9.5 2.4-10 9.3s5.1 9.6 9.7 9.8 9.8-3.4 9.5-9-3.2-9.7-9.2-10.1M190 2168.7c-3.5-.2-9.5 2.4-10 9.3-.5 6.8 5.1 9.6 9.7 9.8 4.7.2 9.8-3.4 9.5-9-.4-5.6-3.2-9.7-9.2-10.1m293.6 24.8c-3.5-.2-9.5 2.4-10 9.3s5.1 9.6 9.7 9.8c4.7.3 9.8-3.4 9.5-9-.4-5.6-3.2-9.7-9.2-10.1m-274-224.9c-3.5-.2-9.5 2.4-10 9.3-.5 6.8 5.1 9.6 9.7 9.8 4.7.2 9.8-3.4 9.5-9s-3.1-9.7-9.2-10.1m360.3 373.2c-3.5-.2-9.5 2.4-10 9.3-.5 6.8 5.1 9.6 9.7 9.8 4.7.2 9.8-3.4 9.5-9s-3.2-9.8-9.2-10.1m-64.1-254.3c-3.5-.2-9.5 2.4-10 9.3-.5 6.8 5.1 9.6 9.7 9.8 4.7.3 9.8-3.4 9.5-9-.4-5.6-3.2-9.7-9.2-10.1M128.1 2413c-3.5-.2-9.5 2.4-10 9.3-.5 6.8 5.1 9.6 9.7 9.8 4.7.3 9.8-3.4 9.5-9-.4-5.6-3.2-9.8-9.2-10.1m393.1-240.3c-3.5-.2-9.5 2.4-10 9.3s5.1 9.6 9.7 9.8c4.7.3 9.8-3.4 9.5-9s-3.1-9.8-9.2-10.1m355.4-314.5c-3.5-.2-9.5 2.4-10 9.3-.5 6.8 5.1 9.6 9.7 9.8 4.7.2 9.8-3.4 9.5-9s-3.2-9.7-9.2-10.1M821 2199.9c-3.5-.2-9.5 2.4-10 9.3-.5 6.8 5.1 9.6 9.7 9.8 4.7.2 9.8-3.4 9.5-9s-3.2-9.7-9.2-10.1m-32.9 26.8c-3.5-.2-9.5 2.4-10 9.3-.5 6.8 5.1 9.6 9.7 9.8 4.7.2 9.8-3.4 9.5-9s-3.2-9.7-9.2-10.1m285.8-60.9c-3.5-.2-9.5 2.4-10 9.3s5.1 9.6 9.7 9.8c4.7.3 9.8-3.4 9.5-9s-3.1-9.7-9.2-10.1m15.1 80.6c-3.5-.2-9.5 2.4-10 9.3-.5 6.8 5.1 9.6 9.7 9.8 4.7.2 9.8-3.4 9.5-9s-3.2-9.8-9.2-10.1m-61.9-272.3c-3.5-.2-9.5 2.4-10 9.3-.5 6.8 5.1 9.6 9.7 9.8s9.8-3.4 9.5-9-3.2-9.7-9.2-10.1m-303.2-130.7c-3.5-.2-9.5 2.4-10 9.3-.5 6.8 5.1 9.6 9.7 9.8 4.7.2 9.8-3.4 9.5-9-.4-5.6-3.2-9.7-9.2-10.1m-283.7-115c-3.5-.2-9.5 2.4-10 9.3-.5 6.8 5.1 9.6 9.7 9.8 4.7.2 9.8-3.4 9.5-9s-3.2-9.8-9.2-10.1m35.7-6.3c-3.5-.2-9.5 2.4-10 9.3s5.1 9.6 9.7 9.8 9.8-3.4 9.5-9-3.2-9.7-9.2-10.1m-141.1-255.5c-3.5-.2-9.5 2.4-10 9.3-.5 6.8 5.1 9.6 9.7 9.8 4.7.2 9.8-3.4 9.5-9s-3.2-9.7-9.2-10.1m-194.4 193.9c-3.5-.2-9.5 2.4-10 9.3s5.1 9.6 9.7 9.8c4.7.2 9.8-3.4 9.5-9s-3.1-9.8-9.2-10.1m105.1-405c-3.5-.2-9.5 2.4-10 9.3-.5 6.8 5.1 9.6 9.7 9.8s9.8-3.4 9.5-9-3.1-9.7-9.2-10.1m15.6 39.3c-2.2-.1-6.1 1.6-6.4 5.9-.3 4.4 3.2 6.1 6.2 6.3s6.3-2.2 6.1-5.7-2.1-6.3-5.9-6.5m239-500.6c-2.2-.1-6.1 1.6-6.4 5.9-.3 4.4 3.2 6.1 6.2 6.3s6.3-2.2 6.1-5.7-2-6.2-5.9-6.5m398.2 299.6c-2.2-.1-6.1 1.6-6.4 5.9-.3 4.4 3.2 6.1 6.2 6.3s6.3-2.2 6.1-5.7c-.2-3.6-2.1-6.3-5.9-6.5M785.3 972c-2.2-.1-6.1 1.6-6.4 5.9-.3 4.4 3.2 6.1 6.2 6.3s6.3-2.2 6.1-5.7c-.3-3.6-2.1-6.3-5.9-6.5m178.4-173.2c-2.2-.1-6.1 1.6-6.4 5.9s3.2 6.1 6.2 6.3 6.3-2.2 6.1-5.7c-.3-3.6-2.1-6.3-5.9-6.5M354.5 638.9c-2.2-.1-6.1 1.6-6.4 5.9-.3 4.4 3.2 6.1 6.2 6.3s6.3-2.2 6.1-5.7c-.2-3.7-2-6.3-5.9-6.5m30.6-18.9c-2.2-.1-6.1 1.6-6.4 5.9-.3 4.4 3.2 6.1 6.2 6.3s6.3-2.2 6.1-5.7c-.2-3.7-2-6.3-5.9-6.5M262.7 808c-2.2-.1-6.1 1.6-6.4 5.9-.3 4.4 3.2 6.1 6.2 6.3s6.3-2.2 6.1-5.7c-.3-3.6-2.1-6.3-5.9-6.5m-147.4 25.7c-2.2-.1-6.1 1.6-6.4 5.9-.3 4.4 3.2 6.1 6.2 6.3s6.3-2.2 6.1-5.7c-.3-3.6-2.1-6.2-5.9-6.5M27.1 629.9c-2.2-.1-6.1 1.6-6.4 5.9s3.2 6.1 6.2 6.3 6.3-2.2 6.1-5.7c-.3-3.6-2.1-6.2-5.9-6.5M278 323.5c-2.2-.1-6.1 1.6-6.4 5.9-.3 4.4 3.2 6.1 6.2 6.3s6.3-2.2 6.1-5.7c-.3-3.6-2.1-6.2-5.9-6.5M314.9 471c-2.2-.1-6.1 1.6-6.4 5.9-.3 4.4 3.2 6.1 6.2 6.3s6.3-2.2 6.1-5.7c-.2-3.7-2-6.3-5.9-6.5m577.8-238.7c-2.2-.1-6.1 1.6-6.4 5.9-.3 4.4 3.2 6.1 6.2 6.3s6.3-2.2 6.1-5.7c-.3-3.6-2.1-6.2-5.9-6.5m97.5 113.4c-2.2-.1-6.1 1.6-6.4 5.9s3.2 6.1 6.2 6.3 6.3-2.2 6.1-5.7c-.2-3.6-2-6.3-5.9-6.5m-382-306.8c-2.2-.1-6.1 1.6-6.4 5.9-.3 4.4 3.2 6.1 6.2 6.3s6.3-2.2 6.1-5.7c-.3-3.6-2.1-6.3-5.9-6.5m-159.5 86.9c-2.2-.1-6.1 1.6-6.4 5.9-.3 4.4 3.2 6.1 6.2 6.3s6.3-2.2 6.1-5.7-2-6.3-5.9-6.5M577.2 437c-2.2-.1-6.1 1.6-6.4 5.9s3.2 6.1 6.2 6.3 6.3-2.2 6.1-5.7c-.3-3.6-2.1-6.3-5.9-6.5m492 34c-2.2-.1-6.1 1.6-6.4 5.9-.3 4.4 3.2 6.1 6.2 6.3s6.3-2.2 6.1-5.7c-.2-3.7-2-6.3-5.9-6.5m-6.1-311.9c-2.2-.1-6.1 1.6-6.4 5.9-.3 4.4 3.2 6.1 6.2 6.3s6.3-2.2 6.1-5.7c-.3-3.6-2.1-6.2-5.9-6.5m43.1 111.6c-2.2-.1-6.1 1.6-6.4 5.9s3.2 6.1 6.2 6.3 6.3-2.2 6.1-5.7c-.3-3.6-2.1-6.3-5.9-6.5M500.1 1293.9c-2.2-.1-6.1 1.6-6.4 5.9-.3 4.4 3.2 6.1 6.2 6.3s6.3-2.2 6.1-5.7-2-6.2-5.9-6.5m191.7 40.3c-2.2-.1-6.1 1.6-6.4 5.9-.3 4.4 3.2 6.1 6.2 6.3s6.3-2.2 6.1-5.7c-.2-3.7-2-6.3-5.9-6.5M444.5 1492c-2.2-.1-6.1 1.6-6.4 5.9-.3 4.4 3.2 6.1 6.2 6.3s6.3-2.2 6.1-5.7-2.1-6.3-5.9-6.5m-256.4 63.4c-2.2-.1-6.1 1.6-6.4 5.9-.3 4.4 3.2 6.1 6.2 6.3s6.3-2.2 6.1-5.7-2-6.2-5.9-6.5M58.5 1766.1c-2.2-.1-6.1 1.6-6.4 5.9-.3 4.4 3.2 6.1 6.2 6.3s6.3-2.2 6.1-5.7c-.3-3.6-2.1-6.2-5.9-6.5m88.6 161.3c-2.2-.1-6.1 1.6-6.4 5.9-.3 4.4 3.2 6.1 6.2 6.3s6.3-2.2 6.1-5.7-2.1-6.2-5.9-6.5m291.2-6.1c-2.2-.1-6.1 1.6-6.4 5.9-.3 4.4 3.2 6.1 6.2 6.3s6.3-2.2 6.1-5.7-2-6.3-5.9-6.5m167.2 53.1c-2.2-.1-6.1 1.6-6.4 5.9-.3 4.4 3.2 6.1 6.2 6.3s6.3-2.2 6.1-5.7c-.2-3.6-2-6.2-5.9-6.5m13.1-192.8c-2.2-.1-6.1 1.6-6.4 5.9-.3 4.4 3.2 6.1 6.2 6.3s6.3-2.2 6.1-5.7c-.3-3.6-2.1-6.2-5.9-6.5m113-79c-2.2-.1-6.1 1.6-6.4 5.9-.3 4.4 3.2 6.1 6.2 6.3s6.3-2.2 6.1-5.7c-.3-3.6-2.1-6.3-5.9-6.5m57.7-131.9c-2.2-.1-6.1 1.6-6.4 5.9-.3 4.4 3.2 6.1 6.2 6.3s6.3-2.2 6.1-5.7c-.3-3.6-2.1-6.3-5.9-6.5m84.4 360.1c-2.2-.1-6.1 1.6-6.4 5.9-.3 4.4 3.2 6.1 6.2 6.3s6.3-2.2 6.1-5.7c-.2-3.7-2.1-6.3-5.9-6.5m215.1-192.2c-2.2-.1-6.1 1.6-6.4 5.9-.3 4.4 3.2 6.1 6.2 6.3s6.3-2.2 6.1-5.7c-.2-3.6-2.1-6.3-5.9-6.5m-322.2 321.9c-2.2-.1-6.1 1.6-6.4 5.9s3.2 6.1 6.2 6.3 6.3-2.2 6.1-5.7-2-6.3-5.9-6.5m-213.7 28.1c-2.2-.1-6.1 1.6-6.4 5.9-.3 4.4 3.2 6.1 6.2 6.3s6.3-2.2 6.1-5.7c-.2-3.6-2-6.2-5.9-6.5m-244.5 67.1c-2.2-.1-6.1 1.6-6.4 5.9-.3 4.4 3.2 6.1 6.2 6.3s6.3-2.2 6.1-5.7c-.3-3.6-2.1-6.2-5.9-6.5m-262.8-21.5c-2.2-.1-6.1 1.6-6.4 5.9-.3 4.4 3.2 6.1 6.2 6.3s6.3-2.2 6.1-5.7c-.2-3.6-2-6.2-5.9-6.5m116.5 197.4c-2.2-.1-6.1 1.6-6.4 5.9-.3 4.4 3.2 6.1 6.2 6.3s6.3-2.2 6.1-5.7-2.1-6.3-5.9-6.5m28.5 6.1c-2.2-.1-6.1 1.6-6.4 5.9s3.2 6.1 6.2 6.3 6.3-2.2 6.1-5.7c-.3-3.6-2.1-6.3-5.9-6.5m205.3 67.8c-2.2-.1-6.1 1.6-6.4 5.9-.3 4.4 3.2 6.1 6.2 6.3s6.3-2.2 6.1-5.7-2.1-6.3-5.9-6.5m250.8-145c-2.2-.1-6.1 1.6-6.4 5.9s3.2 6.1 6.2 6.3 6.3-2.2 6.1-5.7-2-6.3-5.9-6.5m28.6 12.1c-2.2-.1-6.1 1.6-6.4 5.9s3.2 6.1 6.2 6.3 6.3-2.2 6.1-5.7c-.2-3.6-2-6.3-5.9-6.5m371.2-22c-2.2-.1-6.1 1.6-6.4 5.9-.3 4.4 3.2 6.1 6.2 6.3s6.3-2.2 6.1-5.7c-.2-3.7-2-6.3-5.9-6.5m-187.8-22.2c-2.2-.1-6.1 1.6-6.4 5.9s3.2 6.1 6.2 6.3 6.3-2.2 6.1-5.7c-.3-3.7-2.1-6.3-5.9-6.5m-374.1-635.6c-2.2-.1-6.1 1.6-6.4 5.9-.3 4.4 3.2 6.1 6.2 6.3s6.3-2.2 6.1-5.7c-.3-3.6-2.1-6.2-5.9-6.5m431-75.2c-2.2-.1-6.1 1.6-6.4 5.9-.3 4.4 3.2 6.1 6.2 6.3s6.3-2.2 6.1-5.7c-.2-3.6-2-6.2-5.9-6.5m189.5-118.1c-2.2-.1-6.1 1.6-6.4 5.9-.3 4.4 3.2 6.1 6.2 6.3s6.3-2.2 6.1-5.7-2.1-6.3-5.9-6.5M546.3 345.7c-2.2-.1-6.1 1.6-6.4 5.9s3.2 6.1 6.2 6.3 6.3-2.2 6.1-5.7c-.3-3.6-2.1-6.3-5.9-6.5M774.2 666c-2.2-.1-6.1 1.6-6.4 5.9s3.2 6.1 6.2 6.3 6.3-2.2 6.1-5.7c-.2-3.7-2.1-6.3-5.9-6.5M480.9 770.2c-2.2-.1-6.1 1.6-6.4 5.9s3.2 6.1 6.2 6.3 6.3-2.2 6.1-5.7c-.3-3.7-2.1-6.3-5.9-6.5M41.1 1169.7c-2.2-.1-6.1 1.6-6.4 5.9-.3 4.4 3.2 6.1 6.2 6.3s6.3-2.2 6.1-5.7c-.2-3.7-2-6.3-5.9-6.5m170 118.3c-2.2-.1-6.1 1.6-6.4 5.9-.3 4.4 3.2 6.1 6.2 6.3s6.3-2.2 6.1-5.7-2-6.3-5.9-6.5m466 392.7c-3.5-.2-9.5 2.4-10 9.3-.5 6.8 5.1 9.6 9.7 9.8s9.8-3.4 9.5-9-3.2-9.7-9.2-10.1m-209.2 198.5c-3.5-.2-9.5 2.4-10 9.3-.5 6.8 5.1 9.6 9.7 9.8s9.8-3.4 9.5-9-3.2-9.7-9.2-10.1m9.3-380.1c-3.5-.2-9.5 2.4-10 9.3-.5 6.8 5.1 9.6 9.7 9.8 4.7.2 9.8-3.4 9.5-9-.4-5.6-3.2-9.7-9.2-10.1M301.8 787.2c-3.5-.2-9.5 2.4-10 9.3s5.1 9.6 9.7 9.8c4.7.2 9.8-3.4 9.5-9-.4-5.6-3.2-9.7-9.2-10.1M1018 300.4c-3.5-.2-9.5 2.4-10 9.3-.5 6.8 5.1 9.6 9.7 9.8 4.7.2 9.8-3.4 9.5-9s-3.2-9.7-9.2-10.1M249.8 766.7c-3.5-.2-9.5 2.4-10 9.3s5.1 9.6 9.7 9.8 9.8-3.4 9.5-9-3.2-9.7-9.2-10.1m422 130.8c-3.5-.2-9.5 2.4-10 9.3s5.1 9.6 9.7 9.8c4.7.2 9.8-3.4 9.5-9s-3.2-9.7-9.2-10.1m235.4 852.2c-3.5-.2-9.5 2.4-10 9.3-.5 6.8 5.1 9.6 9.7 9.8s9.8-3.4 9.5-9-3.1-9.7-9.2-10.1M76.4 2093.5c-3.5-.2-9.5 2.4-10 9.3-.5 6.8 5.1 9.6 9.7 9.8 4.7.2 9.8-3.4 9.5-9s-3.2-9.8-9.2-10.1M44.3 807.1c-3.5-.2-9.5 2.4-10 9.3s5.1 9.6 9.7 9.8 9.8-3.4 9.5-9-3.2-9.8-9.2-10.1M534.8 761c-3.5-.2-9.5 2.4-10 9.3-.5 6.8 5.1 9.6 9.7 9.8s9.8-3.4 9.5-9-3.2-9.7-9.2-10.1m570.1 49.8c-3.5-.2-9.5 2.4-10 9.3s5.1 9.6 9.7 9.8 9.8-3.4 9.5-9-3.2-9.7-9.2-10.1M823.2 448.5c-3.5-.2-9.5 2.4-10 9.3-.5 6.8 5.1 9.6 9.7 9.8s9.8-3.4 9.5-9c-.4-5.6-3.2-9.8-9.2-10.1M42.4 177.2c-3.5-.2-9.5 2.4-10 9.3-.5 6.8 5.1 9.6 9.7 9.8s9.8-3.4 9.5-9-3.2-9.7-9.2-10.1m299.5 787.1c-3.5-.2-9.5 2.4-10 9.3-.5 6.8 5.1 9.6 9.7 9.8 4.7.2 9.8-3.4 9.5-9s-3.2-9.7-9.2-10.1m-14.4 649.1c-3.5-.2-9.5 2.4-10 9.3-.5 6.8 5.1 9.6 9.7 9.8 4.7.2 9.8-3.4 9.5-9-.4-5.6-3.2-9.7-9.2-10.1m550.3 434.7c-3.5-.2-9.5 2.4-10 9.3-.5 6.8 5.1 9.6 9.7 9.8 4.7.2 9.8-3.4 9.5-9s-3.2-9.8-9.2-10.1M-1.8 593.8c-3.5-.2-9.5 2.4-10 9.3-.5 6.8 5.1 9.6 9.7 9.8s9.8-3.4 9.5-9-3.2-9.7-9.2-10.1" /></g><path class="st0" d="M359.5 176.8c0 12.1-7.3 22-16.3 22 9 0 16.3 9.9 16.3 22 0-12.1 7.3-22 16.3-22-8.9 0-16.3-9.8-16.3-22m344 443.9c0 12.1-7.3 22-16.3 22 9 0 16.3 9.9 16.3 22 0-12.1 7.3-22 16.3-22-8.9 0-16.3-9.8-16.3-22m-280.7 562.7c0 12.1-7.3 22-16.3 22 9 0 16.3 9.9 16.3 22 0-12.1 7.3-22 16.3-22-8.9 0-16.3-9.9-16.3-22m461.2 160c0 12.1-7.3 22-16.3 22 9 0 16.3 9.9 16.3 22 0-12.1 7.3-22 16.3-22-8.9 0-16.3-9.9-16.3-22m-863.1 363c0 12.1-7.3 22-16.3 22 9 0 16.3 9.9 16.3 22 0-12.1 7.3-22 16.3-22-8.9 0-16.3-9.9-16.3-22m658.9 162.1c0 12.1-7.3 22-16.3 22 9 0 16.3 9.9 16.3 22 0-12.1 7.3-22 16.3-22-8.9 0-16.3-9.9-16.3-22M292.7 2202c0 12.1-7.3 22-16.3 22 9 0 16.3 9.9 16.3 22 0-12.1 7.3-22 16.3-22-8.9 0-16.3-9.9-16.3-22m812.1-1775.2c0 12.1-7.3 22-16.3 22 9 0 16.3 9.9 16.3 22 0-12.1 7.3-22 16.3-22-8.9 0-16.3-9.9-16.3-22" id="Layer_4" /><path class="st0" d="M143 142.3c0 5.4-3.8 9.8-8.5 9.8 4.7 0 8.5 4.4 8.5 9.8 0-5.4 3.8-9.8 8.5-9.8-4.7 0-8.5-4.4-8.5-9.8m433.9 164.2c0 5.4-3.8 9.8-8.5 9.8 4.7 0 8.5 4.4 8.5 9.8 0-5.4 3.8-9.8 8.5-9.8-4.7 0-8.5-4.4-8.5-9.8m300.3-199c0 5.4-3.8 9.8-8.5 9.8 4.7 0 8.5 4.4 8.5 9.8 0-5.4 3.8-9.8 8.5-9.8-4.6 0-8.5-4.4-8.5-9.8M391 359.5c0 5.4-3.8 9.8-8.5 9.8 4.7 0 8.5 4.4 8.5 9.8 0-5.4 3.8-9.8 8.5-9.8-4.7-.1-8.5-4.5-8.5-9.8m291.8 214.9c0 5.4-3.8 9.8-8.5 9.8 4.7 0 8.5 4.4 8.5 9.8 0-5.4 3.8-9.8 8.5-9.8-4.7 0-8.5-4.4-8.5-9.8M794 735c0 5.4-3.8 9.8-8.5 9.8 4.7 0 8.5 4.4 8.5 9.8 0-5.4 3.8-9.8 8.5-9.8-4.7 0-8.5-4.4-8.5-9.8m-399 10.2c0 5.4-3.8 9.8-8.5 9.8 4.7 0 8.5 4.4 8.5 9.8 0-5.4 3.8-9.8 8.5-9.8-4.6-.1-8.5-4.5-8.5-9.8M268.5 886.5c0 5.4-3.8 9.8-8.5 9.8 4.7 0 8.5 4.4 8.5 9.8 0-5.4 3.8-9.8 8.5-9.8-4.6 0-8.5-4.4-8.5-9.8m256.2-11.8c0 5.4-3.8 9.8-8.5 9.8 4.7 0 8.5 4.4 8.5 9.8 0-5.4 3.8-9.8 8.5-9.8-4.7 0-8.5-4.4-8.5-9.8m147.6 125.4c0 5.4-3.8 9.8-8.5 9.8 4.7 0 8.5 4.4 8.5 9.8 0-5.4 3.8-9.8 8.5-9.8-4.7-.1-8.5-4.4-8.5-9.8M395 1162.2c0 5.4-3.8 9.8-8.5 9.8 4.7 0 8.5 4.4 8.5 9.8 0-5.4 3.8-9.8 8.5-9.8-4.6 0-8.5-4.4-8.5-9.8m-348 84c0 5.4-3.8 9.8-8.5 9.8 4.7 0 8.5 4.4 8.5 9.8 0-5.4 3.8-9.8 8.5-9.8-4.7 0-8.5-4.4-8.5-9.8m250.9 179.7c0 5.4-3.8 9.8-8.5 9.8 4.7 0 8.5 4.4 8.5 9.8 0-5.4 3.8-9.8 8.5-9.8-4.7-.1-8.5-4.5-8.5-9.8m381.9 42.1c0 5.4-3.8 9.8-8.5 9.8 4.7 0 8.5 4.4 8.5 9.8 0-5.4 3.8-9.8 8.5-9.8-4.7 0-8.5-4.4-8.5-9.8m367.8 137.6c0 5.4-3.8 9.8-8.5 9.8 4.7 0 8.5 4.4 8.5 9.8 0-5.4 3.8-9.8 8.5-9.8-4.7-.1-8.5-4.5-8.5-9.8m-385.8 43.3c0 5.4-3.8 9.8-8.5 9.8 4.7 0 8.5 4.4 8.5 9.8 0-5.4 3.8-9.8 8.5-9.8-4.7 0-8.5-4.4-8.5-9.8m-335.1 333.2c0 5.4-3.8 9.8-8.5 9.8 4.7 0 8.5 4.4 8.5 9.8 0-5.4 3.8-9.8 8.5-9.8-4.7 0-8.5-4.4-8.5-9.8m495.9-95.1c0 5.4-3.8 9.8-8.5 9.8 4.7 0 8.5 4.4 8.5 9.8 0-5.4 3.8-9.8 8.5-9.8-4.6-.1-8.5-4.4-8.5-9.8m101 372c0 5.4-3.8 9.8-8.5 9.8 4.7 0 8.5 4.4 8.5 9.8 0-5.4 3.8-9.8 8.5-9.8-4.7-.1-8.5-4.5-8.5-9.8m-463.5 112.1c0 5.4-3.8 9.8-8.5 9.8 4.7 0 8.5 4.4 8.5 9.8 0-5.4 3.8-9.8 8.5-9.8-4.7 0-8.5-4.4-8.5-9.8m-404.1-83c0 5.4-3.8 9.8-8.5 9.8 4.7 0 8.5 4.4 8.5 9.8 0-5.4 3.8-9.8 8.5-9.8-4.7 0-8.5-4.4-8.5-9.8m819.4-1134c0 5.4-3.8 9.8-8.5 9.8 4.7 0 8.5 4.4 8.5 9.8 0-5.4 3.8-9.8 8.5-9.8-4.7 0-8.5-4.4-8.5-9.8m192.5-230.2c0 5.4-3.8 9.8-8.5 9.8 4.7 0 8.5 4.4 8.5 9.8 0-5.4 3.8-9.8 8.5-9.8-4.7 0-8.5-4.4-8.5-9.8M175.1 528c0 5.4-3.8 9.8-8.5 9.8 4.7 0 8.5 4.4 8.5 9.8 0-5.4 3.8-9.8 8.5-9.8-4.7 0-8.5-4.4-8.5-9.8m797.3 97c0 5.4-3.8 9.8-8.5 9.8 4.7 0 8.5 4.4 8.5 9.8 0-5.4 3.8-9.8 8.5-9.8-4.6-.1-8.5-4.4-8.5-9.8" id="Layer_5" /></svg>
